M48
; DRILL file {KiCad 7.0.6} date Fri Sep 22 02:01:45 2023
; FORMAT={-:-/ absolute / inch / decimal}
; #@! TF.CreationDate,2023-09-22T02:01:45+08:00
; #@! TF.GenerationSoftware,Kicad,Pcbnew,7.0.6
; #@! TF.FileFunction,NonPlated,1,2,NPTH
FMAT,2
INCH
; #@! TA.AperFunction,NonPlated,NPTH,ComponentDrill
T1C0.0256
%
G90
G05
T1
X0.2454Y-0.4072
X0.2454Y-0.6348
X0.2454Y-1.4482
X0.2454Y-1.6758
X0.2454Y-2.4892
X0.2454Y-2.7168
X0.2454Y-3.5302
X0.2454Y-3.7578
X1.4794Y-0.4072
X1.4794Y-0.6348
X1.4794Y-1.4482
X1.4794Y-1.6758
X1.4794Y-2.4892
X1.4794Y-2.7168
X1.4794Y-3.5302
X1.4794Y-3.7578
X2.7134Y-0.4072
X2.7134Y-0.6348
X2.7134Y-1.4482
X2.7134Y-1.6758
X2.7134Y-2.4892
X2.7134Y-2.7168
X2.7134Y-3.5302
X2.7134Y-3.7578
T0
M30
