%TF.GenerationSoftware,KiCad,Pcbnew,7.0.6*%
%TF.CreationDate,2023-09-22T02:01:45+08:00*%
%TF.ProjectId,power_ex_board_muti,706f7765-725f-4657-985f-626f6172645f,rev?*%
%TF.SameCoordinates,Original*%
%TF.FileFunction,Paste,Top*%
%TF.FilePolarity,Positive*%
%FSLAX46Y46*%
G04 Gerber Fmt 4.6, Leading zero omitted, Abs format (unit mm)*
G04 Created by KiCad (PCBNEW 7.0.6) date 2023-09-22 02:01:45*
%MOMM*%
%LPD*%
G01*
G04 APERTURE LIST*
G04 Aperture macros list*
%AMRoundRect*
0 Rectangle with rounded corners*
0 $1 Rounding radius*
0 $2 $3 $4 $5 $6 $7 $8 $9 X,Y pos of 4 corners*
0 Add a 4 corners polygon primitive as box body*
4,1,4,$2,$3,$4,$5,$6,$7,$8,$9,$2,$3,0*
0 Add four circle primitives for the rounded corners*
1,1,$1+$1,$2,$3*
1,1,$1+$1,$4,$5*
1,1,$1+$1,$6,$7*
1,1,$1+$1,$8,$9*
0 Add four rect primitives between the rounded corners*
20,1,$1+$1,$2,$3,$4,$5,0*
20,1,$1+$1,$4,$5,$6,$7,0*
20,1,$1+$1,$6,$7,$8,$9,0*
20,1,$1+$1,$8,$9,$2,$3,0*%
G04 Aperture macros list end*
%ADD10R,1.560000X0.650000*%
%ADD11RoundRect,0.250000X-0.262500X-0.450000X0.262500X-0.450000X0.262500X0.450000X-0.262500X0.450000X0*%
%ADD12RoundRect,0.140000X0.140000X0.170000X-0.140000X0.170000X-0.140000X-0.170000X0.140000X-0.170000X0*%
%ADD13RoundRect,0.140000X-0.140000X-0.170000X0.140000X-0.170000X0.140000X0.170000X-0.140000X0.170000X0*%
%ADD14RoundRect,0.250000X-0.250000X-0.475000X0.250000X-0.475000X0.250000X0.475000X-0.250000X0.475000X0*%
%ADD15R,2.500000X1.500000*%
%ADD16RoundRect,0.135000X0.135000X0.185000X-0.135000X0.185000X-0.135000X-0.185000X0.135000X-0.185000X0*%
%ADD17RoundRect,0.250000X0.250000X0.475000X-0.250000X0.475000X-0.250000X-0.475000X0.250000X-0.475000X0*%
%ADD18RoundRect,0.135000X-0.135000X-0.185000X0.135000X-0.185000X0.135000X0.185000X-0.135000X0.185000X0*%
%ADD19R,1.450000X0.600000*%
%ADD20R,1.450000X0.300000*%
G04 APERTURE END LIST*
D10*
%TO.C,U1*%
X49582000Y-14888600D03*
X49582000Y-13938600D03*
X49582000Y-12988600D03*
X46882000Y-12988600D03*
X46882000Y-14888600D03*
%TD*%
D11*
%TO.C,R1*%
X10315500Y-37245200D03*
X12140500Y-37245200D03*
%TD*%
D12*
%TO.C,C5*%
X19246600Y-35488000D03*
X18286600Y-35488000D03*
%TD*%
D10*
%TO.C,U1*%
X80925600Y-94212800D03*
X80925600Y-93262800D03*
X80925600Y-92312800D03*
X78225600Y-92312800D03*
X78225600Y-94212800D03*
%TD*%
D12*
%TO.C,C4*%
X81411000Y-44073200D03*
X80451000Y-44073200D03*
%TD*%
D13*
%TO.C,C3*%
X75388400Y-15278600D03*
X76348400Y-15278600D03*
%TD*%
D12*
%TO.C,C4*%
X18723800Y-17631800D03*
X17763800Y-17631800D03*
%TD*%
D14*
%TO.C,C1*%
X13910200Y-37245200D03*
X15810200Y-37245200D03*
%TD*%
D12*
%TO.C,C5*%
X50590200Y-88370800D03*
X49630200Y-88370800D03*
%TD*%
D10*
%TO.C,U1*%
X18238400Y-67771400D03*
X18238400Y-66821400D03*
X18238400Y-65871400D03*
X15538400Y-65871400D03*
X15538400Y-67771400D03*
%TD*%
D15*
%TO.C,L1*%
X54152800Y-14528800D03*
X54152800Y-10828800D03*
%TD*%
D16*
%TO.C,R4*%
X47392000Y-16488800D03*
X46372000Y-16488800D03*
%TD*%
D17*
%TO.C,C6*%
X19417000Y-37245200D03*
X17517000Y-37245200D03*
%TD*%
D14*
%TO.C,C1*%
X45253800Y-37245200D03*
X47153800Y-37245200D03*
%TD*%
%TO.C,C1*%
X76597400Y-10803800D03*
X78497400Y-10803800D03*
%TD*%
D17*
%TO.C,C6*%
X19417000Y-10803800D03*
X17517000Y-10803800D03*
%TD*%
D16*
%TO.C,R4*%
X16048400Y-69371600D03*
X15028400Y-69371600D03*
%TD*%
%TO.C,R3*%
X50117400Y-16488800D03*
X49097400Y-16488800D03*
%TD*%
D12*
%TO.C,C5*%
X50590200Y-9046600D03*
X49630200Y-9046600D03*
%TD*%
D18*
%TO.C,R2*%
X44034800Y-66821400D03*
X45054800Y-66821400D03*
%TD*%
D10*
%TO.C,U1*%
X49582000Y-67771400D03*
X49582000Y-66821400D03*
X49582000Y-65871400D03*
X46882000Y-65871400D03*
X46882000Y-67771400D03*
%TD*%
D15*
%TO.C,L1*%
X85496400Y-67411600D03*
X85496400Y-63711600D03*
%TD*%
D13*
%TO.C,C3*%
X44044800Y-15278600D03*
X45004800Y-15278600D03*
%TD*%
%TO.C,C3*%
X12701200Y-41720000D03*
X13661200Y-41720000D03*
%TD*%
D12*
%TO.C,C2*%
X76348400Y-12598600D03*
X75388400Y-12598600D03*
%TD*%
D18*
%TO.C,R2*%
X12691200Y-93262800D03*
X13711200Y-93262800D03*
%TD*%
D14*
%TO.C,C1*%
X45253800Y-90128000D03*
X47153800Y-90128000D03*
%TD*%
D11*
%TO.C,R1*%
X73002700Y-90128000D03*
X74827700Y-90128000D03*
%TD*%
D13*
%TO.C,C3*%
X44044800Y-94602800D03*
X45004800Y-94602800D03*
%TD*%
D10*
%TO.C,U1*%
X80925600Y-14888600D03*
X80925600Y-13938600D03*
X80925600Y-12988600D03*
X78225600Y-12988600D03*
X78225600Y-14888600D03*
%TD*%
%TO.C,U1*%
X18238400Y-14888600D03*
X18238400Y-13938600D03*
X18238400Y-12988600D03*
X15538400Y-12988600D03*
X15538400Y-14888600D03*
%TD*%
D11*
%TO.C,R1*%
X10315500Y-10803800D03*
X12140500Y-10803800D03*
%TD*%
D12*
%TO.C,C5*%
X81933800Y-9046600D03*
X80973800Y-9046600D03*
%TD*%
D16*
%TO.C,R3*%
X50117400Y-69371600D03*
X49097400Y-69371600D03*
%TD*%
D14*
%TO.C,C1*%
X76597400Y-63686600D03*
X78497400Y-63686600D03*
%TD*%
D13*
%TO.C,C3*%
X44044800Y-68161400D03*
X45004800Y-68161400D03*
%TD*%
D19*
%TO.C,J1*%
X7677200Y-89307600D03*
X7677200Y-90107600D03*
D20*
X7677200Y-91307600D03*
X7677200Y-92307600D03*
X7677200Y-92807600D03*
X7677200Y-93807600D03*
D19*
X7677200Y-95007600D03*
X7677200Y-95807600D03*
X7677200Y-95807600D03*
X7677200Y-95007600D03*
D20*
X7677200Y-94307600D03*
X7677200Y-93307600D03*
X7677200Y-91807600D03*
X7677200Y-90807600D03*
D19*
X7677200Y-90107600D03*
X7677200Y-89307600D03*
%TD*%
D16*
%TO.C,R3*%
X18773800Y-16488800D03*
X17753800Y-16488800D03*
%TD*%
D12*
%TO.C,C4*%
X50067400Y-17631800D03*
X49107400Y-17631800D03*
%TD*%
D13*
%TO.C,C3*%
X44044800Y-41720000D03*
X45004800Y-41720000D03*
%TD*%
D11*
%TO.C,R1*%
X73002700Y-10803800D03*
X74827700Y-10803800D03*
%TD*%
D14*
%TO.C,C1*%
X45253800Y-10803800D03*
X47153800Y-10803800D03*
%TD*%
D12*
%TO.C,C4*%
X18723800Y-44073200D03*
X17763800Y-44073200D03*
%TD*%
D15*
%TO.C,L1*%
X85496400Y-14528800D03*
X85496400Y-10828800D03*
%TD*%
D12*
%TO.C,C5*%
X50590200Y-35488000D03*
X49630200Y-35488000D03*
%TD*%
D11*
%TO.C,R1*%
X73002700Y-63686600D03*
X74827700Y-63686600D03*
%TD*%
D12*
%TO.C,C5*%
X81933800Y-35488000D03*
X80973800Y-35488000D03*
%TD*%
%TO.C,C5*%
X19246600Y-88370800D03*
X18286600Y-88370800D03*
%TD*%
D14*
%TO.C,C1*%
X13910200Y-63686600D03*
X15810200Y-63686600D03*
%TD*%
D15*
%TO.C,L1*%
X22809200Y-14528800D03*
X22809200Y-10828800D03*
%TD*%
D16*
%TO.C,R4*%
X16048400Y-16488800D03*
X15028400Y-16488800D03*
%TD*%
D17*
%TO.C,C6*%
X50760600Y-37245200D03*
X48860600Y-37245200D03*
%TD*%
D12*
%TO.C,C2*%
X45004800Y-91922800D03*
X44044800Y-91922800D03*
%TD*%
D19*
%TO.C,J1*%
X39020800Y-9983400D03*
X39020800Y-10783400D03*
D20*
X39020800Y-11983400D03*
X39020800Y-12983400D03*
X39020800Y-13483400D03*
X39020800Y-14483400D03*
D19*
X39020800Y-15683400D03*
X39020800Y-16483400D03*
X39020800Y-16483400D03*
X39020800Y-15683400D03*
D20*
X39020800Y-14983400D03*
X39020800Y-13983400D03*
X39020800Y-12483400D03*
X39020800Y-11483400D03*
D19*
X39020800Y-10783400D03*
X39020800Y-9983400D03*
%TD*%
%TO.C,J1*%
X39020800Y-89307600D03*
X39020800Y-90107600D03*
D20*
X39020800Y-91307600D03*
X39020800Y-92307600D03*
X39020800Y-92807600D03*
X39020800Y-93807600D03*
D19*
X39020800Y-95007600D03*
X39020800Y-95807600D03*
X39020800Y-95807600D03*
X39020800Y-95007600D03*
D20*
X39020800Y-94307600D03*
X39020800Y-93307600D03*
X39020800Y-91807600D03*
X39020800Y-90807600D03*
D19*
X39020800Y-90107600D03*
X39020800Y-89307600D03*
%TD*%
D12*
%TO.C,C5*%
X81933800Y-61929400D03*
X80973800Y-61929400D03*
%TD*%
D14*
%TO.C,C1*%
X76597400Y-90128000D03*
X78497400Y-90128000D03*
%TD*%
D18*
%TO.C,R2*%
X75378400Y-93262800D03*
X76398400Y-93262800D03*
%TD*%
D17*
%TO.C,C6*%
X19417000Y-63686600D03*
X17517000Y-63686600D03*
%TD*%
D19*
%TO.C,J1*%
X39020800Y-36424800D03*
X39020800Y-37224800D03*
D20*
X39020800Y-38424800D03*
X39020800Y-39424800D03*
X39020800Y-39924800D03*
X39020800Y-40924800D03*
D19*
X39020800Y-42124800D03*
X39020800Y-42924800D03*
X39020800Y-42924800D03*
X39020800Y-42124800D03*
D20*
X39020800Y-41424800D03*
X39020800Y-40424800D03*
X39020800Y-38924800D03*
X39020800Y-37924800D03*
D19*
X39020800Y-37224800D03*
X39020800Y-36424800D03*
%TD*%
D13*
%TO.C,C3*%
X75388400Y-68161400D03*
X76348400Y-68161400D03*
%TD*%
D14*
%TO.C,C1*%
X13910200Y-90128000D03*
X15810200Y-90128000D03*
%TD*%
D12*
%TO.C,C4*%
X50067400Y-96956000D03*
X49107400Y-96956000D03*
%TD*%
D16*
%TO.C,R4*%
X78735600Y-16488800D03*
X77715600Y-16488800D03*
%TD*%
D12*
%TO.C,C2*%
X76348400Y-65481400D03*
X75388400Y-65481400D03*
%TD*%
D16*
%TO.C,R3*%
X81461000Y-42930200D03*
X80441000Y-42930200D03*
%TD*%
D12*
%TO.C,C2*%
X76348400Y-39040000D03*
X75388400Y-39040000D03*
%TD*%
D11*
%TO.C,R1*%
X73002700Y-37245200D03*
X74827700Y-37245200D03*
%TD*%
D19*
%TO.C,J1*%
X7677200Y-9983400D03*
X7677200Y-10783400D03*
D20*
X7677200Y-11983400D03*
X7677200Y-12983400D03*
X7677200Y-13483400D03*
X7677200Y-14483400D03*
D19*
X7677200Y-15683400D03*
X7677200Y-16483400D03*
X7677200Y-16483400D03*
X7677200Y-15683400D03*
D20*
X7677200Y-14983400D03*
X7677200Y-13983400D03*
X7677200Y-12483400D03*
X7677200Y-11483400D03*
D19*
X7677200Y-10783400D03*
X7677200Y-9983400D03*
%TD*%
D12*
%TO.C,C4*%
X50067400Y-70514600D03*
X49107400Y-70514600D03*
%TD*%
D16*
%TO.C,R4*%
X78735600Y-42930200D03*
X77715600Y-42930200D03*
%TD*%
D14*
%TO.C,C1*%
X45253800Y-63686600D03*
X47153800Y-63686600D03*
%TD*%
D13*
%TO.C,C3*%
X12701200Y-94602800D03*
X13661200Y-94602800D03*
%TD*%
D16*
%TO.C,R3*%
X50117400Y-95813000D03*
X49097400Y-95813000D03*
%TD*%
%TO.C,R4*%
X16048400Y-42930200D03*
X15028400Y-42930200D03*
%TD*%
D11*
%TO.C,R1*%
X10315500Y-63686600D03*
X12140500Y-63686600D03*
%TD*%
D19*
%TO.C,J1*%
X70364400Y-62866200D03*
X70364400Y-63666200D03*
D20*
X70364400Y-64866200D03*
X70364400Y-65866200D03*
X70364400Y-66366200D03*
X70364400Y-67366200D03*
D19*
X70364400Y-68566200D03*
X70364400Y-69366200D03*
X70364400Y-69366200D03*
X70364400Y-68566200D03*
D20*
X70364400Y-67866200D03*
X70364400Y-66866200D03*
X70364400Y-65366200D03*
X70364400Y-64366200D03*
D19*
X70364400Y-63666200D03*
X70364400Y-62866200D03*
%TD*%
D16*
%TO.C,R4*%
X16048400Y-95813000D03*
X15028400Y-95813000D03*
%TD*%
D12*
%TO.C,C4*%
X81411000Y-70514600D03*
X80451000Y-70514600D03*
%TD*%
D18*
%TO.C,R2*%
X12691200Y-40380000D03*
X13711200Y-40380000D03*
%TD*%
D12*
%TO.C,C5*%
X19246600Y-9046600D03*
X18286600Y-9046600D03*
%TD*%
%TO.C,C2*%
X13661200Y-65481400D03*
X12701200Y-65481400D03*
%TD*%
D17*
%TO.C,C6*%
X82104200Y-90128000D03*
X80204200Y-90128000D03*
%TD*%
D10*
%TO.C,U1*%
X18238400Y-41330000D03*
X18238400Y-40380000D03*
X18238400Y-39430000D03*
X15538400Y-39430000D03*
X15538400Y-41330000D03*
%TD*%
D13*
%TO.C,C3*%
X12701200Y-68161400D03*
X13661200Y-68161400D03*
%TD*%
D15*
%TO.C,L1*%
X54152800Y-67411600D03*
X54152800Y-63711600D03*
%TD*%
D16*
%TO.C,R3*%
X50117400Y-42930200D03*
X49097400Y-42930200D03*
%TD*%
D14*
%TO.C,C1*%
X13910200Y-10803800D03*
X15810200Y-10803800D03*
%TD*%
D11*
%TO.C,R1*%
X41659100Y-37245200D03*
X43484100Y-37245200D03*
%TD*%
D17*
%TO.C,C6*%
X82104200Y-63686600D03*
X80204200Y-63686600D03*
%TD*%
D12*
%TO.C,C4*%
X81411000Y-96956000D03*
X80451000Y-96956000D03*
%TD*%
D14*
%TO.C,C1*%
X76597400Y-37245200D03*
X78497400Y-37245200D03*
%TD*%
D18*
%TO.C,R2*%
X12691200Y-13938600D03*
X13711200Y-13938600D03*
%TD*%
D17*
%TO.C,C6*%
X82104200Y-10803800D03*
X80204200Y-10803800D03*
%TD*%
D12*
%TO.C,C2*%
X76348400Y-91922800D03*
X75388400Y-91922800D03*
%TD*%
D18*
%TO.C,R2*%
X44034800Y-40380000D03*
X45054800Y-40380000D03*
%TD*%
D15*
%TO.C,L1*%
X22809200Y-93853000D03*
X22809200Y-90153000D03*
%TD*%
D16*
%TO.C,R3*%
X18773800Y-95813000D03*
X17753800Y-95813000D03*
%TD*%
D19*
%TO.C,J1*%
X70364400Y-36424800D03*
X70364400Y-37224800D03*
D20*
X70364400Y-38424800D03*
X70364400Y-39424800D03*
X70364400Y-39924800D03*
X70364400Y-40924800D03*
D19*
X70364400Y-42124800D03*
X70364400Y-42924800D03*
X70364400Y-42924800D03*
X70364400Y-42124800D03*
D20*
X70364400Y-41424800D03*
X70364400Y-40424800D03*
X70364400Y-38924800D03*
X70364400Y-37924800D03*
D19*
X70364400Y-37224800D03*
X70364400Y-36424800D03*
%TD*%
D12*
%TO.C,C4*%
X50067400Y-44073200D03*
X49107400Y-44073200D03*
%TD*%
D10*
%TO.C,U1*%
X80925600Y-41330000D03*
X80925600Y-40380000D03*
X80925600Y-39430000D03*
X78225600Y-39430000D03*
X78225600Y-41330000D03*
%TD*%
D15*
%TO.C,L1*%
X54152800Y-93853000D03*
X54152800Y-90153000D03*
%TD*%
D16*
%TO.C,R4*%
X78735600Y-69371600D03*
X77715600Y-69371600D03*
%TD*%
%TO.C,R3*%
X81461000Y-16488800D03*
X80441000Y-16488800D03*
%TD*%
D12*
%TO.C,C5*%
X19246600Y-61929400D03*
X18286600Y-61929400D03*
%TD*%
D19*
%TO.C,J1*%
X39020800Y-62866200D03*
X39020800Y-63666200D03*
D20*
X39020800Y-64866200D03*
X39020800Y-65866200D03*
X39020800Y-66366200D03*
X39020800Y-67366200D03*
D19*
X39020800Y-68566200D03*
X39020800Y-69366200D03*
X39020800Y-69366200D03*
X39020800Y-68566200D03*
D20*
X39020800Y-67866200D03*
X39020800Y-66866200D03*
X39020800Y-65366200D03*
X39020800Y-64366200D03*
D19*
X39020800Y-63666200D03*
X39020800Y-62866200D03*
%TD*%
D10*
%TO.C,U1*%
X49582000Y-94212800D03*
X49582000Y-93262800D03*
X49582000Y-92312800D03*
X46882000Y-92312800D03*
X46882000Y-94212800D03*
%TD*%
D16*
%TO.C,R4*%
X47392000Y-95813000D03*
X46372000Y-95813000D03*
%TD*%
D12*
%TO.C,C5*%
X50590200Y-61929400D03*
X49630200Y-61929400D03*
%TD*%
D15*
%TO.C,L1*%
X22809200Y-67411600D03*
X22809200Y-63711600D03*
%TD*%
D10*
%TO.C,U1*%
X49582000Y-41330000D03*
X49582000Y-40380000D03*
X49582000Y-39430000D03*
X46882000Y-39430000D03*
X46882000Y-41330000D03*
%TD*%
D18*
%TO.C,R2*%
X12691200Y-66821400D03*
X13711200Y-66821400D03*
%TD*%
D12*
%TO.C,C4*%
X81411000Y-17631800D03*
X80451000Y-17631800D03*
%TD*%
D13*
%TO.C,C3*%
X75388400Y-94602800D03*
X76348400Y-94602800D03*
%TD*%
D15*
%TO.C,L1*%
X22809200Y-40970200D03*
X22809200Y-37270200D03*
%TD*%
D16*
%TO.C,R3*%
X81461000Y-69371600D03*
X80441000Y-69371600D03*
%TD*%
D12*
%TO.C,C2*%
X13661200Y-12598600D03*
X12701200Y-12598600D03*
%TD*%
D16*
%TO.C,R3*%
X81461000Y-95813000D03*
X80441000Y-95813000D03*
%TD*%
D12*
%TO.C,C4*%
X18723800Y-96956000D03*
X17763800Y-96956000D03*
%TD*%
D18*
%TO.C,R2*%
X44034800Y-13938600D03*
X45054800Y-13938600D03*
%TD*%
D12*
%TO.C,C2*%
X45004800Y-65481400D03*
X44044800Y-65481400D03*
%TD*%
D18*
%TO.C,R2*%
X75378400Y-66821400D03*
X76398400Y-66821400D03*
%TD*%
D11*
%TO.C,R1*%
X41659100Y-63686600D03*
X43484100Y-63686600D03*
%TD*%
D10*
%TO.C,U1*%
X18238400Y-94212800D03*
X18238400Y-93262800D03*
X18238400Y-92312800D03*
X15538400Y-92312800D03*
X15538400Y-94212800D03*
%TD*%
D11*
%TO.C,R1*%
X41659100Y-10803800D03*
X43484100Y-10803800D03*
%TD*%
D19*
%TO.C,J1*%
X7677200Y-62866200D03*
X7677200Y-63666200D03*
D20*
X7677200Y-64866200D03*
X7677200Y-65866200D03*
X7677200Y-66366200D03*
X7677200Y-67366200D03*
D19*
X7677200Y-68566200D03*
X7677200Y-69366200D03*
X7677200Y-69366200D03*
X7677200Y-68566200D03*
D20*
X7677200Y-67866200D03*
X7677200Y-66866200D03*
X7677200Y-65366200D03*
X7677200Y-64366200D03*
D19*
X7677200Y-63666200D03*
X7677200Y-62866200D03*
%TD*%
D13*
%TO.C,C3*%
X12701200Y-15278600D03*
X13661200Y-15278600D03*
%TD*%
D12*
%TO.C,C2*%
X13661200Y-91922800D03*
X12701200Y-91922800D03*
%TD*%
D16*
%TO.C,R4*%
X78735600Y-95813000D03*
X77715600Y-95813000D03*
%TD*%
D12*
%TO.C,C2*%
X45004800Y-12598600D03*
X44044800Y-12598600D03*
%TD*%
D17*
%TO.C,C6*%
X50760600Y-90128000D03*
X48860600Y-90128000D03*
%TD*%
D12*
%TO.C,C4*%
X18723800Y-70514600D03*
X17763800Y-70514600D03*
%TD*%
D17*
%TO.C,C6*%
X50760600Y-10803800D03*
X48860600Y-10803800D03*
%TD*%
%TO.C,C6*%
X50760600Y-63686600D03*
X48860600Y-63686600D03*
%TD*%
D10*
%TO.C,U1*%
X80925600Y-67771400D03*
X80925600Y-66821400D03*
X80925600Y-65871400D03*
X78225600Y-65871400D03*
X78225600Y-67771400D03*
%TD*%
D12*
%TO.C,C5*%
X81933800Y-88370800D03*
X80973800Y-88370800D03*
%TD*%
D18*
%TO.C,R2*%
X75378400Y-13938600D03*
X76398400Y-13938600D03*
%TD*%
D11*
%TO.C,R1*%
X10315500Y-90128000D03*
X12140500Y-90128000D03*
%TD*%
D18*
%TO.C,R2*%
X44034800Y-93262800D03*
X45054800Y-93262800D03*
%TD*%
D19*
%TO.C,J1*%
X70364400Y-89307600D03*
X70364400Y-90107600D03*
D20*
X70364400Y-91307600D03*
X70364400Y-92307600D03*
X70364400Y-92807600D03*
X70364400Y-93807600D03*
D19*
X70364400Y-95007600D03*
X70364400Y-95807600D03*
X70364400Y-95807600D03*
X70364400Y-95007600D03*
D20*
X70364400Y-94307600D03*
X70364400Y-93307600D03*
X70364400Y-91807600D03*
X70364400Y-90807600D03*
D19*
X70364400Y-90107600D03*
X70364400Y-89307600D03*
%TD*%
D18*
%TO.C,R2*%
X75378400Y-40380000D03*
X76398400Y-40380000D03*
%TD*%
D13*
%TO.C,C3*%
X75388400Y-41720000D03*
X76348400Y-41720000D03*
%TD*%
D19*
%TO.C,J1*%
X70364400Y-9983400D03*
X70364400Y-10783400D03*
D20*
X70364400Y-11983400D03*
X70364400Y-12983400D03*
X70364400Y-13483400D03*
X70364400Y-14483400D03*
D19*
X70364400Y-15683400D03*
X70364400Y-16483400D03*
X70364400Y-16483400D03*
X70364400Y-15683400D03*
D20*
X70364400Y-14983400D03*
X70364400Y-13983400D03*
X70364400Y-12483400D03*
X70364400Y-11483400D03*
D19*
X70364400Y-10783400D03*
X70364400Y-9983400D03*
%TD*%
D16*
%TO.C,R3*%
X18773800Y-69371600D03*
X17753800Y-69371600D03*
%TD*%
D12*
%TO.C,C2*%
X45004800Y-39040000D03*
X44044800Y-39040000D03*
%TD*%
D16*
%TO.C,R3*%
X18773800Y-42930200D03*
X17753800Y-42930200D03*
%TD*%
D17*
%TO.C,C6*%
X19417000Y-90128000D03*
X17517000Y-90128000D03*
%TD*%
D15*
%TO.C,L1*%
X85496400Y-93853000D03*
X85496400Y-90153000D03*
%TD*%
D12*
%TO.C,C2*%
X13661200Y-39040000D03*
X12701200Y-39040000D03*
%TD*%
D16*
%TO.C,R4*%
X47392000Y-42930200D03*
X46372000Y-42930200D03*
%TD*%
D19*
%TO.C,J1*%
X7677200Y-36424800D03*
X7677200Y-37224800D03*
D20*
X7677200Y-38424800D03*
X7677200Y-39424800D03*
X7677200Y-39924800D03*
X7677200Y-40924800D03*
D19*
X7677200Y-42124800D03*
X7677200Y-42924800D03*
X7677200Y-42924800D03*
X7677200Y-42124800D03*
D20*
X7677200Y-41424800D03*
X7677200Y-40424800D03*
X7677200Y-38924800D03*
X7677200Y-37924800D03*
D19*
X7677200Y-37224800D03*
X7677200Y-36424800D03*
%TD*%
D11*
%TO.C,R1*%
X41659100Y-90128000D03*
X43484100Y-90128000D03*
%TD*%
D15*
%TO.C,L1*%
X85496400Y-40970200D03*
X85496400Y-37270200D03*
%TD*%
D16*
%TO.C,R4*%
X47392000Y-69371600D03*
X46372000Y-69371600D03*
%TD*%
D15*
%TO.C,L1*%
X54152800Y-40970200D03*
X54152800Y-37270200D03*
%TD*%
D17*
%TO.C,C6*%
X82104200Y-37245200D03*
X80204200Y-37245200D03*
%TD*%
M02*
