%TF.GenerationSoftware,KiCad,Pcbnew,7.0.6*%
%TF.CreationDate,2023-09-22T02:01:45+08:00*%
%TF.ProjectId,power_ex_board_muti,706f7765-725f-4657-985f-626f6172645f,rev?*%
%TF.SameCoordinates,Original*%
%TF.FileFunction,Soldermask,Top*%
%TF.FilePolarity,Negative*%
%FSLAX46Y46*%
G04 Gerber Fmt 4.6, Leading zero omitted, Abs format (unit mm)*
G04 Created by KiCad (PCBNEW 7.0.6) date 2023-09-22 02:01:45*
%MOMM*%
%LPD*%
G01*
G04 APERTURE LIST*
G04 Aperture macros list*
%AMRoundRect*
0 Rectangle with rounded corners*
0 $1 Rounding radius*
0 $2 $3 $4 $5 $6 $7 $8 $9 X,Y pos of 4 corners*
0 Add a 4 corners polygon primitive as box body*
4,1,4,$2,$3,$4,$5,$6,$7,$8,$9,$2,$3,0*
0 Add four circle primitives for the rounded corners*
1,1,$1+$1,$2,$3*
1,1,$1+$1,$4,$5*
1,1,$1+$1,$6,$7*
1,1,$1+$1,$8,$9*
0 Add four rect primitives between the rounded corners*
20,1,$1+$1,$2,$3,$4,$5,0*
20,1,$1+$1,$4,$5,$6,$7,0*
20,1,$1+$1,$6,$7,$8,$9,0*
20,1,$1+$1,$8,$9,$2,$3,0*%
G04 Aperture macros list end*
%ADD10R,1.560000X0.650000*%
%ADD11RoundRect,0.250000X-0.262500X-0.450000X0.262500X-0.450000X0.262500X0.450000X-0.262500X0.450000X0*%
%ADD12R,1.700000X1.700000*%
%ADD13O,1.700000X1.700000*%
%ADD14RoundRect,0.140000X0.140000X0.170000X-0.140000X0.170000X-0.140000X-0.170000X0.140000X-0.170000X0*%
%ADD15RoundRect,0.140000X-0.140000X-0.170000X0.140000X-0.170000X0.140000X0.170000X-0.140000X0.170000X0*%
%ADD16RoundRect,0.250000X-0.250000X-0.475000X0.250000X-0.475000X0.250000X0.475000X-0.250000X0.475000X0*%
%ADD17R,2.500000X1.500000*%
%ADD18RoundRect,0.135000X0.135000X0.185000X-0.135000X0.185000X-0.135000X-0.185000X0.135000X-0.185000X0*%
%ADD19RoundRect,0.250000X0.250000X0.475000X-0.250000X0.475000X-0.250000X-0.475000X0.250000X-0.475000X0*%
%ADD20RoundRect,0.135000X-0.135000X-0.185000X0.135000X-0.185000X0.135000X0.185000X-0.135000X0.185000X0*%
%ADD21C,0.650000*%
%ADD22R,1.450000X0.600000*%
%ADD23R,1.450000X0.300000*%
%ADD24O,2.100000X1.000000*%
%ADD25O,1.600000X1.000000*%
G04 APERTURE END LIST*
D10*
%TO.C,U1*%
X49582000Y-14888600D03*
X49582000Y-13938600D03*
X49582000Y-12988600D03*
X46882000Y-12988600D03*
X46882000Y-14888600D03*
%TD*%
D11*
%TO.C,R1*%
X10315500Y-37245200D03*
X12140500Y-37245200D03*
%TD*%
D12*
%TO.C,Custom*%
X24348600Y-74991200D03*
D13*
X24348600Y-77531200D03*
X21808600Y-74991200D03*
X21808600Y-77531200D03*
X19268600Y-74991200D03*
X19268600Y-77531200D03*
X16728600Y-74991200D03*
X16728600Y-77531200D03*
X14188600Y-74991200D03*
X14188600Y-77531200D03*
X11648600Y-74991200D03*
X11648600Y-77531200D03*
X9108600Y-74991200D03*
X9108600Y-77531200D03*
X6568600Y-74991200D03*
X6568600Y-77531200D03*
X4028600Y-74991200D03*
X4028600Y-77531200D03*
X1488600Y-74991200D03*
X1488600Y-77531200D03*
%TD*%
D14*
%TO.C,C5*%
X19246600Y-35488000D03*
X18286600Y-35488000D03*
%TD*%
D10*
%TO.C,U1*%
X80925600Y-94212800D03*
X80925600Y-93262800D03*
X80925600Y-92312800D03*
X78225600Y-92312800D03*
X78225600Y-94212800D03*
%TD*%
D14*
%TO.C,C4*%
X81411000Y-44073200D03*
X80451000Y-44073200D03*
%TD*%
D15*
%TO.C,C3*%
X75388400Y-15278600D03*
X76348400Y-15278600D03*
%TD*%
D14*
%TO.C,C4*%
X18723800Y-17631800D03*
X17763800Y-17631800D03*
%TD*%
D16*
%TO.C,C1*%
X13910200Y-37245200D03*
X15810200Y-37245200D03*
%TD*%
D12*
%TO.C,5V*%
X32842200Y-83682600D03*
D13*
X32842200Y-81142600D03*
X35382200Y-83682600D03*
X35382200Y-81142600D03*
X37922200Y-83682600D03*
X37922200Y-81142600D03*
X40462200Y-83682600D03*
X40462200Y-81142600D03*
X43002200Y-83682600D03*
X43002200Y-81142600D03*
X45542200Y-83682600D03*
X45542200Y-81142600D03*
X48082200Y-83682600D03*
X48082200Y-81142600D03*
X50622200Y-83682600D03*
X50622200Y-81142600D03*
X53162200Y-83682600D03*
X53162200Y-81142600D03*
X55702200Y-83682600D03*
X55702200Y-81142600D03*
%TD*%
D14*
%TO.C,C5*%
X50590200Y-88370800D03*
X49630200Y-88370800D03*
%TD*%
D10*
%TO.C,U1*%
X18238400Y-67771400D03*
X18238400Y-66821400D03*
X18238400Y-65871400D03*
X15538400Y-65871400D03*
X15538400Y-67771400D03*
%TD*%
D12*
%TO.C,3V3*%
X58338800Y-1808400D03*
D13*
X60878800Y-1808400D03*
X58338800Y-4348400D03*
X60878800Y-4348400D03*
X58338800Y-6888400D03*
X60878800Y-6888400D03*
X58338800Y-9428400D03*
X60878800Y-9428400D03*
X58338800Y-11968400D03*
X60878800Y-11968400D03*
X58338800Y-14508400D03*
X60878800Y-14508400D03*
X58338800Y-17048400D03*
X60878800Y-17048400D03*
X58338800Y-19588400D03*
X60878800Y-19588400D03*
X58338800Y-22128400D03*
X60878800Y-22128400D03*
X58338800Y-24668400D03*
X60878800Y-24668400D03*
%TD*%
D17*
%TO.C,L1*%
X54152800Y-14528800D03*
X54152800Y-10828800D03*
%TD*%
D12*
%TO.C,3V3*%
X89682400Y-81132600D03*
D13*
X92222400Y-81132600D03*
X89682400Y-83672600D03*
X92222400Y-83672600D03*
X89682400Y-86212600D03*
X92222400Y-86212600D03*
X89682400Y-88752600D03*
X92222400Y-88752600D03*
X89682400Y-91292600D03*
X92222400Y-91292600D03*
X89682400Y-93832600D03*
X92222400Y-93832600D03*
X89682400Y-96372600D03*
X92222400Y-96372600D03*
X89682400Y-98912600D03*
X92222400Y-98912600D03*
X89682400Y-101452600D03*
X92222400Y-101452600D03*
X89682400Y-103992600D03*
X92222400Y-103992600D03*
%TD*%
D18*
%TO.C,R4*%
X47392000Y-16488800D03*
X46372000Y-16488800D03*
%TD*%
D12*
%TO.C,5V*%
X64185800Y-4358400D03*
D13*
X64185800Y-1818400D03*
X66725800Y-4358400D03*
X66725800Y-1818400D03*
X69265800Y-4358400D03*
X69265800Y-1818400D03*
X71805800Y-4358400D03*
X71805800Y-1818400D03*
X74345800Y-4358400D03*
X74345800Y-1818400D03*
X76885800Y-4358400D03*
X76885800Y-1818400D03*
X79425800Y-4358400D03*
X79425800Y-1818400D03*
X81965800Y-4358400D03*
X81965800Y-1818400D03*
X84505800Y-4358400D03*
X84505800Y-1818400D03*
X87045800Y-4358400D03*
X87045800Y-1818400D03*
%TD*%
D19*
%TO.C,C6*%
X19417000Y-37245200D03*
X17517000Y-37245200D03*
%TD*%
D16*
%TO.C,C1*%
X45253800Y-37245200D03*
X47153800Y-37245200D03*
%TD*%
%TO.C,C1*%
X76597400Y-10803800D03*
X78497400Y-10803800D03*
%TD*%
D19*
%TO.C,C6*%
X19417000Y-10803800D03*
X17517000Y-10803800D03*
%TD*%
D18*
%TO.C,R4*%
X16048400Y-69371600D03*
X15028400Y-69371600D03*
%TD*%
%TO.C,R3*%
X50117400Y-16488800D03*
X49097400Y-16488800D03*
%TD*%
D12*
%TO.C,5V*%
X1498600Y-30799800D03*
D13*
X1498600Y-28259800D03*
X4038600Y-30799800D03*
X4038600Y-28259800D03*
X6578600Y-30799800D03*
X6578600Y-28259800D03*
X9118600Y-30799800D03*
X9118600Y-28259800D03*
X11658600Y-30799800D03*
X11658600Y-28259800D03*
X14198600Y-30799800D03*
X14198600Y-28259800D03*
X16738600Y-30799800D03*
X16738600Y-28259800D03*
X19278600Y-30799800D03*
X19278600Y-28259800D03*
X21818600Y-30799800D03*
X21818600Y-28259800D03*
X24358600Y-30799800D03*
X24358600Y-28259800D03*
%TD*%
D14*
%TO.C,C5*%
X50590200Y-9046600D03*
X49630200Y-9046600D03*
%TD*%
D20*
%TO.C,R2*%
X44034800Y-66821400D03*
X45054800Y-66821400D03*
%TD*%
D10*
%TO.C,U1*%
X49582000Y-67771400D03*
X49582000Y-66821400D03*
X49582000Y-65871400D03*
X46882000Y-65871400D03*
X46882000Y-67771400D03*
%TD*%
D17*
%TO.C,L1*%
X85496400Y-67411600D03*
X85496400Y-63711600D03*
%TD*%
D15*
%TO.C,C3*%
X44044800Y-15278600D03*
X45004800Y-15278600D03*
%TD*%
%TO.C,C3*%
X12701200Y-41720000D03*
X13661200Y-41720000D03*
%TD*%
D14*
%TO.C,C2*%
X76348400Y-12598600D03*
X75388400Y-12598600D03*
%TD*%
D20*
%TO.C,R2*%
X12691200Y-93262800D03*
X13711200Y-93262800D03*
%TD*%
D12*
%TO.C,3V3*%
X26995200Y-1808400D03*
D13*
X29535200Y-1808400D03*
X26995200Y-4348400D03*
X29535200Y-4348400D03*
X26995200Y-6888400D03*
X29535200Y-6888400D03*
X26995200Y-9428400D03*
X29535200Y-9428400D03*
X26995200Y-11968400D03*
X29535200Y-11968400D03*
X26995200Y-14508400D03*
X29535200Y-14508400D03*
X26995200Y-17048400D03*
X29535200Y-17048400D03*
X26995200Y-19588400D03*
X29535200Y-19588400D03*
X26995200Y-22128400D03*
X29535200Y-22128400D03*
X26995200Y-24668400D03*
X29535200Y-24668400D03*
%TD*%
D16*
%TO.C,C1*%
X45253800Y-90128000D03*
X47153800Y-90128000D03*
%TD*%
D12*
%TO.C,Custom*%
X87035800Y-22108400D03*
D13*
X87035800Y-24648400D03*
X84495800Y-22108400D03*
X84495800Y-24648400D03*
X81955800Y-22108400D03*
X81955800Y-24648400D03*
X79415800Y-22108400D03*
X79415800Y-24648400D03*
X76875800Y-22108400D03*
X76875800Y-24648400D03*
X74335800Y-22108400D03*
X74335800Y-24648400D03*
X71795800Y-22108400D03*
X71795800Y-24648400D03*
X69255800Y-22108400D03*
X69255800Y-24648400D03*
X66715800Y-22108400D03*
X66715800Y-24648400D03*
X64175800Y-22108400D03*
X64175800Y-24648400D03*
%TD*%
D11*
%TO.C,R1*%
X73002700Y-90128000D03*
X74827700Y-90128000D03*
%TD*%
D12*
%TO.C,5V*%
X1498600Y-57241200D03*
D13*
X1498600Y-54701200D03*
X4038600Y-57241200D03*
X4038600Y-54701200D03*
X6578600Y-57241200D03*
X6578600Y-54701200D03*
X9118600Y-57241200D03*
X9118600Y-54701200D03*
X11658600Y-57241200D03*
X11658600Y-54701200D03*
X14198600Y-57241200D03*
X14198600Y-54701200D03*
X16738600Y-57241200D03*
X16738600Y-54701200D03*
X19278600Y-57241200D03*
X19278600Y-54701200D03*
X21818600Y-57241200D03*
X21818600Y-54701200D03*
X24358600Y-57241200D03*
X24358600Y-54701200D03*
%TD*%
D15*
%TO.C,C3*%
X44044800Y-94602800D03*
X45004800Y-94602800D03*
%TD*%
D10*
%TO.C,U1*%
X80925600Y-14888600D03*
X80925600Y-13938600D03*
X80925600Y-12988600D03*
X78225600Y-12988600D03*
X78225600Y-14888600D03*
%TD*%
%TO.C,U1*%
X18238400Y-14888600D03*
X18238400Y-13938600D03*
X18238400Y-12988600D03*
X15538400Y-12988600D03*
X15538400Y-14888600D03*
%TD*%
D11*
%TO.C,R1*%
X10315500Y-10803800D03*
X12140500Y-10803800D03*
%TD*%
D14*
%TO.C,C5*%
X81933800Y-9046600D03*
X80973800Y-9046600D03*
%TD*%
D18*
%TO.C,R3*%
X50117400Y-69371600D03*
X49097400Y-69371600D03*
%TD*%
D16*
%TO.C,C1*%
X76597400Y-63686600D03*
X78497400Y-63686600D03*
%TD*%
D15*
%TO.C,C3*%
X44044800Y-68161400D03*
X45004800Y-68161400D03*
%TD*%
D12*
%TO.C,3V3*%
X89682400Y-28249800D03*
D13*
X92222400Y-28249800D03*
X89682400Y-30789800D03*
X92222400Y-30789800D03*
X89682400Y-33329800D03*
X92222400Y-33329800D03*
X89682400Y-35869800D03*
X92222400Y-35869800D03*
X89682400Y-38409800D03*
X92222400Y-38409800D03*
X89682400Y-40949800D03*
X92222400Y-40949800D03*
X89682400Y-43489800D03*
X92222400Y-43489800D03*
X89682400Y-46029800D03*
X92222400Y-46029800D03*
X89682400Y-48569800D03*
X92222400Y-48569800D03*
X89682400Y-51109800D03*
X92222400Y-51109800D03*
%TD*%
D21*
%TO.C,J1*%
X6232200Y-89667600D03*
X6232200Y-95447600D03*
D22*
X7677200Y-89307600D03*
X7677200Y-90107600D03*
D23*
X7677200Y-91307600D03*
X7677200Y-92307600D03*
X7677200Y-92807600D03*
X7677200Y-93807600D03*
D22*
X7677200Y-95007600D03*
X7677200Y-95807600D03*
X7677200Y-95807600D03*
X7677200Y-95007600D03*
D23*
X7677200Y-94307600D03*
X7677200Y-93307600D03*
X7677200Y-91807600D03*
X7677200Y-90807600D03*
D22*
X7677200Y-90107600D03*
X7677200Y-89307600D03*
D24*
X6762200Y-88237600D03*
D25*
X2582200Y-88237600D03*
D24*
X6762200Y-96877600D03*
D25*
X2582200Y-96877600D03*
%TD*%
D18*
%TO.C,R3*%
X18773800Y-16488800D03*
X17753800Y-16488800D03*
%TD*%
D14*
%TO.C,C4*%
X50067400Y-17631800D03*
X49107400Y-17631800D03*
%TD*%
D15*
%TO.C,C3*%
X44044800Y-41720000D03*
X45004800Y-41720000D03*
%TD*%
D11*
%TO.C,R1*%
X73002700Y-10803800D03*
X74827700Y-10803800D03*
%TD*%
D16*
%TO.C,C1*%
X45253800Y-10803800D03*
X47153800Y-10803800D03*
%TD*%
D14*
%TO.C,C4*%
X18723800Y-44073200D03*
X17763800Y-44073200D03*
%TD*%
D17*
%TO.C,L1*%
X85496400Y-14528800D03*
X85496400Y-10828800D03*
%TD*%
D14*
%TO.C,C5*%
X50590200Y-35488000D03*
X49630200Y-35488000D03*
%TD*%
D12*
%TO.C,5V*%
X64185800Y-83682600D03*
D13*
X64185800Y-81142600D03*
X66725800Y-83682600D03*
X66725800Y-81142600D03*
X69265800Y-83682600D03*
X69265800Y-81142600D03*
X71805800Y-83682600D03*
X71805800Y-81142600D03*
X74345800Y-83682600D03*
X74345800Y-81142600D03*
X76885800Y-83682600D03*
X76885800Y-81142600D03*
X79425800Y-83682600D03*
X79425800Y-81142600D03*
X81965800Y-83682600D03*
X81965800Y-81142600D03*
X84505800Y-83682600D03*
X84505800Y-81142600D03*
X87045800Y-83682600D03*
X87045800Y-81142600D03*
%TD*%
D12*
%TO.C,Custom*%
X24348600Y-22108400D03*
D13*
X24348600Y-24648400D03*
X21808600Y-22108400D03*
X21808600Y-24648400D03*
X19268600Y-22108400D03*
X19268600Y-24648400D03*
X16728600Y-22108400D03*
X16728600Y-24648400D03*
X14188600Y-22108400D03*
X14188600Y-24648400D03*
X11648600Y-22108400D03*
X11648600Y-24648400D03*
X9108600Y-22108400D03*
X9108600Y-24648400D03*
X6568600Y-22108400D03*
X6568600Y-24648400D03*
X4028600Y-22108400D03*
X4028600Y-24648400D03*
X1488600Y-22108400D03*
X1488600Y-24648400D03*
%TD*%
D11*
%TO.C,R1*%
X73002700Y-63686600D03*
X74827700Y-63686600D03*
%TD*%
D14*
%TO.C,C5*%
X81933800Y-35488000D03*
X80973800Y-35488000D03*
%TD*%
%TO.C,C5*%
X19246600Y-88370800D03*
X18286600Y-88370800D03*
%TD*%
D16*
%TO.C,C1*%
X13910200Y-63686600D03*
X15810200Y-63686600D03*
%TD*%
D12*
%TO.C,Custom*%
X55692200Y-101432600D03*
D13*
X55692200Y-103972600D03*
X53152200Y-101432600D03*
X53152200Y-103972600D03*
X50612200Y-101432600D03*
X50612200Y-103972600D03*
X48072200Y-101432600D03*
X48072200Y-103972600D03*
X45532200Y-101432600D03*
X45532200Y-103972600D03*
X42992200Y-101432600D03*
X42992200Y-103972600D03*
X40452200Y-101432600D03*
X40452200Y-103972600D03*
X37912200Y-101432600D03*
X37912200Y-103972600D03*
X35372200Y-101432600D03*
X35372200Y-103972600D03*
X32832200Y-101432600D03*
X32832200Y-103972600D03*
%TD*%
D12*
%TO.C,3V3*%
X26995200Y-54691200D03*
D13*
X29535200Y-54691200D03*
X26995200Y-57231200D03*
X29535200Y-57231200D03*
X26995200Y-59771200D03*
X29535200Y-59771200D03*
X26995200Y-62311200D03*
X29535200Y-62311200D03*
X26995200Y-64851200D03*
X29535200Y-64851200D03*
X26995200Y-67391200D03*
X29535200Y-67391200D03*
X26995200Y-69931200D03*
X29535200Y-69931200D03*
X26995200Y-72471200D03*
X29535200Y-72471200D03*
X26995200Y-75011200D03*
X29535200Y-75011200D03*
X26995200Y-77551200D03*
X29535200Y-77551200D03*
%TD*%
D12*
%TO.C,Custom*%
X55692200Y-22108400D03*
D13*
X55692200Y-24648400D03*
X53152200Y-22108400D03*
X53152200Y-24648400D03*
X50612200Y-22108400D03*
X50612200Y-24648400D03*
X48072200Y-22108400D03*
X48072200Y-24648400D03*
X45532200Y-22108400D03*
X45532200Y-24648400D03*
X42992200Y-22108400D03*
X42992200Y-24648400D03*
X40452200Y-22108400D03*
X40452200Y-24648400D03*
X37912200Y-22108400D03*
X37912200Y-24648400D03*
X35372200Y-22108400D03*
X35372200Y-24648400D03*
X32832200Y-22108400D03*
X32832200Y-24648400D03*
%TD*%
D17*
%TO.C,L1*%
X22809200Y-14528800D03*
X22809200Y-10828800D03*
%TD*%
D12*
%TO.C,5V*%
X64185800Y-30799800D03*
D13*
X64185800Y-28259800D03*
X66725800Y-30799800D03*
X66725800Y-28259800D03*
X69265800Y-30799800D03*
X69265800Y-28259800D03*
X71805800Y-30799800D03*
X71805800Y-28259800D03*
X74345800Y-30799800D03*
X74345800Y-28259800D03*
X76885800Y-30799800D03*
X76885800Y-28259800D03*
X79425800Y-30799800D03*
X79425800Y-28259800D03*
X81965800Y-30799800D03*
X81965800Y-28259800D03*
X84505800Y-30799800D03*
X84505800Y-28259800D03*
X87045800Y-30799800D03*
X87045800Y-28259800D03*
%TD*%
D18*
%TO.C,R4*%
X16048400Y-16488800D03*
X15028400Y-16488800D03*
%TD*%
D19*
%TO.C,C6*%
X50760600Y-37245200D03*
X48860600Y-37245200D03*
%TD*%
D14*
%TO.C,C2*%
X45004800Y-91922800D03*
X44044800Y-91922800D03*
%TD*%
D21*
%TO.C,J1*%
X37575800Y-10343400D03*
X37575800Y-16123400D03*
D22*
X39020800Y-9983400D03*
X39020800Y-10783400D03*
D23*
X39020800Y-11983400D03*
X39020800Y-12983400D03*
X39020800Y-13483400D03*
X39020800Y-14483400D03*
D22*
X39020800Y-15683400D03*
X39020800Y-16483400D03*
X39020800Y-16483400D03*
X39020800Y-15683400D03*
D23*
X39020800Y-14983400D03*
X39020800Y-13983400D03*
X39020800Y-12483400D03*
X39020800Y-11483400D03*
D22*
X39020800Y-10783400D03*
X39020800Y-9983400D03*
D24*
X38105800Y-8913400D03*
D25*
X33925800Y-8913400D03*
D24*
X38105800Y-17553400D03*
D25*
X33925800Y-17553400D03*
%TD*%
D21*
%TO.C,J1*%
X37575800Y-89667600D03*
X37575800Y-95447600D03*
D22*
X39020800Y-89307600D03*
X39020800Y-90107600D03*
D23*
X39020800Y-91307600D03*
X39020800Y-92307600D03*
X39020800Y-92807600D03*
X39020800Y-93807600D03*
D22*
X39020800Y-95007600D03*
X39020800Y-95807600D03*
X39020800Y-95807600D03*
X39020800Y-95007600D03*
D23*
X39020800Y-94307600D03*
X39020800Y-93307600D03*
X39020800Y-91807600D03*
X39020800Y-90807600D03*
D22*
X39020800Y-90107600D03*
X39020800Y-89307600D03*
D24*
X38105800Y-88237600D03*
D25*
X33925800Y-88237600D03*
D24*
X38105800Y-96877600D03*
D25*
X33925800Y-96877600D03*
%TD*%
D14*
%TO.C,C5*%
X81933800Y-61929400D03*
X80973800Y-61929400D03*
%TD*%
D16*
%TO.C,C1*%
X76597400Y-90128000D03*
X78497400Y-90128000D03*
%TD*%
D20*
%TO.C,R2*%
X75378400Y-93262800D03*
X76398400Y-93262800D03*
%TD*%
D19*
%TO.C,C6*%
X19417000Y-63686600D03*
X17517000Y-63686600D03*
%TD*%
D21*
%TO.C,J1*%
X37575800Y-36784800D03*
X37575800Y-42564800D03*
D22*
X39020800Y-36424800D03*
X39020800Y-37224800D03*
D23*
X39020800Y-38424800D03*
X39020800Y-39424800D03*
X39020800Y-39924800D03*
X39020800Y-40924800D03*
D22*
X39020800Y-42124800D03*
X39020800Y-42924800D03*
X39020800Y-42924800D03*
X39020800Y-42124800D03*
D23*
X39020800Y-41424800D03*
X39020800Y-40424800D03*
X39020800Y-38924800D03*
X39020800Y-37924800D03*
D22*
X39020800Y-37224800D03*
X39020800Y-36424800D03*
D24*
X38105800Y-35354800D03*
D25*
X33925800Y-35354800D03*
D24*
X38105800Y-43994800D03*
D25*
X33925800Y-43994800D03*
%TD*%
D15*
%TO.C,C3*%
X75388400Y-68161400D03*
X76348400Y-68161400D03*
%TD*%
D16*
%TO.C,C1*%
X13910200Y-90128000D03*
X15810200Y-90128000D03*
%TD*%
D14*
%TO.C,C4*%
X50067400Y-96956000D03*
X49107400Y-96956000D03*
%TD*%
D18*
%TO.C,R4*%
X78735600Y-16488800D03*
X77715600Y-16488800D03*
%TD*%
D12*
%TO.C,5V*%
X32842200Y-4358400D03*
D13*
X32842200Y-1818400D03*
X35382200Y-4358400D03*
X35382200Y-1818400D03*
X37922200Y-4358400D03*
X37922200Y-1818400D03*
X40462200Y-4358400D03*
X40462200Y-1818400D03*
X43002200Y-4358400D03*
X43002200Y-1818400D03*
X45542200Y-4358400D03*
X45542200Y-1818400D03*
X48082200Y-4358400D03*
X48082200Y-1818400D03*
X50622200Y-4358400D03*
X50622200Y-1818400D03*
X53162200Y-4358400D03*
X53162200Y-1818400D03*
X55702200Y-4358400D03*
X55702200Y-1818400D03*
%TD*%
D14*
%TO.C,C2*%
X76348400Y-65481400D03*
X75388400Y-65481400D03*
%TD*%
D12*
%TO.C,5V*%
X32842200Y-30799800D03*
D13*
X32842200Y-28259800D03*
X35382200Y-30799800D03*
X35382200Y-28259800D03*
X37922200Y-30799800D03*
X37922200Y-28259800D03*
X40462200Y-30799800D03*
X40462200Y-28259800D03*
X43002200Y-30799800D03*
X43002200Y-28259800D03*
X45542200Y-30799800D03*
X45542200Y-28259800D03*
X48082200Y-30799800D03*
X48082200Y-28259800D03*
X50622200Y-30799800D03*
X50622200Y-28259800D03*
X53162200Y-30799800D03*
X53162200Y-28259800D03*
X55702200Y-30799800D03*
X55702200Y-28259800D03*
%TD*%
D18*
%TO.C,R3*%
X81461000Y-42930200D03*
X80441000Y-42930200D03*
%TD*%
D14*
%TO.C,C2*%
X76348400Y-39040000D03*
X75388400Y-39040000D03*
%TD*%
D11*
%TO.C,R1*%
X73002700Y-37245200D03*
X74827700Y-37245200D03*
%TD*%
D21*
%TO.C,J1*%
X6232200Y-10343400D03*
X6232200Y-16123400D03*
D22*
X7677200Y-9983400D03*
X7677200Y-10783400D03*
D23*
X7677200Y-11983400D03*
X7677200Y-12983400D03*
X7677200Y-13483400D03*
X7677200Y-14483400D03*
D22*
X7677200Y-15683400D03*
X7677200Y-16483400D03*
X7677200Y-16483400D03*
X7677200Y-15683400D03*
D23*
X7677200Y-14983400D03*
X7677200Y-13983400D03*
X7677200Y-12483400D03*
X7677200Y-11483400D03*
D22*
X7677200Y-10783400D03*
X7677200Y-9983400D03*
D24*
X6762200Y-8913400D03*
D25*
X2582200Y-8913400D03*
D24*
X6762200Y-17553400D03*
D25*
X2582200Y-17553400D03*
%TD*%
D14*
%TO.C,C4*%
X50067400Y-70514600D03*
X49107400Y-70514600D03*
%TD*%
D18*
%TO.C,R4*%
X78735600Y-42930200D03*
X77715600Y-42930200D03*
%TD*%
D16*
%TO.C,C1*%
X45253800Y-63686600D03*
X47153800Y-63686600D03*
%TD*%
D15*
%TO.C,C3*%
X12701200Y-94602800D03*
X13661200Y-94602800D03*
%TD*%
D12*
%TO.C,Custom*%
X55692200Y-48549800D03*
D13*
X55692200Y-51089800D03*
X53152200Y-48549800D03*
X53152200Y-51089800D03*
X50612200Y-48549800D03*
X50612200Y-51089800D03*
X48072200Y-48549800D03*
X48072200Y-51089800D03*
X45532200Y-48549800D03*
X45532200Y-51089800D03*
X42992200Y-48549800D03*
X42992200Y-51089800D03*
X40452200Y-48549800D03*
X40452200Y-51089800D03*
X37912200Y-48549800D03*
X37912200Y-51089800D03*
X35372200Y-48549800D03*
X35372200Y-51089800D03*
X32832200Y-48549800D03*
X32832200Y-51089800D03*
%TD*%
D18*
%TO.C,R3*%
X50117400Y-95813000D03*
X49097400Y-95813000D03*
%TD*%
%TO.C,R4*%
X16048400Y-42930200D03*
X15028400Y-42930200D03*
%TD*%
D11*
%TO.C,R1*%
X10315500Y-63686600D03*
X12140500Y-63686600D03*
%TD*%
D21*
%TO.C,J1*%
X68919400Y-63226200D03*
X68919400Y-69006200D03*
D22*
X70364400Y-62866200D03*
X70364400Y-63666200D03*
D23*
X70364400Y-64866200D03*
X70364400Y-65866200D03*
X70364400Y-66366200D03*
X70364400Y-67366200D03*
D22*
X70364400Y-68566200D03*
X70364400Y-69366200D03*
X70364400Y-69366200D03*
X70364400Y-68566200D03*
D23*
X70364400Y-67866200D03*
X70364400Y-66866200D03*
X70364400Y-65366200D03*
X70364400Y-64366200D03*
D22*
X70364400Y-63666200D03*
X70364400Y-62866200D03*
D24*
X69449400Y-61796200D03*
D25*
X65269400Y-61796200D03*
D24*
X69449400Y-70436200D03*
D25*
X65269400Y-70436200D03*
%TD*%
D18*
%TO.C,R4*%
X16048400Y-95813000D03*
X15028400Y-95813000D03*
%TD*%
D14*
%TO.C,C4*%
X81411000Y-70514600D03*
X80451000Y-70514600D03*
%TD*%
D20*
%TO.C,R2*%
X12691200Y-40380000D03*
X13711200Y-40380000D03*
%TD*%
D14*
%TO.C,C5*%
X19246600Y-9046600D03*
X18286600Y-9046600D03*
%TD*%
%TO.C,C2*%
X13661200Y-65481400D03*
X12701200Y-65481400D03*
%TD*%
D12*
%TO.C,Custom*%
X87035800Y-74991200D03*
D13*
X87035800Y-77531200D03*
X84495800Y-74991200D03*
X84495800Y-77531200D03*
X81955800Y-74991200D03*
X81955800Y-77531200D03*
X79415800Y-74991200D03*
X79415800Y-77531200D03*
X76875800Y-74991200D03*
X76875800Y-77531200D03*
X74335800Y-74991200D03*
X74335800Y-77531200D03*
X71795800Y-74991200D03*
X71795800Y-77531200D03*
X69255800Y-74991200D03*
X69255800Y-77531200D03*
X66715800Y-74991200D03*
X66715800Y-77531200D03*
X64175800Y-74991200D03*
X64175800Y-77531200D03*
%TD*%
D12*
%TO.C,5V*%
X1498600Y-83682600D03*
D13*
X1498600Y-81142600D03*
X4038600Y-83682600D03*
X4038600Y-81142600D03*
X6578600Y-83682600D03*
X6578600Y-81142600D03*
X9118600Y-83682600D03*
X9118600Y-81142600D03*
X11658600Y-83682600D03*
X11658600Y-81142600D03*
X14198600Y-83682600D03*
X14198600Y-81142600D03*
X16738600Y-83682600D03*
X16738600Y-81142600D03*
X19278600Y-83682600D03*
X19278600Y-81142600D03*
X21818600Y-83682600D03*
X21818600Y-81142600D03*
X24358600Y-83682600D03*
X24358600Y-81142600D03*
%TD*%
D19*
%TO.C,C6*%
X82104200Y-90128000D03*
X80204200Y-90128000D03*
%TD*%
D10*
%TO.C,U1*%
X18238400Y-41330000D03*
X18238400Y-40380000D03*
X18238400Y-39430000D03*
X15538400Y-39430000D03*
X15538400Y-41330000D03*
%TD*%
D15*
%TO.C,C3*%
X12701200Y-68161400D03*
X13661200Y-68161400D03*
%TD*%
D17*
%TO.C,L1*%
X54152800Y-67411600D03*
X54152800Y-63711600D03*
%TD*%
D18*
%TO.C,R3*%
X50117400Y-42930200D03*
X49097400Y-42930200D03*
%TD*%
D16*
%TO.C,C1*%
X13910200Y-10803800D03*
X15810200Y-10803800D03*
%TD*%
D11*
%TO.C,R1*%
X41659100Y-37245200D03*
X43484100Y-37245200D03*
%TD*%
D12*
%TO.C,3V3*%
X26995200Y-28249800D03*
D13*
X29535200Y-28249800D03*
X26995200Y-30789800D03*
X29535200Y-30789800D03*
X26995200Y-33329800D03*
X29535200Y-33329800D03*
X26995200Y-35869800D03*
X29535200Y-35869800D03*
X26995200Y-38409800D03*
X29535200Y-38409800D03*
X26995200Y-40949800D03*
X29535200Y-40949800D03*
X26995200Y-43489800D03*
X29535200Y-43489800D03*
X26995200Y-46029800D03*
X29535200Y-46029800D03*
X26995200Y-48569800D03*
X29535200Y-48569800D03*
X26995200Y-51109800D03*
X29535200Y-51109800D03*
%TD*%
D19*
%TO.C,C6*%
X82104200Y-63686600D03*
X80204200Y-63686600D03*
%TD*%
D14*
%TO.C,C4*%
X81411000Y-96956000D03*
X80451000Y-96956000D03*
%TD*%
D16*
%TO.C,C1*%
X76597400Y-37245200D03*
X78497400Y-37245200D03*
%TD*%
D20*
%TO.C,R2*%
X12691200Y-13938600D03*
X13711200Y-13938600D03*
%TD*%
D19*
%TO.C,C6*%
X82104200Y-10803800D03*
X80204200Y-10803800D03*
%TD*%
D12*
%TO.C,Custom*%
X87035800Y-48549800D03*
D13*
X87035800Y-51089800D03*
X84495800Y-48549800D03*
X84495800Y-51089800D03*
X81955800Y-48549800D03*
X81955800Y-51089800D03*
X79415800Y-48549800D03*
X79415800Y-51089800D03*
X76875800Y-48549800D03*
X76875800Y-51089800D03*
X74335800Y-48549800D03*
X74335800Y-51089800D03*
X71795800Y-48549800D03*
X71795800Y-51089800D03*
X69255800Y-48549800D03*
X69255800Y-51089800D03*
X66715800Y-48549800D03*
X66715800Y-51089800D03*
X64175800Y-48549800D03*
X64175800Y-51089800D03*
%TD*%
D14*
%TO.C,C2*%
X76348400Y-91922800D03*
X75388400Y-91922800D03*
%TD*%
D20*
%TO.C,R2*%
X44034800Y-40380000D03*
X45054800Y-40380000D03*
%TD*%
D17*
%TO.C,L1*%
X22809200Y-93853000D03*
X22809200Y-90153000D03*
%TD*%
D18*
%TO.C,R3*%
X18773800Y-95813000D03*
X17753800Y-95813000D03*
%TD*%
D21*
%TO.C,J1*%
X68919400Y-36784800D03*
X68919400Y-42564800D03*
D22*
X70364400Y-36424800D03*
X70364400Y-37224800D03*
D23*
X70364400Y-38424800D03*
X70364400Y-39424800D03*
X70364400Y-39924800D03*
X70364400Y-40924800D03*
D22*
X70364400Y-42124800D03*
X70364400Y-42924800D03*
X70364400Y-42924800D03*
X70364400Y-42124800D03*
D23*
X70364400Y-41424800D03*
X70364400Y-40424800D03*
X70364400Y-38924800D03*
X70364400Y-37924800D03*
D22*
X70364400Y-37224800D03*
X70364400Y-36424800D03*
D24*
X69449400Y-35354800D03*
D25*
X65269400Y-35354800D03*
D24*
X69449400Y-43994800D03*
D25*
X65269400Y-43994800D03*
%TD*%
D14*
%TO.C,C4*%
X50067400Y-44073200D03*
X49107400Y-44073200D03*
%TD*%
D10*
%TO.C,U1*%
X80925600Y-41330000D03*
X80925600Y-40380000D03*
X80925600Y-39430000D03*
X78225600Y-39430000D03*
X78225600Y-41330000D03*
%TD*%
D17*
%TO.C,L1*%
X54152800Y-93853000D03*
X54152800Y-90153000D03*
%TD*%
D12*
%TO.C,3V3*%
X58338800Y-81132600D03*
D13*
X60878800Y-81132600D03*
X58338800Y-83672600D03*
X60878800Y-83672600D03*
X58338800Y-86212600D03*
X60878800Y-86212600D03*
X58338800Y-88752600D03*
X60878800Y-88752600D03*
X58338800Y-91292600D03*
X60878800Y-91292600D03*
X58338800Y-93832600D03*
X60878800Y-93832600D03*
X58338800Y-96372600D03*
X60878800Y-96372600D03*
X58338800Y-98912600D03*
X60878800Y-98912600D03*
X58338800Y-101452600D03*
X60878800Y-101452600D03*
X58338800Y-103992600D03*
X60878800Y-103992600D03*
%TD*%
D12*
%TO.C,5V*%
X64185800Y-57241200D03*
D13*
X64185800Y-54701200D03*
X66725800Y-57241200D03*
X66725800Y-54701200D03*
X69265800Y-57241200D03*
X69265800Y-54701200D03*
X71805800Y-57241200D03*
X71805800Y-54701200D03*
X74345800Y-57241200D03*
X74345800Y-54701200D03*
X76885800Y-57241200D03*
X76885800Y-54701200D03*
X79425800Y-57241200D03*
X79425800Y-54701200D03*
X81965800Y-57241200D03*
X81965800Y-54701200D03*
X84505800Y-57241200D03*
X84505800Y-54701200D03*
X87045800Y-57241200D03*
X87045800Y-54701200D03*
%TD*%
D18*
%TO.C,R4*%
X78735600Y-69371600D03*
X77715600Y-69371600D03*
%TD*%
%TO.C,R3*%
X81461000Y-16488800D03*
X80441000Y-16488800D03*
%TD*%
D14*
%TO.C,C5*%
X19246600Y-61929400D03*
X18286600Y-61929400D03*
%TD*%
D21*
%TO.C,J1*%
X37575800Y-63226200D03*
X37575800Y-69006200D03*
D22*
X39020800Y-62866200D03*
X39020800Y-63666200D03*
D23*
X39020800Y-64866200D03*
X39020800Y-65866200D03*
X39020800Y-66366200D03*
X39020800Y-67366200D03*
D22*
X39020800Y-68566200D03*
X39020800Y-69366200D03*
X39020800Y-69366200D03*
X39020800Y-68566200D03*
D23*
X39020800Y-67866200D03*
X39020800Y-66866200D03*
X39020800Y-65366200D03*
X39020800Y-64366200D03*
D22*
X39020800Y-63666200D03*
X39020800Y-62866200D03*
D24*
X38105800Y-61796200D03*
D25*
X33925800Y-61796200D03*
D24*
X38105800Y-70436200D03*
D25*
X33925800Y-70436200D03*
%TD*%
D10*
%TO.C,U1*%
X49582000Y-94212800D03*
X49582000Y-93262800D03*
X49582000Y-92312800D03*
X46882000Y-92312800D03*
X46882000Y-94212800D03*
%TD*%
D18*
%TO.C,R4*%
X47392000Y-95813000D03*
X46372000Y-95813000D03*
%TD*%
D14*
%TO.C,C5*%
X50590200Y-61929400D03*
X49630200Y-61929400D03*
%TD*%
D17*
%TO.C,L1*%
X22809200Y-67411600D03*
X22809200Y-63711600D03*
%TD*%
D12*
%TO.C,5V*%
X1498600Y-4358400D03*
D13*
X1498600Y-1818400D03*
X4038600Y-4358400D03*
X4038600Y-1818400D03*
X6578600Y-4358400D03*
X6578600Y-1818400D03*
X9118600Y-4358400D03*
X9118600Y-1818400D03*
X11658600Y-4358400D03*
X11658600Y-1818400D03*
X14198600Y-4358400D03*
X14198600Y-1818400D03*
X16738600Y-4358400D03*
X16738600Y-1818400D03*
X19278600Y-4358400D03*
X19278600Y-1818400D03*
X21818600Y-4358400D03*
X21818600Y-1818400D03*
X24358600Y-4358400D03*
X24358600Y-1818400D03*
%TD*%
D10*
%TO.C,U1*%
X49582000Y-41330000D03*
X49582000Y-40380000D03*
X49582000Y-39430000D03*
X46882000Y-39430000D03*
X46882000Y-41330000D03*
%TD*%
D20*
%TO.C,R2*%
X12691200Y-66821400D03*
X13711200Y-66821400D03*
%TD*%
D14*
%TO.C,C4*%
X81411000Y-17631800D03*
X80451000Y-17631800D03*
%TD*%
D12*
%TO.C,Custom*%
X55692200Y-74991200D03*
D13*
X55692200Y-77531200D03*
X53152200Y-74991200D03*
X53152200Y-77531200D03*
X50612200Y-74991200D03*
X50612200Y-77531200D03*
X48072200Y-74991200D03*
X48072200Y-77531200D03*
X45532200Y-74991200D03*
X45532200Y-77531200D03*
X42992200Y-74991200D03*
X42992200Y-77531200D03*
X40452200Y-74991200D03*
X40452200Y-77531200D03*
X37912200Y-74991200D03*
X37912200Y-77531200D03*
X35372200Y-74991200D03*
X35372200Y-77531200D03*
X32832200Y-74991200D03*
X32832200Y-77531200D03*
%TD*%
D15*
%TO.C,C3*%
X75388400Y-94602800D03*
X76348400Y-94602800D03*
%TD*%
D17*
%TO.C,L1*%
X22809200Y-40970200D03*
X22809200Y-37270200D03*
%TD*%
D18*
%TO.C,R3*%
X81461000Y-69371600D03*
X80441000Y-69371600D03*
%TD*%
D14*
%TO.C,C2*%
X13661200Y-12598600D03*
X12701200Y-12598600D03*
%TD*%
D12*
%TO.C,3V3*%
X58338800Y-28249800D03*
D13*
X60878800Y-28249800D03*
X58338800Y-30789800D03*
X60878800Y-30789800D03*
X58338800Y-33329800D03*
X60878800Y-33329800D03*
X58338800Y-35869800D03*
X60878800Y-35869800D03*
X58338800Y-38409800D03*
X60878800Y-38409800D03*
X58338800Y-40949800D03*
X60878800Y-40949800D03*
X58338800Y-43489800D03*
X60878800Y-43489800D03*
X58338800Y-46029800D03*
X60878800Y-46029800D03*
X58338800Y-48569800D03*
X60878800Y-48569800D03*
X58338800Y-51109800D03*
X60878800Y-51109800D03*
%TD*%
D18*
%TO.C,R3*%
X81461000Y-95813000D03*
X80441000Y-95813000D03*
%TD*%
D14*
%TO.C,C4*%
X18723800Y-96956000D03*
X17763800Y-96956000D03*
%TD*%
D20*
%TO.C,R2*%
X44034800Y-13938600D03*
X45054800Y-13938600D03*
%TD*%
D14*
%TO.C,C2*%
X45004800Y-65481400D03*
X44044800Y-65481400D03*
%TD*%
D12*
%TO.C,5V*%
X32842200Y-57241200D03*
D13*
X32842200Y-54701200D03*
X35382200Y-57241200D03*
X35382200Y-54701200D03*
X37922200Y-57241200D03*
X37922200Y-54701200D03*
X40462200Y-57241200D03*
X40462200Y-54701200D03*
X43002200Y-57241200D03*
X43002200Y-54701200D03*
X45542200Y-57241200D03*
X45542200Y-54701200D03*
X48082200Y-57241200D03*
X48082200Y-54701200D03*
X50622200Y-57241200D03*
X50622200Y-54701200D03*
X53162200Y-57241200D03*
X53162200Y-54701200D03*
X55702200Y-57241200D03*
X55702200Y-54701200D03*
%TD*%
D20*
%TO.C,R2*%
X75378400Y-66821400D03*
X76398400Y-66821400D03*
%TD*%
D11*
%TO.C,R1*%
X41659100Y-63686600D03*
X43484100Y-63686600D03*
%TD*%
D10*
%TO.C,U1*%
X18238400Y-94212800D03*
X18238400Y-93262800D03*
X18238400Y-92312800D03*
X15538400Y-92312800D03*
X15538400Y-94212800D03*
%TD*%
D11*
%TO.C,R1*%
X41659100Y-10803800D03*
X43484100Y-10803800D03*
%TD*%
D21*
%TO.C,J1*%
X6232200Y-63226200D03*
X6232200Y-69006200D03*
D22*
X7677200Y-62866200D03*
X7677200Y-63666200D03*
D23*
X7677200Y-64866200D03*
X7677200Y-65866200D03*
X7677200Y-66366200D03*
X7677200Y-67366200D03*
D22*
X7677200Y-68566200D03*
X7677200Y-69366200D03*
X7677200Y-69366200D03*
X7677200Y-68566200D03*
D23*
X7677200Y-67866200D03*
X7677200Y-66866200D03*
X7677200Y-65366200D03*
X7677200Y-64366200D03*
D22*
X7677200Y-63666200D03*
X7677200Y-62866200D03*
D24*
X6762200Y-61796200D03*
D25*
X2582200Y-61796200D03*
D24*
X6762200Y-70436200D03*
D25*
X2582200Y-70436200D03*
%TD*%
D15*
%TO.C,C3*%
X12701200Y-15278600D03*
X13661200Y-15278600D03*
%TD*%
D14*
%TO.C,C2*%
X13661200Y-91922800D03*
X12701200Y-91922800D03*
%TD*%
D18*
%TO.C,R4*%
X78735600Y-95813000D03*
X77715600Y-95813000D03*
%TD*%
D14*
%TO.C,C2*%
X45004800Y-12598600D03*
X44044800Y-12598600D03*
%TD*%
D19*
%TO.C,C6*%
X50760600Y-90128000D03*
X48860600Y-90128000D03*
%TD*%
D12*
%TO.C,Custom*%
X87035800Y-101432600D03*
D13*
X87035800Y-103972600D03*
X84495800Y-101432600D03*
X84495800Y-103972600D03*
X81955800Y-101432600D03*
X81955800Y-103972600D03*
X79415800Y-101432600D03*
X79415800Y-103972600D03*
X76875800Y-101432600D03*
X76875800Y-103972600D03*
X74335800Y-101432600D03*
X74335800Y-103972600D03*
X71795800Y-101432600D03*
X71795800Y-103972600D03*
X69255800Y-101432600D03*
X69255800Y-103972600D03*
X66715800Y-101432600D03*
X66715800Y-103972600D03*
X64175800Y-101432600D03*
X64175800Y-103972600D03*
%TD*%
D14*
%TO.C,C4*%
X18723800Y-70514600D03*
X17763800Y-70514600D03*
%TD*%
D19*
%TO.C,C6*%
X50760600Y-10803800D03*
X48860600Y-10803800D03*
%TD*%
%TO.C,C6*%
X50760600Y-63686600D03*
X48860600Y-63686600D03*
%TD*%
D10*
%TO.C,U1*%
X80925600Y-67771400D03*
X80925600Y-66821400D03*
X80925600Y-65871400D03*
X78225600Y-65871400D03*
X78225600Y-67771400D03*
%TD*%
D14*
%TO.C,C5*%
X81933800Y-88370800D03*
X80973800Y-88370800D03*
%TD*%
D20*
%TO.C,R2*%
X75378400Y-13938600D03*
X76398400Y-13938600D03*
%TD*%
D11*
%TO.C,R1*%
X10315500Y-90128000D03*
X12140500Y-90128000D03*
%TD*%
D12*
%TO.C,3V3*%
X26995200Y-81132600D03*
D13*
X29535200Y-81132600D03*
X26995200Y-83672600D03*
X29535200Y-83672600D03*
X26995200Y-86212600D03*
X29535200Y-86212600D03*
X26995200Y-88752600D03*
X29535200Y-88752600D03*
X26995200Y-91292600D03*
X29535200Y-91292600D03*
X26995200Y-93832600D03*
X29535200Y-93832600D03*
X26995200Y-96372600D03*
X29535200Y-96372600D03*
X26995200Y-98912600D03*
X29535200Y-98912600D03*
X26995200Y-101452600D03*
X29535200Y-101452600D03*
X26995200Y-103992600D03*
X29535200Y-103992600D03*
%TD*%
D20*
%TO.C,R2*%
X44034800Y-93262800D03*
X45054800Y-93262800D03*
%TD*%
D21*
%TO.C,J1*%
X68919400Y-89667600D03*
X68919400Y-95447600D03*
D22*
X70364400Y-89307600D03*
X70364400Y-90107600D03*
D23*
X70364400Y-91307600D03*
X70364400Y-92307600D03*
X70364400Y-92807600D03*
X70364400Y-93807600D03*
D22*
X70364400Y-95007600D03*
X70364400Y-95807600D03*
X70364400Y-95807600D03*
X70364400Y-95007600D03*
D23*
X70364400Y-94307600D03*
X70364400Y-93307600D03*
X70364400Y-91807600D03*
X70364400Y-90807600D03*
D22*
X70364400Y-90107600D03*
X70364400Y-89307600D03*
D24*
X69449400Y-88237600D03*
D25*
X65269400Y-88237600D03*
D24*
X69449400Y-96877600D03*
D25*
X65269400Y-96877600D03*
%TD*%
D12*
%TO.C,3V3*%
X89682400Y-1808400D03*
D13*
X92222400Y-1808400D03*
X89682400Y-4348400D03*
X92222400Y-4348400D03*
X89682400Y-6888400D03*
X92222400Y-6888400D03*
X89682400Y-9428400D03*
X92222400Y-9428400D03*
X89682400Y-11968400D03*
X92222400Y-11968400D03*
X89682400Y-14508400D03*
X92222400Y-14508400D03*
X89682400Y-17048400D03*
X92222400Y-17048400D03*
X89682400Y-19588400D03*
X92222400Y-19588400D03*
X89682400Y-22128400D03*
X92222400Y-22128400D03*
X89682400Y-24668400D03*
X92222400Y-24668400D03*
%TD*%
D12*
%TO.C,3V3*%
X58338800Y-54691200D03*
D13*
X60878800Y-54691200D03*
X58338800Y-57231200D03*
X60878800Y-57231200D03*
X58338800Y-59771200D03*
X60878800Y-59771200D03*
X58338800Y-62311200D03*
X60878800Y-62311200D03*
X58338800Y-64851200D03*
X60878800Y-64851200D03*
X58338800Y-67391200D03*
X60878800Y-67391200D03*
X58338800Y-69931200D03*
X60878800Y-69931200D03*
X58338800Y-72471200D03*
X60878800Y-72471200D03*
X58338800Y-75011200D03*
X60878800Y-75011200D03*
X58338800Y-77551200D03*
X60878800Y-77551200D03*
%TD*%
D20*
%TO.C,R2*%
X75378400Y-40380000D03*
X76398400Y-40380000D03*
%TD*%
D15*
%TO.C,C3*%
X75388400Y-41720000D03*
X76348400Y-41720000D03*
%TD*%
D21*
%TO.C,J1*%
X68919400Y-10343400D03*
X68919400Y-16123400D03*
D22*
X70364400Y-9983400D03*
X70364400Y-10783400D03*
D23*
X70364400Y-11983400D03*
X70364400Y-12983400D03*
X70364400Y-13483400D03*
X70364400Y-14483400D03*
D22*
X70364400Y-15683400D03*
X70364400Y-16483400D03*
X70364400Y-16483400D03*
X70364400Y-15683400D03*
D23*
X70364400Y-14983400D03*
X70364400Y-13983400D03*
X70364400Y-12483400D03*
X70364400Y-11483400D03*
D22*
X70364400Y-10783400D03*
X70364400Y-9983400D03*
D24*
X69449400Y-8913400D03*
D25*
X65269400Y-8913400D03*
D24*
X69449400Y-17553400D03*
D25*
X65269400Y-17553400D03*
%TD*%
D18*
%TO.C,R3*%
X18773800Y-69371600D03*
X17753800Y-69371600D03*
%TD*%
D14*
%TO.C,C2*%
X45004800Y-39040000D03*
X44044800Y-39040000D03*
%TD*%
D18*
%TO.C,R3*%
X18773800Y-42930200D03*
X17753800Y-42930200D03*
%TD*%
D19*
%TO.C,C6*%
X19417000Y-90128000D03*
X17517000Y-90128000D03*
%TD*%
D17*
%TO.C,L1*%
X85496400Y-93853000D03*
X85496400Y-90153000D03*
%TD*%
D14*
%TO.C,C2*%
X13661200Y-39040000D03*
X12701200Y-39040000D03*
%TD*%
D18*
%TO.C,R4*%
X47392000Y-42930200D03*
X46372000Y-42930200D03*
%TD*%
D12*
%TO.C,Custom*%
X24348600Y-101432600D03*
D13*
X24348600Y-103972600D03*
X21808600Y-101432600D03*
X21808600Y-103972600D03*
X19268600Y-101432600D03*
X19268600Y-103972600D03*
X16728600Y-101432600D03*
X16728600Y-103972600D03*
X14188600Y-101432600D03*
X14188600Y-103972600D03*
X11648600Y-101432600D03*
X11648600Y-103972600D03*
X9108600Y-101432600D03*
X9108600Y-103972600D03*
X6568600Y-101432600D03*
X6568600Y-103972600D03*
X4028600Y-101432600D03*
X4028600Y-103972600D03*
X1488600Y-101432600D03*
X1488600Y-103972600D03*
%TD*%
D21*
%TO.C,J1*%
X6232200Y-36784800D03*
X6232200Y-42564800D03*
D22*
X7677200Y-36424800D03*
X7677200Y-37224800D03*
D23*
X7677200Y-38424800D03*
X7677200Y-39424800D03*
X7677200Y-39924800D03*
X7677200Y-40924800D03*
D22*
X7677200Y-42124800D03*
X7677200Y-42924800D03*
X7677200Y-42924800D03*
X7677200Y-42124800D03*
D23*
X7677200Y-41424800D03*
X7677200Y-40424800D03*
X7677200Y-38924800D03*
X7677200Y-37924800D03*
D22*
X7677200Y-37224800D03*
X7677200Y-36424800D03*
D24*
X6762200Y-35354800D03*
D25*
X2582200Y-35354800D03*
D24*
X6762200Y-43994800D03*
D25*
X2582200Y-43994800D03*
%TD*%
D12*
%TO.C,3V3*%
X89682400Y-54691200D03*
D13*
X92222400Y-54691200D03*
X89682400Y-57231200D03*
X92222400Y-57231200D03*
X89682400Y-59771200D03*
X92222400Y-59771200D03*
X89682400Y-62311200D03*
X92222400Y-62311200D03*
X89682400Y-64851200D03*
X92222400Y-64851200D03*
X89682400Y-67391200D03*
X92222400Y-67391200D03*
X89682400Y-69931200D03*
X92222400Y-69931200D03*
X89682400Y-72471200D03*
X92222400Y-72471200D03*
X89682400Y-75011200D03*
X92222400Y-75011200D03*
X89682400Y-77551200D03*
X92222400Y-77551200D03*
%TD*%
D12*
%TO.C,Custom*%
X24348600Y-48549800D03*
D13*
X24348600Y-51089800D03*
X21808600Y-48549800D03*
X21808600Y-51089800D03*
X19268600Y-48549800D03*
X19268600Y-51089800D03*
X16728600Y-48549800D03*
X16728600Y-51089800D03*
X14188600Y-48549800D03*
X14188600Y-51089800D03*
X11648600Y-48549800D03*
X11648600Y-51089800D03*
X9108600Y-48549800D03*
X9108600Y-51089800D03*
X6568600Y-48549800D03*
X6568600Y-51089800D03*
X4028600Y-48549800D03*
X4028600Y-51089800D03*
X1488600Y-48549800D03*
X1488600Y-51089800D03*
%TD*%
D11*
%TO.C,R1*%
X41659100Y-90128000D03*
X43484100Y-90128000D03*
%TD*%
D17*
%TO.C,L1*%
X85496400Y-40970200D03*
X85496400Y-37270200D03*
%TD*%
D18*
%TO.C,R4*%
X47392000Y-69371600D03*
X46372000Y-69371600D03*
%TD*%
D17*
%TO.C,L1*%
X54152800Y-40970200D03*
X54152800Y-37270200D03*
%TD*%
D19*
%TO.C,C6*%
X82104200Y-37245200D03*
X80204200Y-37245200D03*
%TD*%
M02*
