M48
; DRILL file {KiCad 7.0.6} date Fri Sep 22 02:01:45 2023
; FORMAT={-:-/ absolute / inch / decimal}
; #@! TF.CreationDate,2023-09-22T02:01:45+08:00
; #@! TF.GenerationSoftware,Kicad,Pcbnew,7.0.6
; #@! TF.FileFunction,Plated,1,2,PTH
FMAT,2
INCH
; #@! TA.AperFunction,Plated,PTH,ViaDrill
T1C0.0120
; #@! TA.AperFunction,Plated,PTH,ComponentDrill
T2C0.0236
; #@! TA.AperFunction,Plated,PTH,ComponentDrill
T3C0.0394
%
G90
G05
T1
X0.036Y-0.28
X0.036Y-1.321
X0.036Y-2.362
X0.036Y-3.403
X0.045Y-0.768
X0.045Y-1.809
X0.045Y-2.85
X0.045Y-3.891
X0.081Y-0.416
X0.081Y-0.4863
X0.081Y-0.5567
X0.081Y-0.627
X0.081Y-1.457
X0.081Y-1.5273
X0.081Y-1.5977
X0.081Y-1.668
X0.081Y-2.498
X0.081Y-2.5683
X0.081Y-2.6387
X0.081Y-2.709
X0.081Y-3.539
X0.081Y-3.6093
X0.081Y-3.6797
X0.081Y-3.75
X0.1089Y-0.28
X0.1089Y-1.321
X0.1089Y-2.362
X0.1089Y-3.403
X0.1218Y-0.768
X0.1218Y-1.809
X0.1218Y-2.85
X0.1218Y-3.891
X0.175Y-0.5209
X0.175Y-1.5619
X0.175Y-2.6029
X0.175Y-3.6439
X0.1987Y-0.768
X0.1987Y-1.809
X0.1987Y-2.85
X0.1987Y-3.891
X0.2547Y-0.28
X0.2547Y-1.321
X0.2547Y-2.362
X0.2547Y-3.403
X0.2755Y-0.768
X0.2755Y-1.809
X0.2755Y-2.85
X0.2755Y-3.891
X0.3276Y-0.28
X0.3276Y-1.321
X0.3276Y-2.362
X0.3276Y-3.403
X0.356Y-0.716
X0.356Y-1.757
X0.356Y-2.798
X0.356Y-3.839
X0.393Y-0.508
X0.393Y-0.5765
X0.393Y-0.645
X0.393Y-1.549
X0.393Y-1.6175
X0.393Y-1.686
X0.393Y-2.59
X0.393Y-2.6585
X0.393Y-2.727
X0.393Y-3.631
X0.393Y-3.6995
X0.393Y-3.768
X0.394Y-0.344
X0.394Y-1.385
X0.394Y-2.426
X0.394Y-3.467
X0.4004Y-0.28
X0.4004Y-1.321
X0.4004Y-2.362
X0.4004Y-3.403
X0.4297Y-0.716
X0.4297Y-1.757
X0.4297Y-2.798
X0.4297Y-3.839
X0.4643Y-0.344
X0.4643Y-1.385
X0.4643Y-2.426
X0.4643Y-3.467
X0.469Y-0.574
X0.469Y-1.615
X0.469Y-2.656
X0.469Y-3.697
X0.4733Y-0.28
X0.4733Y-1.321
X0.4733Y-2.362
X0.4733Y-3.403
X0.5035Y-0.716
X0.5035Y-1.757
X0.5035Y-2.798
X0.5035Y-3.839
X0.5347Y-0.344
X0.5347Y-1.385
X0.5347Y-2.426
X0.5347Y-3.467
X0.5462Y-0.28
X0.5462Y-1.321
X0.5462Y-2.362
X0.5462Y-3.403
X0.5773Y-0.716
X0.5773Y-1.757
X0.5773Y-2.798
X0.5773Y-3.839
X0.605Y-0.344
X0.605Y-1.385
X0.605Y-2.426
X0.605Y-3.467
X0.6191Y-0.28
X0.6191Y-1.321
X0.6191Y-2.362
X0.6191Y-3.403
X0.651Y-0.716
X0.651Y-1.757
X0.651Y-2.798
X0.651Y-3.839
X0.664Y-0.548
X0.664Y-1.589
X0.664Y-2.63
X0.664Y-3.671
X0.665Y-0.623
X0.665Y-1.664
X0.665Y-2.705
X0.665Y-3.746
X0.692Y-0.28
X0.692Y-1.321
X0.692Y-2.362
X0.692Y-3.403
X0.773Y-0.672
X0.773Y-1.713
X0.773Y-2.754
X0.773Y-3.795
X0.817Y-0.428
X0.817Y-1.469
X0.817Y-2.51
X0.817Y-3.551
X0.857Y-0.336
X0.857Y-1.377
X0.857Y-2.418
X0.857Y-3.459
X0.953Y-0.336
X0.953Y-1.377
X0.953Y-2.418
X0.953Y-3.459
X0.991Y-0.42
X0.991Y-0.4937
X0.991Y-0.5673
X0.991Y-0.641
X0.991Y-1.461
X0.991Y-1.5347
X0.991Y-1.6083
X0.991Y-1.682
X0.991Y-2.502
X0.991Y-2.5757
X0.991Y-2.6493
X0.991Y-2.723
X0.991Y-3.543
X0.991Y-3.6167
X0.991Y-3.6903
X0.991Y-3.764
X1.27Y-0.28
X1.27Y-1.321
X1.27Y-2.362
X1.27Y-3.403
X1.279Y-0.768
X1.279Y-1.809
X1.279Y-2.85
X1.279Y-3.891
X1.315Y-0.416
X1.315Y-0.4863
X1.315Y-0.5567
X1.315Y-0.627
X1.315Y-1.457
X1.315Y-1.5273
X1.315Y-1.5977
X1.315Y-1.668
X1.315Y-2.498
X1.315Y-2.5683
X1.315Y-2.6387
X1.315Y-2.709
X1.315Y-3.539
X1.315Y-3.6093
X1.315Y-3.6797
X1.315Y-3.75
X1.3429Y-0.28
X1.3429Y-1.321
X1.3429Y-2.362
X1.3429Y-3.403
X1.3558Y-0.768
X1.3558Y-1.809
X1.3558Y-2.85
X1.3558Y-3.891
X1.409Y-0.5209
X1.409Y-1.5619
X1.409Y-2.6029
X1.409Y-3.6439
X1.4327Y-0.768
X1.4327Y-1.809
X1.4327Y-2.85
X1.4327Y-3.891
X1.4887Y-0.28
X1.4887Y-1.321
X1.4887Y-2.362
X1.4887Y-3.403
X1.5095Y-0.768
X1.5095Y-1.809
X1.5095Y-2.85
X1.5095Y-3.891
X1.5616Y-0.28
X1.5616Y-1.321
X1.5616Y-2.362
X1.5616Y-3.403
X1.59Y-0.716
X1.59Y-1.757
X1.59Y-2.798
X1.59Y-3.839
X1.627Y-0.508
X1.627Y-0.5765
X1.627Y-0.645
X1.627Y-1.549
X1.627Y-1.6175
X1.627Y-1.686
X1.627Y-2.59
X1.627Y-2.6585
X1.627Y-2.727
X1.627Y-3.631
X1.627Y-3.6995
X1.627Y-3.768
X1.628Y-0.344
X1.628Y-1.385
X1.628Y-2.426
X1.628Y-3.467
X1.6344Y-0.28
X1.6344Y-1.321
X1.6344Y-2.362
X1.6344Y-3.403
X1.6638Y-0.716
X1.6638Y-1.757
X1.6638Y-2.798
X1.6638Y-3.839
X1.6983Y-0.344
X1.6983Y-1.385
X1.6983Y-2.426
X1.6983Y-3.467
X1.703Y-0.574
X1.703Y-1.615
X1.703Y-2.656
X1.703Y-3.697
X1.7073Y-0.28
X1.7073Y-1.321
X1.7073Y-2.362
X1.7073Y-3.403
X1.7375Y-0.716
X1.7375Y-1.757
X1.7375Y-2.798
X1.7375Y-3.839
X1.7687Y-0.344
X1.7687Y-1.385
X1.7687Y-2.426
X1.7687Y-3.467
X1.7802Y-0.28
X1.7802Y-1.321
X1.7802Y-2.362
X1.7802Y-3.403
X1.8113Y-0.716
X1.8113Y-1.757
X1.8113Y-2.798
X1.8113Y-3.839
X1.839Y-0.344
X1.839Y-1.385
X1.839Y-2.426
X1.839Y-3.467
X1.8531Y-0.28
X1.8531Y-1.321
X1.8531Y-2.362
X1.8531Y-3.403
X1.885Y-0.716
X1.885Y-1.757
X1.885Y-2.798
X1.885Y-3.839
X1.898Y-0.548
X1.898Y-1.589
X1.898Y-2.63
X1.898Y-3.671
X1.899Y-0.623
X1.899Y-1.664
X1.899Y-2.705
X1.899Y-3.746
X1.926Y-0.28
X1.926Y-1.321
X1.926Y-2.362
X1.926Y-3.403
X2.007Y-0.672
X2.007Y-1.713
X2.007Y-2.754
X2.007Y-3.795
X2.051Y-0.428
X2.051Y-1.469
X2.051Y-2.51
X2.051Y-3.551
X2.091Y-0.336
X2.091Y-1.377
X2.091Y-2.418
X2.091Y-3.459
X2.187Y-0.336
X2.187Y-1.377
X2.187Y-2.418
X2.187Y-3.459
X2.225Y-0.42
X2.225Y-0.4937
X2.225Y-0.5673
X2.225Y-0.641
X2.225Y-1.461
X2.225Y-1.5347
X2.225Y-1.6083
X2.225Y-1.682
X2.225Y-2.502
X2.225Y-2.5757
X2.225Y-2.6493
X2.225Y-2.723
X2.225Y-3.543
X2.225Y-3.6167
X2.225Y-3.6903
X2.225Y-3.764
X2.504Y-0.28
X2.504Y-1.321
X2.504Y-2.362
X2.504Y-3.403
X2.513Y-0.768
X2.513Y-1.809
X2.513Y-2.85
X2.513Y-3.891
X2.549Y-0.416
X2.549Y-0.4863
X2.549Y-0.5567
X2.549Y-0.627
X2.549Y-1.457
X2.549Y-1.5273
X2.549Y-1.5977
X2.549Y-1.668
X2.549Y-2.498
X2.549Y-2.5683
X2.549Y-2.6387
X2.549Y-2.709
X2.549Y-3.539
X2.549Y-3.6093
X2.549Y-3.6797
X2.549Y-3.75
X2.5769Y-0.28
X2.5769Y-1.321
X2.5769Y-2.362
X2.5769Y-3.403
X2.5898Y-0.768
X2.5898Y-1.809
X2.5898Y-2.85
X2.5898Y-3.891
X2.643Y-0.5209
X2.643Y-1.5619
X2.643Y-2.6029
X2.643Y-3.6439
X2.6667Y-0.768
X2.6667Y-1.809
X2.6667Y-2.85
X2.6667Y-3.891
X2.7227Y-0.28
X2.7227Y-1.321
X2.7227Y-2.362
X2.7227Y-3.403
X2.7435Y-0.768
X2.7435Y-1.809
X2.7435Y-2.85
X2.7435Y-3.891
X2.7956Y-0.28
X2.7956Y-1.321
X2.7956Y-2.362
X2.7956Y-3.403
X2.824Y-0.716
X2.824Y-1.757
X2.824Y-2.798
X2.824Y-3.839
X2.861Y-0.508
X2.861Y-0.5765
X2.861Y-0.645
X2.861Y-1.549
X2.861Y-1.6175
X2.861Y-1.686
X2.861Y-2.59
X2.861Y-2.6585
X2.861Y-2.727
X2.861Y-3.631
X2.861Y-3.6995
X2.861Y-3.768
X2.862Y-0.344
X2.862Y-1.385
X2.862Y-2.426
X2.862Y-3.467
X2.8684Y-0.28
X2.8684Y-1.321
X2.8684Y-2.362
X2.8684Y-3.403
X2.8977Y-0.716
X2.8977Y-1.757
X2.8977Y-2.798
X2.8977Y-3.839
X2.9323Y-0.344
X2.9323Y-1.385
X2.9323Y-2.426
X2.9323Y-3.467
X2.937Y-0.574
X2.937Y-1.615
X2.937Y-2.656
X2.937Y-3.697
X2.9413Y-0.28
X2.9413Y-1.321
X2.9413Y-2.362
X2.9413Y-3.403
X2.9715Y-0.716
X2.9715Y-1.757
X2.9715Y-2.798
X2.9715Y-3.839
X3.0027Y-0.344
X3.0027Y-1.385
X3.0027Y-2.426
X3.0027Y-3.467
X3.0142Y-0.28
X3.0142Y-1.321
X3.0142Y-2.362
X3.0142Y-3.403
X3.0452Y-0.716
X3.0452Y-1.757
X3.0452Y-2.798
X3.0452Y-3.839
X3.073Y-0.344
X3.073Y-1.385
X3.073Y-2.426
X3.073Y-3.467
X3.0871Y-0.28
X3.0871Y-1.321
X3.0871Y-2.362
X3.0871Y-3.403
X3.119Y-0.716
X3.119Y-1.757
X3.119Y-2.798
X3.119Y-3.839
X3.132Y-0.548
X3.132Y-1.589
X3.132Y-2.63
X3.132Y-3.671
X3.133Y-0.623
X3.133Y-1.664
X3.133Y-2.705
X3.133Y-3.746
X3.16Y-0.28
X3.16Y-1.321
X3.16Y-2.362
X3.16Y-3.403
X3.241Y-0.672
X3.241Y-1.713
X3.241Y-2.754
X3.241Y-3.795
X3.285Y-0.428
X3.285Y-1.469
X3.285Y-2.51
X3.285Y-3.551
X3.325Y-0.336
X3.325Y-1.377
X3.325Y-2.418
X3.325Y-3.459
X3.421Y-0.336
X3.421Y-1.377
X3.421Y-2.418
X3.421Y-3.459
X3.459Y-0.42
X3.459Y-0.4937
X3.459Y-0.5673
X3.459Y-0.641
X3.459Y-1.461
X3.459Y-1.5347
X3.459Y-1.6083
X3.459Y-1.682
X3.459Y-2.502
X3.459Y-2.5757
X3.459Y-2.6493
X3.459Y-2.723
X3.459Y-3.543
X3.459Y-3.6167
X3.459Y-3.6903
X3.459Y-3.764
T3
X0.0586Y-0.8704
X0.0586Y-0.9704
X0.0586Y-1.9114
X0.0586Y-2.0114
X0.0586Y-2.9524
X0.0586Y-3.0524
X0.0586Y-3.9934
X0.0586Y-4.0934
X0.059Y-0.0716
X0.059Y-0.1716
X0.059Y-1.1126
X0.059Y-1.2126
X0.059Y-2.1536
X0.059Y-2.2536
X0.059Y-3.1946
X0.059Y-3.2946
X0.1586Y-0.8704
X0.1586Y-0.9704
X0.1586Y-1.9114
X0.1586Y-2.0114
X0.1586Y-2.9524
X0.1586Y-3.0524
X0.1586Y-3.9934
X0.1586Y-4.0934
X0.159Y-0.0716
X0.159Y-0.1716
X0.159Y-1.1126
X0.159Y-1.2126
X0.159Y-2.1536
X0.159Y-2.2536
X0.159Y-3.1946
X0.159Y-3.2946
X0.2586Y-0.8704
X0.2586Y-0.9704
X0.2586Y-1.9114
X0.2586Y-2.0114
X0.2586Y-2.9524
X0.2586Y-3.0524
X0.2586Y-3.9934
X0.2586Y-4.0934
X0.259Y-0.0716
X0.259Y-0.1716
X0.259Y-1.1126
X0.259Y-1.2126
X0.259Y-2.1536
X0.259Y-2.2536
X0.259Y-3.1946
X0.259Y-3.2946
X0.3586Y-0.8704
X0.3586Y-0.9704
X0.3586Y-1.9114
X0.3586Y-2.0114
X0.3586Y-2.9524
X0.3586Y-3.0524
X0.3586Y-3.9934
X0.3586Y-4.0934
X0.359Y-0.0716
X0.359Y-0.1716
X0.359Y-1.1126
X0.359Y-1.2126
X0.359Y-2.1536
X0.359Y-2.2536
X0.359Y-3.1946
X0.359Y-3.2946
X0.4586Y-0.8704
X0.4586Y-0.9704
X0.4586Y-1.9114
X0.4586Y-2.0114
X0.4586Y-2.9524
X0.4586Y-3.0524
X0.4586Y-3.9934
X0.4586Y-4.0934
X0.459Y-0.0716
X0.459Y-0.1716
X0.459Y-1.1126
X0.459Y-1.2126
X0.459Y-2.1536
X0.459Y-2.2536
X0.459Y-3.1946
X0.459Y-3.2946
X0.5586Y-0.8704
X0.5586Y-0.9704
X0.5586Y-1.9114
X0.5586Y-2.0114
X0.5586Y-2.9524
X0.5586Y-3.0524
X0.5586Y-3.9934
X0.5586Y-4.0934
X0.559Y-0.0716
X0.559Y-0.1716
X0.559Y-1.1126
X0.559Y-1.2126
X0.559Y-2.1536
X0.559Y-2.2536
X0.559Y-3.1946
X0.559Y-3.2946
X0.6586Y-0.8704
X0.6586Y-0.9704
X0.6586Y-1.9114
X0.6586Y-2.0114
X0.6586Y-2.9524
X0.6586Y-3.0524
X0.6586Y-3.9934
X0.6586Y-4.0934
X0.659Y-0.0716
X0.659Y-0.1716
X0.659Y-1.1126
X0.659Y-1.2126
X0.659Y-2.1536
X0.659Y-2.2536
X0.659Y-3.1946
X0.659Y-3.2946
X0.7586Y-0.8704
X0.7586Y-0.9704
X0.7586Y-1.9114
X0.7586Y-2.0114
X0.7586Y-2.9524
X0.7586Y-3.0524
X0.7586Y-3.9934
X0.7586Y-4.0934
X0.759Y-0.0716
X0.759Y-0.1716
X0.759Y-1.1126
X0.759Y-1.2126
X0.759Y-2.1536
X0.759Y-2.2536
X0.759Y-3.1946
X0.759Y-3.2946
X0.8586Y-0.8704
X0.8586Y-0.9704
X0.8586Y-1.9114
X0.8586Y-2.0114
X0.8586Y-2.9524
X0.8586Y-3.0524
X0.8586Y-3.9934
X0.8586Y-4.0934
X0.859Y-0.0716
X0.859Y-0.1716
X0.859Y-1.1126
X0.859Y-1.2126
X0.859Y-2.1536
X0.859Y-2.2536
X0.859Y-3.1946
X0.859Y-3.2946
X0.9586Y-0.8704
X0.9586Y-0.9704
X0.9586Y-1.9114
X0.9586Y-2.0114
X0.9586Y-2.9524
X0.9586Y-3.0524
X0.9586Y-3.9934
X0.9586Y-4.0934
X0.959Y-0.0716
X0.959Y-0.1716
X0.959Y-1.1126
X0.959Y-1.2126
X0.959Y-2.1536
X0.959Y-2.2536
X0.959Y-3.1946
X0.959Y-3.2946
X1.0628Y-0.0712
X1.0628Y-0.1712
X1.0628Y-0.2712
X1.0628Y-0.3712
X1.0628Y-0.4712
X1.0628Y-0.5712
X1.0628Y-0.6712
X1.0628Y-0.7712
X1.0628Y-0.8712
X1.0628Y-0.9712
X1.0628Y-1.1122
X1.0628Y-1.2122
X1.0628Y-1.3122
X1.0628Y-1.4122
X1.0628Y-1.5122
X1.0628Y-1.6122
X1.0628Y-1.7122
X1.0628Y-1.8122
X1.0628Y-1.9122
X1.0628Y-2.0122
X1.0628Y-2.1532
X1.0628Y-2.2532
X1.0628Y-2.3532
X1.0628Y-2.4532
X1.0628Y-2.5532
X1.0628Y-2.6532
X1.0628Y-2.7532
X1.0628Y-2.8532
X1.0628Y-2.9532
X1.0628Y-3.0532
X1.0628Y-3.1942
X1.0628Y-3.2942
X1.0628Y-3.3942
X1.0628Y-3.4942
X1.0628Y-3.5942
X1.0628Y-3.6942
X1.0628Y-3.7942
X1.0628Y-3.8942
X1.0628Y-3.9942
X1.0628Y-4.0942
X1.1628Y-0.0712
X1.1628Y-0.1712
X1.1628Y-0.2712
X1.1628Y-0.3712
X1.1628Y-0.4712
X1.1628Y-0.5712
X1.1628Y-0.6712
X1.1628Y-0.7712
X1.1628Y-0.8712
X1.1628Y-0.9712
X1.1628Y-1.1122
X1.1628Y-1.2122
X1.1628Y-1.3122
X1.1628Y-1.4122
X1.1628Y-1.5122
X1.1628Y-1.6122
X1.1628Y-1.7122
X1.1628Y-1.8122
X1.1628Y-1.9122
X1.1628Y-2.0122
X1.1628Y-2.1532
X1.1628Y-2.2532
X1.1628Y-2.3532
X1.1628Y-2.4532
X1.1628Y-2.5532
X1.1628Y-2.6532
X1.1628Y-2.7532
X1.1628Y-2.8532
X1.1628Y-2.9532
X1.1628Y-3.0532
X1.1628Y-3.1942
X1.1628Y-3.2942
X1.1628Y-3.3942
X1.1628Y-3.4942
X1.1628Y-3.5942
X1.1628Y-3.6942
X1.1628Y-3.7942
X1.1628Y-3.8942
X1.1628Y-3.9942
X1.1628Y-4.0942
X1.2926Y-0.8704
X1.2926Y-0.9704
X1.2926Y-1.9114
X1.2926Y-2.0114
X1.2926Y-2.9524
X1.2926Y-3.0524
X1.2926Y-3.9934
X1.2926Y-4.0934
X1.293Y-0.0716
X1.293Y-0.1716
X1.293Y-1.1126
X1.293Y-1.2126
X1.293Y-2.1536
X1.293Y-2.2536
X1.293Y-3.1946
X1.293Y-3.2946
X1.3926Y-0.8704
X1.3926Y-0.9704
X1.3926Y-1.9114
X1.3926Y-2.0114
X1.3926Y-2.9524
X1.3926Y-3.0524
X1.3926Y-3.9934
X1.3926Y-4.0934
X1.393Y-0.0716
X1.393Y-0.1716
X1.393Y-1.1126
X1.393Y-1.2126
X1.393Y-2.1536
X1.393Y-2.2536
X1.393Y-3.1946
X1.393Y-3.2946
X1.4926Y-0.8704
X1.4926Y-0.9704
X1.4926Y-1.9114
X1.4926Y-2.0114
X1.4926Y-2.9524
X1.4926Y-3.0524
X1.4926Y-3.9934
X1.4926Y-4.0934
X1.493Y-0.0716
X1.493Y-0.1716
X1.493Y-1.1126
X1.493Y-1.2126
X1.493Y-2.1536
X1.493Y-2.2536
X1.493Y-3.1946
X1.493Y-3.2946
X1.5926Y-0.8704
X1.5926Y-0.9704
X1.5926Y-1.9114
X1.5926Y-2.0114
X1.5926Y-2.9524
X1.5926Y-3.0524
X1.5926Y-3.9934
X1.5926Y-4.0934
X1.593Y-0.0716
X1.593Y-0.1716
X1.593Y-1.1126
X1.593Y-1.2126
X1.593Y-2.1536
X1.593Y-2.2536
X1.593Y-3.1946
X1.593Y-3.2946
X1.6926Y-0.8704
X1.6926Y-0.9704
X1.6926Y-1.9114
X1.6926Y-2.0114
X1.6926Y-2.9524
X1.6926Y-3.0524
X1.6926Y-3.9934
X1.6926Y-4.0934
X1.693Y-0.0716
X1.693Y-0.1716
X1.693Y-1.1126
X1.693Y-1.2126
X1.693Y-2.1536
X1.693Y-2.2536
X1.693Y-3.1946
X1.693Y-3.2946
X1.7926Y-0.8704
X1.7926Y-0.9704
X1.7926Y-1.9114
X1.7926Y-2.0114
X1.7926Y-2.9524
X1.7926Y-3.0524
X1.7926Y-3.9934
X1.7926Y-4.0934
X1.793Y-0.0716
X1.793Y-0.1716
X1.793Y-1.1126
X1.793Y-1.2126
X1.793Y-2.1536
X1.793Y-2.2536
X1.793Y-3.1946
X1.793Y-3.2946
X1.8926Y-0.8704
X1.8926Y-0.9704
X1.8926Y-1.9114
X1.8926Y-2.0114
X1.8926Y-2.9524
X1.8926Y-3.0524
X1.8926Y-3.9934
X1.8926Y-4.0934
X1.893Y-0.0716
X1.893Y-0.1716
X1.893Y-1.1126
X1.893Y-1.2126
X1.893Y-2.1536
X1.893Y-2.2536
X1.893Y-3.1946
X1.893Y-3.2946
X1.9926Y-0.8704
X1.9926Y-0.9704
X1.9926Y-1.9114
X1.9926Y-2.0114
X1.9926Y-2.9524
X1.9926Y-3.0524
X1.9926Y-3.9934
X1.9926Y-4.0934
X1.993Y-0.0716
X1.993Y-0.1716
X1.993Y-1.1126
X1.993Y-1.2126
X1.993Y-2.1536
X1.993Y-2.2536
X1.993Y-3.1946
X1.993Y-3.2946
X2.0926Y-0.8704
X2.0926Y-0.9704
X2.0926Y-1.9114
X2.0926Y-2.0114
X2.0926Y-2.9524
X2.0926Y-3.0524
X2.0926Y-3.9934
X2.0926Y-4.0934
X2.093Y-0.0716
X2.093Y-0.1716
X2.093Y-1.1126
X2.093Y-1.2126
X2.093Y-2.1536
X2.093Y-2.2536
X2.093Y-3.1946
X2.093Y-3.2946
X2.1926Y-0.8704
X2.1926Y-0.9704
X2.1926Y-1.9114
X2.1926Y-2.0114
X2.1926Y-2.9524
X2.1926Y-3.0524
X2.1926Y-3.9934
X2.1926Y-4.0934
X2.193Y-0.0716
X2.193Y-0.1716
X2.193Y-1.1126
X2.193Y-1.2126
X2.193Y-2.1536
X2.193Y-2.2536
X2.193Y-3.1946
X2.193Y-3.2946
X2.2968Y-0.0712
X2.2968Y-0.1712
X2.2968Y-0.2712
X2.2968Y-0.3712
X2.2968Y-0.4712
X2.2968Y-0.5712
X2.2968Y-0.6712
X2.2968Y-0.7712
X2.2968Y-0.8712
X2.2968Y-0.9712
X2.2968Y-1.1122
X2.2968Y-1.2122
X2.2968Y-1.3122
X2.2968Y-1.4122
X2.2968Y-1.5122
X2.2968Y-1.6122
X2.2968Y-1.7122
X2.2968Y-1.8122
X2.2968Y-1.9122
X2.2968Y-2.0122
X2.2968Y-2.1532
X2.2968Y-2.2532
X2.2968Y-2.3532
X2.2968Y-2.4532
X2.2968Y-2.5532
X2.2968Y-2.6532
X2.2968Y-2.7532
X2.2968Y-2.8532
X2.2968Y-2.9532
X2.2968Y-3.0532
X2.2968Y-3.1942
X2.2968Y-3.2942
X2.2968Y-3.3942
X2.2968Y-3.4942
X2.2968Y-3.5942
X2.2968Y-3.6942
X2.2968Y-3.7942
X2.2968Y-3.8942
X2.2968Y-3.9942
X2.2968Y-4.0942
X2.3968Y-0.0712
X2.3968Y-0.1712
X2.3968Y-0.2712
X2.3968Y-0.3712
X2.3968Y-0.4712
X2.3968Y-0.5712
X2.3968Y-0.6712
X2.3968Y-0.7712
X2.3968Y-0.8712
X2.3968Y-0.9712
X2.3968Y-1.1122
X2.3968Y-1.2122
X2.3968Y-1.3122
X2.3968Y-1.4122
X2.3968Y-1.5122
X2.3968Y-1.6122
X2.3968Y-1.7122
X2.3968Y-1.8122
X2.3968Y-1.9122
X2.3968Y-2.0122
X2.3968Y-2.1532
X2.3968Y-2.2532
X2.3968Y-2.3532
X2.3968Y-2.4532
X2.3968Y-2.5532
X2.3968Y-2.6532
X2.3968Y-2.7532
X2.3968Y-2.8532
X2.3968Y-2.9532
X2.3968Y-3.0532
X2.3968Y-3.1942
X2.3968Y-3.2942
X2.3968Y-3.3942
X2.3968Y-3.4942
X2.3968Y-3.5942
X2.3968Y-3.6942
X2.3968Y-3.7942
X2.3968Y-3.8942
X2.3968Y-3.9942
X2.3968Y-4.0942
X2.5266Y-0.8704
X2.5266Y-0.9704
X2.5266Y-1.9114
X2.5266Y-2.0114
X2.5266Y-2.9524
X2.5266Y-3.0524
X2.5266Y-3.9934
X2.5266Y-4.0934
X2.527Y-0.0716
X2.527Y-0.1716
X2.527Y-1.1126
X2.527Y-1.2126
X2.527Y-2.1536
X2.527Y-2.2536
X2.527Y-3.1946
X2.527Y-3.2946
X2.6266Y-0.8704
X2.6266Y-0.9704
X2.6266Y-1.9114
X2.6266Y-2.0114
X2.6266Y-2.9524
X2.6266Y-3.0524
X2.6266Y-3.9934
X2.6266Y-4.0934
X2.627Y-0.0716
X2.627Y-0.1716
X2.627Y-1.1126
X2.627Y-1.2126
X2.627Y-2.1536
X2.627Y-2.2536
X2.627Y-3.1946
X2.627Y-3.2946
X2.7266Y-0.8704
X2.7266Y-0.9704
X2.7266Y-1.9114
X2.7266Y-2.0114
X2.7266Y-2.9524
X2.7266Y-3.0524
X2.7266Y-3.9934
X2.7266Y-4.0934
X2.727Y-0.0716
X2.727Y-0.1716
X2.727Y-1.1126
X2.727Y-1.2126
X2.727Y-2.1536
X2.727Y-2.2536
X2.727Y-3.1946
X2.727Y-3.2946
X2.8266Y-0.8704
X2.8266Y-0.9704
X2.8266Y-1.9114
X2.8266Y-2.0114
X2.8266Y-2.9524
X2.8266Y-3.0524
X2.8266Y-3.9934
X2.8266Y-4.0934
X2.827Y-0.0716
X2.827Y-0.1716
X2.827Y-1.1126
X2.827Y-1.2126
X2.827Y-2.1536
X2.827Y-2.2536
X2.827Y-3.1946
X2.827Y-3.2946
X2.9266Y-0.8704
X2.9266Y-0.9704
X2.9266Y-1.9114
X2.9266Y-2.0114
X2.9266Y-2.9524
X2.9266Y-3.0524
X2.9266Y-3.9934
X2.9266Y-4.0934
X2.927Y-0.0716
X2.927Y-0.1716
X2.927Y-1.1126
X2.927Y-1.2126
X2.927Y-2.1536
X2.927Y-2.2536
X2.927Y-3.1946
X2.927Y-3.2946
X3.0266Y-0.8704
X3.0266Y-0.9704
X3.0266Y-1.9114
X3.0266Y-2.0114
X3.0266Y-2.9524
X3.0266Y-3.0524
X3.0266Y-3.9934
X3.0266Y-4.0934
X3.027Y-0.0716
X3.027Y-0.1716
X3.027Y-1.1126
X3.027Y-1.2126
X3.027Y-2.1536
X3.027Y-2.2536
X3.027Y-3.1946
X3.027Y-3.2946
X3.1266Y-0.8704
X3.1266Y-0.9704
X3.1266Y-1.9114
X3.1266Y-2.0114
X3.1266Y-2.9524
X3.1266Y-3.0524
X3.1266Y-3.9934
X3.1266Y-4.0934
X3.127Y-0.0716
X3.127Y-0.1716
X3.127Y-1.1126
X3.127Y-1.2126
X3.127Y-2.1536
X3.127Y-2.2536
X3.127Y-3.1946
X3.127Y-3.2946
X3.2266Y-0.8704
X3.2266Y-0.9704
X3.2266Y-1.9114
X3.2266Y-2.0114
X3.2266Y-2.9524
X3.2266Y-3.0524
X3.2266Y-3.9934
X3.2266Y-4.0934
X3.227Y-0.0716
X3.227Y-0.1716
X3.227Y-1.1126
X3.227Y-1.2126
X3.227Y-2.1536
X3.227Y-2.2536
X3.227Y-3.1946
X3.227Y-3.2946
X3.3266Y-0.8704
X3.3266Y-0.9704
X3.3266Y-1.9114
X3.3266Y-2.0114
X3.3266Y-2.9524
X3.3266Y-3.0524
X3.3266Y-3.9934
X3.3266Y-4.0934
X3.327Y-0.0716
X3.327Y-0.1716
X3.327Y-1.1126
X3.327Y-1.2126
X3.327Y-2.1536
X3.327Y-2.2536
X3.327Y-3.1946
X3.327Y-3.2946
X3.4266Y-0.8704
X3.4266Y-0.9704
X3.4266Y-1.9114
X3.4266Y-2.0114
X3.4266Y-2.9524
X3.4266Y-3.0524
X3.4266Y-3.9934
X3.4266Y-4.0934
X3.427Y-0.0716
X3.427Y-0.1716
X3.427Y-1.1126
X3.427Y-1.2126
X3.427Y-2.1536
X3.427Y-2.2536
X3.427Y-3.1946
X3.427Y-3.2946
X3.5308Y-0.0712
X3.5308Y-0.1712
X3.5308Y-0.2712
X3.5308Y-0.3712
X3.5308Y-0.4712
X3.5308Y-0.5712
X3.5308Y-0.6712
X3.5308Y-0.7712
X3.5308Y-0.8712
X3.5308Y-0.9712
X3.5308Y-1.1122
X3.5308Y-1.2122
X3.5308Y-1.3122
X3.5308Y-1.4122
X3.5308Y-1.5122
X3.5308Y-1.6122
X3.5308Y-1.7122
X3.5308Y-1.8122
X3.5308Y-1.9122
X3.5308Y-2.0122
X3.5308Y-2.1532
X3.5308Y-2.2532
X3.5308Y-2.3532
X3.5308Y-2.4532
X3.5308Y-2.5532
X3.5308Y-2.6532
X3.5308Y-2.7532
X3.5308Y-2.8532
X3.5308Y-2.9532
X3.5308Y-3.0532
X3.5308Y-3.1942
X3.5308Y-3.2942
X3.5308Y-3.3942
X3.5308Y-3.4942
X3.5308Y-3.5942
X3.5308Y-3.6942
X3.5308Y-3.7942
X3.5308Y-3.8942
X3.5308Y-3.9942
X3.5308Y-4.0942
X3.6308Y-0.0712
X3.6308Y-0.1712
X3.6308Y-0.2712
X3.6308Y-0.3712
X3.6308Y-0.4712
X3.6308Y-0.5712
X3.6308Y-0.6712
X3.6308Y-0.7712
X3.6308Y-0.8712
X3.6308Y-0.9712
X3.6308Y-1.1122
X3.6308Y-1.2122
X3.6308Y-1.3122
X3.6308Y-1.4122
X3.6308Y-1.5122
X3.6308Y-1.6122
X3.6308Y-1.7122
X3.6308Y-1.8122
X3.6308Y-1.9122
X3.6308Y-2.0122
X3.6308Y-2.1532
X3.6308Y-2.2532
X3.6308Y-2.3532
X3.6308Y-2.4532
X3.6308Y-2.5532
X3.6308Y-2.6532
X3.6308Y-2.7532
X3.6308Y-2.8532
X3.6308Y-2.9532
X3.6308Y-3.0532
X3.6308Y-3.1942
X3.6308Y-3.2942
X3.6308Y-3.3942
X3.6308Y-3.4942
X3.6308Y-3.5942
X3.6308Y-3.6942
X3.6308Y-3.7942
X3.6308Y-3.8942
X3.6308Y-3.9942
X3.6308Y-4.0942
T2
G00X0.1135Y-0.3509
M15
G01X0.0899Y-0.3509
M16
G05
G00X0.1135Y-0.6911
M15
G01X0.0899Y-0.6911
M16
G05
G00X0.1135Y-1.3919
M15
G01X0.0899Y-1.3919
M16
G05
G00X0.1135Y-1.7321
M15
G01X0.0899Y-1.7321
M16
G05
G00X0.1135Y-2.4329
M15
G01X0.0899Y-2.4329
M16
G05
G00X0.1135Y-2.7731
M15
G01X0.0899Y-2.7731
M16
G05
G00X0.1135Y-3.4739
M15
G01X0.0899Y-3.4739
M16
G05
G00X0.1135Y-3.8141
M15
G01X0.0899Y-3.8141
M16
G05
G00X0.2879Y-0.3509
M15
G01X0.2446Y-0.3509
M16
G05
G00X0.2879Y-0.6911
M15
G01X0.2446Y-0.6911
M16
G05
G00X0.2879Y-1.3919
M15
G01X0.2446Y-1.3919
M16
G05
G00X0.2879Y-1.7321
M15
G01X0.2446Y-1.7321
M16
G05
G00X0.2879Y-2.4329
M15
G01X0.2446Y-2.4329
M16
G05
G00X0.2879Y-2.7731
M15
G01X0.2446Y-2.7731
M16
G05
G00X0.2879Y-3.4739
M15
G01X0.2446Y-3.4739
M16
G05
G00X0.2879Y-3.8141
M15
G01X0.2446Y-3.8141
M16
G05
G00X1.3475Y-0.3509
M15
G01X1.3239Y-0.3509
M16
G05
G00X1.3475Y-0.6911
M15
G01X1.3239Y-0.6911
M16
G05
G00X1.3475Y-1.3919
M15
G01X1.3239Y-1.3919
M16
G05
G00X1.3475Y-1.7321
M15
G01X1.3239Y-1.7321
M16
G05
G00X1.3475Y-2.4329
M15
G01X1.3239Y-2.4329
M16
G05
G00X1.3475Y-2.7731
M15
G01X1.3239Y-2.7731
M16
G05
G00X1.3475Y-3.4739
M15
G01X1.3239Y-3.4739
M16
G05
G00X1.3475Y-3.8141
M15
G01X1.3239Y-3.8141
M16
G05
G00X1.5219Y-0.3509
M15
G01X1.4786Y-0.3509
M16
G05
G00X1.5219Y-0.6911
M15
G01X1.4786Y-0.6911
M16
G05
G00X1.5219Y-1.3919
M15
G01X1.4786Y-1.3919
M16
G05
G00X1.5219Y-1.7321
M15
G01X1.4786Y-1.7321
M16
G05
G00X1.5219Y-2.4329
M15
G01X1.4786Y-2.4329
M16
G05
G00X1.5219Y-2.7731
M15
G01X1.4786Y-2.7731
M16
G05
G00X1.5219Y-3.4739
M15
G01X1.4786Y-3.4739
M16
G05
G00X1.5219Y-3.8141
M15
G01X1.4786Y-3.8141
M16
G05
G00X2.5815Y-0.3509
M15
G01X2.5579Y-0.3509
M16
G05
G00X2.5815Y-0.6911
M15
G01X2.5579Y-0.6911
M16
G05
G00X2.5815Y-1.3919
M15
G01X2.5579Y-1.3919
M16
G05
G00X2.5815Y-1.7321
M15
G01X2.5579Y-1.7321
M16
G05
G00X2.5815Y-2.4329
M15
G01X2.5579Y-2.4329
M16
G05
G00X2.5815Y-2.7731
M15
G01X2.5579Y-2.7731
M16
G05
G00X2.5815Y-3.4739
M15
G01X2.5579Y-3.4739
M16
G05
G00X2.5815Y-3.8141
M15
G01X2.5579Y-3.8141
M16
G05
G00X2.7559Y-0.3509
M15
G01X2.7126Y-0.3509
M16
G05
G00X2.7559Y-0.6911
M15
G01X2.7126Y-0.6911
M16
G05
G00X2.7559Y-1.3919
M15
G01X2.7126Y-1.3919
M16
G05
G00X2.7559Y-1.7321
M15
G01X2.7126Y-1.7321
M16
G05
G00X2.7559Y-2.4329
M15
G01X2.7126Y-2.4329
M16
G05
G00X2.7559Y-2.7731
M15
G01X2.7126Y-2.7731
M16
G05
G00X2.7559Y-3.4739
M15
G01X2.7126Y-3.4739
M16
G05
G00X2.7559Y-3.8141
M15
G01X2.7126Y-3.8141
M16
G05
T0
M30
