%TF.GenerationSoftware,KiCad,Pcbnew,7.0.6*%
%TF.CreationDate,2023-09-22T02:01:45+08:00*%
%TF.ProjectId,power_ex_board_muti,706f7765-725f-4657-985f-626f6172645f,rev?*%
%TF.SameCoordinates,Original*%
%TF.FileFunction,Soldermask,Bot*%
%TF.FilePolarity,Negative*%
%FSLAX46Y46*%
G04 Gerber Fmt 4.6, Leading zero omitted, Abs format (unit mm)*
G04 Created by KiCad (PCBNEW 7.0.6) date 2023-09-22 02:01:45*
%MOMM*%
%LPD*%
G01*
G04 APERTURE LIST*
%ADD10C,0.152400*%
%ADD11R,1.700000X1.700000*%
%ADD12O,1.700000X1.700000*%
%ADD13C,0.650000*%
%ADD14O,2.100000X1.000000*%
%ADD15O,1.600000X1.000000*%
G04 APERTURE END LIST*
D10*
X87364032Y-19325345D02*
X87025365Y-19325345D01*
X86880222Y-19857535D02*
X87364032Y-19857535D01*
X87364032Y-19857535D02*
X87364032Y-18841535D01*
X87364032Y-18841535D02*
X86880222Y-18841535D01*
X86493175Y-19809155D02*
X86348032Y-19857535D01*
X86348032Y-19857535D02*
X86106127Y-19857535D01*
X86106127Y-19857535D02*
X86009365Y-19809155D01*
X86009365Y-19809155D02*
X85960984Y-19760774D01*
X85960984Y-19760774D02*
X85912603Y-19664012D01*
X85912603Y-19664012D02*
X85912603Y-19567250D01*
X85912603Y-19567250D02*
X85960984Y-19470488D01*
X85960984Y-19470488D02*
X86009365Y-19422107D01*
X86009365Y-19422107D02*
X86106127Y-19373726D01*
X86106127Y-19373726D02*
X86299651Y-19325345D01*
X86299651Y-19325345D02*
X86396413Y-19276964D01*
X86396413Y-19276964D02*
X86444794Y-19228583D01*
X86444794Y-19228583D02*
X86493175Y-19131821D01*
X86493175Y-19131821D02*
X86493175Y-19035059D01*
X86493175Y-19035059D02*
X86444794Y-18938297D01*
X86444794Y-18938297D02*
X86396413Y-18889916D01*
X86396413Y-18889916D02*
X86299651Y-18841535D01*
X86299651Y-18841535D02*
X86057746Y-18841535D01*
X86057746Y-18841535D02*
X85912603Y-18889916D01*
X85477175Y-19857535D02*
X85477175Y-18841535D01*
X85477175Y-18841535D02*
X85090127Y-18841535D01*
X85090127Y-18841535D02*
X84993365Y-18889916D01*
X84993365Y-18889916D02*
X84944984Y-18938297D01*
X84944984Y-18938297D02*
X84896603Y-19035059D01*
X84896603Y-19035059D02*
X84896603Y-19180202D01*
X84896603Y-19180202D02*
X84944984Y-19276964D01*
X84944984Y-19276964D02*
X84993365Y-19325345D01*
X84993365Y-19325345D02*
X85090127Y-19373726D01*
X85090127Y-19373726D02*
X85477175Y-19373726D01*
X84461175Y-19470488D02*
X83687080Y-19470488D01*
X83203270Y-19857535D02*
X83203270Y-18841535D01*
X83203270Y-18841535D02*
X82816222Y-18841535D01*
X82816222Y-18841535D02*
X82719460Y-18889916D01*
X82719460Y-18889916D02*
X82671079Y-18938297D01*
X82671079Y-18938297D02*
X82622698Y-19035059D01*
X82622698Y-19035059D02*
X82622698Y-19180202D01*
X82622698Y-19180202D02*
X82671079Y-19276964D01*
X82671079Y-19276964D02*
X82719460Y-19325345D01*
X82719460Y-19325345D02*
X82816222Y-19373726D01*
X82816222Y-19373726D02*
X83203270Y-19373726D01*
X82042127Y-19857535D02*
X82138889Y-19809155D01*
X82138889Y-19809155D02*
X82187270Y-19760774D01*
X82187270Y-19760774D02*
X82235651Y-19664012D01*
X82235651Y-19664012D02*
X82235651Y-19373726D01*
X82235651Y-19373726D02*
X82187270Y-19276964D01*
X82187270Y-19276964D02*
X82138889Y-19228583D01*
X82138889Y-19228583D02*
X82042127Y-19180202D01*
X82042127Y-19180202D02*
X81896984Y-19180202D01*
X81896984Y-19180202D02*
X81800222Y-19228583D01*
X81800222Y-19228583D02*
X81751841Y-19276964D01*
X81751841Y-19276964D02*
X81703460Y-19373726D01*
X81703460Y-19373726D02*
X81703460Y-19664012D01*
X81703460Y-19664012D02*
X81751841Y-19760774D01*
X81751841Y-19760774D02*
X81800222Y-19809155D01*
X81800222Y-19809155D02*
X81896984Y-19857535D01*
X81896984Y-19857535D02*
X82042127Y-19857535D01*
X81364794Y-19180202D02*
X81171270Y-19857535D01*
X81171270Y-19857535D02*
X80977746Y-19373726D01*
X80977746Y-19373726D02*
X80784222Y-19857535D01*
X80784222Y-19857535D02*
X80590698Y-19180202D01*
X79816603Y-19809155D02*
X79913365Y-19857535D01*
X79913365Y-19857535D02*
X80106889Y-19857535D01*
X80106889Y-19857535D02*
X80203651Y-19809155D01*
X80203651Y-19809155D02*
X80252032Y-19712393D01*
X80252032Y-19712393D02*
X80252032Y-19325345D01*
X80252032Y-19325345D02*
X80203651Y-19228583D01*
X80203651Y-19228583D02*
X80106889Y-19180202D01*
X80106889Y-19180202D02*
X79913365Y-19180202D01*
X79913365Y-19180202D02*
X79816603Y-19228583D01*
X79816603Y-19228583D02*
X79768222Y-19325345D01*
X79768222Y-19325345D02*
X79768222Y-19422107D01*
X79768222Y-19422107D02*
X80252032Y-19518869D01*
X79332794Y-19857535D02*
X79332794Y-19180202D01*
X79332794Y-19373726D02*
X79284413Y-19276964D01*
X79284413Y-19276964D02*
X79236032Y-19228583D01*
X79236032Y-19228583D02*
X79139270Y-19180202D01*
X79139270Y-19180202D02*
X79042508Y-19180202D01*
X78703842Y-19470488D02*
X77929747Y-19470488D01*
X77445937Y-19325345D02*
X77107270Y-19325345D01*
X76962127Y-19857535D02*
X77445937Y-19857535D01*
X77445937Y-19857535D02*
X77445937Y-18841535D01*
X77445937Y-18841535D02*
X76962127Y-18841535D01*
X76623461Y-19857535D02*
X76091270Y-19180202D01*
X76623461Y-19180202D02*
X76091270Y-19857535D01*
X75704223Y-19470488D02*
X74930128Y-19470488D01*
X74107651Y-19325345D02*
X73962508Y-19373726D01*
X73962508Y-19373726D02*
X73914127Y-19422107D01*
X73914127Y-19422107D02*
X73865746Y-19518869D01*
X73865746Y-19518869D02*
X73865746Y-19664012D01*
X73865746Y-19664012D02*
X73914127Y-19760774D01*
X73914127Y-19760774D02*
X73962508Y-19809155D01*
X73962508Y-19809155D02*
X74059270Y-19857535D01*
X74059270Y-19857535D02*
X74446318Y-19857535D01*
X74446318Y-19857535D02*
X74446318Y-18841535D01*
X74446318Y-18841535D02*
X74107651Y-18841535D01*
X74107651Y-18841535D02*
X74010889Y-18889916D01*
X74010889Y-18889916D02*
X73962508Y-18938297D01*
X73962508Y-18938297D02*
X73914127Y-19035059D01*
X73914127Y-19035059D02*
X73914127Y-19131821D01*
X73914127Y-19131821D02*
X73962508Y-19228583D01*
X73962508Y-19228583D02*
X74010889Y-19276964D01*
X74010889Y-19276964D02*
X74107651Y-19325345D01*
X74107651Y-19325345D02*
X74446318Y-19325345D01*
X73285175Y-19857535D02*
X73381937Y-19809155D01*
X73381937Y-19809155D02*
X73430318Y-19760774D01*
X73430318Y-19760774D02*
X73478699Y-19664012D01*
X73478699Y-19664012D02*
X73478699Y-19373726D01*
X73478699Y-19373726D02*
X73430318Y-19276964D01*
X73430318Y-19276964D02*
X73381937Y-19228583D01*
X73381937Y-19228583D02*
X73285175Y-19180202D01*
X73285175Y-19180202D02*
X73140032Y-19180202D01*
X73140032Y-19180202D02*
X73043270Y-19228583D01*
X73043270Y-19228583D02*
X72994889Y-19276964D01*
X72994889Y-19276964D02*
X72946508Y-19373726D01*
X72946508Y-19373726D02*
X72946508Y-19664012D01*
X72946508Y-19664012D02*
X72994889Y-19760774D01*
X72994889Y-19760774D02*
X73043270Y-19809155D01*
X73043270Y-19809155D02*
X73140032Y-19857535D01*
X73140032Y-19857535D02*
X73285175Y-19857535D01*
X72075651Y-19857535D02*
X72075651Y-19325345D01*
X72075651Y-19325345D02*
X72124032Y-19228583D01*
X72124032Y-19228583D02*
X72220794Y-19180202D01*
X72220794Y-19180202D02*
X72414318Y-19180202D01*
X72414318Y-19180202D02*
X72511080Y-19228583D01*
X72075651Y-19809155D02*
X72172413Y-19857535D01*
X72172413Y-19857535D02*
X72414318Y-19857535D01*
X72414318Y-19857535D02*
X72511080Y-19809155D01*
X72511080Y-19809155D02*
X72559461Y-19712393D01*
X72559461Y-19712393D02*
X72559461Y-19615631D01*
X72559461Y-19615631D02*
X72511080Y-19518869D01*
X72511080Y-19518869D02*
X72414318Y-19470488D01*
X72414318Y-19470488D02*
X72172413Y-19470488D01*
X72172413Y-19470488D02*
X72075651Y-19422107D01*
X71591842Y-19857535D02*
X71591842Y-19180202D01*
X71591842Y-19373726D02*
X71543461Y-19276964D01*
X71543461Y-19276964D02*
X71495080Y-19228583D01*
X71495080Y-19228583D02*
X71398318Y-19180202D01*
X71398318Y-19180202D02*
X71301556Y-19180202D01*
X70527461Y-19857535D02*
X70527461Y-18841535D01*
X70527461Y-19809155D02*
X70624223Y-19857535D01*
X70624223Y-19857535D02*
X70817747Y-19857535D01*
X70817747Y-19857535D02*
X70914509Y-19809155D01*
X70914509Y-19809155D02*
X70962890Y-19760774D01*
X70962890Y-19760774D02*
X71011271Y-19664012D01*
X71011271Y-19664012D02*
X71011271Y-19373726D01*
X71011271Y-19373726D02*
X70962890Y-19276964D01*
X70962890Y-19276964D02*
X70914509Y-19228583D01*
X70914509Y-19228583D02*
X70817747Y-19180202D01*
X70817747Y-19180202D02*
X70624223Y-19180202D01*
X70624223Y-19180202D02*
X70527461Y-19228583D01*
X56020432Y-19325345D02*
X55681765Y-19325345D01*
X55536622Y-19857535D02*
X56020432Y-19857535D01*
X56020432Y-19857535D02*
X56020432Y-18841535D01*
X56020432Y-18841535D02*
X55536622Y-18841535D01*
X55149575Y-19809155D02*
X55004432Y-19857535D01*
X55004432Y-19857535D02*
X54762527Y-19857535D01*
X54762527Y-19857535D02*
X54665765Y-19809155D01*
X54665765Y-19809155D02*
X54617384Y-19760774D01*
X54617384Y-19760774D02*
X54569003Y-19664012D01*
X54569003Y-19664012D02*
X54569003Y-19567250D01*
X54569003Y-19567250D02*
X54617384Y-19470488D01*
X54617384Y-19470488D02*
X54665765Y-19422107D01*
X54665765Y-19422107D02*
X54762527Y-19373726D01*
X54762527Y-19373726D02*
X54956051Y-19325345D01*
X54956051Y-19325345D02*
X55052813Y-19276964D01*
X55052813Y-19276964D02*
X55101194Y-19228583D01*
X55101194Y-19228583D02*
X55149575Y-19131821D01*
X55149575Y-19131821D02*
X55149575Y-19035059D01*
X55149575Y-19035059D02*
X55101194Y-18938297D01*
X55101194Y-18938297D02*
X55052813Y-18889916D01*
X55052813Y-18889916D02*
X54956051Y-18841535D01*
X54956051Y-18841535D02*
X54714146Y-18841535D01*
X54714146Y-18841535D02*
X54569003Y-18889916D01*
X54133575Y-19857535D02*
X54133575Y-18841535D01*
X54133575Y-18841535D02*
X53746527Y-18841535D01*
X53746527Y-18841535D02*
X53649765Y-18889916D01*
X53649765Y-18889916D02*
X53601384Y-18938297D01*
X53601384Y-18938297D02*
X53553003Y-19035059D01*
X53553003Y-19035059D02*
X53553003Y-19180202D01*
X53553003Y-19180202D02*
X53601384Y-19276964D01*
X53601384Y-19276964D02*
X53649765Y-19325345D01*
X53649765Y-19325345D02*
X53746527Y-19373726D01*
X53746527Y-19373726D02*
X54133575Y-19373726D01*
X53117575Y-19470488D02*
X52343480Y-19470488D01*
X51859670Y-19857535D02*
X51859670Y-18841535D01*
X51859670Y-18841535D02*
X51472622Y-18841535D01*
X51472622Y-18841535D02*
X51375860Y-18889916D01*
X51375860Y-18889916D02*
X51327479Y-18938297D01*
X51327479Y-18938297D02*
X51279098Y-19035059D01*
X51279098Y-19035059D02*
X51279098Y-19180202D01*
X51279098Y-19180202D02*
X51327479Y-19276964D01*
X51327479Y-19276964D02*
X51375860Y-19325345D01*
X51375860Y-19325345D02*
X51472622Y-19373726D01*
X51472622Y-19373726D02*
X51859670Y-19373726D01*
X50698527Y-19857535D02*
X50795289Y-19809155D01*
X50795289Y-19809155D02*
X50843670Y-19760774D01*
X50843670Y-19760774D02*
X50892051Y-19664012D01*
X50892051Y-19664012D02*
X50892051Y-19373726D01*
X50892051Y-19373726D02*
X50843670Y-19276964D01*
X50843670Y-19276964D02*
X50795289Y-19228583D01*
X50795289Y-19228583D02*
X50698527Y-19180202D01*
X50698527Y-19180202D02*
X50553384Y-19180202D01*
X50553384Y-19180202D02*
X50456622Y-19228583D01*
X50456622Y-19228583D02*
X50408241Y-19276964D01*
X50408241Y-19276964D02*
X50359860Y-19373726D01*
X50359860Y-19373726D02*
X50359860Y-19664012D01*
X50359860Y-19664012D02*
X50408241Y-19760774D01*
X50408241Y-19760774D02*
X50456622Y-19809155D01*
X50456622Y-19809155D02*
X50553384Y-19857535D01*
X50553384Y-19857535D02*
X50698527Y-19857535D01*
X50021194Y-19180202D02*
X49827670Y-19857535D01*
X49827670Y-19857535D02*
X49634146Y-19373726D01*
X49634146Y-19373726D02*
X49440622Y-19857535D01*
X49440622Y-19857535D02*
X49247098Y-19180202D01*
X48473003Y-19809155D02*
X48569765Y-19857535D01*
X48569765Y-19857535D02*
X48763289Y-19857535D01*
X48763289Y-19857535D02*
X48860051Y-19809155D01*
X48860051Y-19809155D02*
X48908432Y-19712393D01*
X48908432Y-19712393D02*
X48908432Y-19325345D01*
X48908432Y-19325345D02*
X48860051Y-19228583D01*
X48860051Y-19228583D02*
X48763289Y-19180202D01*
X48763289Y-19180202D02*
X48569765Y-19180202D01*
X48569765Y-19180202D02*
X48473003Y-19228583D01*
X48473003Y-19228583D02*
X48424622Y-19325345D01*
X48424622Y-19325345D02*
X48424622Y-19422107D01*
X48424622Y-19422107D02*
X48908432Y-19518869D01*
X47989194Y-19857535D02*
X47989194Y-19180202D01*
X47989194Y-19373726D02*
X47940813Y-19276964D01*
X47940813Y-19276964D02*
X47892432Y-19228583D01*
X47892432Y-19228583D02*
X47795670Y-19180202D01*
X47795670Y-19180202D02*
X47698908Y-19180202D01*
X47360242Y-19470488D02*
X46586147Y-19470488D01*
X46102337Y-19325345D02*
X45763670Y-19325345D01*
X45618527Y-19857535D02*
X46102337Y-19857535D01*
X46102337Y-19857535D02*
X46102337Y-18841535D01*
X46102337Y-18841535D02*
X45618527Y-18841535D01*
X45279861Y-19857535D02*
X44747670Y-19180202D01*
X45279861Y-19180202D02*
X44747670Y-19857535D01*
X44360623Y-19470488D02*
X43586528Y-19470488D01*
X42764051Y-19325345D02*
X42618908Y-19373726D01*
X42618908Y-19373726D02*
X42570527Y-19422107D01*
X42570527Y-19422107D02*
X42522146Y-19518869D01*
X42522146Y-19518869D02*
X42522146Y-19664012D01*
X42522146Y-19664012D02*
X42570527Y-19760774D01*
X42570527Y-19760774D02*
X42618908Y-19809155D01*
X42618908Y-19809155D02*
X42715670Y-19857535D01*
X42715670Y-19857535D02*
X43102718Y-19857535D01*
X43102718Y-19857535D02*
X43102718Y-18841535D01*
X43102718Y-18841535D02*
X42764051Y-18841535D01*
X42764051Y-18841535D02*
X42667289Y-18889916D01*
X42667289Y-18889916D02*
X42618908Y-18938297D01*
X42618908Y-18938297D02*
X42570527Y-19035059D01*
X42570527Y-19035059D02*
X42570527Y-19131821D01*
X42570527Y-19131821D02*
X42618908Y-19228583D01*
X42618908Y-19228583D02*
X42667289Y-19276964D01*
X42667289Y-19276964D02*
X42764051Y-19325345D01*
X42764051Y-19325345D02*
X43102718Y-19325345D01*
X41941575Y-19857535D02*
X42038337Y-19809155D01*
X42038337Y-19809155D02*
X42086718Y-19760774D01*
X42086718Y-19760774D02*
X42135099Y-19664012D01*
X42135099Y-19664012D02*
X42135099Y-19373726D01*
X42135099Y-19373726D02*
X42086718Y-19276964D01*
X42086718Y-19276964D02*
X42038337Y-19228583D01*
X42038337Y-19228583D02*
X41941575Y-19180202D01*
X41941575Y-19180202D02*
X41796432Y-19180202D01*
X41796432Y-19180202D02*
X41699670Y-19228583D01*
X41699670Y-19228583D02*
X41651289Y-19276964D01*
X41651289Y-19276964D02*
X41602908Y-19373726D01*
X41602908Y-19373726D02*
X41602908Y-19664012D01*
X41602908Y-19664012D02*
X41651289Y-19760774D01*
X41651289Y-19760774D02*
X41699670Y-19809155D01*
X41699670Y-19809155D02*
X41796432Y-19857535D01*
X41796432Y-19857535D02*
X41941575Y-19857535D01*
X40732051Y-19857535D02*
X40732051Y-19325345D01*
X40732051Y-19325345D02*
X40780432Y-19228583D01*
X40780432Y-19228583D02*
X40877194Y-19180202D01*
X40877194Y-19180202D02*
X41070718Y-19180202D01*
X41070718Y-19180202D02*
X41167480Y-19228583D01*
X40732051Y-19809155D02*
X40828813Y-19857535D01*
X40828813Y-19857535D02*
X41070718Y-19857535D01*
X41070718Y-19857535D02*
X41167480Y-19809155D01*
X41167480Y-19809155D02*
X41215861Y-19712393D01*
X41215861Y-19712393D02*
X41215861Y-19615631D01*
X41215861Y-19615631D02*
X41167480Y-19518869D01*
X41167480Y-19518869D02*
X41070718Y-19470488D01*
X41070718Y-19470488D02*
X40828813Y-19470488D01*
X40828813Y-19470488D02*
X40732051Y-19422107D01*
X40248242Y-19857535D02*
X40248242Y-19180202D01*
X40248242Y-19373726D02*
X40199861Y-19276964D01*
X40199861Y-19276964D02*
X40151480Y-19228583D01*
X40151480Y-19228583D02*
X40054718Y-19180202D01*
X40054718Y-19180202D02*
X39957956Y-19180202D01*
X39183861Y-19857535D02*
X39183861Y-18841535D01*
X39183861Y-19809155D02*
X39280623Y-19857535D01*
X39280623Y-19857535D02*
X39474147Y-19857535D01*
X39474147Y-19857535D02*
X39570909Y-19809155D01*
X39570909Y-19809155D02*
X39619290Y-19760774D01*
X39619290Y-19760774D02*
X39667671Y-19664012D01*
X39667671Y-19664012D02*
X39667671Y-19373726D01*
X39667671Y-19373726D02*
X39619290Y-19276964D01*
X39619290Y-19276964D02*
X39570909Y-19228583D01*
X39570909Y-19228583D02*
X39474147Y-19180202D01*
X39474147Y-19180202D02*
X39280623Y-19180202D01*
X39280623Y-19180202D02*
X39183861Y-19228583D01*
X87364032Y-72208145D02*
X87025365Y-72208145D01*
X86880222Y-72740335D02*
X87364032Y-72740335D01*
X87364032Y-72740335D02*
X87364032Y-71724335D01*
X87364032Y-71724335D02*
X86880222Y-71724335D01*
X86493175Y-72691955D02*
X86348032Y-72740335D01*
X86348032Y-72740335D02*
X86106127Y-72740335D01*
X86106127Y-72740335D02*
X86009365Y-72691955D01*
X86009365Y-72691955D02*
X85960984Y-72643574D01*
X85960984Y-72643574D02*
X85912603Y-72546812D01*
X85912603Y-72546812D02*
X85912603Y-72450050D01*
X85912603Y-72450050D02*
X85960984Y-72353288D01*
X85960984Y-72353288D02*
X86009365Y-72304907D01*
X86009365Y-72304907D02*
X86106127Y-72256526D01*
X86106127Y-72256526D02*
X86299651Y-72208145D01*
X86299651Y-72208145D02*
X86396413Y-72159764D01*
X86396413Y-72159764D02*
X86444794Y-72111383D01*
X86444794Y-72111383D02*
X86493175Y-72014621D01*
X86493175Y-72014621D02*
X86493175Y-71917859D01*
X86493175Y-71917859D02*
X86444794Y-71821097D01*
X86444794Y-71821097D02*
X86396413Y-71772716D01*
X86396413Y-71772716D02*
X86299651Y-71724335D01*
X86299651Y-71724335D02*
X86057746Y-71724335D01*
X86057746Y-71724335D02*
X85912603Y-71772716D01*
X85477175Y-72740335D02*
X85477175Y-71724335D01*
X85477175Y-71724335D02*
X85090127Y-71724335D01*
X85090127Y-71724335D02*
X84993365Y-71772716D01*
X84993365Y-71772716D02*
X84944984Y-71821097D01*
X84944984Y-71821097D02*
X84896603Y-71917859D01*
X84896603Y-71917859D02*
X84896603Y-72063002D01*
X84896603Y-72063002D02*
X84944984Y-72159764D01*
X84944984Y-72159764D02*
X84993365Y-72208145D01*
X84993365Y-72208145D02*
X85090127Y-72256526D01*
X85090127Y-72256526D02*
X85477175Y-72256526D01*
X84461175Y-72353288D02*
X83687080Y-72353288D01*
X83203270Y-72740335D02*
X83203270Y-71724335D01*
X83203270Y-71724335D02*
X82816222Y-71724335D01*
X82816222Y-71724335D02*
X82719460Y-71772716D01*
X82719460Y-71772716D02*
X82671079Y-71821097D01*
X82671079Y-71821097D02*
X82622698Y-71917859D01*
X82622698Y-71917859D02*
X82622698Y-72063002D01*
X82622698Y-72063002D02*
X82671079Y-72159764D01*
X82671079Y-72159764D02*
X82719460Y-72208145D01*
X82719460Y-72208145D02*
X82816222Y-72256526D01*
X82816222Y-72256526D02*
X83203270Y-72256526D01*
X82042127Y-72740335D02*
X82138889Y-72691955D01*
X82138889Y-72691955D02*
X82187270Y-72643574D01*
X82187270Y-72643574D02*
X82235651Y-72546812D01*
X82235651Y-72546812D02*
X82235651Y-72256526D01*
X82235651Y-72256526D02*
X82187270Y-72159764D01*
X82187270Y-72159764D02*
X82138889Y-72111383D01*
X82138889Y-72111383D02*
X82042127Y-72063002D01*
X82042127Y-72063002D02*
X81896984Y-72063002D01*
X81896984Y-72063002D02*
X81800222Y-72111383D01*
X81800222Y-72111383D02*
X81751841Y-72159764D01*
X81751841Y-72159764D02*
X81703460Y-72256526D01*
X81703460Y-72256526D02*
X81703460Y-72546812D01*
X81703460Y-72546812D02*
X81751841Y-72643574D01*
X81751841Y-72643574D02*
X81800222Y-72691955D01*
X81800222Y-72691955D02*
X81896984Y-72740335D01*
X81896984Y-72740335D02*
X82042127Y-72740335D01*
X81364794Y-72063002D02*
X81171270Y-72740335D01*
X81171270Y-72740335D02*
X80977746Y-72256526D01*
X80977746Y-72256526D02*
X80784222Y-72740335D01*
X80784222Y-72740335D02*
X80590698Y-72063002D01*
X79816603Y-72691955D02*
X79913365Y-72740335D01*
X79913365Y-72740335D02*
X80106889Y-72740335D01*
X80106889Y-72740335D02*
X80203651Y-72691955D01*
X80203651Y-72691955D02*
X80252032Y-72595193D01*
X80252032Y-72595193D02*
X80252032Y-72208145D01*
X80252032Y-72208145D02*
X80203651Y-72111383D01*
X80203651Y-72111383D02*
X80106889Y-72063002D01*
X80106889Y-72063002D02*
X79913365Y-72063002D01*
X79913365Y-72063002D02*
X79816603Y-72111383D01*
X79816603Y-72111383D02*
X79768222Y-72208145D01*
X79768222Y-72208145D02*
X79768222Y-72304907D01*
X79768222Y-72304907D02*
X80252032Y-72401669D01*
X79332794Y-72740335D02*
X79332794Y-72063002D01*
X79332794Y-72256526D02*
X79284413Y-72159764D01*
X79284413Y-72159764D02*
X79236032Y-72111383D01*
X79236032Y-72111383D02*
X79139270Y-72063002D01*
X79139270Y-72063002D02*
X79042508Y-72063002D01*
X78703842Y-72353288D02*
X77929747Y-72353288D01*
X77445937Y-72208145D02*
X77107270Y-72208145D01*
X76962127Y-72740335D02*
X77445937Y-72740335D01*
X77445937Y-72740335D02*
X77445937Y-71724335D01*
X77445937Y-71724335D02*
X76962127Y-71724335D01*
X76623461Y-72740335D02*
X76091270Y-72063002D01*
X76623461Y-72063002D02*
X76091270Y-72740335D01*
X75704223Y-72353288D02*
X74930128Y-72353288D01*
X74107651Y-72208145D02*
X73962508Y-72256526D01*
X73962508Y-72256526D02*
X73914127Y-72304907D01*
X73914127Y-72304907D02*
X73865746Y-72401669D01*
X73865746Y-72401669D02*
X73865746Y-72546812D01*
X73865746Y-72546812D02*
X73914127Y-72643574D01*
X73914127Y-72643574D02*
X73962508Y-72691955D01*
X73962508Y-72691955D02*
X74059270Y-72740335D01*
X74059270Y-72740335D02*
X74446318Y-72740335D01*
X74446318Y-72740335D02*
X74446318Y-71724335D01*
X74446318Y-71724335D02*
X74107651Y-71724335D01*
X74107651Y-71724335D02*
X74010889Y-71772716D01*
X74010889Y-71772716D02*
X73962508Y-71821097D01*
X73962508Y-71821097D02*
X73914127Y-71917859D01*
X73914127Y-71917859D02*
X73914127Y-72014621D01*
X73914127Y-72014621D02*
X73962508Y-72111383D01*
X73962508Y-72111383D02*
X74010889Y-72159764D01*
X74010889Y-72159764D02*
X74107651Y-72208145D01*
X74107651Y-72208145D02*
X74446318Y-72208145D01*
X73285175Y-72740335D02*
X73381937Y-72691955D01*
X73381937Y-72691955D02*
X73430318Y-72643574D01*
X73430318Y-72643574D02*
X73478699Y-72546812D01*
X73478699Y-72546812D02*
X73478699Y-72256526D01*
X73478699Y-72256526D02*
X73430318Y-72159764D01*
X73430318Y-72159764D02*
X73381937Y-72111383D01*
X73381937Y-72111383D02*
X73285175Y-72063002D01*
X73285175Y-72063002D02*
X73140032Y-72063002D01*
X73140032Y-72063002D02*
X73043270Y-72111383D01*
X73043270Y-72111383D02*
X72994889Y-72159764D01*
X72994889Y-72159764D02*
X72946508Y-72256526D01*
X72946508Y-72256526D02*
X72946508Y-72546812D01*
X72946508Y-72546812D02*
X72994889Y-72643574D01*
X72994889Y-72643574D02*
X73043270Y-72691955D01*
X73043270Y-72691955D02*
X73140032Y-72740335D01*
X73140032Y-72740335D02*
X73285175Y-72740335D01*
X72075651Y-72740335D02*
X72075651Y-72208145D01*
X72075651Y-72208145D02*
X72124032Y-72111383D01*
X72124032Y-72111383D02*
X72220794Y-72063002D01*
X72220794Y-72063002D02*
X72414318Y-72063002D01*
X72414318Y-72063002D02*
X72511080Y-72111383D01*
X72075651Y-72691955D02*
X72172413Y-72740335D01*
X72172413Y-72740335D02*
X72414318Y-72740335D01*
X72414318Y-72740335D02*
X72511080Y-72691955D01*
X72511080Y-72691955D02*
X72559461Y-72595193D01*
X72559461Y-72595193D02*
X72559461Y-72498431D01*
X72559461Y-72498431D02*
X72511080Y-72401669D01*
X72511080Y-72401669D02*
X72414318Y-72353288D01*
X72414318Y-72353288D02*
X72172413Y-72353288D01*
X72172413Y-72353288D02*
X72075651Y-72304907D01*
X71591842Y-72740335D02*
X71591842Y-72063002D01*
X71591842Y-72256526D02*
X71543461Y-72159764D01*
X71543461Y-72159764D02*
X71495080Y-72111383D01*
X71495080Y-72111383D02*
X71398318Y-72063002D01*
X71398318Y-72063002D02*
X71301556Y-72063002D01*
X70527461Y-72740335D02*
X70527461Y-71724335D01*
X70527461Y-72691955D02*
X70624223Y-72740335D01*
X70624223Y-72740335D02*
X70817747Y-72740335D01*
X70817747Y-72740335D02*
X70914509Y-72691955D01*
X70914509Y-72691955D02*
X70962890Y-72643574D01*
X70962890Y-72643574D02*
X71011271Y-72546812D01*
X71011271Y-72546812D02*
X71011271Y-72256526D01*
X71011271Y-72256526D02*
X70962890Y-72159764D01*
X70962890Y-72159764D02*
X70914509Y-72111383D01*
X70914509Y-72111383D02*
X70817747Y-72063002D01*
X70817747Y-72063002D02*
X70624223Y-72063002D01*
X70624223Y-72063002D02*
X70527461Y-72111383D01*
X24676832Y-19325345D02*
X24338165Y-19325345D01*
X24193022Y-19857535D02*
X24676832Y-19857535D01*
X24676832Y-19857535D02*
X24676832Y-18841535D01*
X24676832Y-18841535D02*
X24193022Y-18841535D01*
X23805975Y-19809155D02*
X23660832Y-19857535D01*
X23660832Y-19857535D02*
X23418927Y-19857535D01*
X23418927Y-19857535D02*
X23322165Y-19809155D01*
X23322165Y-19809155D02*
X23273784Y-19760774D01*
X23273784Y-19760774D02*
X23225403Y-19664012D01*
X23225403Y-19664012D02*
X23225403Y-19567250D01*
X23225403Y-19567250D02*
X23273784Y-19470488D01*
X23273784Y-19470488D02*
X23322165Y-19422107D01*
X23322165Y-19422107D02*
X23418927Y-19373726D01*
X23418927Y-19373726D02*
X23612451Y-19325345D01*
X23612451Y-19325345D02*
X23709213Y-19276964D01*
X23709213Y-19276964D02*
X23757594Y-19228583D01*
X23757594Y-19228583D02*
X23805975Y-19131821D01*
X23805975Y-19131821D02*
X23805975Y-19035059D01*
X23805975Y-19035059D02*
X23757594Y-18938297D01*
X23757594Y-18938297D02*
X23709213Y-18889916D01*
X23709213Y-18889916D02*
X23612451Y-18841535D01*
X23612451Y-18841535D02*
X23370546Y-18841535D01*
X23370546Y-18841535D02*
X23225403Y-18889916D01*
X22789975Y-19857535D02*
X22789975Y-18841535D01*
X22789975Y-18841535D02*
X22402927Y-18841535D01*
X22402927Y-18841535D02*
X22306165Y-18889916D01*
X22306165Y-18889916D02*
X22257784Y-18938297D01*
X22257784Y-18938297D02*
X22209403Y-19035059D01*
X22209403Y-19035059D02*
X22209403Y-19180202D01*
X22209403Y-19180202D02*
X22257784Y-19276964D01*
X22257784Y-19276964D02*
X22306165Y-19325345D01*
X22306165Y-19325345D02*
X22402927Y-19373726D01*
X22402927Y-19373726D02*
X22789975Y-19373726D01*
X21773975Y-19470488D02*
X20999880Y-19470488D01*
X20516070Y-19857535D02*
X20516070Y-18841535D01*
X20516070Y-18841535D02*
X20129022Y-18841535D01*
X20129022Y-18841535D02*
X20032260Y-18889916D01*
X20032260Y-18889916D02*
X19983879Y-18938297D01*
X19983879Y-18938297D02*
X19935498Y-19035059D01*
X19935498Y-19035059D02*
X19935498Y-19180202D01*
X19935498Y-19180202D02*
X19983879Y-19276964D01*
X19983879Y-19276964D02*
X20032260Y-19325345D01*
X20032260Y-19325345D02*
X20129022Y-19373726D01*
X20129022Y-19373726D02*
X20516070Y-19373726D01*
X19354927Y-19857535D02*
X19451689Y-19809155D01*
X19451689Y-19809155D02*
X19500070Y-19760774D01*
X19500070Y-19760774D02*
X19548451Y-19664012D01*
X19548451Y-19664012D02*
X19548451Y-19373726D01*
X19548451Y-19373726D02*
X19500070Y-19276964D01*
X19500070Y-19276964D02*
X19451689Y-19228583D01*
X19451689Y-19228583D02*
X19354927Y-19180202D01*
X19354927Y-19180202D02*
X19209784Y-19180202D01*
X19209784Y-19180202D02*
X19113022Y-19228583D01*
X19113022Y-19228583D02*
X19064641Y-19276964D01*
X19064641Y-19276964D02*
X19016260Y-19373726D01*
X19016260Y-19373726D02*
X19016260Y-19664012D01*
X19016260Y-19664012D02*
X19064641Y-19760774D01*
X19064641Y-19760774D02*
X19113022Y-19809155D01*
X19113022Y-19809155D02*
X19209784Y-19857535D01*
X19209784Y-19857535D02*
X19354927Y-19857535D01*
X18677594Y-19180202D02*
X18484070Y-19857535D01*
X18484070Y-19857535D02*
X18290546Y-19373726D01*
X18290546Y-19373726D02*
X18097022Y-19857535D01*
X18097022Y-19857535D02*
X17903498Y-19180202D01*
X17129403Y-19809155D02*
X17226165Y-19857535D01*
X17226165Y-19857535D02*
X17419689Y-19857535D01*
X17419689Y-19857535D02*
X17516451Y-19809155D01*
X17516451Y-19809155D02*
X17564832Y-19712393D01*
X17564832Y-19712393D02*
X17564832Y-19325345D01*
X17564832Y-19325345D02*
X17516451Y-19228583D01*
X17516451Y-19228583D02*
X17419689Y-19180202D01*
X17419689Y-19180202D02*
X17226165Y-19180202D01*
X17226165Y-19180202D02*
X17129403Y-19228583D01*
X17129403Y-19228583D02*
X17081022Y-19325345D01*
X17081022Y-19325345D02*
X17081022Y-19422107D01*
X17081022Y-19422107D02*
X17564832Y-19518869D01*
X16645594Y-19857535D02*
X16645594Y-19180202D01*
X16645594Y-19373726D02*
X16597213Y-19276964D01*
X16597213Y-19276964D02*
X16548832Y-19228583D01*
X16548832Y-19228583D02*
X16452070Y-19180202D01*
X16452070Y-19180202D02*
X16355308Y-19180202D01*
X16016642Y-19470488D02*
X15242547Y-19470488D01*
X14758737Y-19325345D02*
X14420070Y-19325345D01*
X14274927Y-19857535D02*
X14758737Y-19857535D01*
X14758737Y-19857535D02*
X14758737Y-18841535D01*
X14758737Y-18841535D02*
X14274927Y-18841535D01*
X13936261Y-19857535D02*
X13404070Y-19180202D01*
X13936261Y-19180202D02*
X13404070Y-19857535D01*
X13017023Y-19470488D02*
X12242928Y-19470488D01*
X11420451Y-19325345D02*
X11275308Y-19373726D01*
X11275308Y-19373726D02*
X11226927Y-19422107D01*
X11226927Y-19422107D02*
X11178546Y-19518869D01*
X11178546Y-19518869D02*
X11178546Y-19664012D01*
X11178546Y-19664012D02*
X11226927Y-19760774D01*
X11226927Y-19760774D02*
X11275308Y-19809155D01*
X11275308Y-19809155D02*
X11372070Y-19857535D01*
X11372070Y-19857535D02*
X11759118Y-19857535D01*
X11759118Y-19857535D02*
X11759118Y-18841535D01*
X11759118Y-18841535D02*
X11420451Y-18841535D01*
X11420451Y-18841535D02*
X11323689Y-18889916D01*
X11323689Y-18889916D02*
X11275308Y-18938297D01*
X11275308Y-18938297D02*
X11226927Y-19035059D01*
X11226927Y-19035059D02*
X11226927Y-19131821D01*
X11226927Y-19131821D02*
X11275308Y-19228583D01*
X11275308Y-19228583D02*
X11323689Y-19276964D01*
X11323689Y-19276964D02*
X11420451Y-19325345D01*
X11420451Y-19325345D02*
X11759118Y-19325345D01*
X10597975Y-19857535D02*
X10694737Y-19809155D01*
X10694737Y-19809155D02*
X10743118Y-19760774D01*
X10743118Y-19760774D02*
X10791499Y-19664012D01*
X10791499Y-19664012D02*
X10791499Y-19373726D01*
X10791499Y-19373726D02*
X10743118Y-19276964D01*
X10743118Y-19276964D02*
X10694737Y-19228583D01*
X10694737Y-19228583D02*
X10597975Y-19180202D01*
X10597975Y-19180202D02*
X10452832Y-19180202D01*
X10452832Y-19180202D02*
X10356070Y-19228583D01*
X10356070Y-19228583D02*
X10307689Y-19276964D01*
X10307689Y-19276964D02*
X10259308Y-19373726D01*
X10259308Y-19373726D02*
X10259308Y-19664012D01*
X10259308Y-19664012D02*
X10307689Y-19760774D01*
X10307689Y-19760774D02*
X10356070Y-19809155D01*
X10356070Y-19809155D02*
X10452832Y-19857535D01*
X10452832Y-19857535D02*
X10597975Y-19857535D01*
X9388451Y-19857535D02*
X9388451Y-19325345D01*
X9388451Y-19325345D02*
X9436832Y-19228583D01*
X9436832Y-19228583D02*
X9533594Y-19180202D01*
X9533594Y-19180202D02*
X9727118Y-19180202D01*
X9727118Y-19180202D02*
X9823880Y-19228583D01*
X9388451Y-19809155D02*
X9485213Y-19857535D01*
X9485213Y-19857535D02*
X9727118Y-19857535D01*
X9727118Y-19857535D02*
X9823880Y-19809155D01*
X9823880Y-19809155D02*
X9872261Y-19712393D01*
X9872261Y-19712393D02*
X9872261Y-19615631D01*
X9872261Y-19615631D02*
X9823880Y-19518869D01*
X9823880Y-19518869D02*
X9727118Y-19470488D01*
X9727118Y-19470488D02*
X9485213Y-19470488D01*
X9485213Y-19470488D02*
X9388451Y-19422107D01*
X8904642Y-19857535D02*
X8904642Y-19180202D01*
X8904642Y-19373726D02*
X8856261Y-19276964D01*
X8856261Y-19276964D02*
X8807880Y-19228583D01*
X8807880Y-19228583D02*
X8711118Y-19180202D01*
X8711118Y-19180202D02*
X8614356Y-19180202D01*
X7840261Y-19857535D02*
X7840261Y-18841535D01*
X7840261Y-19809155D02*
X7937023Y-19857535D01*
X7937023Y-19857535D02*
X8130547Y-19857535D01*
X8130547Y-19857535D02*
X8227309Y-19809155D01*
X8227309Y-19809155D02*
X8275690Y-19760774D01*
X8275690Y-19760774D02*
X8324071Y-19664012D01*
X8324071Y-19664012D02*
X8324071Y-19373726D01*
X8324071Y-19373726D02*
X8275690Y-19276964D01*
X8275690Y-19276964D02*
X8227309Y-19228583D01*
X8227309Y-19228583D02*
X8130547Y-19180202D01*
X8130547Y-19180202D02*
X7937023Y-19180202D01*
X7937023Y-19180202D02*
X7840261Y-19228583D01*
X56020432Y-98649545D02*
X55681765Y-98649545D01*
X55536622Y-99181735D02*
X56020432Y-99181735D01*
X56020432Y-99181735D02*
X56020432Y-98165735D01*
X56020432Y-98165735D02*
X55536622Y-98165735D01*
X55149575Y-99133355D02*
X55004432Y-99181735D01*
X55004432Y-99181735D02*
X54762527Y-99181735D01*
X54762527Y-99181735D02*
X54665765Y-99133355D01*
X54665765Y-99133355D02*
X54617384Y-99084974D01*
X54617384Y-99084974D02*
X54569003Y-98988212D01*
X54569003Y-98988212D02*
X54569003Y-98891450D01*
X54569003Y-98891450D02*
X54617384Y-98794688D01*
X54617384Y-98794688D02*
X54665765Y-98746307D01*
X54665765Y-98746307D02*
X54762527Y-98697926D01*
X54762527Y-98697926D02*
X54956051Y-98649545D01*
X54956051Y-98649545D02*
X55052813Y-98601164D01*
X55052813Y-98601164D02*
X55101194Y-98552783D01*
X55101194Y-98552783D02*
X55149575Y-98456021D01*
X55149575Y-98456021D02*
X55149575Y-98359259D01*
X55149575Y-98359259D02*
X55101194Y-98262497D01*
X55101194Y-98262497D02*
X55052813Y-98214116D01*
X55052813Y-98214116D02*
X54956051Y-98165735D01*
X54956051Y-98165735D02*
X54714146Y-98165735D01*
X54714146Y-98165735D02*
X54569003Y-98214116D01*
X54133575Y-99181735D02*
X54133575Y-98165735D01*
X54133575Y-98165735D02*
X53746527Y-98165735D01*
X53746527Y-98165735D02*
X53649765Y-98214116D01*
X53649765Y-98214116D02*
X53601384Y-98262497D01*
X53601384Y-98262497D02*
X53553003Y-98359259D01*
X53553003Y-98359259D02*
X53553003Y-98504402D01*
X53553003Y-98504402D02*
X53601384Y-98601164D01*
X53601384Y-98601164D02*
X53649765Y-98649545D01*
X53649765Y-98649545D02*
X53746527Y-98697926D01*
X53746527Y-98697926D02*
X54133575Y-98697926D01*
X53117575Y-98794688D02*
X52343480Y-98794688D01*
X51859670Y-99181735D02*
X51859670Y-98165735D01*
X51859670Y-98165735D02*
X51472622Y-98165735D01*
X51472622Y-98165735D02*
X51375860Y-98214116D01*
X51375860Y-98214116D02*
X51327479Y-98262497D01*
X51327479Y-98262497D02*
X51279098Y-98359259D01*
X51279098Y-98359259D02*
X51279098Y-98504402D01*
X51279098Y-98504402D02*
X51327479Y-98601164D01*
X51327479Y-98601164D02*
X51375860Y-98649545D01*
X51375860Y-98649545D02*
X51472622Y-98697926D01*
X51472622Y-98697926D02*
X51859670Y-98697926D01*
X50698527Y-99181735D02*
X50795289Y-99133355D01*
X50795289Y-99133355D02*
X50843670Y-99084974D01*
X50843670Y-99084974D02*
X50892051Y-98988212D01*
X50892051Y-98988212D02*
X50892051Y-98697926D01*
X50892051Y-98697926D02*
X50843670Y-98601164D01*
X50843670Y-98601164D02*
X50795289Y-98552783D01*
X50795289Y-98552783D02*
X50698527Y-98504402D01*
X50698527Y-98504402D02*
X50553384Y-98504402D01*
X50553384Y-98504402D02*
X50456622Y-98552783D01*
X50456622Y-98552783D02*
X50408241Y-98601164D01*
X50408241Y-98601164D02*
X50359860Y-98697926D01*
X50359860Y-98697926D02*
X50359860Y-98988212D01*
X50359860Y-98988212D02*
X50408241Y-99084974D01*
X50408241Y-99084974D02*
X50456622Y-99133355D01*
X50456622Y-99133355D02*
X50553384Y-99181735D01*
X50553384Y-99181735D02*
X50698527Y-99181735D01*
X50021194Y-98504402D02*
X49827670Y-99181735D01*
X49827670Y-99181735D02*
X49634146Y-98697926D01*
X49634146Y-98697926D02*
X49440622Y-99181735D01*
X49440622Y-99181735D02*
X49247098Y-98504402D01*
X48473003Y-99133355D02*
X48569765Y-99181735D01*
X48569765Y-99181735D02*
X48763289Y-99181735D01*
X48763289Y-99181735D02*
X48860051Y-99133355D01*
X48860051Y-99133355D02*
X48908432Y-99036593D01*
X48908432Y-99036593D02*
X48908432Y-98649545D01*
X48908432Y-98649545D02*
X48860051Y-98552783D01*
X48860051Y-98552783D02*
X48763289Y-98504402D01*
X48763289Y-98504402D02*
X48569765Y-98504402D01*
X48569765Y-98504402D02*
X48473003Y-98552783D01*
X48473003Y-98552783D02*
X48424622Y-98649545D01*
X48424622Y-98649545D02*
X48424622Y-98746307D01*
X48424622Y-98746307D02*
X48908432Y-98843069D01*
X47989194Y-99181735D02*
X47989194Y-98504402D01*
X47989194Y-98697926D02*
X47940813Y-98601164D01*
X47940813Y-98601164D02*
X47892432Y-98552783D01*
X47892432Y-98552783D02*
X47795670Y-98504402D01*
X47795670Y-98504402D02*
X47698908Y-98504402D01*
X47360242Y-98794688D02*
X46586147Y-98794688D01*
X46102337Y-98649545D02*
X45763670Y-98649545D01*
X45618527Y-99181735D02*
X46102337Y-99181735D01*
X46102337Y-99181735D02*
X46102337Y-98165735D01*
X46102337Y-98165735D02*
X45618527Y-98165735D01*
X45279861Y-99181735D02*
X44747670Y-98504402D01*
X45279861Y-98504402D02*
X44747670Y-99181735D01*
X44360623Y-98794688D02*
X43586528Y-98794688D01*
X42764051Y-98649545D02*
X42618908Y-98697926D01*
X42618908Y-98697926D02*
X42570527Y-98746307D01*
X42570527Y-98746307D02*
X42522146Y-98843069D01*
X42522146Y-98843069D02*
X42522146Y-98988212D01*
X42522146Y-98988212D02*
X42570527Y-99084974D01*
X42570527Y-99084974D02*
X42618908Y-99133355D01*
X42618908Y-99133355D02*
X42715670Y-99181735D01*
X42715670Y-99181735D02*
X43102718Y-99181735D01*
X43102718Y-99181735D02*
X43102718Y-98165735D01*
X43102718Y-98165735D02*
X42764051Y-98165735D01*
X42764051Y-98165735D02*
X42667289Y-98214116D01*
X42667289Y-98214116D02*
X42618908Y-98262497D01*
X42618908Y-98262497D02*
X42570527Y-98359259D01*
X42570527Y-98359259D02*
X42570527Y-98456021D01*
X42570527Y-98456021D02*
X42618908Y-98552783D01*
X42618908Y-98552783D02*
X42667289Y-98601164D01*
X42667289Y-98601164D02*
X42764051Y-98649545D01*
X42764051Y-98649545D02*
X43102718Y-98649545D01*
X41941575Y-99181735D02*
X42038337Y-99133355D01*
X42038337Y-99133355D02*
X42086718Y-99084974D01*
X42086718Y-99084974D02*
X42135099Y-98988212D01*
X42135099Y-98988212D02*
X42135099Y-98697926D01*
X42135099Y-98697926D02*
X42086718Y-98601164D01*
X42086718Y-98601164D02*
X42038337Y-98552783D01*
X42038337Y-98552783D02*
X41941575Y-98504402D01*
X41941575Y-98504402D02*
X41796432Y-98504402D01*
X41796432Y-98504402D02*
X41699670Y-98552783D01*
X41699670Y-98552783D02*
X41651289Y-98601164D01*
X41651289Y-98601164D02*
X41602908Y-98697926D01*
X41602908Y-98697926D02*
X41602908Y-98988212D01*
X41602908Y-98988212D02*
X41651289Y-99084974D01*
X41651289Y-99084974D02*
X41699670Y-99133355D01*
X41699670Y-99133355D02*
X41796432Y-99181735D01*
X41796432Y-99181735D02*
X41941575Y-99181735D01*
X40732051Y-99181735D02*
X40732051Y-98649545D01*
X40732051Y-98649545D02*
X40780432Y-98552783D01*
X40780432Y-98552783D02*
X40877194Y-98504402D01*
X40877194Y-98504402D02*
X41070718Y-98504402D01*
X41070718Y-98504402D02*
X41167480Y-98552783D01*
X40732051Y-99133355D02*
X40828813Y-99181735D01*
X40828813Y-99181735D02*
X41070718Y-99181735D01*
X41070718Y-99181735D02*
X41167480Y-99133355D01*
X41167480Y-99133355D02*
X41215861Y-99036593D01*
X41215861Y-99036593D02*
X41215861Y-98939831D01*
X41215861Y-98939831D02*
X41167480Y-98843069D01*
X41167480Y-98843069D02*
X41070718Y-98794688D01*
X41070718Y-98794688D02*
X40828813Y-98794688D01*
X40828813Y-98794688D02*
X40732051Y-98746307D01*
X40248242Y-99181735D02*
X40248242Y-98504402D01*
X40248242Y-98697926D02*
X40199861Y-98601164D01*
X40199861Y-98601164D02*
X40151480Y-98552783D01*
X40151480Y-98552783D02*
X40054718Y-98504402D01*
X40054718Y-98504402D02*
X39957956Y-98504402D01*
X39183861Y-99181735D02*
X39183861Y-98165735D01*
X39183861Y-99133355D02*
X39280623Y-99181735D01*
X39280623Y-99181735D02*
X39474147Y-99181735D01*
X39474147Y-99181735D02*
X39570909Y-99133355D01*
X39570909Y-99133355D02*
X39619290Y-99084974D01*
X39619290Y-99084974D02*
X39667671Y-98988212D01*
X39667671Y-98988212D02*
X39667671Y-98697926D01*
X39667671Y-98697926D02*
X39619290Y-98601164D01*
X39619290Y-98601164D02*
X39570909Y-98552783D01*
X39570909Y-98552783D02*
X39474147Y-98504402D01*
X39474147Y-98504402D02*
X39280623Y-98504402D01*
X39280623Y-98504402D02*
X39183861Y-98552783D01*
X24676832Y-45766745D02*
X24338165Y-45766745D01*
X24193022Y-46298935D02*
X24676832Y-46298935D01*
X24676832Y-46298935D02*
X24676832Y-45282935D01*
X24676832Y-45282935D02*
X24193022Y-45282935D01*
X23805975Y-46250555D02*
X23660832Y-46298935D01*
X23660832Y-46298935D02*
X23418927Y-46298935D01*
X23418927Y-46298935D02*
X23322165Y-46250555D01*
X23322165Y-46250555D02*
X23273784Y-46202174D01*
X23273784Y-46202174D02*
X23225403Y-46105412D01*
X23225403Y-46105412D02*
X23225403Y-46008650D01*
X23225403Y-46008650D02*
X23273784Y-45911888D01*
X23273784Y-45911888D02*
X23322165Y-45863507D01*
X23322165Y-45863507D02*
X23418927Y-45815126D01*
X23418927Y-45815126D02*
X23612451Y-45766745D01*
X23612451Y-45766745D02*
X23709213Y-45718364D01*
X23709213Y-45718364D02*
X23757594Y-45669983D01*
X23757594Y-45669983D02*
X23805975Y-45573221D01*
X23805975Y-45573221D02*
X23805975Y-45476459D01*
X23805975Y-45476459D02*
X23757594Y-45379697D01*
X23757594Y-45379697D02*
X23709213Y-45331316D01*
X23709213Y-45331316D02*
X23612451Y-45282935D01*
X23612451Y-45282935D02*
X23370546Y-45282935D01*
X23370546Y-45282935D02*
X23225403Y-45331316D01*
X22789975Y-46298935D02*
X22789975Y-45282935D01*
X22789975Y-45282935D02*
X22402927Y-45282935D01*
X22402927Y-45282935D02*
X22306165Y-45331316D01*
X22306165Y-45331316D02*
X22257784Y-45379697D01*
X22257784Y-45379697D02*
X22209403Y-45476459D01*
X22209403Y-45476459D02*
X22209403Y-45621602D01*
X22209403Y-45621602D02*
X22257784Y-45718364D01*
X22257784Y-45718364D02*
X22306165Y-45766745D01*
X22306165Y-45766745D02*
X22402927Y-45815126D01*
X22402927Y-45815126D02*
X22789975Y-45815126D01*
X21773975Y-45911888D02*
X20999880Y-45911888D01*
X20516070Y-46298935D02*
X20516070Y-45282935D01*
X20516070Y-45282935D02*
X20129022Y-45282935D01*
X20129022Y-45282935D02*
X20032260Y-45331316D01*
X20032260Y-45331316D02*
X19983879Y-45379697D01*
X19983879Y-45379697D02*
X19935498Y-45476459D01*
X19935498Y-45476459D02*
X19935498Y-45621602D01*
X19935498Y-45621602D02*
X19983879Y-45718364D01*
X19983879Y-45718364D02*
X20032260Y-45766745D01*
X20032260Y-45766745D02*
X20129022Y-45815126D01*
X20129022Y-45815126D02*
X20516070Y-45815126D01*
X19354927Y-46298935D02*
X19451689Y-46250555D01*
X19451689Y-46250555D02*
X19500070Y-46202174D01*
X19500070Y-46202174D02*
X19548451Y-46105412D01*
X19548451Y-46105412D02*
X19548451Y-45815126D01*
X19548451Y-45815126D02*
X19500070Y-45718364D01*
X19500070Y-45718364D02*
X19451689Y-45669983D01*
X19451689Y-45669983D02*
X19354927Y-45621602D01*
X19354927Y-45621602D02*
X19209784Y-45621602D01*
X19209784Y-45621602D02*
X19113022Y-45669983D01*
X19113022Y-45669983D02*
X19064641Y-45718364D01*
X19064641Y-45718364D02*
X19016260Y-45815126D01*
X19016260Y-45815126D02*
X19016260Y-46105412D01*
X19016260Y-46105412D02*
X19064641Y-46202174D01*
X19064641Y-46202174D02*
X19113022Y-46250555D01*
X19113022Y-46250555D02*
X19209784Y-46298935D01*
X19209784Y-46298935D02*
X19354927Y-46298935D01*
X18677594Y-45621602D02*
X18484070Y-46298935D01*
X18484070Y-46298935D02*
X18290546Y-45815126D01*
X18290546Y-45815126D02*
X18097022Y-46298935D01*
X18097022Y-46298935D02*
X17903498Y-45621602D01*
X17129403Y-46250555D02*
X17226165Y-46298935D01*
X17226165Y-46298935D02*
X17419689Y-46298935D01*
X17419689Y-46298935D02*
X17516451Y-46250555D01*
X17516451Y-46250555D02*
X17564832Y-46153793D01*
X17564832Y-46153793D02*
X17564832Y-45766745D01*
X17564832Y-45766745D02*
X17516451Y-45669983D01*
X17516451Y-45669983D02*
X17419689Y-45621602D01*
X17419689Y-45621602D02*
X17226165Y-45621602D01*
X17226165Y-45621602D02*
X17129403Y-45669983D01*
X17129403Y-45669983D02*
X17081022Y-45766745D01*
X17081022Y-45766745D02*
X17081022Y-45863507D01*
X17081022Y-45863507D02*
X17564832Y-45960269D01*
X16645594Y-46298935D02*
X16645594Y-45621602D01*
X16645594Y-45815126D02*
X16597213Y-45718364D01*
X16597213Y-45718364D02*
X16548832Y-45669983D01*
X16548832Y-45669983D02*
X16452070Y-45621602D01*
X16452070Y-45621602D02*
X16355308Y-45621602D01*
X16016642Y-45911888D02*
X15242547Y-45911888D01*
X14758737Y-45766745D02*
X14420070Y-45766745D01*
X14274927Y-46298935D02*
X14758737Y-46298935D01*
X14758737Y-46298935D02*
X14758737Y-45282935D01*
X14758737Y-45282935D02*
X14274927Y-45282935D01*
X13936261Y-46298935D02*
X13404070Y-45621602D01*
X13936261Y-45621602D02*
X13404070Y-46298935D01*
X13017023Y-45911888D02*
X12242928Y-45911888D01*
X11420451Y-45766745D02*
X11275308Y-45815126D01*
X11275308Y-45815126D02*
X11226927Y-45863507D01*
X11226927Y-45863507D02*
X11178546Y-45960269D01*
X11178546Y-45960269D02*
X11178546Y-46105412D01*
X11178546Y-46105412D02*
X11226927Y-46202174D01*
X11226927Y-46202174D02*
X11275308Y-46250555D01*
X11275308Y-46250555D02*
X11372070Y-46298935D01*
X11372070Y-46298935D02*
X11759118Y-46298935D01*
X11759118Y-46298935D02*
X11759118Y-45282935D01*
X11759118Y-45282935D02*
X11420451Y-45282935D01*
X11420451Y-45282935D02*
X11323689Y-45331316D01*
X11323689Y-45331316D02*
X11275308Y-45379697D01*
X11275308Y-45379697D02*
X11226927Y-45476459D01*
X11226927Y-45476459D02*
X11226927Y-45573221D01*
X11226927Y-45573221D02*
X11275308Y-45669983D01*
X11275308Y-45669983D02*
X11323689Y-45718364D01*
X11323689Y-45718364D02*
X11420451Y-45766745D01*
X11420451Y-45766745D02*
X11759118Y-45766745D01*
X10597975Y-46298935D02*
X10694737Y-46250555D01*
X10694737Y-46250555D02*
X10743118Y-46202174D01*
X10743118Y-46202174D02*
X10791499Y-46105412D01*
X10791499Y-46105412D02*
X10791499Y-45815126D01*
X10791499Y-45815126D02*
X10743118Y-45718364D01*
X10743118Y-45718364D02*
X10694737Y-45669983D01*
X10694737Y-45669983D02*
X10597975Y-45621602D01*
X10597975Y-45621602D02*
X10452832Y-45621602D01*
X10452832Y-45621602D02*
X10356070Y-45669983D01*
X10356070Y-45669983D02*
X10307689Y-45718364D01*
X10307689Y-45718364D02*
X10259308Y-45815126D01*
X10259308Y-45815126D02*
X10259308Y-46105412D01*
X10259308Y-46105412D02*
X10307689Y-46202174D01*
X10307689Y-46202174D02*
X10356070Y-46250555D01*
X10356070Y-46250555D02*
X10452832Y-46298935D01*
X10452832Y-46298935D02*
X10597975Y-46298935D01*
X9388451Y-46298935D02*
X9388451Y-45766745D01*
X9388451Y-45766745D02*
X9436832Y-45669983D01*
X9436832Y-45669983D02*
X9533594Y-45621602D01*
X9533594Y-45621602D02*
X9727118Y-45621602D01*
X9727118Y-45621602D02*
X9823880Y-45669983D01*
X9388451Y-46250555D02*
X9485213Y-46298935D01*
X9485213Y-46298935D02*
X9727118Y-46298935D01*
X9727118Y-46298935D02*
X9823880Y-46250555D01*
X9823880Y-46250555D02*
X9872261Y-46153793D01*
X9872261Y-46153793D02*
X9872261Y-46057031D01*
X9872261Y-46057031D02*
X9823880Y-45960269D01*
X9823880Y-45960269D02*
X9727118Y-45911888D01*
X9727118Y-45911888D02*
X9485213Y-45911888D01*
X9485213Y-45911888D02*
X9388451Y-45863507D01*
X8904642Y-46298935D02*
X8904642Y-45621602D01*
X8904642Y-45815126D02*
X8856261Y-45718364D01*
X8856261Y-45718364D02*
X8807880Y-45669983D01*
X8807880Y-45669983D02*
X8711118Y-45621602D01*
X8711118Y-45621602D02*
X8614356Y-45621602D01*
X7840261Y-46298935D02*
X7840261Y-45282935D01*
X7840261Y-46250555D02*
X7937023Y-46298935D01*
X7937023Y-46298935D02*
X8130547Y-46298935D01*
X8130547Y-46298935D02*
X8227309Y-46250555D01*
X8227309Y-46250555D02*
X8275690Y-46202174D01*
X8275690Y-46202174D02*
X8324071Y-46105412D01*
X8324071Y-46105412D02*
X8324071Y-45815126D01*
X8324071Y-45815126D02*
X8275690Y-45718364D01*
X8275690Y-45718364D02*
X8227309Y-45669983D01*
X8227309Y-45669983D02*
X8130547Y-45621602D01*
X8130547Y-45621602D02*
X7937023Y-45621602D01*
X7937023Y-45621602D02*
X7840261Y-45669983D01*
X24676832Y-98649545D02*
X24338165Y-98649545D01*
X24193022Y-99181735D02*
X24676832Y-99181735D01*
X24676832Y-99181735D02*
X24676832Y-98165735D01*
X24676832Y-98165735D02*
X24193022Y-98165735D01*
X23805975Y-99133355D02*
X23660832Y-99181735D01*
X23660832Y-99181735D02*
X23418927Y-99181735D01*
X23418927Y-99181735D02*
X23322165Y-99133355D01*
X23322165Y-99133355D02*
X23273784Y-99084974D01*
X23273784Y-99084974D02*
X23225403Y-98988212D01*
X23225403Y-98988212D02*
X23225403Y-98891450D01*
X23225403Y-98891450D02*
X23273784Y-98794688D01*
X23273784Y-98794688D02*
X23322165Y-98746307D01*
X23322165Y-98746307D02*
X23418927Y-98697926D01*
X23418927Y-98697926D02*
X23612451Y-98649545D01*
X23612451Y-98649545D02*
X23709213Y-98601164D01*
X23709213Y-98601164D02*
X23757594Y-98552783D01*
X23757594Y-98552783D02*
X23805975Y-98456021D01*
X23805975Y-98456021D02*
X23805975Y-98359259D01*
X23805975Y-98359259D02*
X23757594Y-98262497D01*
X23757594Y-98262497D02*
X23709213Y-98214116D01*
X23709213Y-98214116D02*
X23612451Y-98165735D01*
X23612451Y-98165735D02*
X23370546Y-98165735D01*
X23370546Y-98165735D02*
X23225403Y-98214116D01*
X22789975Y-99181735D02*
X22789975Y-98165735D01*
X22789975Y-98165735D02*
X22402927Y-98165735D01*
X22402927Y-98165735D02*
X22306165Y-98214116D01*
X22306165Y-98214116D02*
X22257784Y-98262497D01*
X22257784Y-98262497D02*
X22209403Y-98359259D01*
X22209403Y-98359259D02*
X22209403Y-98504402D01*
X22209403Y-98504402D02*
X22257784Y-98601164D01*
X22257784Y-98601164D02*
X22306165Y-98649545D01*
X22306165Y-98649545D02*
X22402927Y-98697926D01*
X22402927Y-98697926D02*
X22789975Y-98697926D01*
X21773975Y-98794688D02*
X20999880Y-98794688D01*
X20516070Y-99181735D02*
X20516070Y-98165735D01*
X20516070Y-98165735D02*
X20129022Y-98165735D01*
X20129022Y-98165735D02*
X20032260Y-98214116D01*
X20032260Y-98214116D02*
X19983879Y-98262497D01*
X19983879Y-98262497D02*
X19935498Y-98359259D01*
X19935498Y-98359259D02*
X19935498Y-98504402D01*
X19935498Y-98504402D02*
X19983879Y-98601164D01*
X19983879Y-98601164D02*
X20032260Y-98649545D01*
X20032260Y-98649545D02*
X20129022Y-98697926D01*
X20129022Y-98697926D02*
X20516070Y-98697926D01*
X19354927Y-99181735D02*
X19451689Y-99133355D01*
X19451689Y-99133355D02*
X19500070Y-99084974D01*
X19500070Y-99084974D02*
X19548451Y-98988212D01*
X19548451Y-98988212D02*
X19548451Y-98697926D01*
X19548451Y-98697926D02*
X19500070Y-98601164D01*
X19500070Y-98601164D02*
X19451689Y-98552783D01*
X19451689Y-98552783D02*
X19354927Y-98504402D01*
X19354927Y-98504402D02*
X19209784Y-98504402D01*
X19209784Y-98504402D02*
X19113022Y-98552783D01*
X19113022Y-98552783D02*
X19064641Y-98601164D01*
X19064641Y-98601164D02*
X19016260Y-98697926D01*
X19016260Y-98697926D02*
X19016260Y-98988212D01*
X19016260Y-98988212D02*
X19064641Y-99084974D01*
X19064641Y-99084974D02*
X19113022Y-99133355D01*
X19113022Y-99133355D02*
X19209784Y-99181735D01*
X19209784Y-99181735D02*
X19354927Y-99181735D01*
X18677594Y-98504402D02*
X18484070Y-99181735D01*
X18484070Y-99181735D02*
X18290546Y-98697926D01*
X18290546Y-98697926D02*
X18097022Y-99181735D01*
X18097022Y-99181735D02*
X17903498Y-98504402D01*
X17129403Y-99133355D02*
X17226165Y-99181735D01*
X17226165Y-99181735D02*
X17419689Y-99181735D01*
X17419689Y-99181735D02*
X17516451Y-99133355D01*
X17516451Y-99133355D02*
X17564832Y-99036593D01*
X17564832Y-99036593D02*
X17564832Y-98649545D01*
X17564832Y-98649545D02*
X17516451Y-98552783D01*
X17516451Y-98552783D02*
X17419689Y-98504402D01*
X17419689Y-98504402D02*
X17226165Y-98504402D01*
X17226165Y-98504402D02*
X17129403Y-98552783D01*
X17129403Y-98552783D02*
X17081022Y-98649545D01*
X17081022Y-98649545D02*
X17081022Y-98746307D01*
X17081022Y-98746307D02*
X17564832Y-98843069D01*
X16645594Y-99181735D02*
X16645594Y-98504402D01*
X16645594Y-98697926D02*
X16597213Y-98601164D01*
X16597213Y-98601164D02*
X16548832Y-98552783D01*
X16548832Y-98552783D02*
X16452070Y-98504402D01*
X16452070Y-98504402D02*
X16355308Y-98504402D01*
X16016642Y-98794688D02*
X15242547Y-98794688D01*
X14758737Y-98649545D02*
X14420070Y-98649545D01*
X14274927Y-99181735D02*
X14758737Y-99181735D01*
X14758737Y-99181735D02*
X14758737Y-98165735D01*
X14758737Y-98165735D02*
X14274927Y-98165735D01*
X13936261Y-99181735D02*
X13404070Y-98504402D01*
X13936261Y-98504402D02*
X13404070Y-99181735D01*
X13017023Y-98794688D02*
X12242928Y-98794688D01*
X11420451Y-98649545D02*
X11275308Y-98697926D01*
X11275308Y-98697926D02*
X11226927Y-98746307D01*
X11226927Y-98746307D02*
X11178546Y-98843069D01*
X11178546Y-98843069D02*
X11178546Y-98988212D01*
X11178546Y-98988212D02*
X11226927Y-99084974D01*
X11226927Y-99084974D02*
X11275308Y-99133355D01*
X11275308Y-99133355D02*
X11372070Y-99181735D01*
X11372070Y-99181735D02*
X11759118Y-99181735D01*
X11759118Y-99181735D02*
X11759118Y-98165735D01*
X11759118Y-98165735D02*
X11420451Y-98165735D01*
X11420451Y-98165735D02*
X11323689Y-98214116D01*
X11323689Y-98214116D02*
X11275308Y-98262497D01*
X11275308Y-98262497D02*
X11226927Y-98359259D01*
X11226927Y-98359259D02*
X11226927Y-98456021D01*
X11226927Y-98456021D02*
X11275308Y-98552783D01*
X11275308Y-98552783D02*
X11323689Y-98601164D01*
X11323689Y-98601164D02*
X11420451Y-98649545D01*
X11420451Y-98649545D02*
X11759118Y-98649545D01*
X10597975Y-99181735D02*
X10694737Y-99133355D01*
X10694737Y-99133355D02*
X10743118Y-99084974D01*
X10743118Y-99084974D02*
X10791499Y-98988212D01*
X10791499Y-98988212D02*
X10791499Y-98697926D01*
X10791499Y-98697926D02*
X10743118Y-98601164D01*
X10743118Y-98601164D02*
X10694737Y-98552783D01*
X10694737Y-98552783D02*
X10597975Y-98504402D01*
X10597975Y-98504402D02*
X10452832Y-98504402D01*
X10452832Y-98504402D02*
X10356070Y-98552783D01*
X10356070Y-98552783D02*
X10307689Y-98601164D01*
X10307689Y-98601164D02*
X10259308Y-98697926D01*
X10259308Y-98697926D02*
X10259308Y-98988212D01*
X10259308Y-98988212D02*
X10307689Y-99084974D01*
X10307689Y-99084974D02*
X10356070Y-99133355D01*
X10356070Y-99133355D02*
X10452832Y-99181735D01*
X10452832Y-99181735D02*
X10597975Y-99181735D01*
X9388451Y-99181735D02*
X9388451Y-98649545D01*
X9388451Y-98649545D02*
X9436832Y-98552783D01*
X9436832Y-98552783D02*
X9533594Y-98504402D01*
X9533594Y-98504402D02*
X9727118Y-98504402D01*
X9727118Y-98504402D02*
X9823880Y-98552783D01*
X9388451Y-99133355D02*
X9485213Y-99181735D01*
X9485213Y-99181735D02*
X9727118Y-99181735D01*
X9727118Y-99181735D02*
X9823880Y-99133355D01*
X9823880Y-99133355D02*
X9872261Y-99036593D01*
X9872261Y-99036593D02*
X9872261Y-98939831D01*
X9872261Y-98939831D02*
X9823880Y-98843069D01*
X9823880Y-98843069D02*
X9727118Y-98794688D01*
X9727118Y-98794688D02*
X9485213Y-98794688D01*
X9485213Y-98794688D02*
X9388451Y-98746307D01*
X8904642Y-99181735D02*
X8904642Y-98504402D01*
X8904642Y-98697926D02*
X8856261Y-98601164D01*
X8856261Y-98601164D02*
X8807880Y-98552783D01*
X8807880Y-98552783D02*
X8711118Y-98504402D01*
X8711118Y-98504402D02*
X8614356Y-98504402D01*
X7840261Y-99181735D02*
X7840261Y-98165735D01*
X7840261Y-99133355D02*
X7937023Y-99181735D01*
X7937023Y-99181735D02*
X8130547Y-99181735D01*
X8130547Y-99181735D02*
X8227309Y-99133355D01*
X8227309Y-99133355D02*
X8275690Y-99084974D01*
X8275690Y-99084974D02*
X8324071Y-98988212D01*
X8324071Y-98988212D02*
X8324071Y-98697926D01*
X8324071Y-98697926D02*
X8275690Y-98601164D01*
X8275690Y-98601164D02*
X8227309Y-98552783D01*
X8227309Y-98552783D02*
X8130547Y-98504402D01*
X8130547Y-98504402D02*
X7937023Y-98504402D01*
X7937023Y-98504402D02*
X7840261Y-98552783D01*
X24676832Y-72208145D02*
X24338165Y-72208145D01*
X24193022Y-72740335D02*
X24676832Y-72740335D01*
X24676832Y-72740335D02*
X24676832Y-71724335D01*
X24676832Y-71724335D02*
X24193022Y-71724335D01*
X23805975Y-72691955D02*
X23660832Y-72740335D01*
X23660832Y-72740335D02*
X23418927Y-72740335D01*
X23418927Y-72740335D02*
X23322165Y-72691955D01*
X23322165Y-72691955D02*
X23273784Y-72643574D01*
X23273784Y-72643574D02*
X23225403Y-72546812D01*
X23225403Y-72546812D02*
X23225403Y-72450050D01*
X23225403Y-72450050D02*
X23273784Y-72353288D01*
X23273784Y-72353288D02*
X23322165Y-72304907D01*
X23322165Y-72304907D02*
X23418927Y-72256526D01*
X23418927Y-72256526D02*
X23612451Y-72208145D01*
X23612451Y-72208145D02*
X23709213Y-72159764D01*
X23709213Y-72159764D02*
X23757594Y-72111383D01*
X23757594Y-72111383D02*
X23805975Y-72014621D01*
X23805975Y-72014621D02*
X23805975Y-71917859D01*
X23805975Y-71917859D02*
X23757594Y-71821097D01*
X23757594Y-71821097D02*
X23709213Y-71772716D01*
X23709213Y-71772716D02*
X23612451Y-71724335D01*
X23612451Y-71724335D02*
X23370546Y-71724335D01*
X23370546Y-71724335D02*
X23225403Y-71772716D01*
X22789975Y-72740335D02*
X22789975Y-71724335D01*
X22789975Y-71724335D02*
X22402927Y-71724335D01*
X22402927Y-71724335D02*
X22306165Y-71772716D01*
X22306165Y-71772716D02*
X22257784Y-71821097D01*
X22257784Y-71821097D02*
X22209403Y-71917859D01*
X22209403Y-71917859D02*
X22209403Y-72063002D01*
X22209403Y-72063002D02*
X22257784Y-72159764D01*
X22257784Y-72159764D02*
X22306165Y-72208145D01*
X22306165Y-72208145D02*
X22402927Y-72256526D01*
X22402927Y-72256526D02*
X22789975Y-72256526D01*
X21773975Y-72353288D02*
X20999880Y-72353288D01*
X20516070Y-72740335D02*
X20516070Y-71724335D01*
X20516070Y-71724335D02*
X20129022Y-71724335D01*
X20129022Y-71724335D02*
X20032260Y-71772716D01*
X20032260Y-71772716D02*
X19983879Y-71821097D01*
X19983879Y-71821097D02*
X19935498Y-71917859D01*
X19935498Y-71917859D02*
X19935498Y-72063002D01*
X19935498Y-72063002D02*
X19983879Y-72159764D01*
X19983879Y-72159764D02*
X20032260Y-72208145D01*
X20032260Y-72208145D02*
X20129022Y-72256526D01*
X20129022Y-72256526D02*
X20516070Y-72256526D01*
X19354927Y-72740335D02*
X19451689Y-72691955D01*
X19451689Y-72691955D02*
X19500070Y-72643574D01*
X19500070Y-72643574D02*
X19548451Y-72546812D01*
X19548451Y-72546812D02*
X19548451Y-72256526D01*
X19548451Y-72256526D02*
X19500070Y-72159764D01*
X19500070Y-72159764D02*
X19451689Y-72111383D01*
X19451689Y-72111383D02*
X19354927Y-72063002D01*
X19354927Y-72063002D02*
X19209784Y-72063002D01*
X19209784Y-72063002D02*
X19113022Y-72111383D01*
X19113022Y-72111383D02*
X19064641Y-72159764D01*
X19064641Y-72159764D02*
X19016260Y-72256526D01*
X19016260Y-72256526D02*
X19016260Y-72546812D01*
X19016260Y-72546812D02*
X19064641Y-72643574D01*
X19064641Y-72643574D02*
X19113022Y-72691955D01*
X19113022Y-72691955D02*
X19209784Y-72740335D01*
X19209784Y-72740335D02*
X19354927Y-72740335D01*
X18677594Y-72063002D02*
X18484070Y-72740335D01*
X18484070Y-72740335D02*
X18290546Y-72256526D01*
X18290546Y-72256526D02*
X18097022Y-72740335D01*
X18097022Y-72740335D02*
X17903498Y-72063002D01*
X17129403Y-72691955D02*
X17226165Y-72740335D01*
X17226165Y-72740335D02*
X17419689Y-72740335D01*
X17419689Y-72740335D02*
X17516451Y-72691955D01*
X17516451Y-72691955D02*
X17564832Y-72595193D01*
X17564832Y-72595193D02*
X17564832Y-72208145D01*
X17564832Y-72208145D02*
X17516451Y-72111383D01*
X17516451Y-72111383D02*
X17419689Y-72063002D01*
X17419689Y-72063002D02*
X17226165Y-72063002D01*
X17226165Y-72063002D02*
X17129403Y-72111383D01*
X17129403Y-72111383D02*
X17081022Y-72208145D01*
X17081022Y-72208145D02*
X17081022Y-72304907D01*
X17081022Y-72304907D02*
X17564832Y-72401669D01*
X16645594Y-72740335D02*
X16645594Y-72063002D01*
X16645594Y-72256526D02*
X16597213Y-72159764D01*
X16597213Y-72159764D02*
X16548832Y-72111383D01*
X16548832Y-72111383D02*
X16452070Y-72063002D01*
X16452070Y-72063002D02*
X16355308Y-72063002D01*
X16016642Y-72353288D02*
X15242547Y-72353288D01*
X14758737Y-72208145D02*
X14420070Y-72208145D01*
X14274927Y-72740335D02*
X14758737Y-72740335D01*
X14758737Y-72740335D02*
X14758737Y-71724335D01*
X14758737Y-71724335D02*
X14274927Y-71724335D01*
X13936261Y-72740335D02*
X13404070Y-72063002D01*
X13936261Y-72063002D02*
X13404070Y-72740335D01*
X13017023Y-72353288D02*
X12242928Y-72353288D01*
X11420451Y-72208145D02*
X11275308Y-72256526D01*
X11275308Y-72256526D02*
X11226927Y-72304907D01*
X11226927Y-72304907D02*
X11178546Y-72401669D01*
X11178546Y-72401669D02*
X11178546Y-72546812D01*
X11178546Y-72546812D02*
X11226927Y-72643574D01*
X11226927Y-72643574D02*
X11275308Y-72691955D01*
X11275308Y-72691955D02*
X11372070Y-72740335D01*
X11372070Y-72740335D02*
X11759118Y-72740335D01*
X11759118Y-72740335D02*
X11759118Y-71724335D01*
X11759118Y-71724335D02*
X11420451Y-71724335D01*
X11420451Y-71724335D02*
X11323689Y-71772716D01*
X11323689Y-71772716D02*
X11275308Y-71821097D01*
X11275308Y-71821097D02*
X11226927Y-71917859D01*
X11226927Y-71917859D02*
X11226927Y-72014621D01*
X11226927Y-72014621D02*
X11275308Y-72111383D01*
X11275308Y-72111383D02*
X11323689Y-72159764D01*
X11323689Y-72159764D02*
X11420451Y-72208145D01*
X11420451Y-72208145D02*
X11759118Y-72208145D01*
X10597975Y-72740335D02*
X10694737Y-72691955D01*
X10694737Y-72691955D02*
X10743118Y-72643574D01*
X10743118Y-72643574D02*
X10791499Y-72546812D01*
X10791499Y-72546812D02*
X10791499Y-72256526D01*
X10791499Y-72256526D02*
X10743118Y-72159764D01*
X10743118Y-72159764D02*
X10694737Y-72111383D01*
X10694737Y-72111383D02*
X10597975Y-72063002D01*
X10597975Y-72063002D02*
X10452832Y-72063002D01*
X10452832Y-72063002D02*
X10356070Y-72111383D01*
X10356070Y-72111383D02*
X10307689Y-72159764D01*
X10307689Y-72159764D02*
X10259308Y-72256526D01*
X10259308Y-72256526D02*
X10259308Y-72546812D01*
X10259308Y-72546812D02*
X10307689Y-72643574D01*
X10307689Y-72643574D02*
X10356070Y-72691955D01*
X10356070Y-72691955D02*
X10452832Y-72740335D01*
X10452832Y-72740335D02*
X10597975Y-72740335D01*
X9388451Y-72740335D02*
X9388451Y-72208145D01*
X9388451Y-72208145D02*
X9436832Y-72111383D01*
X9436832Y-72111383D02*
X9533594Y-72063002D01*
X9533594Y-72063002D02*
X9727118Y-72063002D01*
X9727118Y-72063002D02*
X9823880Y-72111383D01*
X9388451Y-72691955D02*
X9485213Y-72740335D01*
X9485213Y-72740335D02*
X9727118Y-72740335D01*
X9727118Y-72740335D02*
X9823880Y-72691955D01*
X9823880Y-72691955D02*
X9872261Y-72595193D01*
X9872261Y-72595193D02*
X9872261Y-72498431D01*
X9872261Y-72498431D02*
X9823880Y-72401669D01*
X9823880Y-72401669D02*
X9727118Y-72353288D01*
X9727118Y-72353288D02*
X9485213Y-72353288D01*
X9485213Y-72353288D02*
X9388451Y-72304907D01*
X8904642Y-72740335D02*
X8904642Y-72063002D01*
X8904642Y-72256526D02*
X8856261Y-72159764D01*
X8856261Y-72159764D02*
X8807880Y-72111383D01*
X8807880Y-72111383D02*
X8711118Y-72063002D01*
X8711118Y-72063002D02*
X8614356Y-72063002D01*
X7840261Y-72740335D02*
X7840261Y-71724335D01*
X7840261Y-72691955D02*
X7937023Y-72740335D01*
X7937023Y-72740335D02*
X8130547Y-72740335D01*
X8130547Y-72740335D02*
X8227309Y-72691955D01*
X8227309Y-72691955D02*
X8275690Y-72643574D01*
X8275690Y-72643574D02*
X8324071Y-72546812D01*
X8324071Y-72546812D02*
X8324071Y-72256526D01*
X8324071Y-72256526D02*
X8275690Y-72159764D01*
X8275690Y-72159764D02*
X8227309Y-72111383D01*
X8227309Y-72111383D02*
X8130547Y-72063002D01*
X8130547Y-72063002D02*
X7937023Y-72063002D01*
X7937023Y-72063002D02*
X7840261Y-72111383D01*
X87364032Y-45766745D02*
X87025365Y-45766745D01*
X86880222Y-46298935D02*
X87364032Y-46298935D01*
X87364032Y-46298935D02*
X87364032Y-45282935D01*
X87364032Y-45282935D02*
X86880222Y-45282935D01*
X86493175Y-46250555D02*
X86348032Y-46298935D01*
X86348032Y-46298935D02*
X86106127Y-46298935D01*
X86106127Y-46298935D02*
X86009365Y-46250555D01*
X86009365Y-46250555D02*
X85960984Y-46202174D01*
X85960984Y-46202174D02*
X85912603Y-46105412D01*
X85912603Y-46105412D02*
X85912603Y-46008650D01*
X85912603Y-46008650D02*
X85960984Y-45911888D01*
X85960984Y-45911888D02*
X86009365Y-45863507D01*
X86009365Y-45863507D02*
X86106127Y-45815126D01*
X86106127Y-45815126D02*
X86299651Y-45766745D01*
X86299651Y-45766745D02*
X86396413Y-45718364D01*
X86396413Y-45718364D02*
X86444794Y-45669983D01*
X86444794Y-45669983D02*
X86493175Y-45573221D01*
X86493175Y-45573221D02*
X86493175Y-45476459D01*
X86493175Y-45476459D02*
X86444794Y-45379697D01*
X86444794Y-45379697D02*
X86396413Y-45331316D01*
X86396413Y-45331316D02*
X86299651Y-45282935D01*
X86299651Y-45282935D02*
X86057746Y-45282935D01*
X86057746Y-45282935D02*
X85912603Y-45331316D01*
X85477175Y-46298935D02*
X85477175Y-45282935D01*
X85477175Y-45282935D02*
X85090127Y-45282935D01*
X85090127Y-45282935D02*
X84993365Y-45331316D01*
X84993365Y-45331316D02*
X84944984Y-45379697D01*
X84944984Y-45379697D02*
X84896603Y-45476459D01*
X84896603Y-45476459D02*
X84896603Y-45621602D01*
X84896603Y-45621602D02*
X84944984Y-45718364D01*
X84944984Y-45718364D02*
X84993365Y-45766745D01*
X84993365Y-45766745D02*
X85090127Y-45815126D01*
X85090127Y-45815126D02*
X85477175Y-45815126D01*
X84461175Y-45911888D02*
X83687080Y-45911888D01*
X83203270Y-46298935D02*
X83203270Y-45282935D01*
X83203270Y-45282935D02*
X82816222Y-45282935D01*
X82816222Y-45282935D02*
X82719460Y-45331316D01*
X82719460Y-45331316D02*
X82671079Y-45379697D01*
X82671079Y-45379697D02*
X82622698Y-45476459D01*
X82622698Y-45476459D02*
X82622698Y-45621602D01*
X82622698Y-45621602D02*
X82671079Y-45718364D01*
X82671079Y-45718364D02*
X82719460Y-45766745D01*
X82719460Y-45766745D02*
X82816222Y-45815126D01*
X82816222Y-45815126D02*
X83203270Y-45815126D01*
X82042127Y-46298935D02*
X82138889Y-46250555D01*
X82138889Y-46250555D02*
X82187270Y-46202174D01*
X82187270Y-46202174D02*
X82235651Y-46105412D01*
X82235651Y-46105412D02*
X82235651Y-45815126D01*
X82235651Y-45815126D02*
X82187270Y-45718364D01*
X82187270Y-45718364D02*
X82138889Y-45669983D01*
X82138889Y-45669983D02*
X82042127Y-45621602D01*
X82042127Y-45621602D02*
X81896984Y-45621602D01*
X81896984Y-45621602D02*
X81800222Y-45669983D01*
X81800222Y-45669983D02*
X81751841Y-45718364D01*
X81751841Y-45718364D02*
X81703460Y-45815126D01*
X81703460Y-45815126D02*
X81703460Y-46105412D01*
X81703460Y-46105412D02*
X81751841Y-46202174D01*
X81751841Y-46202174D02*
X81800222Y-46250555D01*
X81800222Y-46250555D02*
X81896984Y-46298935D01*
X81896984Y-46298935D02*
X82042127Y-46298935D01*
X81364794Y-45621602D02*
X81171270Y-46298935D01*
X81171270Y-46298935D02*
X80977746Y-45815126D01*
X80977746Y-45815126D02*
X80784222Y-46298935D01*
X80784222Y-46298935D02*
X80590698Y-45621602D01*
X79816603Y-46250555D02*
X79913365Y-46298935D01*
X79913365Y-46298935D02*
X80106889Y-46298935D01*
X80106889Y-46298935D02*
X80203651Y-46250555D01*
X80203651Y-46250555D02*
X80252032Y-46153793D01*
X80252032Y-46153793D02*
X80252032Y-45766745D01*
X80252032Y-45766745D02*
X80203651Y-45669983D01*
X80203651Y-45669983D02*
X80106889Y-45621602D01*
X80106889Y-45621602D02*
X79913365Y-45621602D01*
X79913365Y-45621602D02*
X79816603Y-45669983D01*
X79816603Y-45669983D02*
X79768222Y-45766745D01*
X79768222Y-45766745D02*
X79768222Y-45863507D01*
X79768222Y-45863507D02*
X80252032Y-45960269D01*
X79332794Y-46298935D02*
X79332794Y-45621602D01*
X79332794Y-45815126D02*
X79284413Y-45718364D01*
X79284413Y-45718364D02*
X79236032Y-45669983D01*
X79236032Y-45669983D02*
X79139270Y-45621602D01*
X79139270Y-45621602D02*
X79042508Y-45621602D01*
X78703842Y-45911888D02*
X77929747Y-45911888D01*
X77445937Y-45766745D02*
X77107270Y-45766745D01*
X76962127Y-46298935D02*
X77445937Y-46298935D01*
X77445937Y-46298935D02*
X77445937Y-45282935D01*
X77445937Y-45282935D02*
X76962127Y-45282935D01*
X76623461Y-46298935D02*
X76091270Y-45621602D01*
X76623461Y-45621602D02*
X76091270Y-46298935D01*
X75704223Y-45911888D02*
X74930128Y-45911888D01*
X74107651Y-45766745D02*
X73962508Y-45815126D01*
X73962508Y-45815126D02*
X73914127Y-45863507D01*
X73914127Y-45863507D02*
X73865746Y-45960269D01*
X73865746Y-45960269D02*
X73865746Y-46105412D01*
X73865746Y-46105412D02*
X73914127Y-46202174D01*
X73914127Y-46202174D02*
X73962508Y-46250555D01*
X73962508Y-46250555D02*
X74059270Y-46298935D01*
X74059270Y-46298935D02*
X74446318Y-46298935D01*
X74446318Y-46298935D02*
X74446318Y-45282935D01*
X74446318Y-45282935D02*
X74107651Y-45282935D01*
X74107651Y-45282935D02*
X74010889Y-45331316D01*
X74010889Y-45331316D02*
X73962508Y-45379697D01*
X73962508Y-45379697D02*
X73914127Y-45476459D01*
X73914127Y-45476459D02*
X73914127Y-45573221D01*
X73914127Y-45573221D02*
X73962508Y-45669983D01*
X73962508Y-45669983D02*
X74010889Y-45718364D01*
X74010889Y-45718364D02*
X74107651Y-45766745D01*
X74107651Y-45766745D02*
X74446318Y-45766745D01*
X73285175Y-46298935D02*
X73381937Y-46250555D01*
X73381937Y-46250555D02*
X73430318Y-46202174D01*
X73430318Y-46202174D02*
X73478699Y-46105412D01*
X73478699Y-46105412D02*
X73478699Y-45815126D01*
X73478699Y-45815126D02*
X73430318Y-45718364D01*
X73430318Y-45718364D02*
X73381937Y-45669983D01*
X73381937Y-45669983D02*
X73285175Y-45621602D01*
X73285175Y-45621602D02*
X73140032Y-45621602D01*
X73140032Y-45621602D02*
X73043270Y-45669983D01*
X73043270Y-45669983D02*
X72994889Y-45718364D01*
X72994889Y-45718364D02*
X72946508Y-45815126D01*
X72946508Y-45815126D02*
X72946508Y-46105412D01*
X72946508Y-46105412D02*
X72994889Y-46202174D01*
X72994889Y-46202174D02*
X73043270Y-46250555D01*
X73043270Y-46250555D02*
X73140032Y-46298935D01*
X73140032Y-46298935D02*
X73285175Y-46298935D01*
X72075651Y-46298935D02*
X72075651Y-45766745D01*
X72075651Y-45766745D02*
X72124032Y-45669983D01*
X72124032Y-45669983D02*
X72220794Y-45621602D01*
X72220794Y-45621602D02*
X72414318Y-45621602D01*
X72414318Y-45621602D02*
X72511080Y-45669983D01*
X72075651Y-46250555D02*
X72172413Y-46298935D01*
X72172413Y-46298935D02*
X72414318Y-46298935D01*
X72414318Y-46298935D02*
X72511080Y-46250555D01*
X72511080Y-46250555D02*
X72559461Y-46153793D01*
X72559461Y-46153793D02*
X72559461Y-46057031D01*
X72559461Y-46057031D02*
X72511080Y-45960269D01*
X72511080Y-45960269D02*
X72414318Y-45911888D01*
X72414318Y-45911888D02*
X72172413Y-45911888D01*
X72172413Y-45911888D02*
X72075651Y-45863507D01*
X71591842Y-46298935D02*
X71591842Y-45621602D01*
X71591842Y-45815126D02*
X71543461Y-45718364D01*
X71543461Y-45718364D02*
X71495080Y-45669983D01*
X71495080Y-45669983D02*
X71398318Y-45621602D01*
X71398318Y-45621602D02*
X71301556Y-45621602D01*
X70527461Y-46298935D02*
X70527461Y-45282935D01*
X70527461Y-46250555D02*
X70624223Y-46298935D01*
X70624223Y-46298935D02*
X70817747Y-46298935D01*
X70817747Y-46298935D02*
X70914509Y-46250555D01*
X70914509Y-46250555D02*
X70962890Y-46202174D01*
X70962890Y-46202174D02*
X71011271Y-46105412D01*
X71011271Y-46105412D02*
X71011271Y-45815126D01*
X71011271Y-45815126D02*
X70962890Y-45718364D01*
X70962890Y-45718364D02*
X70914509Y-45669983D01*
X70914509Y-45669983D02*
X70817747Y-45621602D01*
X70817747Y-45621602D02*
X70624223Y-45621602D01*
X70624223Y-45621602D02*
X70527461Y-45669983D01*
X56020432Y-45766745D02*
X55681765Y-45766745D01*
X55536622Y-46298935D02*
X56020432Y-46298935D01*
X56020432Y-46298935D02*
X56020432Y-45282935D01*
X56020432Y-45282935D02*
X55536622Y-45282935D01*
X55149575Y-46250555D02*
X55004432Y-46298935D01*
X55004432Y-46298935D02*
X54762527Y-46298935D01*
X54762527Y-46298935D02*
X54665765Y-46250555D01*
X54665765Y-46250555D02*
X54617384Y-46202174D01*
X54617384Y-46202174D02*
X54569003Y-46105412D01*
X54569003Y-46105412D02*
X54569003Y-46008650D01*
X54569003Y-46008650D02*
X54617384Y-45911888D01*
X54617384Y-45911888D02*
X54665765Y-45863507D01*
X54665765Y-45863507D02*
X54762527Y-45815126D01*
X54762527Y-45815126D02*
X54956051Y-45766745D01*
X54956051Y-45766745D02*
X55052813Y-45718364D01*
X55052813Y-45718364D02*
X55101194Y-45669983D01*
X55101194Y-45669983D02*
X55149575Y-45573221D01*
X55149575Y-45573221D02*
X55149575Y-45476459D01*
X55149575Y-45476459D02*
X55101194Y-45379697D01*
X55101194Y-45379697D02*
X55052813Y-45331316D01*
X55052813Y-45331316D02*
X54956051Y-45282935D01*
X54956051Y-45282935D02*
X54714146Y-45282935D01*
X54714146Y-45282935D02*
X54569003Y-45331316D01*
X54133575Y-46298935D02*
X54133575Y-45282935D01*
X54133575Y-45282935D02*
X53746527Y-45282935D01*
X53746527Y-45282935D02*
X53649765Y-45331316D01*
X53649765Y-45331316D02*
X53601384Y-45379697D01*
X53601384Y-45379697D02*
X53553003Y-45476459D01*
X53553003Y-45476459D02*
X53553003Y-45621602D01*
X53553003Y-45621602D02*
X53601384Y-45718364D01*
X53601384Y-45718364D02*
X53649765Y-45766745D01*
X53649765Y-45766745D02*
X53746527Y-45815126D01*
X53746527Y-45815126D02*
X54133575Y-45815126D01*
X53117575Y-45911888D02*
X52343480Y-45911888D01*
X51859670Y-46298935D02*
X51859670Y-45282935D01*
X51859670Y-45282935D02*
X51472622Y-45282935D01*
X51472622Y-45282935D02*
X51375860Y-45331316D01*
X51375860Y-45331316D02*
X51327479Y-45379697D01*
X51327479Y-45379697D02*
X51279098Y-45476459D01*
X51279098Y-45476459D02*
X51279098Y-45621602D01*
X51279098Y-45621602D02*
X51327479Y-45718364D01*
X51327479Y-45718364D02*
X51375860Y-45766745D01*
X51375860Y-45766745D02*
X51472622Y-45815126D01*
X51472622Y-45815126D02*
X51859670Y-45815126D01*
X50698527Y-46298935D02*
X50795289Y-46250555D01*
X50795289Y-46250555D02*
X50843670Y-46202174D01*
X50843670Y-46202174D02*
X50892051Y-46105412D01*
X50892051Y-46105412D02*
X50892051Y-45815126D01*
X50892051Y-45815126D02*
X50843670Y-45718364D01*
X50843670Y-45718364D02*
X50795289Y-45669983D01*
X50795289Y-45669983D02*
X50698527Y-45621602D01*
X50698527Y-45621602D02*
X50553384Y-45621602D01*
X50553384Y-45621602D02*
X50456622Y-45669983D01*
X50456622Y-45669983D02*
X50408241Y-45718364D01*
X50408241Y-45718364D02*
X50359860Y-45815126D01*
X50359860Y-45815126D02*
X50359860Y-46105412D01*
X50359860Y-46105412D02*
X50408241Y-46202174D01*
X50408241Y-46202174D02*
X50456622Y-46250555D01*
X50456622Y-46250555D02*
X50553384Y-46298935D01*
X50553384Y-46298935D02*
X50698527Y-46298935D01*
X50021194Y-45621602D02*
X49827670Y-46298935D01*
X49827670Y-46298935D02*
X49634146Y-45815126D01*
X49634146Y-45815126D02*
X49440622Y-46298935D01*
X49440622Y-46298935D02*
X49247098Y-45621602D01*
X48473003Y-46250555D02*
X48569765Y-46298935D01*
X48569765Y-46298935D02*
X48763289Y-46298935D01*
X48763289Y-46298935D02*
X48860051Y-46250555D01*
X48860051Y-46250555D02*
X48908432Y-46153793D01*
X48908432Y-46153793D02*
X48908432Y-45766745D01*
X48908432Y-45766745D02*
X48860051Y-45669983D01*
X48860051Y-45669983D02*
X48763289Y-45621602D01*
X48763289Y-45621602D02*
X48569765Y-45621602D01*
X48569765Y-45621602D02*
X48473003Y-45669983D01*
X48473003Y-45669983D02*
X48424622Y-45766745D01*
X48424622Y-45766745D02*
X48424622Y-45863507D01*
X48424622Y-45863507D02*
X48908432Y-45960269D01*
X47989194Y-46298935D02*
X47989194Y-45621602D01*
X47989194Y-45815126D02*
X47940813Y-45718364D01*
X47940813Y-45718364D02*
X47892432Y-45669983D01*
X47892432Y-45669983D02*
X47795670Y-45621602D01*
X47795670Y-45621602D02*
X47698908Y-45621602D01*
X47360242Y-45911888D02*
X46586147Y-45911888D01*
X46102337Y-45766745D02*
X45763670Y-45766745D01*
X45618527Y-46298935D02*
X46102337Y-46298935D01*
X46102337Y-46298935D02*
X46102337Y-45282935D01*
X46102337Y-45282935D02*
X45618527Y-45282935D01*
X45279861Y-46298935D02*
X44747670Y-45621602D01*
X45279861Y-45621602D02*
X44747670Y-46298935D01*
X44360623Y-45911888D02*
X43586528Y-45911888D01*
X42764051Y-45766745D02*
X42618908Y-45815126D01*
X42618908Y-45815126D02*
X42570527Y-45863507D01*
X42570527Y-45863507D02*
X42522146Y-45960269D01*
X42522146Y-45960269D02*
X42522146Y-46105412D01*
X42522146Y-46105412D02*
X42570527Y-46202174D01*
X42570527Y-46202174D02*
X42618908Y-46250555D01*
X42618908Y-46250555D02*
X42715670Y-46298935D01*
X42715670Y-46298935D02*
X43102718Y-46298935D01*
X43102718Y-46298935D02*
X43102718Y-45282935D01*
X43102718Y-45282935D02*
X42764051Y-45282935D01*
X42764051Y-45282935D02*
X42667289Y-45331316D01*
X42667289Y-45331316D02*
X42618908Y-45379697D01*
X42618908Y-45379697D02*
X42570527Y-45476459D01*
X42570527Y-45476459D02*
X42570527Y-45573221D01*
X42570527Y-45573221D02*
X42618908Y-45669983D01*
X42618908Y-45669983D02*
X42667289Y-45718364D01*
X42667289Y-45718364D02*
X42764051Y-45766745D01*
X42764051Y-45766745D02*
X43102718Y-45766745D01*
X41941575Y-46298935D02*
X42038337Y-46250555D01*
X42038337Y-46250555D02*
X42086718Y-46202174D01*
X42086718Y-46202174D02*
X42135099Y-46105412D01*
X42135099Y-46105412D02*
X42135099Y-45815126D01*
X42135099Y-45815126D02*
X42086718Y-45718364D01*
X42086718Y-45718364D02*
X42038337Y-45669983D01*
X42038337Y-45669983D02*
X41941575Y-45621602D01*
X41941575Y-45621602D02*
X41796432Y-45621602D01*
X41796432Y-45621602D02*
X41699670Y-45669983D01*
X41699670Y-45669983D02*
X41651289Y-45718364D01*
X41651289Y-45718364D02*
X41602908Y-45815126D01*
X41602908Y-45815126D02*
X41602908Y-46105412D01*
X41602908Y-46105412D02*
X41651289Y-46202174D01*
X41651289Y-46202174D02*
X41699670Y-46250555D01*
X41699670Y-46250555D02*
X41796432Y-46298935D01*
X41796432Y-46298935D02*
X41941575Y-46298935D01*
X40732051Y-46298935D02*
X40732051Y-45766745D01*
X40732051Y-45766745D02*
X40780432Y-45669983D01*
X40780432Y-45669983D02*
X40877194Y-45621602D01*
X40877194Y-45621602D02*
X41070718Y-45621602D01*
X41070718Y-45621602D02*
X41167480Y-45669983D01*
X40732051Y-46250555D02*
X40828813Y-46298935D01*
X40828813Y-46298935D02*
X41070718Y-46298935D01*
X41070718Y-46298935D02*
X41167480Y-46250555D01*
X41167480Y-46250555D02*
X41215861Y-46153793D01*
X41215861Y-46153793D02*
X41215861Y-46057031D01*
X41215861Y-46057031D02*
X41167480Y-45960269D01*
X41167480Y-45960269D02*
X41070718Y-45911888D01*
X41070718Y-45911888D02*
X40828813Y-45911888D01*
X40828813Y-45911888D02*
X40732051Y-45863507D01*
X40248242Y-46298935D02*
X40248242Y-45621602D01*
X40248242Y-45815126D02*
X40199861Y-45718364D01*
X40199861Y-45718364D02*
X40151480Y-45669983D01*
X40151480Y-45669983D02*
X40054718Y-45621602D01*
X40054718Y-45621602D02*
X39957956Y-45621602D01*
X39183861Y-46298935D02*
X39183861Y-45282935D01*
X39183861Y-46250555D02*
X39280623Y-46298935D01*
X39280623Y-46298935D02*
X39474147Y-46298935D01*
X39474147Y-46298935D02*
X39570909Y-46250555D01*
X39570909Y-46250555D02*
X39619290Y-46202174D01*
X39619290Y-46202174D02*
X39667671Y-46105412D01*
X39667671Y-46105412D02*
X39667671Y-45815126D01*
X39667671Y-45815126D02*
X39619290Y-45718364D01*
X39619290Y-45718364D02*
X39570909Y-45669983D01*
X39570909Y-45669983D02*
X39474147Y-45621602D01*
X39474147Y-45621602D02*
X39280623Y-45621602D01*
X39280623Y-45621602D02*
X39183861Y-45669983D01*
X56020432Y-72208145D02*
X55681765Y-72208145D01*
X55536622Y-72740335D02*
X56020432Y-72740335D01*
X56020432Y-72740335D02*
X56020432Y-71724335D01*
X56020432Y-71724335D02*
X55536622Y-71724335D01*
X55149575Y-72691955D02*
X55004432Y-72740335D01*
X55004432Y-72740335D02*
X54762527Y-72740335D01*
X54762527Y-72740335D02*
X54665765Y-72691955D01*
X54665765Y-72691955D02*
X54617384Y-72643574D01*
X54617384Y-72643574D02*
X54569003Y-72546812D01*
X54569003Y-72546812D02*
X54569003Y-72450050D01*
X54569003Y-72450050D02*
X54617384Y-72353288D01*
X54617384Y-72353288D02*
X54665765Y-72304907D01*
X54665765Y-72304907D02*
X54762527Y-72256526D01*
X54762527Y-72256526D02*
X54956051Y-72208145D01*
X54956051Y-72208145D02*
X55052813Y-72159764D01*
X55052813Y-72159764D02*
X55101194Y-72111383D01*
X55101194Y-72111383D02*
X55149575Y-72014621D01*
X55149575Y-72014621D02*
X55149575Y-71917859D01*
X55149575Y-71917859D02*
X55101194Y-71821097D01*
X55101194Y-71821097D02*
X55052813Y-71772716D01*
X55052813Y-71772716D02*
X54956051Y-71724335D01*
X54956051Y-71724335D02*
X54714146Y-71724335D01*
X54714146Y-71724335D02*
X54569003Y-71772716D01*
X54133575Y-72740335D02*
X54133575Y-71724335D01*
X54133575Y-71724335D02*
X53746527Y-71724335D01*
X53746527Y-71724335D02*
X53649765Y-71772716D01*
X53649765Y-71772716D02*
X53601384Y-71821097D01*
X53601384Y-71821097D02*
X53553003Y-71917859D01*
X53553003Y-71917859D02*
X53553003Y-72063002D01*
X53553003Y-72063002D02*
X53601384Y-72159764D01*
X53601384Y-72159764D02*
X53649765Y-72208145D01*
X53649765Y-72208145D02*
X53746527Y-72256526D01*
X53746527Y-72256526D02*
X54133575Y-72256526D01*
X53117575Y-72353288D02*
X52343480Y-72353288D01*
X51859670Y-72740335D02*
X51859670Y-71724335D01*
X51859670Y-71724335D02*
X51472622Y-71724335D01*
X51472622Y-71724335D02*
X51375860Y-71772716D01*
X51375860Y-71772716D02*
X51327479Y-71821097D01*
X51327479Y-71821097D02*
X51279098Y-71917859D01*
X51279098Y-71917859D02*
X51279098Y-72063002D01*
X51279098Y-72063002D02*
X51327479Y-72159764D01*
X51327479Y-72159764D02*
X51375860Y-72208145D01*
X51375860Y-72208145D02*
X51472622Y-72256526D01*
X51472622Y-72256526D02*
X51859670Y-72256526D01*
X50698527Y-72740335D02*
X50795289Y-72691955D01*
X50795289Y-72691955D02*
X50843670Y-72643574D01*
X50843670Y-72643574D02*
X50892051Y-72546812D01*
X50892051Y-72546812D02*
X50892051Y-72256526D01*
X50892051Y-72256526D02*
X50843670Y-72159764D01*
X50843670Y-72159764D02*
X50795289Y-72111383D01*
X50795289Y-72111383D02*
X50698527Y-72063002D01*
X50698527Y-72063002D02*
X50553384Y-72063002D01*
X50553384Y-72063002D02*
X50456622Y-72111383D01*
X50456622Y-72111383D02*
X50408241Y-72159764D01*
X50408241Y-72159764D02*
X50359860Y-72256526D01*
X50359860Y-72256526D02*
X50359860Y-72546812D01*
X50359860Y-72546812D02*
X50408241Y-72643574D01*
X50408241Y-72643574D02*
X50456622Y-72691955D01*
X50456622Y-72691955D02*
X50553384Y-72740335D01*
X50553384Y-72740335D02*
X50698527Y-72740335D01*
X50021194Y-72063002D02*
X49827670Y-72740335D01*
X49827670Y-72740335D02*
X49634146Y-72256526D01*
X49634146Y-72256526D02*
X49440622Y-72740335D01*
X49440622Y-72740335D02*
X49247098Y-72063002D01*
X48473003Y-72691955D02*
X48569765Y-72740335D01*
X48569765Y-72740335D02*
X48763289Y-72740335D01*
X48763289Y-72740335D02*
X48860051Y-72691955D01*
X48860051Y-72691955D02*
X48908432Y-72595193D01*
X48908432Y-72595193D02*
X48908432Y-72208145D01*
X48908432Y-72208145D02*
X48860051Y-72111383D01*
X48860051Y-72111383D02*
X48763289Y-72063002D01*
X48763289Y-72063002D02*
X48569765Y-72063002D01*
X48569765Y-72063002D02*
X48473003Y-72111383D01*
X48473003Y-72111383D02*
X48424622Y-72208145D01*
X48424622Y-72208145D02*
X48424622Y-72304907D01*
X48424622Y-72304907D02*
X48908432Y-72401669D01*
X47989194Y-72740335D02*
X47989194Y-72063002D01*
X47989194Y-72256526D02*
X47940813Y-72159764D01*
X47940813Y-72159764D02*
X47892432Y-72111383D01*
X47892432Y-72111383D02*
X47795670Y-72063002D01*
X47795670Y-72063002D02*
X47698908Y-72063002D01*
X47360242Y-72353288D02*
X46586147Y-72353288D01*
X46102337Y-72208145D02*
X45763670Y-72208145D01*
X45618527Y-72740335D02*
X46102337Y-72740335D01*
X46102337Y-72740335D02*
X46102337Y-71724335D01*
X46102337Y-71724335D02*
X45618527Y-71724335D01*
X45279861Y-72740335D02*
X44747670Y-72063002D01*
X45279861Y-72063002D02*
X44747670Y-72740335D01*
X44360623Y-72353288D02*
X43586528Y-72353288D01*
X42764051Y-72208145D02*
X42618908Y-72256526D01*
X42618908Y-72256526D02*
X42570527Y-72304907D01*
X42570527Y-72304907D02*
X42522146Y-72401669D01*
X42522146Y-72401669D02*
X42522146Y-72546812D01*
X42522146Y-72546812D02*
X42570527Y-72643574D01*
X42570527Y-72643574D02*
X42618908Y-72691955D01*
X42618908Y-72691955D02*
X42715670Y-72740335D01*
X42715670Y-72740335D02*
X43102718Y-72740335D01*
X43102718Y-72740335D02*
X43102718Y-71724335D01*
X43102718Y-71724335D02*
X42764051Y-71724335D01*
X42764051Y-71724335D02*
X42667289Y-71772716D01*
X42667289Y-71772716D02*
X42618908Y-71821097D01*
X42618908Y-71821097D02*
X42570527Y-71917859D01*
X42570527Y-71917859D02*
X42570527Y-72014621D01*
X42570527Y-72014621D02*
X42618908Y-72111383D01*
X42618908Y-72111383D02*
X42667289Y-72159764D01*
X42667289Y-72159764D02*
X42764051Y-72208145D01*
X42764051Y-72208145D02*
X43102718Y-72208145D01*
X41941575Y-72740335D02*
X42038337Y-72691955D01*
X42038337Y-72691955D02*
X42086718Y-72643574D01*
X42086718Y-72643574D02*
X42135099Y-72546812D01*
X42135099Y-72546812D02*
X42135099Y-72256526D01*
X42135099Y-72256526D02*
X42086718Y-72159764D01*
X42086718Y-72159764D02*
X42038337Y-72111383D01*
X42038337Y-72111383D02*
X41941575Y-72063002D01*
X41941575Y-72063002D02*
X41796432Y-72063002D01*
X41796432Y-72063002D02*
X41699670Y-72111383D01*
X41699670Y-72111383D02*
X41651289Y-72159764D01*
X41651289Y-72159764D02*
X41602908Y-72256526D01*
X41602908Y-72256526D02*
X41602908Y-72546812D01*
X41602908Y-72546812D02*
X41651289Y-72643574D01*
X41651289Y-72643574D02*
X41699670Y-72691955D01*
X41699670Y-72691955D02*
X41796432Y-72740335D01*
X41796432Y-72740335D02*
X41941575Y-72740335D01*
X40732051Y-72740335D02*
X40732051Y-72208145D01*
X40732051Y-72208145D02*
X40780432Y-72111383D01*
X40780432Y-72111383D02*
X40877194Y-72063002D01*
X40877194Y-72063002D02*
X41070718Y-72063002D01*
X41070718Y-72063002D02*
X41167480Y-72111383D01*
X40732051Y-72691955D02*
X40828813Y-72740335D01*
X40828813Y-72740335D02*
X41070718Y-72740335D01*
X41070718Y-72740335D02*
X41167480Y-72691955D01*
X41167480Y-72691955D02*
X41215861Y-72595193D01*
X41215861Y-72595193D02*
X41215861Y-72498431D01*
X41215861Y-72498431D02*
X41167480Y-72401669D01*
X41167480Y-72401669D02*
X41070718Y-72353288D01*
X41070718Y-72353288D02*
X40828813Y-72353288D01*
X40828813Y-72353288D02*
X40732051Y-72304907D01*
X40248242Y-72740335D02*
X40248242Y-72063002D01*
X40248242Y-72256526D02*
X40199861Y-72159764D01*
X40199861Y-72159764D02*
X40151480Y-72111383D01*
X40151480Y-72111383D02*
X40054718Y-72063002D01*
X40054718Y-72063002D02*
X39957956Y-72063002D01*
X39183861Y-72740335D02*
X39183861Y-71724335D01*
X39183861Y-72691955D02*
X39280623Y-72740335D01*
X39280623Y-72740335D02*
X39474147Y-72740335D01*
X39474147Y-72740335D02*
X39570909Y-72691955D01*
X39570909Y-72691955D02*
X39619290Y-72643574D01*
X39619290Y-72643574D02*
X39667671Y-72546812D01*
X39667671Y-72546812D02*
X39667671Y-72256526D01*
X39667671Y-72256526D02*
X39619290Y-72159764D01*
X39619290Y-72159764D02*
X39570909Y-72111383D01*
X39570909Y-72111383D02*
X39474147Y-72063002D01*
X39474147Y-72063002D02*
X39280623Y-72063002D01*
X39280623Y-72063002D02*
X39183861Y-72111383D01*
X87364032Y-98649545D02*
X87025365Y-98649545D01*
X86880222Y-99181735D02*
X87364032Y-99181735D01*
X87364032Y-99181735D02*
X87364032Y-98165735D01*
X87364032Y-98165735D02*
X86880222Y-98165735D01*
X86493175Y-99133355D02*
X86348032Y-99181735D01*
X86348032Y-99181735D02*
X86106127Y-99181735D01*
X86106127Y-99181735D02*
X86009365Y-99133355D01*
X86009365Y-99133355D02*
X85960984Y-99084974D01*
X85960984Y-99084974D02*
X85912603Y-98988212D01*
X85912603Y-98988212D02*
X85912603Y-98891450D01*
X85912603Y-98891450D02*
X85960984Y-98794688D01*
X85960984Y-98794688D02*
X86009365Y-98746307D01*
X86009365Y-98746307D02*
X86106127Y-98697926D01*
X86106127Y-98697926D02*
X86299651Y-98649545D01*
X86299651Y-98649545D02*
X86396413Y-98601164D01*
X86396413Y-98601164D02*
X86444794Y-98552783D01*
X86444794Y-98552783D02*
X86493175Y-98456021D01*
X86493175Y-98456021D02*
X86493175Y-98359259D01*
X86493175Y-98359259D02*
X86444794Y-98262497D01*
X86444794Y-98262497D02*
X86396413Y-98214116D01*
X86396413Y-98214116D02*
X86299651Y-98165735D01*
X86299651Y-98165735D02*
X86057746Y-98165735D01*
X86057746Y-98165735D02*
X85912603Y-98214116D01*
X85477175Y-99181735D02*
X85477175Y-98165735D01*
X85477175Y-98165735D02*
X85090127Y-98165735D01*
X85090127Y-98165735D02*
X84993365Y-98214116D01*
X84993365Y-98214116D02*
X84944984Y-98262497D01*
X84944984Y-98262497D02*
X84896603Y-98359259D01*
X84896603Y-98359259D02*
X84896603Y-98504402D01*
X84896603Y-98504402D02*
X84944984Y-98601164D01*
X84944984Y-98601164D02*
X84993365Y-98649545D01*
X84993365Y-98649545D02*
X85090127Y-98697926D01*
X85090127Y-98697926D02*
X85477175Y-98697926D01*
X84461175Y-98794688D02*
X83687080Y-98794688D01*
X83203270Y-99181735D02*
X83203270Y-98165735D01*
X83203270Y-98165735D02*
X82816222Y-98165735D01*
X82816222Y-98165735D02*
X82719460Y-98214116D01*
X82719460Y-98214116D02*
X82671079Y-98262497D01*
X82671079Y-98262497D02*
X82622698Y-98359259D01*
X82622698Y-98359259D02*
X82622698Y-98504402D01*
X82622698Y-98504402D02*
X82671079Y-98601164D01*
X82671079Y-98601164D02*
X82719460Y-98649545D01*
X82719460Y-98649545D02*
X82816222Y-98697926D01*
X82816222Y-98697926D02*
X83203270Y-98697926D01*
X82042127Y-99181735D02*
X82138889Y-99133355D01*
X82138889Y-99133355D02*
X82187270Y-99084974D01*
X82187270Y-99084974D02*
X82235651Y-98988212D01*
X82235651Y-98988212D02*
X82235651Y-98697926D01*
X82235651Y-98697926D02*
X82187270Y-98601164D01*
X82187270Y-98601164D02*
X82138889Y-98552783D01*
X82138889Y-98552783D02*
X82042127Y-98504402D01*
X82042127Y-98504402D02*
X81896984Y-98504402D01*
X81896984Y-98504402D02*
X81800222Y-98552783D01*
X81800222Y-98552783D02*
X81751841Y-98601164D01*
X81751841Y-98601164D02*
X81703460Y-98697926D01*
X81703460Y-98697926D02*
X81703460Y-98988212D01*
X81703460Y-98988212D02*
X81751841Y-99084974D01*
X81751841Y-99084974D02*
X81800222Y-99133355D01*
X81800222Y-99133355D02*
X81896984Y-99181735D01*
X81896984Y-99181735D02*
X82042127Y-99181735D01*
X81364794Y-98504402D02*
X81171270Y-99181735D01*
X81171270Y-99181735D02*
X80977746Y-98697926D01*
X80977746Y-98697926D02*
X80784222Y-99181735D01*
X80784222Y-99181735D02*
X80590698Y-98504402D01*
X79816603Y-99133355D02*
X79913365Y-99181735D01*
X79913365Y-99181735D02*
X80106889Y-99181735D01*
X80106889Y-99181735D02*
X80203651Y-99133355D01*
X80203651Y-99133355D02*
X80252032Y-99036593D01*
X80252032Y-99036593D02*
X80252032Y-98649545D01*
X80252032Y-98649545D02*
X80203651Y-98552783D01*
X80203651Y-98552783D02*
X80106889Y-98504402D01*
X80106889Y-98504402D02*
X79913365Y-98504402D01*
X79913365Y-98504402D02*
X79816603Y-98552783D01*
X79816603Y-98552783D02*
X79768222Y-98649545D01*
X79768222Y-98649545D02*
X79768222Y-98746307D01*
X79768222Y-98746307D02*
X80252032Y-98843069D01*
X79332794Y-99181735D02*
X79332794Y-98504402D01*
X79332794Y-98697926D02*
X79284413Y-98601164D01*
X79284413Y-98601164D02*
X79236032Y-98552783D01*
X79236032Y-98552783D02*
X79139270Y-98504402D01*
X79139270Y-98504402D02*
X79042508Y-98504402D01*
X78703842Y-98794688D02*
X77929747Y-98794688D01*
X77445937Y-98649545D02*
X77107270Y-98649545D01*
X76962127Y-99181735D02*
X77445937Y-99181735D01*
X77445937Y-99181735D02*
X77445937Y-98165735D01*
X77445937Y-98165735D02*
X76962127Y-98165735D01*
X76623461Y-99181735D02*
X76091270Y-98504402D01*
X76623461Y-98504402D02*
X76091270Y-99181735D01*
X75704223Y-98794688D02*
X74930128Y-98794688D01*
X74107651Y-98649545D02*
X73962508Y-98697926D01*
X73962508Y-98697926D02*
X73914127Y-98746307D01*
X73914127Y-98746307D02*
X73865746Y-98843069D01*
X73865746Y-98843069D02*
X73865746Y-98988212D01*
X73865746Y-98988212D02*
X73914127Y-99084974D01*
X73914127Y-99084974D02*
X73962508Y-99133355D01*
X73962508Y-99133355D02*
X74059270Y-99181735D01*
X74059270Y-99181735D02*
X74446318Y-99181735D01*
X74446318Y-99181735D02*
X74446318Y-98165735D01*
X74446318Y-98165735D02*
X74107651Y-98165735D01*
X74107651Y-98165735D02*
X74010889Y-98214116D01*
X74010889Y-98214116D02*
X73962508Y-98262497D01*
X73962508Y-98262497D02*
X73914127Y-98359259D01*
X73914127Y-98359259D02*
X73914127Y-98456021D01*
X73914127Y-98456021D02*
X73962508Y-98552783D01*
X73962508Y-98552783D02*
X74010889Y-98601164D01*
X74010889Y-98601164D02*
X74107651Y-98649545D01*
X74107651Y-98649545D02*
X74446318Y-98649545D01*
X73285175Y-99181735D02*
X73381937Y-99133355D01*
X73381937Y-99133355D02*
X73430318Y-99084974D01*
X73430318Y-99084974D02*
X73478699Y-98988212D01*
X73478699Y-98988212D02*
X73478699Y-98697926D01*
X73478699Y-98697926D02*
X73430318Y-98601164D01*
X73430318Y-98601164D02*
X73381937Y-98552783D01*
X73381937Y-98552783D02*
X73285175Y-98504402D01*
X73285175Y-98504402D02*
X73140032Y-98504402D01*
X73140032Y-98504402D02*
X73043270Y-98552783D01*
X73043270Y-98552783D02*
X72994889Y-98601164D01*
X72994889Y-98601164D02*
X72946508Y-98697926D01*
X72946508Y-98697926D02*
X72946508Y-98988212D01*
X72946508Y-98988212D02*
X72994889Y-99084974D01*
X72994889Y-99084974D02*
X73043270Y-99133355D01*
X73043270Y-99133355D02*
X73140032Y-99181735D01*
X73140032Y-99181735D02*
X73285175Y-99181735D01*
X72075651Y-99181735D02*
X72075651Y-98649545D01*
X72075651Y-98649545D02*
X72124032Y-98552783D01*
X72124032Y-98552783D02*
X72220794Y-98504402D01*
X72220794Y-98504402D02*
X72414318Y-98504402D01*
X72414318Y-98504402D02*
X72511080Y-98552783D01*
X72075651Y-99133355D02*
X72172413Y-99181735D01*
X72172413Y-99181735D02*
X72414318Y-99181735D01*
X72414318Y-99181735D02*
X72511080Y-99133355D01*
X72511080Y-99133355D02*
X72559461Y-99036593D01*
X72559461Y-99036593D02*
X72559461Y-98939831D01*
X72559461Y-98939831D02*
X72511080Y-98843069D01*
X72511080Y-98843069D02*
X72414318Y-98794688D01*
X72414318Y-98794688D02*
X72172413Y-98794688D01*
X72172413Y-98794688D02*
X72075651Y-98746307D01*
X71591842Y-99181735D02*
X71591842Y-98504402D01*
X71591842Y-98697926D02*
X71543461Y-98601164D01*
X71543461Y-98601164D02*
X71495080Y-98552783D01*
X71495080Y-98552783D02*
X71398318Y-98504402D01*
X71398318Y-98504402D02*
X71301556Y-98504402D01*
X70527461Y-99181735D02*
X70527461Y-98165735D01*
X70527461Y-99133355D02*
X70624223Y-99181735D01*
X70624223Y-99181735D02*
X70817747Y-99181735D01*
X70817747Y-99181735D02*
X70914509Y-99133355D01*
X70914509Y-99133355D02*
X70962890Y-99084974D01*
X70962890Y-99084974D02*
X71011271Y-98988212D01*
X71011271Y-98988212D02*
X71011271Y-98697926D01*
X71011271Y-98697926D02*
X70962890Y-98601164D01*
X70962890Y-98601164D02*
X70914509Y-98552783D01*
X70914509Y-98552783D02*
X70817747Y-98504402D01*
X70817747Y-98504402D02*
X70624223Y-98504402D01*
X70624223Y-98504402D02*
X70527461Y-98552783D01*
D11*
%TO.C,Custom*%
X24348600Y-74991200D03*
D12*
X24348600Y-77531200D03*
X21808600Y-74991200D03*
X21808600Y-77531200D03*
X19268600Y-74991200D03*
X19268600Y-77531200D03*
X16728600Y-74991200D03*
X16728600Y-77531200D03*
X14188600Y-74991200D03*
X14188600Y-77531200D03*
X11648600Y-74991200D03*
X11648600Y-77531200D03*
X9108600Y-74991200D03*
X9108600Y-77531200D03*
X6568600Y-74991200D03*
X6568600Y-77531200D03*
X4028600Y-74991200D03*
X4028600Y-77531200D03*
X1488600Y-74991200D03*
X1488600Y-77531200D03*
%TD*%
D11*
%TO.C,5V*%
X32842200Y-83682600D03*
D12*
X32842200Y-81142600D03*
X35382200Y-83682600D03*
X35382200Y-81142600D03*
X37922200Y-83682600D03*
X37922200Y-81142600D03*
X40462200Y-83682600D03*
X40462200Y-81142600D03*
X43002200Y-83682600D03*
X43002200Y-81142600D03*
X45542200Y-83682600D03*
X45542200Y-81142600D03*
X48082200Y-83682600D03*
X48082200Y-81142600D03*
X50622200Y-83682600D03*
X50622200Y-81142600D03*
X53162200Y-83682600D03*
X53162200Y-81142600D03*
X55702200Y-83682600D03*
X55702200Y-81142600D03*
%TD*%
D11*
%TO.C,3V3*%
X58338800Y-1808400D03*
D12*
X60878800Y-1808400D03*
X58338800Y-4348400D03*
X60878800Y-4348400D03*
X58338800Y-6888400D03*
X60878800Y-6888400D03*
X58338800Y-9428400D03*
X60878800Y-9428400D03*
X58338800Y-11968400D03*
X60878800Y-11968400D03*
X58338800Y-14508400D03*
X60878800Y-14508400D03*
X58338800Y-17048400D03*
X60878800Y-17048400D03*
X58338800Y-19588400D03*
X60878800Y-19588400D03*
X58338800Y-22128400D03*
X60878800Y-22128400D03*
X58338800Y-24668400D03*
X60878800Y-24668400D03*
%TD*%
D11*
%TO.C,3V3*%
X89682400Y-81132600D03*
D12*
X92222400Y-81132600D03*
X89682400Y-83672600D03*
X92222400Y-83672600D03*
X89682400Y-86212600D03*
X92222400Y-86212600D03*
X89682400Y-88752600D03*
X92222400Y-88752600D03*
X89682400Y-91292600D03*
X92222400Y-91292600D03*
X89682400Y-93832600D03*
X92222400Y-93832600D03*
X89682400Y-96372600D03*
X92222400Y-96372600D03*
X89682400Y-98912600D03*
X92222400Y-98912600D03*
X89682400Y-101452600D03*
X92222400Y-101452600D03*
X89682400Y-103992600D03*
X92222400Y-103992600D03*
%TD*%
D11*
%TO.C,5V*%
X64185800Y-4358400D03*
D12*
X64185800Y-1818400D03*
X66725800Y-4358400D03*
X66725800Y-1818400D03*
X69265800Y-4358400D03*
X69265800Y-1818400D03*
X71805800Y-4358400D03*
X71805800Y-1818400D03*
X74345800Y-4358400D03*
X74345800Y-1818400D03*
X76885800Y-4358400D03*
X76885800Y-1818400D03*
X79425800Y-4358400D03*
X79425800Y-1818400D03*
X81965800Y-4358400D03*
X81965800Y-1818400D03*
X84505800Y-4358400D03*
X84505800Y-1818400D03*
X87045800Y-4358400D03*
X87045800Y-1818400D03*
%TD*%
D11*
%TO.C,5V*%
X1498600Y-30799800D03*
D12*
X1498600Y-28259800D03*
X4038600Y-30799800D03*
X4038600Y-28259800D03*
X6578600Y-30799800D03*
X6578600Y-28259800D03*
X9118600Y-30799800D03*
X9118600Y-28259800D03*
X11658600Y-30799800D03*
X11658600Y-28259800D03*
X14198600Y-30799800D03*
X14198600Y-28259800D03*
X16738600Y-30799800D03*
X16738600Y-28259800D03*
X19278600Y-30799800D03*
X19278600Y-28259800D03*
X21818600Y-30799800D03*
X21818600Y-28259800D03*
X24358600Y-30799800D03*
X24358600Y-28259800D03*
%TD*%
D11*
%TO.C,3V3*%
X26995200Y-1808400D03*
D12*
X29535200Y-1808400D03*
X26995200Y-4348400D03*
X29535200Y-4348400D03*
X26995200Y-6888400D03*
X29535200Y-6888400D03*
X26995200Y-9428400D03*
X29535200Y-9428400D03*
X26995200Y-11968400D03*
X29535200Y-11968400D03*
X26995200Y-14508400D03*
X29535200Y-14508400D03*
X26995200Y-17048400D03*
X29535200Y-17048400D03*
X26995200Y-19588400D03*
X29535200Y-19588400D03*
X26995200Y-22128400D03*
X29535200Y-22128400D03*
X26995200Y-24668400D03*
X29535200Y-24668400D03*
%TD*%
D11*
%TO.C,Custom*%
X87035800Y-22108400D03*
D12*
X87035800Y-24648400D03*
X84495800Y-22108400D03*
X84495800Y-24648400D03*
X81955800Y-22108400D03*
X81955800Y-24648400D03*
X79415800Y-22108400D03*
X79415800Y-24648400D03*
X76875800Y-22108400D03*
X76875800Y-24648400D03*
X74335800Y-22108400D03*
X74335800Y-24648400D03*
X71795800Y-22108400D03*
X71795800Y-24648400D03*
X69255800Y-22108400D03*
X69255800Y-24648400D03*
X66715800Y-22108400D03*
X66715800Y-24648400D03*
X64175800Y-22108400D03*
X64175800Y-24648400D03*
%TD*%
D11*
%TO.C,5V*%
X1498600Y-57241200D03*
D12*
X1498600Y-54701200D03*
X4038600Y-57241200D03*
X4038600Y-54701200D03*
X6578600Y-57241200D03*
X6578600Y-54701200D03*
X9118600Y-57241200D03*
X9118600Y-54701200D03*
X11658600Y-57241200D03*
X11658600Y-54701200D03*
X14198600Y-57241200D03*
X14198600Y-54701200D03*
X16738600Y-57241200D03*
X16738600Y-54701200D03*
X19278600Y-57241200D03*
X19278600Y-54701200D03*
X21818600Y-57241200D03*
X21818600Y-54701200D03*
X24358600Y-57241200D03*
X24358600Y-54701200D03*
%TD*%
D11*
%TO.C,3V3*%
X89682400Y-28249800D03*
D12*
X92222400Y-28249800D03*
X89682400Y-30789800D03*
X92222400Y-30789800D03*
X89682400Y-33329800D03*
X92222400Y-33329800D03*
X89682400Y-35869800D03*
X92222400Y-35869800D03*
X89682400Y-38409800D03*
X92222400Y-38409800D03*
X89682400Y-40949800D03*
X92222400Y-40949800D03*
X89682400Y-43489800D03*
X92222400Y-43489800D03*
X89682400Y-46029800D03*
X92222400Y-46029800D03*
X89682400Y-48569800D03*
X92222400Y-48569800D03*
X89682400Y-51109800D03*
X92222400Y-51109800D03*
%TD*%
D13*
%TO.C,J1*%
X6232200Y-89667600D03*
X6232200Y-95447600D03*
D14*
X6762200Y-88237600D03*
D15*
X2582200Y-88237600D03*
D14*
X6762200Y-96877600D03*
D15*
X2582200Y-96877600D03*
%TD*%
D11*
%TO.C,5V*%
X64185800Y-83682600D03*
D12*
X64185800Y-81142600D03*
X66725800Y-83682600D03*
X66725800Y-81142600D03*
X69265800Y-83682600D03*
X69265800Y-81142600D03*
X71805800Y-83682600D03*
X71805800Y-81142600D03*
X74345800Y-83682600D03*
X74345800Y-81142600D03*
X76885800Y-83682600D03*
X76885800Y-81142600D03*
X79425800Y-83682600D03*
X79425800Y-81142600D03*
X81965800Y-83682600D03*
X81965800Y-81142600D03*
X84505800Y-83682600D03*
X84505800Y-81142600D03*
X87045800Y-83682600D03*
X87045800Y-81142600D03*
%TD*%
D11*
%TO.C,Custom*%
X24348600Y-22108400D03*
D12*
X24348600Y-24648400D03*
X21808600Y-22108400D03*
X21808600Y-24648400D03*
X19268600Y-22108400D03*
X19268600Y-24648400D03*
X16728600Y-22108400D03*
X16728600Y-24648400D03*
X14188600Y-22108400D03*
X14188600Y-24648400D03*
X11648600Y-22108400D03*
X11648600Y-24648400D03*
X9108600Y-22108400D03*
X9108600Y-24648400D03*
X6568600Y-22108400D03*
X6568600Y-24648400D03*
X4028600Y-22108400D03*
X4028600Y-24648400D03*
X1488600Y-22108400D03*
X1488600Y-24648400D03*
%TD*%
D11*
%TO.C,Custom*%
X55692200Y-101432600D03*
D12*
X55692200Y-103972600D03*
X53152200Y-101432600D03*
X53152200Y-103972600D03*
X50612200Y-101432600D03*
X50612200Y-103972600D03*
X48072200Y-101432600D03*
X48072200Y-103972600D03*
X45532200Y-101432600D03*
X45532200Y-103972600D03*
X42992200Y-101432600D03*
X42992200Y-103972600D03*
X40452200Y-101432600D03*
X40452200Y-103972600D03*
X37912200Y-101432600D03*
X37912200Y-103972600D03*
X35372200Y-101432600D03*
X35372200Y-103972600D03*
X32832200Y-101432600D03*
X32832200Y-103972600D03*
%TD*%
D11*
%TO.C,3V3*%
X26995200Y-54691200D03*
D12*
X29535200Y-54691200D03*
X26995200Y-57231200D03*
X29535200Y-57231200D03*
X26995200Y-59771200D03*
X29535200Y-59771200D03*
X26995200Y-62311200D03*
X29535200Y-62311200D03*
X26995200Y-64851200D03*
X29535200Y-64851200D03*
X26995200Y-67391200D03*
X29535200Y-67391200D03*
X26995200Y-69931200D03*
X29535200Y-69931200D03*
X26995200Y-72471200D03*
X29535200Y-72471200D03*
X26995200Y-75011200D03*
X29535200Y-75011200D03*
X26995200Y-77551200D03*
X29535200Y-77551200D03*
%TD*%
D11*
%TO.C,Custom*%
X55692200Y-22108400D03*
D12*
X55692200Y-24648400D03*
X53152200Y-22108400D03*
X53152200Y-24648400D03*
X50612200Y-22108400D03*
X50612200Y-24648400D03*
X48072200Y-22108400D03*
X48072200Y-24648400D03*
X45532200Y-22108400D03*
X45532200Y-24648400D03*
X42992200Y-22108400D03*
X42992200Y-24648400D03*
X40452200Y-22108400D03*
X40452200Y-24648400D03*
X37912200Y-22108400D03*
X37912200Y-24648400D03*
X35372200Y-22108400D03*
X35372200Y-24648400D03*
X32832200Y-22108400D03*
X32832200Y-24648400D03*
%TD*%
D11*
%TO.C,5V*%
X64185800Y-30799800D03*
D12*
X64185800Y-28259800D03*
X66725800Y-30799800D03*
X66725800Y-28259800D03*
X69265800Y-30799800D03*
X69265800Y-28259800D03*
X71805800Y-30799800D03*
X71805800Y-28259800D03*
X74345800Y-30799800D03*
X74345800Y-28259800D03*
X76885800Y-30799800D03*
X76885800Y-28259800D03*
X79425800Y-30799800D03*
X79425800Y-28259800D03*
X81965800Y-30799800D03*
X81965800Y-28259800D03*
X84505800Y-30799800D03*
X84505800Y-28259800D03*
X87045800Y-30799800D03*
X87045800Y-28259800D03*
%TD*%
D13*
%TO.C,J1*%
X37575800Y-10343400D03*
X37575800Y-16123400D03*
D14*
X38105800Y-8913400D03*
D15*
X33925800Y-8913400D03*
D14*
X38105800Y-17553400D03*
D15*
X33925800Y-17553400D03*
%TD*%
D13*
%TO.C,J1*%
X37575800Y-89667600D03*
X37575800Y-95447600D03*
D14*
X38105800Y-88237600D03*
D15*
X33925800Y-88237600D03*
D14*
X38105800Y-96877600D03*
D15*
X33925800Y-96877600D03*
%TD*%
D13*
%TO.C,J1*%
X37575800Y-36784800D03*
X37575800Y-42564800D03*
D14*
X38105800Y-35354800D03*
D15*
X33925800Y-35354800D03*
D14*
X38105800Y-43994800D03*
D15*
X33925800Y-43994800D03*
%TD*%
D11*
%TO.C,5V*%
X32842200Y-4358400D03*
D12*
X32842200Y-1818400D03*
X35382200Y-4358400D03*
X35382200Y-1818400D03*
X37922200Y-4358400D03*
X37922200Y-1818400D03*
X40462200Y-4358400D03*
X40462200Y-1818400D03*
X43002200Y-4358400D03*
X43002200Y-1818400D03*
X45542200Y-4358400D03*
X45542200Y-1818400D03*
X48082200Y-4358400D03*
X48082200Y-1818400D03*
X50622200Y-4358400D03*
X50622200Y-1818400D03*
X53162200Y-4358400D03*
X53162200Y-1818400D03*
X55702200Y-4358400D03*
X55702200Y-1818400D03*
%TD*%
D11*
%TO.C,5V*%
X32842200Y-30799800D03*
D12*
X32842200Y-28259800D03*
X35382200Y-30799800D03*
X35382200Y-28259800D03*
X37922200Y-30799800D03*
X37922200Y-28259800D03*
X40462200Y-30799800D03*
X40462200Y-28259800D03*
X43002200Y-30799800D03*
X43002200Y-28259800D03*
X45542200Y-30799800D03*
X45542200Y-28259800D03*
X48082200Y-30799800D03*
X48082200Y-28259800D03*
X50622200Y-30799800D03*
X50622200Y-28259800D03*
X53162200Y-30799800D03*
X53162200Y-28259800D03*
X55702200Y-30799800D03*
X55702200Y-28259800D03*
%TD*%
D13*
%TO.C,J1*%
X6232200Y-10343400D03*
X6232200Y-16123400D03*
D14*
X6762200Y-8913400D03*
D15*
X2582200Y-8913400D03*
D14*
X6762200Y-17553400D03*
D15*
X2582200Y-17553400D03*
%TD*%
D11*
%TO.C,Custom*%
X55692200Y-48549800D03*
D12*
X55692200Y-51089800D03*
X53152200Y-48549800D03*
X53152200Y-51089800D03*
X50612200Y-48549800D03*
X50612200Y-51089800D03*
X48072200Y-48549800D03*
X48072200Y-51089800D03*
X45532200Y-48549800D03*
X45532200Y-51089800D03*
X42992200Y-48549800D03*
X42992200Y-51089800D03*
X40452200Y-48549800D03*
X40452200Y-51089800D03*
X37912200Y-48549800D03*
X37912200Y-51089800D03*
X35372200Y-48549800D03*
X35372200Y-51089800D03*
X32832200Y-48549800D03*
X32832200Y-51089800D03*
%TD*%
D13*
%TO.C,J1*%
X68919400Y-63226200D03*
X68919400Y-69006200D03*
D14*
X69449400Y-61796200D03*
D15*
X65269400Y-61796200D03*
D14*
X69449400Y-70436200D03*
D15*
X65269400Y-70436200D03*
%TD*%
D11*
%TO.C,Custom*%
X87035800Y-74991200D03*
D12*
X87035800Y-77531200D03*
X84495800Y-74991200D03*
X84495800Y-77531200D03*
X81955800Y-74991200D03*
X81955800Y-77531200D03*
X79415800Y-74991200D03*
X79415800Y-77531200D03*
X76875800Y-74991200D03*
X76875800Y-77531200D03*
X74335800Y-74991200D03*
X74335800Y-77531200D03*
X71795800Y-74991200D03*
X71795800Y-77531200D03*
X69255800Y-74991200D03*
X69255800Y-77531200D03*
X66715800Y-74991200D03*
X66715800Y-77531200D03*
X64175800Y-74991200D03*
X64175800Y-77531200D03*
%TD*%
D11*
%TO.C,5V*%
X1498600Y-83682600D03*
D12*
X1498600Y-81142600D03*
X4038600Y-83682600D03*
X4038600Y-81142600D03*
X6578600Y-83682600D03*
X6578600Y-81142600D03*
X9118600Y-83682600D03*
X9118600Y-81142600D03*
X11658600Y-83682600D03*
X11658600Y-81142600D03*
X14198600Y-83682600D03*
X14198600Y-81142600D03*
X16738600Y-83682600D03*
X16738600Y-81142600D03*
X19278600Y-83682600D03*
X19278600Y-81142600D03*
X21818600Y-83682600D03*
X21818600Y-81142600D03*
X24358600Y-83682600D03*
X24358600Y-81142600D03*
%TD*%
D11*
%TO.C,3V3*%
X26995200Y-28249800D03*
D12*
X29535200Y-28249800D03*
X26995200Y-30789800D03*
X29535200Y-30789800D03*
X26995200Y-33329800D03*
X29535200Y-33329800D03*
X26995200Y-35869800D03*
X29535200Y-35869800D03*
X26995200Y-38409800D03*
X29535200Y-38409800D03*
X26995200Y-40949800D03*
X29535200Y-40949800D03*
X26995200Y-43489800D03*
X29535200Y-43489800D03*
X26995200Y-46029800D03*
X29535200Y-46029800D03*
X26995200Y-48569800D03*
X29535200Y-48569800D03*
X26995200Y-51109800D03*
X29535200Y-51109800D03*
%TD*%
D11*
%TO.C,Custom*%
X87035800Y-48549800D03*
D12*
X87035800Y-51089800D03*
X84495800Y-48549800D03*
X84495800Y-51089800D03*
X81955800Y-48549800D03*
X81955800Y-51089800D03*
X79415800Y-48549800D03*
X79415800Y-51089800D03*
X76875800Y-48549800D03*
X76875800Y-51089800D03*
X74335800Y-48549800D03*
X74335800Y-51089800D03*
X71795800Y-48549800D03*
X71795800Y-51089800D03*
X69255800Y-48549800D03*
X69255800Y-51089800D03*
X66715800Y-48549800D03*
X66715800Y-51089800D03*
X64175800Y-48549800D03*
X64175800Y-51089800D03*
%TD*%
D13*
%TO.C,J1*%
X68919400Y-36784800D03*
X68919400Y-42564800D03*
D14*
X69449400Y-35354800D03*
D15*
X65269400Y-35354800D03*
D14*
X69449400Y-43994800D03*
D15*
X65269400Y-43994800D03*
%TD*%
D11*
%TO.C,3V3*%
X58338800Y-81132600D03*
D12*
X60878800Y-81132600D03*
X58338800Y-83672600D03*
X60878800Y-83672600D03*
X58338800Y-86212600D03*
X60878800Y-86212600D03*
X58338800Y-88752600D03*
X60878800Y-88752600D03*
X58338800Y-91292600D03*
X60878800Y-91292600D03*
X58338800Y-93832600D03*
X60878800Y-93832600D03*
X58338800Y-96372600D03*
X60878800Y-96372600D03*
X58338800Y-98912600D03*
X60878800Y-98912600D03*
X58338800Y-101452600D03*
X60878800Y-101452600D03*
X58338800Y-103992600D03*
X60878800Y-103992600D03*
%TD*%
D11*
%TO.C,5V*%
X64185800Y-57241200D03*
D12*
X64185800Y-54701200D03*
X66725800Y-57241200D03*
X66725800Y-54701200D03*
X69265800Y-57241200D03*
X69265800Y-54701200D03*
X71805800Y-57241200D03*
X71805800Y-54701200D03*
X74345800Y-57241200D03*
X74345800Y-54701200D03*
X76885800Y-57241200D03*
X76885800Y-54701200D03*
X79425800Y-57241200D03*
X79425800Y-54701200D03*
X81965800Y-57241200D03*
X81965800Y-54701200D03*
X84505800Y-57241200D03*
X84505800Y-54701200D03*
X87045800Y-57241200D03*
X87045800Y-54701200D03*
%TD*%
D13*
%TO.C,J1*%
X37575800Y-63226200D03*
X37575800Y-69006200D03*
D14*
X38105800Y-61796200D03*
D15*
X33925800Y-61796200D03*
D14*
X38105800Y-70436200D03*
D15*
X33925800Y-70436200D03*
%TD*%
D11*
%TO.C,5V*%
X1498600Y-4358400D03*
D12*
X1498600Y-1818400D03*
X4038600Y-4358400D03*
X4038600Y-1818400D03*
X6578600Y-4358400D03*
X6578600Y-1818400D03*
X9118600Y-4358400D03*
X9118600Y-1818400D03*
X11658600Y-4358400D03*
X11658600Y-1818400D03*
X14198600Y-4358400D03*
X14198600Y-1818400D03*
X16738600Y-4358400D03*
X16738600Y-1818400D03*
X19278600Y-4358400D03*
X19278600Y-1818400D03*
X21818600Y-4358400D03*
X21818600Y-1818400D03*
X24358600Y-4358400D03*
X24358600Y-1818400D03*
%TD*%
D11*
%TO.C,Custom*%
X55692200Y-74991200D03*
D12*
X55692200Y-77531200D03*
X53152200Y-74991200D03*
X53152200Y-77531200D03*
X50612200Y-74991200D03*
X50612200Y-77531200D03*
X48072200Y-74991200D03*
X48072200Y-77531200D03*
X45532200Y-74991200D03*
X45532200Y-77531200D03*
X42992200Y-74991200D03*
X42992200Y-77531200D03*
X40452200Y-74991200D03*
X40452200Y-77531200D03*
X37912200Y-74991200D03*
X37912200Y-77531200D03*
X35372200Y-74991200D03*
X35372200Y-77531200D03*
X32832200Y-74991200D03*
X32832200Y-77531200D03*
%TD*%
D11*
%TO.C,3V3*%
X58338800Y-28249800D03*
D12*
X60878800Y-28249800D03*
X58338800Y-30789800D03*
X60878800Y-30789800D03*
X58338800Y-33329800D03*
X60878800Y-33329800D03*
X58338800Y-35869800D03*
X60878800Y-35869800D03*
X58338800Y-38409800D03*
X60878800Y-38409800D03*
X58338800Y-40949800D03*
X60878800Y-40949800D03*
X58338800Y-43489800D03*
X60878800Y-43489800D03*
X58338800Y-46029800D03*
X60878800Y-46029800D03*
X58338800Y-48569800D03*
X60878800Y-48569800D03*
X58338800Y-51109800D03*
X60878800Y-51109800D03*
%TD*%
D11*
%TO.C,5V*%
X32842200Y-57241200D03*
D12*
X32842200Y-54701200D03*
X35382200Y-57241200D03*
X35382200Y-54701200D03*
X37922200Y-57241200D03*
X37922200Y-54701200D03*
X40462200Y-57241200D03*
X40462200Y-54701200D03*
X43002200Y-57241200D03*
X43002200Y-54701200D03*
X45542200Y-57241200D03*
X45542200Y-54701200D03*
X48082200Y-57241200D03*
X48082200Y-54701200D03*
X50622200Y-57241200D03*
X50622200Y-54701200D03*
X53162200Y-57241200D03*
X53162200Y-54701200D03*
X55702200Y-57241200D03*
X55702200Y-54701200D03*
%TD*%
D13*
%TO.C,J1*%
X6232200Y-63226200D03*
X6232200Y-69006200D03*
D14*
X6762200Y-61796200D03*
D15*
X2582200Y-61796200D03*
D14*
X6762200Y-70436200D03*
D15*
X2582200Y-70436200D03*
%TD*%
D11*
%TO.C,Custom*%
X87035800Y-101432600D03*
D12*
X87035800Y-103972600D03*
X84495800Y-101432600D03*
X84495800Y-103972600D03*
X81955800Y-101432600D03*
X81955800Y-103972600D03*
X79415800Y-101432600D03*
X79415800Y-103972600D03*
X76875800Y-101432600D03*
X76875800Y-103972600D03*
X74335800Y-101432600D03*
X74335800Y-103972600D03*
X71795800Y-101432600D03*
X71795800Y-103972600D03*
X69255800Y-101432600D03*
X69255800Y-103972600D03*
X66715800Y-101432600D03*
X66715800Y-103972600D03*
X64175800Y-101432600D03*
X64175800Y-103972600D03*
%TD*%
D11*
%TO.C,3V3*%
X26995200Y-81132600D03*
D12*
X29535200Y-81132600D03*
X26995200Y-83672600D03*
X29535200Y-83672600D03*
X26995200Y-86212600D03*
X29535200Y-86212600D03*
X26995200Y-88752600D03*
X29535200Y-88752600D03*
X26995200Y-91292600D03*
X29535200Y-91292600D03*
X26995200Y-93832600D03*
X29535200Y-93832600D03*
X26995200Y-96372600D03*
X29535200Y-96372600D03*
X26995200Y-98912600D03*
X29535200Y-98912600D03*
X26995200Y-101452600D03*
X29535200Y-101452600D03*
X26995200Y-103992600D03*
X29535200Y-103992600D03*
%TD*%
D13*
%TO.C,J1*%
X68919400Y-89667600D03*
X68919400Y-95447600D03*
D14*
X69449400Y-88237600D03*
D15*
X65269400Y-88237600D03*
D14*
X69449400Y-96877600D03*
D15*
X65269400Y-96877600D03*
%TD*%
D11*
%TO.C,3V3*%
X89682400Y-1808400D03*
D12*
X92222400Y-1808400D03*
X89682400Y-4348400D03*
X92222400Y-4348400D03*
X89682400Y-6888400D03*
X92222400Y-6888400D03*
X89682400Y-9428400D03*
X92222400Y-9428400D03*
X89682400Y-11968400D03*
X92222400Y-11968400D03*
X89682400Y-14508400D03*
X92222400Y-14508400D03*
X89682400Y-17048400D03*
X92222400Y-17048400D03*
X89682400Y-19588400D03*
X92222400Y-19588400D03*
X89682400Y-22128400D03*
X92222400Y-22128400D03*
X89682400Y-24668400D03*
X92222400Y-24668400D03*
%TD*%
D11*
%TO.C,3V3*%
X58338800Y-54691200D03*
D12*
X60878800Y-54691200D03*
X58338800Y-57231200D03*
X60878800Y-57231200D03*
X58338800Y-59771200D03*
X60878800Y-59771200D03*
X58338800Y-62311200D03*
X60878800Y-62311200D03*
X58338800Y-64851200D03*
X60878800Y-64851200D03*
X58338800Y-67391200D03*
X60878800Y-67391200D03*
X58338800Y-69931200D03*
X60878800Y-69931200D03*
X58338800Y-72471200D03*
X60878800Y-72471200D03*
X58338800Y-75011200D03*
X60878800Y-75011200D03*
X58338800Y-77551200D03*
X60878800Y-77551200D03*
%TD*%
D13*
%TO.C,J1*%
X68919400Y-10343400D03*
X68919400Y-16123400D03*
D14*
X69449400Y-8913400D03*
D15*
X65269400Y-8913400D03*
D14*
X69449400Y-17553400D03*
D15*
X65269400Y-17553400D03*
%TD*%
D11*
%TO.C,Custom*%
X24348600Y-101432600D03*
D12*
X24348600Y-103972600D03*
X21808600Y-101432600D03*
X21808600Y-103972600D03*
X19268600Y-101432600D03*
X19268600Y-103972600D03*
X16728600Y-101432600D03*
X16728600Y-103972600D03*
X14188600Y-101432600D03*
X14188600Y-103972600D03*
X11648600Y-101432600D03*
X11648600Y-103972600D03*
X9108600Y-101432600D03*
X9108600Y-103972600D03*
X6568600Y-101432600D03*
X6568600Y-103972600D03*
X4028600Y-101432600D03*
X4028600Y-103972600D03*
X1488600Y-101432600D03*
X1488600Y-103972600D03*
%TD*%
D13*
%TO.C,J1*%
X6232200Y-36784800D03*
X6232200Y-42564800D03*
D14*
X6762200Y-35354800D03*
D15*
X2582200Y-35354800D03*
D14*
X6762200Y-43994800D03*
D15*
X2582200Y-43994800D03*
%TD*%
D11*
%TO.C,3V3*%
X89682400Y-54691200D03*
D12*
X92222400Y-54691200D03*
X89682400Y-57231200D03*
X92222400Y-57231200D03*
X89682400Y-59771200D03*
X92222400Y-59771200D03*
X89682400Y-62311200D03*
X92222400Y-62311200D03*
X89682400Y-64851200D03*
X92222400Y-64851200D03*
X89682400Y-67391200D03*
X92222400Y-67391200D03*
X89682400Y-69931200D03*
X92222400Y-69931200D03*
X89682400Y-72471200D03*
X92222400Y-72471200D03*
X89682400Y-75011200D03*
X92222400Y-75011200D03*
X89682400Y-77551200D03*
X92222400Y-77551200D03*
%TD*%
D11*
%TO.C,Custom*%
X24348600Y-48549800D03*
D12*
X24348600Y-51089800D03*
X21808600Y-48549800D03*
X21808600Y-51089800D03*
X19268600Y-48549800D03*
X19268600Y-51089800D03*
X16728600Y-48549800D03*
X16728600Y-51089800D03*
X14188600Y-48549800D03*
X14188600Y-51089800D03*
X11648600Y-48549800D03*
X11648600Y-51089800D03*
X9108600Y-48549800D03*
X9108600Y-51089800D03*
X6568600Y-48549800D03*
X6568600Y-51089800D03*
X4028600Y-48549800D03*
X4028600Y-51089800D03*
X1488600Y-48549800D03*
X1488600Y-51089800D03*
%TD*%
M02*
