%TF.GenerationSoftware,KiCad,Pcbnew,7.0.6*%
%TF.CreationDate,2023-09-22T01:58:40+08:00*%
%TF.ProjectId,power_ex_board,706f7765-725f-4657-985f-626f6172642e,rev?*%
%TF.SameCoordinates,Original*%
%TF.FileFunction,Copper,L1,Top*%
%TF.FilePolarity,Positive*%
%FSLAX46Y46*%
G04 Gerber Fmt 4.6, Leading zero omitted, Abs format (unit mm)*
G04 Created by KiCad (PCBNEW 7.0.6) date 2023-09-22 01:58:40*
%MOMM*%
%LPD*%
G01*
G04 APERTURE LIST*
G04 Aperture macros list*
%AMRoundRect*
0 Rectangle with rounded corners*
0 $1 Rounding radius*
0 $2 $3 $4 $5 $6 $7 $8 $9 X,Y pos of 4 corners*
0 Add a 4 corners polygon primitive as box body*
4,1,4,$2,$3,$4,$5,$6,$7,$8,$9,$2,$3,0*
0 Add four circle primitives for the rounded corners*
1,1,$1+$1,$2,$3*
1,1,$1+$1,$4,$5*
1,1,$1+$1,$6,$7*
1,1,$1+$1,$8,$9*
0 Add four rect primitives between the rounded corners*
20,1,$1+$1,$2,$3,$4,$5,0*
20,1,$1+$1,$4,$5,$6,$7,0*
20,1,$1+$1,$6,$7,$8,$9,0*
20,1,$1+$1,$8,$9,$2,$3,0*%
G04 Aperture macros list end*
%TA.AperFunction,ComponentPad*%
%ADD10R,1.700000X1.700000*%
%TD*%
%TA.AperFunction,ComponentPad*%
%ADD11O,1.700000X1.700000*%
%TD*%
%TA.AperFunction,SMDPad,CuDef*%
%ADD12RoundRect,0.250000X0.250000X0.475000X-0.250000X0.475000X-0.250000X-0.475000X0.250000X-0.475000X0*%
%TD*%
%TA.AperFunction,SMDPad,CuDef*%
%ADD13RoundRect,0.135000X0.135000X0.185000X-0.135000X0.185000X-0.135000X-0.185000X0.135000X-0.185000X0*%
%TD*%
%TA.AperFunction,SMDPad,CuDef*%
%ADD14RoundRect,0.250000X-0.262500X-0.450000X0.262500X-0.450000X0.262500X0.450000X-0.262500X0.450000X0*%
%TD*%
%TA.AperFunction,SMDPad,CuDef*%
%ADD15RoundRect,0.135000X-0.135000X-0.185000X0.135000X-0.185000X0.135000X0.185000X-0.135000X0.185000X0*%
%TD*%
%TA.AperFunction,SMDPad,CuDef*%
%ADD16RoundRect,0.140000X0.140000X0.170000X-0.140000X0.170000X-0.140000X-0.170000X0.140000X-0.170000X0*%
%TD*%
%TA.AperFunction,SMDPad,CuDef*%
%ADD17RoundRect,0.250000X-0.250000X-0.475000X0.250000X-0.475000X0.250000X0.475000X-0.250000X0.475000X0*%
%TD*%
%TA.AperFunction,SMDPad,CuDef*%
%ADD18R,1.450000X0.600000*%
%TD*%
%TA.AperFunction,SMDPad,CuDef*%
%ADD19R,1.450000X0.300000*%
%TD*%
%TA.AperFunction,ComponentPad*%
%ADD20O,2.100000X1.000000*%
%TD*%
%TA.AperFunction,ComponentPad*%
%ADD21O,1.600000X1.000000*%
%TD*%
%TA.AperFunction,SMDPad,CuDef*%
%ADD22RoundRect,0.140000X-0.140000X-0.170000X0.140000X-0.170000X0.140000X0.170000X-0.140000X0.170000X0*%
%TD*%
%TA.AperFunction,SMDPad,CuDef*%
%ADD23R,2.500000X1.500000*%
%TD*%
%TA.AperFunction,SMDPad,CuDef*%
%ADD24R,1.560000X0.650000*%
%TD*%
%TA.AperFunction,ViaPad*%
%ADD25C,0.508000*%
%TD*%
%TA.AperFunction,Conductor*%
%ADD26C,0.254000*%
%TD*%
%TA.AperFunction,Conductor*%
%ADD27C,0.508000*%
%TD*%
G04 APERTURE END LIST*
D10*
%TO.P,3V3,1,Pin_1*%
%TO.N,+3V3*%
X119121000Y-97541000D03*
D11*
%TO.P,3V3,2,Pin_2*%
%TO.N,GND*%
X121661000Y-97541000D03*
%TO.P,3V3,3,Pin_3*%
%TO.N,+3V3*%
X119121000Y-100081000D03*
%TO.P,3V3,4,Pin_4*%
%TO.N,GND*%
X121661000Y-100081000D03*
%TO.P,3V3,5,Pin_5*%
%TO.N,+3V3*%
X119121000Y-102621000D03*
%TO.P,3V3,6,Pin_6*%
%TO.N,GND*%
X121661000Y-102621000D03*
%TO.P,3V3,7,Pin_7*%
%TO.N,+3V3*%
X119121000Y-105161000D03*
%TO.P,3V3,8,Pin_8*%
%TO.N,GND*%
X121661000Y-105161000D03*
%TO.P,3V3,9,Pin_9*%
%TO.N,+3V3*%
X119121000Y-107701000D03*
%TO.P,3V3,10,Pin_10*%
%TO.N,GND*%
X121661000Y-107701000D03*
%TO.P,3V3,11,Pin_11*%
%TO.N,+3V3*%
X119121000Y-110241000D03*
%TO.P,3V3,12,Pin_12*%
%TO.N,GND*%
X121661000Y-110241000D03*
%TO.P,3V3,13,Pin_13*%
%TO.N,+3V3*%
X119121000Y-112781000D03*
%TO.P,3V3,14,Pin_14*%
%TO.N,GND*%
X121661000Y-112781000D03*
%TO.P,3V3,15,Pin_15*%
%TO.N,+3V3*%
X119121000Y-115321000D03*
%TO.P,3V3,16,Pin_16*%
%TO.N,GND*%
X121661000Y-115321000D03*
%TO.P,3V3,17,Pin_17*%
%TO.N,+3V3*%
X119121000Y-117861000D03*
%TO.P,3V3,18,Pin_18*%
%TO.N,GND*%
X121661000Y-117861000D03*
%TO.P,3V3,19,Pin_19*%
%TO.N,+3V3*%
X119121000Y-120401000D03*
%TO.P,3V3,20,Pin_20*%
%TO.N,GND*%
X121661000Y-120401000D03*
%TD*%
D12*
%TO.P,C6,1*%
%TO.N,+3V3*%
X111542800Y-106536400D03*
%TO.P,C6,2*%
%TO.N,GND*%
X109642800Y-106536400D03*
%TD*%
D13*
%TO.P,R4,1*%
%TO.N,Net-(U1-FB)*%
X108174200Y-112221400D03*
%TO.P,R4,2*%
%TO.N,GND*%
X107154200Y-112221400D03*
%TD*%
D14*
%TO.P,R1,1*%
%TO.N,+5V*%
X102441300Y-106536400D03*
%TO.P,R1,2*%
%TO.N,Net-(U1-IN)*%
X104266300Y-106536400D03*
%TD*%
D15*
%TO.P,R2,1*%
%TO.N,Net-(U1-EN)*%
X104817000Y-109671200D03*
%TO.P,R2,2*%
%TO.N,Net-(U1-IN)*%
X105837000Y-109671200D03*
%TD*%
D16*
%TO.P,C5,1*%
%TO.N,+3V3*%
X111372400Y-104779200D03*
%TO.P,C5,2*%
%TO.N,GND*%
X110412400Y-104779200D03*
%TD*%
D10*
%TO.P,Custom,1,Pin_1*%
%TO.N,VCC*%
X116474400Y-117841000D03*
D11*
%TO.P,Custom,2,Pin_2*%
%TO.N,GND*%
X116474400Y-120381000D03*
%TO.P,Custom,3,Pin_3*%
%TO.N,VCC*%
X113934400Y-117841000D03*
%TO.P,Custom,4,Pin_4*%
%TO.N,GND*%
X113934400Y-120381000D03*
%TO.P,Custom,5,Pin_5*%
%TO.N,VCC*%
X111394400Y-117841000D03*
%TO.P,Custom,6,Pin_6*%
%TO.N,GND*%
X111394400Y-120381000D03*
%TO.P,Custom,7,Pin_7*%
%TO.N,VCC*%
X108854400Y-117841000D03*
%TO.P,Custom,8,Pin_8*%
%TO.N,GND*%
X108854400Y-120381000D03*
%TO.P,Custom,9,Pin_9*%
%TO.N,VCC*%
X106314400Y-117841000D03*
%TO.P,Custom,10,Pin_10*%
%TO.N,GND*%
X106314400Y-120381000D03*
%TO.P,Custom,11,Pin_11*%
%TO.N,VCC*%
X103774400Y-117841000D03*
%TO.P,Custom,12,Pin_12*%
%TO.N,GND*%
X103774400Y-120381000D03*
%TO.P,Custom,13,Pin_13*%
%TO.N,VCC*%
X101234400Y-117841000D03*
%TO.P,Custom,14,Pin_14*%
%TO.N,GND*%
X101234400Y-120381000D03*
%TO.P,Custom,15,Pin_15*%
%TO.N,VCC*%
X98694400Y-117841000D03*
%TO.P,Custom,16,Pin_16*%
%TO.N,GND*%
X98694400Y-120381000D03*
%TO.P,Custom,17,Pin_17*%
%TO.N,VCC*%
X96154400Y-117841000D03*
%TO.P,Custom,18,Pin_18*%
%TO.N,GND*%
X96154400Y-120381000D03*
%TO.P,Custom,19,Pin_19*%
%TO.N,VCC*%
X93614400Y-117841000D03*
%TO.P,Custom,20,Pin_20*%
%TO.N,GND*%
X93614400Y-120381000D03*
%TD*%
D16*
%TO.P,C4,1*%
%TO.N,+3V3*%
X110849600Y-113364400D03*
%TO.P,C4,2*%
%TO.N,Net-(U1-FB)*%
X109889600Y-113364400D03*
%TD*%
%TO.P,C2,1*%
%TO.N,Net-(U1-IN)*%
X105787000Y-108331200D03*
%TO.P,C2,2*%
%TO.N,GND*%
X104827000Y-108331200D03*
%TD*%
D10*
%TO.P,5V,1,Pin_1*%
%TO.N,+5V*%
X93624400Y-100091000D03*
D11*
%TO.P,5V,2,Pin_2*%
%TO.N,GND*%
X93624400Y-97551000D03*
%TO.P,5V,3,Pin_3*%
%TO.N,+5V*%
X96164400Y-100091000D03*
%TO.P,5V,4,Pin_4*%
%TO.N,GND*%
X96164400Y-97551000D03*
%TO.P,5V,5,Pin_5*%
%TO.N,+5V*%
X98704400Y-100091000D03*
%TO.P,5V,6,Pin_6*%
%TO.N,GND*%
X98704400Y-97551000D03*
%TO.P,5V,7,Pin_7*%
%TO.N,+5V*%
X101244400Y-100091000D03*
%TO.P,5V,8,Pin_8*%
%TO.N,GND*%
X101244400Y-97551000D03*
%TO.P,5V,9,Pin_9*%
%TO.N,+5V*%
X103784400Y-100091000D03*
%TO.P,5V,10,Pin_10*%
%TO.N,GND*%
X103784400Y-97551000D03*
%TO.P,5V,11,Pin_11*%
%TO.N,+5V*%
X106324400Y-100091000D03*
%TO.P,5V,12,Pin_12*%
%TO.N,GND*%
X106324400Y-97551000D03*
%TO.P,5V,13,Pin_13*%
%TO.N,+5V*%
X108864400Y-100091000D03*
%TO.P,5V,14,Pin_14*%
%TO.N,GND*%
X108864400Y-97551000D03*
%TO.P,5V,15,Pin_15*%
%TO.N,+5V*%
X111404400Y-100091000D03*
%TO.P,5V,16,Pin_16*%
%TO.N,GND*%
X111404400Y-97551000D03*
%TO.P,5V,17,Pin_17*%
%TO.N,+5V*%
X113944400Y-100091000D03*
%TO.P,5V,18,Pin_18*%
%TO.N,GND*%
X113944400Y-97551000D03*
%TO.P,5V,19,Pin_19*%
%TO.N,+5V*%
X116484400Y-100091000D03*
%TO.P,5V,20,Pin_20*%
%TO.N,GND*%
X116484400Y-97551000D03*
%TD*%
D13*
%TO.P,R3,1*%
%TO.N,+3V3*%
X110899600Y-112221400D03*
%TO.P,R3,2*%
%TO.N,Net-(U1-FB)*%
X109879600Y-112221400D03*
%TD*%
D17*
%TO.P,C1,1*%
%TO.N,Net-(U1-IN)*%
X106036000Y-106536400D03*
%TO.P,C1,2*%
%TO.N,GND*%
X107936000Y-106536400D03*
%TD*%
D18*
%TO.P,J1,A1,GND*%
%TO.N,GND*%
X99803000Y-105716000D03*
%TO.P,J1,A4,VBUS*%
%TO.N,+5V*%
X99803000Y-106516000D03*
D19*
%TO.P,J1,A5,CC1*%
%TO.N,unconnected-(J1-CC1-PadA5)*%
X99803000Y-107716000D03*
%TO.P,J1,A6,D+*%
%TO.N,unconnected-(J1-D+-PadA6)*%
X99803000Y-108716000D03*
%TO.P,J1,A7,D-*%
%TO.N,unconnected-(J1-D--PadA7)*%
X99803000Y-109216000D03*
%TO.P,J1,A8,SBU1*%
%TO.N,unconnected-(J1-SBU1-PadA8)*%
X99803000Y-110216000D03*
D18*
%TO.P,J1,A9,VBUS*%
%TO.N,+5V*%
X99803000Y-111416000D03*
%TO.P,J1,A12,GND*%
%TO.N,GND*%
X99803000Y-112216000D03*
%TO.P,J1,B1,GND*%
X99803000Y-112216000D03*
%TO.P,J1,B4,VBUS*%
%TO.N,+5V*%
X99803000Y-111416000D03*
D19*
%TO.P,J1,B5,CC2*%
%TO.N,unconnected-(J1-CC2-PadB5)*%
X99803000Y-110716000D03*
%TO.P,J1,B6,D+*%
%TO.N,unconnected-(J1-D+-PadB6)*%
X99803000Y-109716000D03*
%TO.P,J1,B7,D-*%
%TO.N,unconnected-(J1-D--PadB7)*%
X99803000Y-108216000D03*
%TO.P,J1,B8,SBU2*%
%TO.N,unconnected-(J1-SBU2-PadB8)*%
X99803000Y-107216000D03*
D18*
%TO.P,J1,B9,VBUS*%
%TO.N,+5V*%
X99803000Y-106516000D03*
%TO.P,J1,B12,GND*%
%TO.N,GND*%
X99803000Y-105716000D03*
D20*
%TO.P,J1,S1,SHIELD*%
X98888000Y-104646000D03*
D21*
X94708000Y-104646000D03*
D20*
X98888000Y-113286000D03*
D21*
X94708000Y-113286000D03*
%TD*%
D22*
%TO.P,C3,1*%
%TO.N,Net-(U1-EN)*%
X104827000Y-111011200D03*
%TO.P,C3,2*%
%TO.N,GND*%
X105787000Y-111011200D03*
%TD*%
D23*
%TO.P,L1,1,1*%
%TO.N,Net-(U1-LX)*%
X114935000Y-110261400D03*
%TO.P,L1,2,2*%
%TO.N,+3V3*%
X114935000Y-106561400D03*
%TD*%
D24*
%TO.P,U1,1,EN*%
%TO.N,Net-(U1-EN)*%
X110364200Y-110621200D03*
%TO.P,U1,2,GND*%
%TO.N,GND*%
X110364200Y-109671200D03*
%TO.P,U1,3,LX*%
%TO.N,Net-(U1-LX)*%
X110364200Y-108721200D03*
%TO.P,U1,4,IN*%
%TO.N,Net-(U1-IN)*%
X107664200Y-108721200D03*
%TO.P,U1,5,FB*%
%TO.N,Net-(U1-FB)*%
X107664200Y-110621200D03*
%TD*%
D25*
%TO.N,GND*%
X106787950Y-113919000D03*
X95220366Y-115239800D03*
X94183200Y-111658400D03*
X108991400Y-109651800D03*
X109702600Y-102844600D03*
X102108000Y-112115600D03*
X105999839Y-102844600D03*
X102108000Y-110375700D03*
X107492800Y-104470200D03*
X97171932Y-115239800D03*
X107851216Y-102844600D03*
X99123498Y-115239800D03*
X104148462Y-102844600D03*
X102108000Y-108635800D03*
X93268800Y-115239800D03*
X117297200Y-110142866D03*
X103919866Y-104470200D03*
X94183200Y-108085466D03*
X94891577Y-102844600D03*
X94183200Y-106299000D03*
X98594331Y-102844600D03*
X108661200Y-113919000D03*
X113893600Y-104267000D03*
X93040200Y-102844600D03*
X101168200Y-113919000D03*
X102133400Y-104470200D03*
X117297200Y-108271733D03*
X100445708Y-102844600D03*
X116332000Y-104267000D03*
X94183200Y-109871932D03*
X103041450Y-113919000D03*
X105706332Y-104470200D03*
X104914700Y-113919000D03*
X117297200Y-106400600D03*
X117297200Y-112014000D03*
X102297085Y-102844600D03*
%TO.N,Net-(U1-EN)*%
X104038400Y-110312200D03*
X109016800Y-111556800D03*
%TO.N,+3V3*%
X111760000Y-112801400D03*
X112877600Y-106603800D03*
%TO.N,+5V*%
X96570800Y-108962602D03*
%TD*%
D26*
%TO.N,Net-(U1-IN)*%
X106305000Y-109671200D02*
X106426000Y-109550200D01*
X106426000Y-109550200D02*
X106451400Y-109524800D01*
X105837000Y-109671200D02*
X106305000Y-109671200D01*
X106451400Y-109524800D02*
X106451400Y-109042200D01*
%TO.N,Net-(U1-EN)*%
X109330200Y-110621200D02*
X110364200Y-110621200D01*
X104038400Y-110312200D02*
X104038400Y-110744000D01*
X109016800Y-111556800D02*
X109016800Y-110934600D01*
X104305600Y-111011200D02*
X104827000Y-111011200D01*
X104247600Y-109671200D02*
X104038400Y-109880400D01*
X104038400Y-110744000D02*
X104305600Y-111011200D01*
X104817000Y-109671200D02*
X104247600Y-109671200D01*
X109016800Y-110934600D02*
X109330200Y-110621200D01*
X104038400Y-109880400D02*
X104038400Y-110312200D01*
%TO.N,+3V3*%
X111760000Y-112801400D02*
X111760000Y-113182400D01*
X111535600Y-112221400D02*
X111760000Y-112445800D01*
D27*
X111372400Y-103410000D02*
X112161400Y-102621000D01*
D26*
X111760000Y-113182400D02*
X111578000Y-113364400D01*
X110899600Y-112221400D02*
X111535600Y-112221400D01*
X111578000Y-113364400D02*
X110849600Y-113364400D01*
D27*
X111372400Y-104779200D02*
X111372400Y-103410000D01*
D26*
X111760000Y-112445800D02*
X111760000Y-112801400D01*
D27*
X112161400Y-102621000D02*
X119121000Y-102621000D01*
D26*
%TO.N,Net-(U1-FB)*%
X107664200Y-110621200D02*
X108174200Y-111131200D01*
X108174200Y-111131200D02*
X108174200Y-112221400D01*
X109879600Y-113354400D02*
X109889600Y-113364400D01*
X108174200Y-112221400D02*
X109879600Y-112221400D01*
X109879600Y-112221400D02*
X109879600Y-113354400D01*
D27*
%TO.N,+5V*%
X99024198Y-106516000D02*
X99803000Y-106516000D01*
X99024198Y-111416000D02*
X99803000Y-111416000D01*
X96570800Y-108962602D02*
X96577596Y-108962602D01*
X102441300Y-106506400D02*
X102423700Y-106524000D01*
X96577596Y-108962602D02*
X99024198Y-106516000D01*
X102423700Y-106524000D02*
X99803000Y-106524000D01*
X96570800Y-108962602D02*
X99024198Y-111416000D01*
%TD*%
%TA.AperFunction,Conductor*%
%TO.N,+3V3*%
G36*
X111762887Y-112801605D02*
G01*
X111984350Y-112894285D01*
X111990659Y-112900640D01*
X111990819Y-112909102D01*
X111949724Y-113021302D01*
X111922067Y-113112313D01*
X111921944Y-113112675D01*
X111893710Y-113187596D01*
X111892719Y-113189614D01*
X111845925Y-113265446D01*
X111844697Y-113267092D01*
X111768244Y-113352764D01*
X111760179Y-113356655D01*
X111751725Y-113353703D01*
X111751242Y-113353247D01*
X111586904Y-113188909D01*
X111583477Y-113180636D01*
X111585188Y-113174543D01*
X111625360Y-113108706D01*
X111613498Y-113044896D01*
X111598346Y-113021302D01*
X111571788Y-112979948D01*
X111571646Y-112979716D01*
X111560514Y-112960472D01*
X111527855Y-112904012D01*
X111526529Y-112900533D01*
X111508905Y-112815432D01*
X111510584Y-112806636D01*
X111517991Y-112801603D01*
X111520328Y-112801360D01*
X111758343Y-112800699D01*
X111762887Y-112801605D01*
G37*
%TD.AperFunction*%
%TD*%
%TA.AperFunction,Conductor*%
%TO.N,Net-(U1-EN)*%
G36*
X109140744Y-111052227D02*
G01*
X109144165Y-111060123D01*
X109147195Y-111154220D01*
X109147197Y-111154235D01*
X109158293Y-111228626D01*
X109158296Y-111228635D01*
X109178461Y-111291397D01*
X109178467Y-111291414D01*
X109209064Y-111361928D01*
X109246743Y-111448722D01*
X109246894Y-111457675D01*
X109240670Y-111464113D01*
X109240528Y-111464174D01*
X109021316Y-111555909D01*
X109012361Y-111555942D01*
X109012282Y-111555909D01*
X108793071Y-111464174D01*
X108786762Y-111457819D01*
X108786795Y-111448864D01*
X108786856Y-111448722D01*
X108824534Y-111361928D01*
X108855131Y-111291414D01*
X108855136Y-111291403D01*
X108875303Y-111228632D01*
X108886403Y-111154227D01*
X108889435Y-111060122D01*
X108893127Y-111051965D01*
X108901129Y-111048800D01*
X109132471Y-111048800D01*
X109140744Y-111052227D01*
G37*
%TD.AperFunction*%
%TD*%
%TA.AperFunction,Conductor*%
%TO.N,+3V3*%
G36*
X111081166Y-113090958D02*
G01*
X111139620Y-113133360D01*
X111207115Y-113173140D01*
X111274609Y-113203740D01*
X111342104Y-113225160D01*
X111399989Y-113235657D01*
X111407517Y-113240504D01*
X111409600Y-113247168D01*
X111409600Y-113481631D01*
X111406173Y-113489904D01*
X111399988Y-113493143D01*
X111342104Y-113503640D01*
X111274609Y-113525060D01*
X111274602Y-113525062D01*
X111207124Y-113555655D01*
X111207117Y-113555658D01*
X111207115Y-113555660D01*
X111139620Y-113595440D01*
X111139613Y-113595444D01*
X111139613Y-113595445D01*
X111081168Y-113637840D01*
X111072459Y-113639924D01*
X111065154Y-113635668D01*
X111033040Y-113595440D01*
X110854425Y-113371697D01*
X110851943Y-113363096D01*
X110854425Y-113357103D01*
X111065155Y-113093130D01*
X111072994Y-113088803D01*
X111081166Y-113090958D01*
G37*
%TD.AperFunction*%
%TD*%
%TA.AperFunction,Conductor*%
%TO.N,+5V*%
G36*
X99536188Y-106451897D02*
G01*
X99795402Y-106513325D01*
X99802662Y-106518568D01*
X99804369Y-106523802D01*
X99826169Y-106803798D01*
X99823394Y-106812312D01*
X99815412Y-106816371D01*
X99814887Y-106816400D01*
X99667638Y-106821218D01*
X99508157Y-106829197D01*
X99348676Y-106839935D01*
X99189195Y-106853434D01*
X99035243Y-106869129D01*
X99026665Y-106866559D01*
X99025783Y-106865762D01*
X98683768Y-106523747D01*
X98680341Y-106515474D01*
X98683768Y-106507201D01*
X98688245Y-106504407D01*
X98752004Y-106482570D01*
X98833503Y-106451897D01*
X98915001Y-106418463D01*
X98996500Y-106382270D01*
X99074276Y-106345096D01*
X99082013Y-106344268D01*
X99536188Y-106451897D01*
G37*
%TD.AperFunction*%
%TD*%
%TA.AperFunction,Conductor*%
%TO.N,+5V*%
G36*
X99035230Y-111062869D02*
G01*
X99189195Y-111078565D01*
X99348676Y-111092064D01*
X99508156Y-111102802D01*
X99667637Y-111110781D01*
X99814888Y-111115599D01*
X99823043Y-111119295D01*
X99826198Y-111127676D01*
X99826169Y-111128201D01*
X99804369Y-111408197D01*
X99800310Y-111416179D01*
X99795402Y-111418674D01*
X99082016Y-111587731D01*
X99074274Y-111586902D01*
X98996500Y-111549729D01*
X98915001Y-111513536D01*
X98833503Y-111480102D01*
X98752004Y-111449429D01*
X98688251Y-111427593D01*
X98681534Y-111421670D01*
X98680973Y-111412733D01*
X98683767Y-111408253D01*
X99025784Y-111066236D01*
X99034056Y-111062810D01*
X99035230Y-111062869D01*
G37*
%TD.AperFunction*%
%TD*%
%TA.AperFunction,Conductor*%
%TO.N,+3V3*%
G36*
X120934210Y-96470157D02*
G01*
X120966564Y-96476592D01*
X121016887Y-96486602D01*
X121034837Y-96494037D01*
X121075801Y-96521409D01*
X121096977Y-96553099D01*
X121089541Y-96590482D01*
X121074351Y-96605155D01*
X120992539Y-96655812D01*
X120841268Y-96793713D01*
X120841264Y-96793718D01*
X120717913Y-96957061D01*
X120717911Y-96957064D01*
X120626671Y-97140301D01*
X120570655Y-97337175D01*
X120551768Y-97540999D01*
X120570655Y-97744824D01*
X120626671Y-97941698D01*
X120717911Y-98124935D01*
X120717913Y-98124938D01*
X120841264Y-98288281D01*
X120841268Y-98288286D01*
X120992537Y-98426186D01*
X121076116Y-98477935D01*
X121159815Y-98529760D01*
X121182076Y-98560698D01*
X121183399Y-98572100D01*
X121183399Y-99049898D01*
X121168813Y-99085112D01*
X121159816Y-99092239D01*
X120992535Y-99195815D01*
X120841268Y-99333713D01*
X120841264Y-99333718D01*
X120717913Y-99497061D01*
X120717911Y-99497064D01*
X120626671Y-99680301D01*
X120570655Y-99877175D01*
X120551768Y-100080999D01*
X120570655Y-100284824D01*
X120626671Y-100481698D01*
X120717911Y-100664935D01*
X120717913Y-100664938D01*
X120841264Y-100828281D01*
X120841268Y-100828286D01*
X120992537Y-100966186D01*
X121076116Y-101017935D01*
X121159815Y-101069760D01*
X121182076Y-101100698D01*
X121183399Y-101112100D01*
X121183399Y-101589898D01*
X121168813Y-101625112D01*
X121159816Y-101632239D01*
X120992535Y-101735815D01*
X120841268Y-101873713D01*
X120841264Y-101873718D01*
X120717913Y-102037061D01*
X120717911Y-102037064D01*
X120626671Y-102220301D01*
X120570655Y-102417175D01*
X120551768Y-102620999D01*
X120570655Y-102824824D01*
X120626671Y-103021698D01*
X120717911Y-103204935D01*
X120717913Y-103204938D01*
X120841264Y-103368281D01*
X120841268Y-103368286D01*
X120992537Y-103506186D01*
X121076116Y-103557935D01*
X121159815Y-103609760D01*
X121182076Y-103640698D01*
X121183399Y-103652100D01*
X121183399Y-104129898D01*
X121168813Y-104165112D01*
X121159816Y-104172239D01*
X120992535Y-104275815D01*
X120841268Y-104413713D01*
X120841264Y-104413718D01*
X120717913Y-104577061D01*
X120717911Y-104577064D01*
X120626671Y-104760301D01*
X120570655Y-104957175D01*
X120551768Y-105160999D01*
X120570655Y-105364824D01*
X120626671Y-105561698D01*
X120717911Y-105744935D01*
X120717913Y-105744938D01*
X120841264Y-105908281D01*
X120841268Y-105908286D01*
X120992537Y-106046186D01*
X121076116Y-106097935D01*
X121159815Y-106149760D01*
X121182076Y-106180698D01*
X121183399Y-106192100D01*
X121183399Y-106669898D01*
X121168813Y-106705112D01*
X121159816Y-106712239D01*
X120992535Y-106815815D01*
X120841268Y-106953713D01*
X120841264Y-106953718D01*
X120717913Y-107117061D01*
X120717911Y-107117064D01*
X120626671Y-107300301D01*
X120570655Y-107497175D01*
X120551768Y-107700999D01*
X120570655Y-107904824D01*
X120626671Y-108101698D01*
X120717911Y-108284935D01*
X120717913Y-108284938D01*
X120841264Y-108448281D01*
X120841268Y-108448286D01*
X120992537Y-108586186D01*
X121076116Y-108637935D01*
X121159815Y-108689760D01*
X121182076Y-108720698D01*
X121183399Y-108732100D01*
X121183399Y-109209898D01*
X121168813Y-109245112D01*
X121159816Y-109252239D01*
X120992535Y-109355815D01*
X120841268Y-109493713D01*
X120841264Y-109493718D01*
X120717913Y-109657061D01*
X120717911Y-109657064D01*
X120626671Y-109840301D01*
X120570655Y-110037175D01*
X120551768Y-110240999D01*
X120570655Y-110444824D01*
X120626671Y-110641698D01*
X120717911Y-110824935D01*
X120717913Y-110824938D01*
X120841264Y-110988281D01*
X120841268Y-110988286D01*
X120992537Y-111126186D01*
X121076116Y-111177935D01*
X121159815Y-111229760D01*
X121182076Y-111260698D01*
X121183399Y-111272100D01*
X121183399Y-111749898D01*
X121168813Y-111785112D01*
X121159816Y-111792239D01*
X120992535Y-111895815D01*
X120841268Y-112033713D01*
X120841264Y-112033718D01*
X120717913Y-112197061D01*
X120717911Y-112197064D01*
X120626671Y-112380301D01*
X120570655Y-112577175D01*
X120551768Y-112780999D01*
X120570655Y-112984824D01*
X120626671Y-113181698D01*
X120717911Y-113364935D01*
X120717913Y-113364938D01*
X120841264Y-113528281D01*
X120841268Y-113528286D01*
X120992537Y-113666186D01*
X121076116Y-113717935D01*
X121159815Y-113769760D01*
X121182076Y-113800698D01*
X121183399Y-113812100D01*
X121183399Y-114289898D01*
X121168813Y-114325112D01*
X121159816Y-114332239D01*
X120992535Y-114435815D01*
X120841268Y-114573713D01*
X120841264Y-114573718D01*
X120717913Y-114737061D01*
X120717911Y-114737064D01*
X120626671Y-114920301D01*
X120570655Y-115117175D01*
X120551768Y-115320999D01*
X120570655Y-115524824D01*
X120626671Y-115721698D01*
X120717911Y-115904935D01*
X120717913Y-115904938D01*
X120841264Y-116068281D01*
X120841268Y-116068286D01*
X120992537Y-116206186D01*
X121076116Y-116257935D01*
X121159815Y-116309760D01*
X121182076Y-116340698D01*
X121183399Y-116352100D01*
X121183399Y-116829898D01*
X121168813Y-116865112D01*
X121159816Y-116872239D01*
X120992535Y-116975815D01*
X120841268Y-117113713D01*
X120841264Y-117113718D01*
X120717913Y-117277061D01*
X120717911Y-117277064D01*
X120626671Y-117460301D01*
X120570655Y-117657175D01*
X120551768Y-117860999D01*
X120570655Y-118064824D01*
X120626671Y-118261698D01*
X120717911Y-118444935D01*
X120717913Y-118444938D01*
X120841264Y-118608281D01*
X120841268Y-118608286D01*
X120992537Y-118746186D01*
X121076116Y-118797935D01*
X121159815Y-118849760D01*
X121182076Y-118880698D01*
X121183399Y-118892100D01*
X121183399Y-119369898D01*
X121168813Y-119405112D01*
X121159816Y-119412239D01*
X120992535Y-119515815D01*
X120841268Y-119653713D01*
X120841264Y-119653718D01*
X120717913Y-119817061D01*
X120717911Y-119817064D01*
X120626671Y-120000301D01*
X120570655Y-120197175D01*
X120551768Y-120400999D01*
X120570655Y-120604824D01*
X120626671Y-120801698D01*
X120717911Y-120984935D01*
X120717913Y-120984938D01*
X120841264Y-121148281D01*
X120841268Y-121148286D01*
X120992538Y-121286186D01*
X121146390Y-121381447D01*
X121168651Y-121412386D01*
X121169017Y-121433503D01*
X121165997Y-121448686D01*
X121158561Y-121466638D01*
X121114508Y-121532568D01*
X121100768Y-121546308D01*
X121034838Y-121590361D01*
X121016887Y-121597797D01*
X120934211Y-121614243D01*
X120924495Y-121615200D01*
X118845600Y-121615200D01*
X118810386Y-121600614D01*
X118795800Y-121565400D01*
X118795800Y-96728104D01*
X118796757Y-96718389D01*
X118797257Y-96715874D01*
X118813203Y-96635710D01*
X118820636Y-96617764D01*
X118864693Y-96551828D01*
X118878428Y-96538093D01*
X118944364Y-96494036D01*
X118962310Y-96486603D01*
X119021216Y-96474885D01*
X119044990Y-96470157D01*
X119054705Y-96469200D01*
X120924495Y-96469200D01*
X120934210Y-96470157D01*
G37*
%TD.AperFunction*%
%TD*%
%TA.AperFunction,Conductor*%
%TO.N,+5V*%
G36*
X99035230Y-111062869D02*
G01*
X99189195Y-111078565D01*
X99348676Y-111092064D01*
X99508156Y-111102802D01*
X99667637Y-111110781D01*
X99814888Y-111115599D01*
X99823043Y-111119295D01*
X99826198Y-111127676D01*
X99826169Y-111128201D01*
X99804369Y-111408197D01*
X99800310Y-111416179D01*
X99795402Y-111418674D01*
X99082016Y-111587731D01*
X99074274Y-111586902D01*
X98996500Y-111549729D01*
X98915001Y-111513536D01*
X98833503Y-111480102D01*
X98752004Y-111449429D01*
X98688251Y-111427593D01*
X98681534Y-111421670D01*
X98680973Y-111412733D01*
X98683767Y-111408253D01*
X99025784Y-111066236D01*
X99034056Y-111062810D01*
X99035230Y-111062869D01*
G37*
%TD.AperFunction*%
%TD*%
%TA.AperFunction,Conductor*%
%TO.N,Net-(U1-FB)*%
G36*
X109887498Y-112227627D02*
G01*
X110132827Y-112452117D01*
X110136618Y-112460231D01*
X110135410Y-112465949D01*
X110112785Y-112511556D01*
X110112779Y-112511569D01*
X110086233Y-112573656D01*
X110086234Y-112573657D01*
X110059689Y-112644324D01*
X110033144Y-112723572D01*
X110009113Y-112803085D01*
X110003439Y-112810013D01*
X109997913Y-112811400D01*
X109761287Y-112811400D01*
X109753014Y-112807973D01*
X109750087Y-112803085D01*
X109726055Y-112723572D01*
X109699510Y-112644324D01*
X109672965Y-112573657D01*
X109672965Y-112573656D01*
X109646420Y-112511569D01*
X109623789Y-112465949D01*
X109623182Y-112457014D01*
X109626370Y-112452118D01*
X109871702Y-112227626D01*
X109880118Y-112224570D01*
X109887498Y-112227627D01*
G37*
%TD.AperFunction*%
%TD*%
%TA.AperFunction,Conductor*%
%TO.N,Net-(U1-LX)*%
G36*
X115012400Y-108281157D02*
G01*
X115045037Y-108287649D01*
X115095076Y-108297602D01*
X115113027Y-108305038D01*
X115183114Y-108351868D01*
X115190661Y-108358061D01*
X116228738Y-109396138D01*
X116234931Y-109403685D01*
X116281761Y-109473772D01*
X116289197Y-109491723D01*
X116305643Y-109574398D01*
X116306600Y-109584114D01*
X116306600Y-110866095D01*
X116305643Y-110875811D01*
X116289197Y-110958487D01*
X116281761Y-110976438D01*
X116237708Y-111042368D01*
X116223968Y-111056108D01*
X116158038Y-111100161D01*
X116140087Y-111107597D01*
X116057411Y-111124043D01*
X116047695Y-111125000D01*
X113751338Y-111125000D01*
X113675856Y-111125000D01*
X113664439Y-111123674D01*
X113608758Y-111110559D01*
X113588326Y-111100369D01*
X113544350Y-111063784D01*
X113536421Y-111055462D01*
X112172704Y-109244982D01*
X112172702Y-109244980D01*
X112172700Y-109244978D01*
X112096489Y-109143800D01*
X111969817Y-109143800D01*
X111314481Y-109143800D01*
X111286814Y-109135407D01*
X111243501Y-109106466D01*
X111243500Y-109106465D01*
X111169269Y-109091700D01*
X109596870Y-109091700D01*
X109569203Y-109083307D01*
X109556630Y-109074906D01*
X109542891Y-109061168D01*
X109498836Y-108995235D01*
X109491402Y-108977286D01*
X109474957Y-108894610D01*
X109474000Y-108884895D01*
X109474000Y-108539104D01*
X109474957Y-108529389D01*
X109475457Y-108526874D01*
X109491403Y-108446710D01*
X109498836Y-108428764D01*
X109542893Y-108362828D01*
X109556628Y-108349093D01*
X109622564Y-108305036D01*
X109640510Y-108297603D01*
X109699416Y-108285885D01*
X109723190Y-108281157D01*
X109732905Y-108280200D01*
X115002685Y-108280200D01*
X115012400Y-108281157D01*
G37*
%TD.AperFunction*%
%TD*%
%TA.AperFunction,Conductor*%
%TO.N,Net-(U1-EN)*%
G36*
X104586729Y-109409327D02*
G01*
X104811160Y-109663455D01*
X104814068Y-109671925D01*
X104811160Y-109678945D01*
X104586729Y-109933072D01*
X104578684Y-109937005D01*
X104570903Y-109934659D01*
X104519041Y-109895439D01*
X104458531Y-109858259D01*
X104430134Y-109844838D01*
X104398021Y-109829660D01*
X104337512Y-109809640D01*
X104337507Y-109809639D01*
X104286527Y-109800001D01*
X104279034Y-109795097D01*
X104277000Y-109788505D01*
X104277000Y-109553894D01*
X104280427Y-109545621D01*
X104286525Y-109542399D01*
X104337510Y-109532759D01*
X104398020Y-109512739D01*
X104458531Y-109484140D01*
X104519041Y-109446960D01*
X104570904Y-109407739D01*
X104579567Y-109405483D01*
X104586729Y-109409327D01*
G37*
%TD.AperFunction*%
%TD*%
%TA.AperFunction,Conductor*%
%TO.N,+5V*%
G36*
X101949725Y-106025377D02*
G01*
X102434360Y-106528163D01*
X102437634Y-106536498D01*
X102434244Y-106544522D01*
X101947445Y-107035391D01*
X101939186Y-107038852D01*
X101931818Y-107036280D01*
X101835279Y-106958868D01*
X101756014Y-106907046D01*
X101730539Y-106890390D01*
X101625792Y-106837416D01*
X101521046Y-106799953D01*
X101521043Y-106799952D01*
X101521042Y-106799952D01*
X101521036Y-106799950D01*
X101425600Y-106779949D01*
X101418206Y-106774898D01*
X101416300Y-106768498D01*
X101416300Y-106279738D01*
X101419727Y-106271465D01*
X101425874Y-106268233D01*
X101521528Y-106250584D01*
X101521532Y-106250582D01*
X101521535Y-106250582D01*
X101626750Y-106215660D01*
X101626753Y-106215659D01*
X101626753Y-106215658D01*
X101626756Y-106215658D01*
X101731984Y-106165222D01*
X101837212Y-106099276D01*
X101934141Y-106024244D01*
X101942779Y-106021891D01*
X101949725Y-106025377D01*
G37*
%TD.AperFunction*%
%TD*%
%TA.AperFunction,Conductor*%
%TO.N,+3V3*%
G36*
X111510810Y-104369557D02*
G01*
X111543164Y-104375992D01*
X111593487Y-104386002D01*
X111611438Y-104393438D01*
X111677368Y-104437491D01*
X111691108Y-104451231D01*
X111735161Y-104517161D01*
X111742597Y-104535112D01*
X111759043Y-104617788D01*
X111760000Y-104627504D01*
X111760000Y-105613200D01*
X111836200Y-105689400D01*
X116022295Y-105689400D01*
X116032010Y-105690357D01*
X116064364Y-105696792D01*
X116114687Y-105706802D01*
X116132638Y-105714238D01*
X116198568Y-105758291D01*
X116212308Y-105772031D01*
X116256361Y-105837961D01*
X116263797Y-105855912D01*
X116280243Y-105938588D01*
X116281200Y-105948304D01*
X116281200Y-107157695D01*
X116280243Y-107167411D01*
X116263797Y-107250087D01*
X116256361Y-107268038D01*
X116212308Y-107333968D01*
X116198568Y-107347708D01*
X116132638Y-107391761D01*
X116114687Y-107399197D01*
X116032011Y-107415643D01*
X116022295Y-107416600D01*
X111180705Y-107416600D01*
X111170989Y-107415643D01*
X111088312Y-107399197D01*
X111070361Y-107391761D01*
X111004431Y-107347708D01*
X110990691Y-107333968D01*
X110946638Y-107268038D01*
X110939202Y-107250087D01*
X110922757Y-107167410D01*
X110921800Y-107157695D01*
X110921800Y-105849785D01*
X110922757Y-105840070D01*
X110929769Y-105804815D01*
X110937203Y-105786867D01*
X110959900Y-105752900D01*
X110959902Y-105752896D01*
X110998000Y-105714800D01*
X110998000Y-104627504D01*
X110998957Y-104617789D01*
X111003656Y-104594164D01*
X111015402Y-104535110D01*
X111022836Y-104517164D01*
X111066893Y-104451228D01*
X111080628Y-104437493D01*
X111146564Y-104393436D01*
X111164510Y-104386003D01*
X111223416Y-104374285D01*
X111247190Y-104369557D01*
X111256905Y-104368600D01*
X111501095Y-104368600D01*
X111510810Y-104369557D01*
G37*
%TD.AperFunction*%
%TD*%
%TA.AperFunction,Conductor*%
%TO.N,Net-(U1-IN)*%
G36*
X106614614Y-105729386D02*
G01*
X106629200Y-105764600D01*
X106629200Y-107103285D01*
X106628243Y-107113001D01*
X106611797Y-107195676D01*
X106604361Y-107213627D01*
X106557531Y-107283714D01*
X106551338Y-107291261D01*
X106246395Y-107596204D01*
X106246394Y-107596205D01*
X106172000Y-107670600D01*
X106172000Y-108280200D01*
X108300695Y-108280200D01*
X108310410Y-108281157D01*
X108342764Y-108287592D01*
X108393087Y-108297602D01*
X108411038Y-108305038D01*
X108476968Y-108349091D01*
X108490708Y-108362831D01*
X108534761Y-108428761D01*
X108542197Y-108446712D01*
X108558643Y-108529388D01*
X108559600Y-108539104D01*
X108559600Y-108884895D01*
X108558643Y-108894611D01*
X108542197Y-108977287D01*
X108534761Y-108995238D01*
X108490708Y-109061168D01*
X108476968Y-109074908D01*
X108411038Y-109118961D01*
X108393087Y-109126397D01*
X108310411Y-109142843D01*
X108300695Y-109143800D01*
X106053515Y-109143800D01*
X106043799Y-109142843D01*
X105961123Y-109126397D01*
X105943172Y-109118961D01*
X105873085Y-109072131D01*
X105865538Y-109065938D01*
X105462461Y-108662861D01*
X105456268Y-108655314D01*
X105409438Y-108585227D01*
X105402002Y-108567275D01*
X105396398Y-108539104D01*
X105385557Y-108484600D01*
X105384600Y-108474885D01*
X105384600Y-107594404D01*
X105384600Y-107594400D01*
X105384599Y-107594400D01*
X105384600Y-107340400D01*
X105130600Y-107340400D01*
X103890905Y-107340400D01*
X103881189Y-107339443D01*
X103798512Y-107322997D01*
X103780561Y-107315561D01*
X103714631Y-107271508D01*
X103700891Y-107257768D01*
X103659402Y-107195676D01*
X103656837Y-107191837D01*
X103649402Y-107173886D01*
X103632957Y-107091210D01*
X103632000Y-107081495D01*
X103632000Y-105973704D01*
X103632957Y-105963989D01*
X103633457Y-105961474D01*
X103649403Y-105881310D01*
X103656836Y-105863364D01*
X103700893Y-105797428D01*
X103714628Y-105783693D01*
X103780564Y-105739636D01*
X103798510Y-105732203D01*
X103865288Y-105718920D01*
X103881190Y-105715757D01*
X103890905Y-105714800D01*
X106579400Y-105714800D01*
X106614614Y-105729386D01*
G37*
%TD.AperFunction*%
%TD*%
%TA.AperFunction,Conductor*%
%TO.N,Net-(U1-IN)*%
G36*
X106075451Y-109399442D02*
G01*
X106076570Y-109400492D01*
X106107190Y-109433263D01*
X106107196Y-109433269D01*
X106146906Y-109468487D01*
X106146912Y-109468491D01*
X106146919Y-109468498D01*
X106146925Y-109468502D01*
X106146926Y-109468503D01*
X106186652Y-109496449D01*
X106204126Y-109505536D01*
X106226379Y-109517109D01*
X106226382Y-109517110D01*
X106226384Y-109517111D01*
X106246375Y-109523841D01*
X106263509Y-109529610D01*
X106268049Y-109532425D01*
X106432460Y-109696836D01*
X106435887Y-109705109D01*
X106432460Y-109713382D01*
X106427986Y-109716175D01*
X106374564Y-109734516D01*
X106303389Y-109767533D01*
X106232243Y-109809116D01*
X106232238Y-109809119D01*
X106173873Y-109850268D01*
X106161077Y-109859291D01*
X106098000Y-109911369D01*
X106089439Y-109913994D01*
X106082403Y-109910743D01*
X105844025Y-109679410D01*
X105840474Y-109671189D01*
X105843134Y-109663585D01*
X106058983Y-109401049D01*
X106066885Y-109396835D01*
X106075451Y-109399442D01*
G37*
%TD.AperFunction*%
%TD*%
%TA.AperFunction,Conductor*%
%TO.N,+5V*%
G36*
X100588000Y-106236840D02*
G01*
X100648000Y-106249270D01*
X100707999Y-106258940D01*
X100726091Y-106261023D01*
X100768000Y-106265850D01*
X100768005Y-106265850D01*
X100768011Y-106265851D01*
X100782567Y-106266857D01*
X100817108Y-106269246D01*
X100825124Y-106273235D01*
X100828000Y-106280918D01*
X100828000Y-106766698D01*
X100824573Y-106774971D01*
X100816706Y-106778391D01*
X100795614Y-106779122D01*
X100768000Y-106780080D01*
X100708000Y-106784920D01*
X100707994Y-106784920D01*
X100707991Y-106784921D01*
X100707990Y-106784921D01*
X100648002Y-106792518D01*
X100588000Y-106802879D01*
X100531579Y-106815217D01*
X100524612Y-106814600D01*
X99828417Y-106526916D01*
X99822079Y-106520590D01*
X99822072Y-106511635D01*
X99828397Y-106505297D01*
X100524451Y-106223089D01*
X100531713Y-106222591D01*
X100588000Y-106236840D01*
G37*
%TD.AperFunction*%
%TD*%
%TA.AperFunction,Conductor*%
%TO.N,Net-(U1-FB)*%
G36*
X108300786Y-111634827D02*
G01*
X108303713Y-111639715D01*
X108327744Y-111719227D01*
X108354289Y-111798475D01*
X108380834Y-111869142D01*
X108407379Y-111931230D01*
X108407382Y-111931236D01*
X108407385Y-111931242D01*
X108407385Y-111931243D01*
X108430010Y-111976850D01*
X108430617Y-111985785D01*
X108427427Y-111990682D01*
X108182098Y-112215172D01*
X108173682Y-112218229D01*
X108166302Y-112215172D01*
X107920971Y-111990681D01*
X107917180Y-111982567D01*
X107918386Y-111976854D01*
X107941014Y-111931243D01*
X107941018Y-111931235D01*
X107941017Y-111931236D01*
X107941020Y-111931230D01*
X107967565Y-111869142D01*
X107994110Y-111798475D01*
X108020655Y-111719227D01*
X108044686Y-111639715D01*
X108050361Y-111632787D01*
X108055887Y-111631400D01*
X108292513Y-111631400D01*
X108300786Y-111634827D01*
G37*
%TD.AperFunction*%
%TD*%
%TA.AperFunction,Conductor*%
%TO.N,Net-(U1-FB)*%
G36*
X108420295Y-111957939D02*
G01*
X108472158Y-111997160D01*
X108532668Y-112034340D01*
X108593179Y-112062939D01*
X108653689Y-112082959D01*
X108704674Y-112092598D01*
X108712166Y-112097502D01*
X108714200Y-112104094D01*
X108714200Y-112338705D01*
X108710773Y-112346978D01*
X108704673Y-112350201D01*
X108653691Y-112359839D01*
X108653686Y-112359840D01*
X108593177Y-112379860D01*
X108532670Y-112408458D01*
X108472164Y-112445635D01*
X108472155Y-112445641D01*
X108420296Y-112484859D01*
X108411630Y-112487116D01*
X108404470Y-112483272D01*
X108180038Y-112229143D01*
X108177131Y-112220675D01*
X108180038Y-112213656D01*
X108404471Y-111959526D01*
X108412515Y-111955594D01*
X108420295Y-111957939D01*
G37*
%TD.AperFunction*%
%TD*%
%TA.AperFunction,Conductor*%
%TO.N,VCC*%
G36*
X117327410Y-116663157D02*
G01*
X117359764Y-116669592D01*
X117410087Y-116679602D01*
X117428038Y-116687038D01*
X117493968Y-116731091D01*
X117507708Y-116744831D01*
X117551761Y-116810761D01*
X117559197Y-116828712D01*
X117575643Y-116911388D01*
X117576600Y-116921104D01*
X117576600Y-118790895D01*
X117575643Y-118800611D01*
X117559197Y-118883287D01*
X117551761Y-118901238D01*
X117507708Y-118967168D01*
X117493968Y-118980908D01*
X117428038Y-119024961D01*
X117410087Y-119032397D01*
X117327411Y-119048843D01*
X117317695Y-119049800D01*
X92638705Y-119049800D01*
X92628989Y-119048843D01*
X92546312Y-119032397D01*
X92528361Y-119024961D01*
X92462431Y-118980908D01*
X92448691Y-118967168D01*
X92404638Y-118901238D01*
X92397202Y-118883287D01*
X92381257Y-118803123D01*
X92380300Y-118793408D01*
X92380300Y-116918590D01*
X92381257Y-116908875D01*
X92397203Y-116828710D01*
X92404636Y-116810764D01*
X92448693Y-116744828D01*
X92462428Y-116731093D01*
X92528364Y-116687036D01*
X92546310Y-116679603D01*
X92605216Y-116667885D01*
X92628990Y-116663157D01*
X92638705Y-116662200D01*
X117317695Y-116662200D01*
X117327410Y-116663157D01*
G37*
%TD.AperFunction*%
%TD*%
%TA.AperFunction,Conductor*%
%TO.N,+5V*%
G36*
X99536188Y-106451897D02*
G01*
X99795402Y-106513325D01*
X99802662Y-106518568D01*
X99804369Y-106523802D01*
X99826169Y-106803798D01*
X99823394Y-106812312D01*
X99815412Y-106816371D01*
X99814887Y-106816400D01*
X99667638Y-106821218D01*
X99508157Y-106829197D01*
X99348676Y-106839935D01*
X99189195Y-106853434D01*
X99035243Y-106869129D01*
X99026665Y-106866559D01*
X99025783Y-106865762D01*
X98683768Y-106523747D01*
X98680341Y-106515474D01*
X98683768Y-106507201D01*
X98688245Y-106504407D01*
X98752004Y-106482570D01*
X98833503Y-106451897D01*
X98915001Y-106418463D01*
X98996500Y-106382270D01*
X99074276Y-106345096D01*
X99082013Y-106344268D01*
X99536188Y-106451897D01*
G37*
%TD.AperFunction*%
%TD*%
%TA.AperFunction,Conductor*%
%TO.N,Net-(U1-FB)*%
G36*
X107674867Y-110625003D02*
G01*
X107674895Y-110625015D01*
X108191060Y-110857402D01*
X108377056Y-110941141D01*
X108383193Y-110947663D01*
X108382922Y-110956613D01*
X108382658Y-110957159D01*
X108374970Y-110972114D01*
X108370874Y-110980082D01*
X108353455Y-111021861D01*
X108353454Y-111021865D01*
X108353454Y-111021864D01*
X108336037Y-111071535D01*
X108318618Y-111129105D01*
X108303513Y-111185879D01*
X108298074Y-111192993D01*
X108292206Y-111194571D01*
X108050867Y-111194571D01*
X108044189Y-111192478D01*
X107941569Y-111121137D01*
X107835935Y-111059582D01*
X107791311Y-111038598D01*
X107730302Y-111009908D01*
X107730296Y-111009905D01*
X107730290Y-111009903D01*
X107624687Y-110972119D01*
X107624669Y-110972114D01*
X107532630Y-110949534D01*
X107525412Y-110944235D01*
X107524055Y-110935383D01*
X107524725Y-110933424D01*
X107659422Y-110630930D01*
X107665916Y-110624768D01*
X107674867Y-110625003D01*
G37*
%TD.AperFunction*%
%TD*%
%TA.AperFunction,Conductor*%
%TO.N,Net-(U1-FB)*%
G36*
X110006434Y-112777827D02*
G01*
X110009261Y-112782404D01*
X110037067Y-112866044D01*
X110037068Y-112866044D01*
X110067537Y-112948509D01*
X110098005Y-113021794D01*
X110098004Y-113021793D01*
X110098006Y-113021797D01*
X110128474Y-113085899D01*
X110150735Y-113126029D01*
X110154247Y-113132359D01*
X110155264Y-113141256D01*
X110151509Y-113147021D01*
X109897093Y-113359152D01*
X109888544Y-113361818D01*
X109882107Y-113359152D01*
X109627265Y-113146667D01*
X109623106Y-113138737D01*
X109624217Y-113132605D01*
X109646725Y-113085899D01*
X109673194Y-113021794D01*
X109699662Y-112948509D01*
X109726131Y-112866044D01*
X109750158Y-112782853D01*
X109755747Y-112775856D01*
X109761400Y-112774400D01*
X109998161Y-112774400D01*
X110006434Y-112777827D01*
G37*
%TD.AperFunction*%
%TD*%
%TA.AperFunction,Conductor*%
%TO.N,+3V3*%
G36*
X111749960Y-112256860D02*
G01*
X111750297Y-112257211D01*
X111829231Y-112343008D01*
X111829738Y-112343642D01*
X111881271Y-112418158D01*
X111882280Y-112419929D01*
X111915627Y-112492527D01*
X111915810Y-112492975D01*
X111940826Y-112562632D01*
X111947783Y-112582004D01*
X111990597Y-112693597D01*
X111990361Y-112702549D01*
X111984190Y-112708581D01*
X111762890Y-112801193D01*
X111758341Y-112802100D01*
X111520087Y-112801439D01*
X111511823Y-112797989D01*
X111508419Y-112789707D01*
X111508623Y-112787567D01*
X111524370Y-112704530D01*
X111525489Y-112701305D01*
X111564333Y-112626770D01*
X111600271Y-112562633D01*
X111600272Y-112562632D01*
X111607857Y-112499847D01*
X111567420Y-112435743D01*
X111565906Y-112426920D01*
X111569042Y-112421232D01*
X111733415Y-112256859D01*
X111741687Y-112253433D01*
X111749960Y-112256860D01*
G37*
%TD.AperFunction*%
%TD*%
%TA.AperFunction,Conductor*%
%TO.N,+5V*%
G36*
X100588000Y-106236840D02*
G01*
X100648000Y-106249270D01*
X100707999Y-106258940D01*
X100726091Y-106261023D01*
X100768000Y-106265850D01*
X100768005Y-106265850D01*
X100768011Y-106265851D01*
X100782567Y-106266857D01*
X100817108Y-106269246D01*
X100825124Y-106273235D01*
X100828000Y-106280918D01*
X100828000Y-106766698D01*
X100824573Y-106774971D01*
X100816706Y-106778391D01*
X100795614Y-106779122D01*
X100768000Y-106780080D01*
X100708000Y-106784920D01*
X100707994Y-106784920D01*
X100707991Y-106784921D01*
X100707990Y-106784921D01*
X100648002Y-106792518D01*
X100588000Y-106802879D01*
X100531579Y-106815217D01*
X100524612Y-106814600D01*
X99828417Y-106526916D01*
X99822079Y-106520590D01*
X99822072Y-106511635D01*
X99828397Y-106505297D01*
X100524451Y-106223089D01*
X100531713Y-106222591D01*
X100588000Y-106236840D01*
G37*
%TD.AperFunction*%
%TD*%
%TA.AperFunction,Conductor*%
%TO.N,+5V*%
G36*
X117505210Y-98908557D02*
G01*
X117537564Y-98914992D01*
X117587887Y-98925002D01*
X117605838Y-98932438D01*
X117671768Y-98976491D01*
X117685508Y-98990231D01*
X117729561Y-99056161D01*
X117736997Y-99074112D01*
X117753443Y-99156788D01*
X117754400Y-99166504D01*
X117754400Y-101036295D01*
X117753443Y-101046011D01*
X117736997Y-101128687D01*
X117729561Y-101146638D01*
X117685508Y-101212568D01*
X117671768Y-101226308D01*
X117605838Y-101270361D01*
X117587887Y-101277797D01*
X117505211Y-101294243D01*
X117495495Y-101295200D01*
X92816505Y-101295200D01*
X92806789Y-101294243D01*
X92724112Y-101277797D01*
X92706161Y-101270361D01*
X92640231Y-101226308D01*
X92626491Y-101212568D01*
X92582438Y-101146638D01*
X92575002Y-101128687D01*
X92558557Y-101046010D01*
X92557600Y-101036295D01*
X92557600Y-99166504D01*
X92558557Y-99156789D01*
X92559057Y-99154274D01*
X92575003Y-99074110D01*
X92582436Y-99056164D01*
X92626493Y-98990228D01*
X92640228Y-98976493D01*
X92706164Y-98932436D01*
X92724110Y-98925003D01*
X92783016Y-98913285D01*
X92806790Y-98908557D01*
X92816505Y-98907600D01*
X117495495Y-98907600D01*
X117505210Y-98908557D01*
G37*
%TD.AperFunction*%
%TD*%
%TA.AperFunction,Conductor*%
%TO.N,Net-(U1-EN)*%
G36*
X109590971Y-110334275D02*
G01*
X110337007Y-110610175D01*
X110343577Y-110616258D01*
X110343922Y-110625206D01*
X110337838Y-110631777D01*
X110337453Y-110631946D01*
X109592364Y-110942793D01*
X109583409Y-110942816D01*
X109578698Y-110939272D01*
X109541320Y-110892211D01*
X109541321Y-110892212D01*
X109536664Y-110887271D01*
X109498438Y-110846717D01*
X109498430Y-110846710D01*
X109498424Y-110846704D01*
X109455569Y-110809727D01*
X109455558Y-110809718D01*
X109412677Y-110781214D01*
X109371664Y-110762078D01*
X109368338Y-110759748D01*
X109203589Y-110594999D01*
X109200162Y-110586726D01*
X109203589Y-110578453D01*
X109208168Y-110575624D01*
X109239241Y-110565290D01*
X109268986Y-110555399D01*
X109268989Y-110555397D01*
X109268994Y-110555396D01*
X109268999Y-110555393D01*
X109269005Y-110555391D01*
X109347795Y-110517310D01*
X109347795Y-110517309D01*
X109426597Y-110467343D01*
X109505398Y-110405497D01*
X109578926Y-110336705D01*
X109587306Y-110333556D01*
X109590971Y-110334275D01*
G37*
%TD.AperFunction*%
%TD*%
%TA.AperFunction,Conductor*%
%TO.N,Net-(U1-EN)*%
G36*
X104226445Y-110390009D02*
G01*
X104260862Y-110404326D01*
X104267184Y-110410668D01*
X104267171Y-110419623D01*
X104266546Y-110420899D01*
X104230488Y-110484502D01*
X104229537Y-110485926D01*
X104192500Y-110533428D01*
X104183438Y-110545051D01*
X104166326Y-110570922D01*
X104149215Y-110596793D01*
X104149214Y-110596794D01*
X104149215Y-110596794D01*
X104143421Y-110648473D01*
X104176931Y-110700134D01*
X104178558Y-110708940D01*
X104175388Y-110714774D01*
X104011507Y-110878655D01*
X104003234Y-110882082D01*
X103994961Y-110878655D01*
X103994271Y-110877903D01*
X103921954Y-110791723D01*
X103920368Y-110789262D01*
X103882524Y-110710315D01*
X103881664Y-110707836D01*
X103863767Y-110628376D01*
X103844880Y-110533436D01*
X103807148Y-110419691D01*
X103807796Y-110410761D01*
X103813734Y-110405217D01*
X104033191Y-110313376D01*
X104042142Y-110313344D01*
X104226445Y-110390009D01*
G37*
%TD.AperFunction*%
%TD*%
%TA.AperFunction,Conductor*%
%TO.N,Net-(U1-EN)*%
G36*
X104595776Y-110751013D02*
G01*
X104596474Y-110751734D01*
X104820777Y-111004110D01*
X104823712Y-111012570D01*
X104820753Y-111019681D01*
X104595045Y-111272065D01*
X104586976Y-111275948D01*
X104579325Y-111273642D01*
X104577212Y-111272065D01*
X104508026Y-111220420D01*
X104508022Y-111220417D01*
X104508021Y-111220417D01*
X104428140Y-111169969D01*
X104388204Y-111149338D01*
X104348265Y-111128704D01*
X104268384Y-111096616D01*
X104207596Y-111079183D01*
X104200588Y-111073608D01*
X104199574Y-111064711D01*
X104202546Y-111059665D01*
X104366128Y-110896083D01*
X104370769Y-110893235D01*
X104412087Y-110879759D01*
X104456066Y-110857397D01*
X104500046Y-110827017D01*
X104544025Y-110788620D01*
X104579236Y-110751458D01*
X104587414Y-110747810D01*
X104595776Y-110751013D01*
G37*
%TD.AperFunction*%
%TD*%
%TA.AperFunction,Conductor*%
%TO.N,Net-(U1-FB)*%
G36*
X109649329Y-111959527D02*
G01*
X109873760Y-112213655D01*
X109876668Y-112222125D01*
X109873760Y-112229145D01*
X109649329Y-112483272D01*
X109641284Y-112487205D01*
X109633503Y-112484859D01*
X109581641Y-112445639D01*
X109521131Y-112408459D01*
X109492734Y-112395038D01*
X109460621Y-112379860D01*
X109400112Y-112359840D01*
X109400107Y-112359839D01*
X109349127Y-112350201D01*
X109341634Y-112345297D01*
X109339600Y-112338705D01*
X109339600Y-112104094D01*
X109343027Y-112095821D01*
X109349125Y-112092599D01*
X109400110Y-112082959D01*
X109460620Y-112062939D01*
X109521131Y-112034340D01*
X109581641Y-111997160D01*
X109633504Y-111957939D01*
X109642167Y-111955683D01*
X109649329Y-111959527D01*
G37*
%TD.AperFunction*%
%TD*%
%TA.AperFunction,Conductor*%
%TO.N,Net-(U1-EN)*%
G36*
X104010755Y-109745055D02*
G01*
X104011507Y-109745744D01*
X104175388Y-109909625D01*
X104178815Y-109917898D01*
X104176930Y-109924265D01*
X104143421Y-109975926D01*
X104149215Y-110027604D01*
X104183438Y-110079348D01*
X104229537Y-110138472D01*
X104230488Y-110139896D01*
X104266546Y-110203500D01*
X104267645Y-110212387D01*
X104262138Y-110219448D01*
X104260862Y-110220073D01*
X104042200Y-110311032D01*
X104033245Y-110311045D01*
X104033189Y-110311022D01*
X103813736Y-110219183D01*
X103807427Y-110212828D01*
X103807148Y-110204708D01*
X103844880Y-110090962D01*
X103863767Y-109996022D01*
X103881665Y-109916558D01*
X103882527Y-109914079D01*
X103920369Y-109835135D01*
X103921954Y-109832674D01*
X103994272Y-109746495D01*
X104002215Y-109742361D01*
X104010755Y-109745055D01*
G37*
%TD.AperFunction*%
%TD*%
%TA.AperFunction,Conductor*%
%TO.N,+3V3*%
G36*
X111145695Y-111957939D02*
G01*
X111197558Y-111997160D01*
X111258068Y-112034340D01*
X111318579Y-112062939D01*
X111379089Y-112082959D01*
X111430074Y-112092598D01*
X111437566Y-112097502D01*
X111439600Y-112104094D01*
X111439600Y-112338705D01*
X111436173Y-112346978D01*
X111430073Y-112350201D01*
X111379091Y-112359839D01*
X111379086Y-112359840D01*
X111318577Y-112379860D01*
X111258070Y-112408458D01*
X111197564Y-112445635D01*
X111197555Y-112445641D01*
X111145696Y-112484859D01*
X111137030Y-112487116D01*
X111129870Y-112483272D01*
X110905438Y-112229143D01*
X110902531Y-112220675D01*
X110905438Y-112213656D01*
X111129871Y-111959526D01*
X111137915Y-111955594D01*
X111145695Y-111957939D01*
G37*
%TD.AperFunction*%
%TD*%
%TA.AperFunction,Conductor*%
%TO.N,GND*%
G36*
X118044612Y-118189072D02*
G01*
X118082996Y-118248798D01*
X118083290Y-118249815D01*
X118086672Y-118261701D01*
X118177912Y-118444935D01*
X118177913Y-118444936D01*
X118301266Y-118608284D01*
X118452535Y-118746184D01*
X118452537Y-118746185D01*
X118452538Y-118746186D01*
X118476629Y-118761102D01*
X118524017Y-118813967D01*
X118536300Y-118868230D01*
X118536300Y-119393769D01*
X118516298Y-119461890D01*
X118476633Y-119500894D01*
X118459441Y-119511539D01*
X118452536Y-119515815D01*
X118452531Y-119515819D01*
X118301269Y-119653712D01*
X118177913Y-119817063D01*
X118086671Y-120000301D01*
X118030654Y-120197180D01*
X118011768Y-120400995D01*
X118011768Y-120401004D01*
X118030654Y-120604819D01*
X118059886Y-120707558D01*
X118086672Y-120801701D01*
X118177912Y-120984935D01*
X118177913Y-120984936D01*
X118301266Y-121148284D01*
X118452535Y-121286184D01*
X118452537Y-121286185D01*
X118452538Y-121286186D01*
X118476629Y-121301102D01*
X118524017Y-121353967D01*
X118536300Y-121408230D01*
X118536300Y-121565402D01*
X118556053Y-121664706D01*
X118556055Y-121664711D01*
X118570639Y-121699920D01*
X118570640Y-121699921D01*
X118586394Y-121723499D01*
X118607608Y-121791252D01*
X118588824Y-121859719D01*
X118536007Y-121907162D01*
X118481628Y-121919500D01*
X92506300Y-121919500D01*
X92438179Y-121899498D01*
X92391686Y-121845842D01*
X92380300Y-121793500D01*
X92380300Y-119417490D01*
X92400302Y-119349369D01*
X92453958Y-119302876D01*
X92524232Y-119292772D01*
X92530858Y-119293906D01*
X92584609Y-119304599D01*
X92584612Y-119304599D01*
X92584620Y-119304601D01*
X92597195Y-119306467D01*
X92597197Y-119306467D01*
X92597201Y-119306467D01*
X92597212Y-119306469D01*
X92616510Y-119308369D01*
X92619597Y-119308674D01*
X92619599Y-119308674D01*
X92619608Y-119308675D01*
X92632334Y-119309300D01*
X92632338Y-119309300D01*
X117324062Y-119309300D01*
X117324066Y-119309300D01*
X117336792Y-119308675D01*
X117336800Y-119308674D01*
X117336803Y-119308674D01*
X117339889Y-119308369D01*
X117359188Y-119306469D01*
X117359198Y-119306467D01*
X117359203Y-119306467D01*
X117359205Y-119306467D01*
X117371780Y-119304601D01*
X117371787Y-119304599D01*
X117371791Y-119304599D01*
X117460715Y-119286910D01*
X117509399Y-119272142D01*
X117527350Y-119264706D01*
X117572208Y-119240727D01*
X117638138Y-119196674D01*
X117677462Y-119164402D01*
X117691202Y-119150662D01*
X117723474Y-119111338D01*
X117767527Y-119045408D01*
X117791506Y-119000550D01*
X117798942Y-118982599D01*
X117813710Y-118933915D01*
X117831399Y-118844991D01*
X117831401Y-118844980D01*
X117833267Y-118832405D01*
X117833267Y-118832403D01*
X117833267Y-118832398D01*
X117833269Y-118832388D01*
X117835475Y-118809992D01*
X117836100Y-118797266D01*
X117836100Y-118284296D01*
X117856102Y-118216175D01*
X117909758Y-118169682D01*
X117980032Y-118159578D01*
X118044612Y-118189072D01*
G37*
%TD.AperFunction*%
%TA.AperFunction,Conductor*%
G36*
X123157021Y-96007102D02*
G01*
X123203514Y-96060758D01*
X123214900Y-96113100D01*
X123214900Y-121793500D01*
X123194898Y-121861621D01*
X123141242Y-121908114D01*
X123088900Y-121919500D01*
X121397449Y-121919500D01*
X121329328Y-121899498D01*
X121282835Y-121845842D01*
X121272731Y-121775568D01*
X121300050Y-121713566D01*
X121311248Y-121699921D01*
X121330274Y-121676738D01*
X121338314Y-121664706D01*
X121374319Y-121610821D01*
X121374322Y-121610814D01*
X121374327Y-121610808D01*
X121398308Y-121565945D01*
X121405744Y-121547993D01*
X121420511Y-121499311D01*
X121423531Y-121484128D01*
X121428478Y-121429006D01*
X121428112Y-121407889D01*
X121421258Y-121352972D01*
X121397635Y-121301101D01*
X121379297Y-121260834D01*
X121379291Y-121260824D01*
X121357035Y-121229892D01*
X121357032Y-121229888D01*
X121282999Y-121160816D01*
X121262761Y-121148285D01*
X121159517Y-121084358D01*
X121140963Y-121070347D01*
X121098738Y-121031854D01*
X121042488Y-120980576D01*
X121026827Y-120963397D01*
X120946522Y-120857057D01*
X120934284Y-120837291D01*
X120874886Y-120718004D01*
X120866490Y-120696332D01*
X120830022Y-120568157D01*
X120825751Y-120545306D01*
X120813456Y-120412625D01*
X120813456Y-120389373D01*
X120825752Y-120256685D01*
X120830021Y-120233842D01*
X120866491Y-120105663D01*
X120874883Y-120083999D01*
X120934286Y-119964702D01*
X120946516Y-119944950D01*
X121026830Y-119838597D01*
X121042480Y-119821430D01*
X121140967Y-119731645D01*
X121159512Y-119717641D01*
X121302800Y-119628923D01*
X121307181Y-119625846D01*
X121315064Y-119620312D01*
X121329938Y-119608531D01*
X121329936Y-119608532D01*
X121329946Y-119608524D01*
X121352308Y-119588606D01*
X121408560Y-119504418D01*
X121423146Y-119469204D01*
X121442899Y-119369898D01*
X121442899Y-118884604D01*
X121442034Y-118869637D01*
X121439847Y-118850788D01*
X121434682Y-118821281D01*
X121392716Y-118729135D01*
X121389897Y-118725218D01*
X121370458Y-118698200D01*
X121370455Y-118698197D01*
X121296424Y-118629129D01*
X121296422Y-118629127D01*
X121296417Y-118629124D01*
X121159518Y-118544360D01*
X121140961Y-118530347D01*
X121042489Y-118440576D01*
X121026827Y-118423395D01*
X120946523Y-118317058D01*
X120934284Y-118297291D01*
X120874886Y-118178004D01*
X120866490Y-118156332D01*
X120830022Y-118028157D01*
X120825751Y-118005306D01*
X120813456Y-117872625D01*
X120813456Y-117849373D01*
X120825752Y-117716685D01*
X120830021Y-117693842D01*
X120866491Y-117565663D01*
X120874883Y-117543999D01*
X120934286Y-117424702D01*
X120946516Y-117404950D01*
X121026830Y-117298597D01*
X121042480Y-117281430D01*
X121140967Y-117191645D01*
X121159512Y-117177641D01*
X121302800Y-117088923D01*
X121307181Y-117085846D01*
X121315064Y-117080312D01*
X121329938Y-117068531D01*
X121329936Y-117068532D01*
X121329946Y-117068524D01*
X121352308Y-117048606D01*
X121408560Y-116964418D01*
X121423146Y-116929204D01*
X121442899Y-116829898D01*
X121442899Y-116344604D01*
X121442034Y-116329637D01*
X121439847Y-116310788D01*
X121434682Y-116281281D01*
X121392716Y-116189135D01*
X121389897Y-116185218D01*
X121370458Y-116158200D01*
X121370455Y-116158197D01*
X121296424Y-116089129D01*
X121296422Y-116089127D01*
X121296417Y-116089124D01*
X121159518Y-116004360D01*
X121140961Y-115990347D01*
X121042489Y-115900576D01*
X121026827Y-115883395D01*
X120946523Y-115777058D01*
X120934284Y-115757291D01*
X120874886Y-115638004D01*
X120866490Y-115616332D01*
X120830022Y-115488157D01*
X120825751Y-115465306D01*
X120813456Y-115332624D01*
X120813456Y-115309372D01*
X120825752Y-115176685D01*
X120830021Y-115153842D01*
X120866491Y-115025663D01*
X120874883Y-115003999D01*
X120934286Y-114884702D01*
X120946516Y-114864950D01*
X121026830Y-114758597D01*
X121042480Y-114741430D01*
X121140967Y-114651645D01*
X121159512Y-114637641D01*
X121302800Y-114548923D01*
X121307181Y-114545846D01*
X121315064Y-114540312D01*
X121329938Y-114528531D01*
X121329936Y-114528532D01*
X121329946Y-114528524D01*
X121352308Y-114508606D01*
X121408560Y-114424418D01*
X121423146Y-114389204D01*
X121442899Y-114289898D01*
X121442899Y-113804604D01*
X121442034Y-113789637D01*
X121441842Y-113787985D01*
X121439848Y-113770793D01*
X121435960Y-113748582D01*
X121434682Y-113741281D01*
X121392716Y-113649135D01*
X121389897Y-113645218D01*
X121370458Y-113618200D01*
X121313911Y-113565444D01*
X121296424Y-113549129D01*
X121296422Y-113549127D01*
X121296417Y-113549124D01*
X121159518Y-113464360D01*
X121140961Y-113450347D01*
X121042489Y-113360576D01*
X121026827Y-113343395D01*
X120946523Y-113237058D01*
X120934284Y-113217291D01*
X120874886Y-113098004D01*
X120866490Y-113076332D01*
X120830022Y-112948157D01*
X120825751Y-112925306D01*
X120821994Y-112884767D01*
X120813456Y-112792621D01*
X120813456Y-112769372D01*
X120815705Y-112745106D01*
X120825752Y-112636685D01*
X120830021Y-112613842D01*
X120866491Y-112485663D01*
X120874883Y-112463999D01*
X120934286Y-112344702D01*
X120946516Y-112324950D01*
X121026830Y-112218597D01*
X121042480Y-112201430D01*
X121140967Y-112111645D01*
X121159512Y-112097641D01*
X121302800Y-112008923D01*
X121307323Y-112005747D01*
X121315064Y-112000312D01*
X121329938Y-111988531D01*
X121329936Y-111988532D01*
X121329946Y-111988524D01*
X121352308Y-111968606D01*
X121408560Y-111884418D01*
X121423146Y-111849204D01*
X121442899Y-111749898D01*
X121442899Y-111264604D01*
X121442034Y-111249637D01*
X121439847Y-111230788D01*
X121439540Y-111229037D01*
X121437536Y-111217584D01*
X121434682Y-111201281D01*
X121392716Y-111109135D01*
X121389897Y-111105218D01*
X121370458Y-111078200D01*
X121365251Y-111073342D01*
X121296424Y-111009129D01*
X121296422Y-111009127D01*
X121296417Y-111009124D01*
X121159518Y-110924360D01*
X121140961Y-110910347D01*
X121137953Y-110907605D01*
X121099404Y-110872462D01*
X121042489Y-110820576D01*
X121026827Y-110803395D01*
X120946523Y-110697058D01*
X120934284Y-110677291D01*
X120874886Y-110558004D01*
X120866490Y-110536332D01*
X120830022Y-110408157D01*
X120825751Y-110385306D01*
X120823126Y-110356982D01*
X120813456Y-110252621D01*
X120813456Y-110229373D01*
X120814283Y-110220451D01*
X120825752Y-110096685D01*
X120830021Y-110073842D01*
X120866491Y-109945663D01*
X120874883Y-109923999D01*
X120934286Y-109804702D01*
X120946516Y-109784950D01*
X121026830Y-109678597D01*
X121042480Y-109661430D01*
X121140967Y-109571645D01*
X121159512Y-109557641D01*
X121302800Y-109468923D01*
X121307958Y-109465301D01*
X121315064Y-109460312D01*
X121329938Y-109448531D01*
X121329936Y-109448532D01*
X121329946Y-109448524D01*
X121352308Y-109428606D01*
X121408560Y-109344418D01*
X121423146Y-109309204D01*
X121442899Y-109209898D01*
X121442899Y-108724604D01*
X121442034Y-108709637D01*
X121439847Y-108690788D01*
X121434682Y-108661281D01*
X121392716Y-108569135D01*
X121379912Y-108551340D01*
X121370458Y-108538200D01*
X121370455Y-108538197D01*
X121296424Y-108469129D01*
X121296422Y-108469127D01*
X121296417Y-108469124D01*
X121159518Y-108384360D01*
X121140961Y-108370347D01*
X121115785Y-108347396D01*
X121096099Y-108329449D01*
X121042489Y-108280576D01*
X121026827Y-108263395D01*
X120946523Y-108157058D01*
X120934284Y-108137291D01*
X120874886Y-108018004D01*
X120866490Y-107996332D01*
X120830022Y-107868157D01*
X120825751Y-107845306D01*
X120824358Y-107830277D01*
X120813456Y-107712621D01*
X120813456Y-107689373D01*
X120814744Y-107675474D01*
X120825752Y-107556685D01*
X120830021Y-107533842D01*
X120866491Y-107405663D01*
X120874883Y-107383999D01*
X120934286Y-107264702D01*
X120946516Y-107244950D01*
X121026830Y-107138597D01*
X121042480Y-107121430D01*
X121140967Y-107031645D01*
X121159512Y-107017641D01*
X121302800Y-106928923D01*
X121307181Y-106925846D01*
X121315064Y-106920312D01*
X121329938Y-106908531D01*
X121329936Y-106908532D01*
X121329946Y-106908524D01*
X121352308Y-106888606D01*
X121408560Y-106804418D01*
X121423146Y-106769204D01*
X121442899Y-106669898D01*
X121442899Y-106184604D01*
X121442034Y-106169637D01*
X121439847Y-106150788D01*
X121434682Y-106121281D01*
X121392716Y-106029135D01*
X121381136Y-106013041D01*
X121370458Y-105998200D01*
X121357482Y-105986094D01*
X121296424Y-105929129D01*
X121296422Y-105929127D01*
X121296417Y-105929124D01*
X121159518Y-105844360D01*
X121140961Y-105830347D01*
X121116769Y-105808293D01*
X121072841Y-105768246D01*
X121042489Y-105740576D01*
X121026827Y-105723395D01*
X120946523Y-105617058D01*
X120934284Y-105597291D01*
X120874886Y-105478004D01*
X120866490Y-105456332D01*
X120830022Y-105328157D01*
X120825751Y-105305306D01*
X120813456Y-105172624D01*
X120813456Y-105149372D01*
X120825752Y-105016685D01*
X120830021Y-104993842D01*
X120866491Y-104865663D01*
X120874883Y-104843999D01*
X120934286Y-104724702D01*
X120946516Y-104704950D01*
X121026830Y-104598597D01*
X121042480Y-104581430D01*
X121140967Y-104491645D01*
X121159512Y-104477641D01*
X121302800Y-104388923D01*
X121307181Y-104385846D01*
X121315064Y-104380312D01*
X121329938Y-104368531D01*
X121329936Y-104368532D01*
X121329946Y-104368524D01*
X121352308Y-104348606D01*
X121408560Y-104264418D01*
X121423146Y-104229204D01*
X121442899Y-104129898D01*
X121442899Y-103644604D01*
X121442034Y-103629637D01*
X121439847Y-103610788D01*
X121434682Y-103581281D01*
X121392716Y-103489135D01*
X121384857Y-103478213D01*
X121370458Y-103458200D01*
X121358077Y-103446649D01*
X121296424Y-103389129D01*
X121296422Y-103389127D01*
X121296417Y-103389124D01*
X121159518Y-103304360D01*
X121140961Y-103290347D01*
X121042489Y-103200576D01*
X121026827Y-103183395D01*
X120946523Y-103077058D01*
X120934284Y-103057291D01*
X120874886Y-102938004D01*
X120866490Y-102916332D01*
X120830022Y-102788157D01*
X120825751Y-102765306D01*
X120813456Y-102632624D01*
X120813456Y-102609372D01*
X120825752Y-102476685D01*
X120830021Y-102453842D01*
X120866491Y-102325663D01*
X120874883Y-102303999D01*
X120934286Y-102184702D01*
X120946516Y-102164950D01*
X121026830Y-102058597D01*
X121042480Y-102041430D01*
X121140967Y-101951645D01*
X121159512Y-101937641D01*
X121302800Y-101848923D01*
X121307181Y-101845846D01*
X121315064Y-101840312D01*
X121329938Y-101828531D01*
X121329936Y-101828532D01*
X121329946Y-101828524D01*
X121352308Y-101808606D01*
X121408560Y-101724418D01*
X121423146Y-101689204D01*
X121442899Y-101589898D01*
X121442899Y-101104604D01*
X121442034Y-101089637D01*
X121439847Y-101070788D01*
X121434682Y-101041281D01*
X121392716Y-100949135D01*
X121389897Y-100945218D01*
X121370458Y-100918200D01*
X121370455Y-100918197D01*
X121296424Y-100849129D01*
X121296422Y-100849127D01*
X121296417Y-100849124D01*
X121159518Y-100764360D01*
X121140961Y-100750347D01*
X121138112Y-100747750D01*
X121095680Y-100709067D01*
X121042489Y-100660576D01*
X121026827Y-100643395D01*
X120946523Y-100537058D01*
X120934284Y-100517291D01*
X120874886Y-100398004D01*
X120866490Y-100376332D01*
X120830022Y-100248157D01*
X120825751Y-100225306D01*
X120813456Y-100092625D01*
X120813456Y-100069373D01*
X120814511Y-100057992D01*
X120825752Y-99936685D01*
X120830021Y-99913842D01*
X120866491Y-99785663D01*
X120874883Y-99763999D01*
X120934286Y-99644702D01*
X120946516Y-99624950D01*
X121026830Y-99518597D01*
X121042480Y-99501430D01*
X121140967Y-99411645D01*
X121159512Y-99397641D01*
X121302800Y-99308923D01*
X121307181Y-99305846D01*
X121315064Y-99300312D01*
X121329938Y-99288531D01*
X121329936Y-99288532D01*
X121329946Y-99288524D01*
X121352308Y-99268606D01*
X121408560Y-99184418D01*
X121423146Y-99149204D01*
X121442899Y-99049898D01*
X121442899Y-98564604D01*
X121442034Y-98549637D01*
X121439847Y-98530788D01*
X121434682Y-98501281D01*
X121392716Y-98409135D01*
X121389897Y-98405218D01*
X121370458Y-98378200D01*
X121370455Y-98378197D01*
X121296424Y-98309129D01*
X121296422Y-98309127D01*
X121296417Y-98309124D01*
X121159518Y-98224360D01*
X121140961Y-98210347D01*
X121042489Y-98120576D01*
X121026827Y-98103395D01*
X120946523Y-97997058D01*
X120934284Y-97977291D01*
X120874886Y-97858004D01*
X120866490Y-97836332D01*
X120830022Y-97708157D01*
X120825751Y-97685306D01*
X120813456Y-97552625D01*
X120813456Y-97529373D01*
X120825752Y-97396685D01*
X120830021Y-97373842D01*
X120866491Y-97245663D01*
X120874883Y-97223999D01*
X120934286Y-97104702D01*
X120946516Y-97084950D01*
X121026828Y-96978600D01*
X121042490Y-96961420D01*
X121140962Y-96871650D01*
X121159517Y-96857638D01*
X121210962Y-96825785D01*
X121254641Y-96791798D01*
X121269831Y-96777125D01*
X121305307Y-96734653D01*
X121344055Y-96641108D01*
X121351491Y-96603725D01*
X121351492Y-96603717D01*
X121351489Y-96502465D01*
X121312739Y-96408922D01*
X121291563Y-96377232D01*
X121219974Y-96305644D01*
X121219969Y-96305640D01*
X121179021Y-96278279D01*
X121179011Y-96278273D01*
X121179010Y-96278272D01*
X121179001Y-96278267D01*
X121134151Y-96254294D01*
X121134144Y-96254291D01*
X121134142Y-96254290D01*
X121123135Y-96249730D01*
X121116190Y-96246854D01*
X121116181Y-96246851D01*
X121082198Y-96236543D01*
X121072742Y-96233674D01*
X121013361Y-96194760D01*
X120984445Y-96129919D01*
X120995174Y-96059738D01*
X121042144Y-96006499D01*
X121109317Y-95987100D01*
X123088900Y-95987100D01*
X123157021Y-96007102D01*
G37*
%TD.AperFunction*%
%TA.AperFunction,Conductor*%
G36*
X118222412Y-100728457D02*
G01*
X118240451Y-100747750D01*
X118301267Y-100828285D01*
X118452535Y-100966184D01*
X118452537Y-100966185D01*
X118452538Y-100966186D01*
X118476629Y-100981102D01*
X118524017Y-101033967D01*
X118536300Y-101088230D01*
X118536300Y-101613769D01*
X118516298Y-101681890D01*
X118476633Y-101720894D01*
X118459441Y-101731539D01*
X118452536Y-101735815D01*
X118452531Y-101735819D01*
X118301269Y-101873712D01*
X118177913Y-102037062D01*
X118177909Y-102037068D01*
X118175123Y-102042665D01*
X118126853Y-102094728D01*
X118062334Y-102112500D01*
X112229616Y-102112500D01*
X112202836Y-102109621D01*
X112198051Y-102108580D01*
X112198046Y-102108580D01*
X112145483Y-102112339D01*
X112140987Y-102112500D01*
X112125030Y-102112500D01*
X112109241Y-102114769D01*
X112104774Y-102115249D01*
X112052199Y-102119011D01*
X112052191Y-102119012D01*
X112047594Y-102120727D01*
X112021524Y-102127381D01*
X112016675Y-102128078D01*
X112016667Y-102128080D01*
X112016666Y-102128081D01*
X112016663Y-102128082D01*
X112016664Y-102128082D01*
X111968724Y-102149973D01*
X111964572Y-102151693D01*
X111915194Y-102170111D01*
X111911270Y-102173049D01*
X111888120Y-102186785D01*
X111883657Y-102188823D01*
X111843828Y-102223334D01*
X111840332Y-102226151D01*
X111827552Y-102235719D01*
X111816268Y-102247004D01*
X111812977Y-102250067D01*
X111773151Y-102284577D01*
X111773147Y-102284581D01*
X111770498Y-102288704D01*
X111753601Y-102309670D01*
X111061067Y-103002203D01*
X111040107Y-103019096D01*
X111035981Y-103021747D01*
X111035976Y-103021752D01*
X111001472Y-103061571D01*
X110998413Y-103064857D01*
X110987122Y-103076149D01*
X110987116Y-103076157D01*
X110977558Y-103088925D01*
X110974737Y-103092425D01*
X110940222Y-103132258D01*
X110940220Y-103132261D01*
X110938183Y-103136722D01*
X110924453Y-103159864D01*
X110921514Y-103163791D01*
X110921509Y-103163799D01*
X110903090Y-103213178D01*
X110901370Y-103217330D01*
X110879480Y-103265266D01*
X110879479Y-103265271D01*
X110878781Y-103270123D01*
X110872126Y-103296197D01*
X110870412Y-103300793D01*
X110870411Y-103300798D01*
X110866649Y-103353373D01*
X110866169Y-103357840D01*
X110863900Y-103373629D01*
X110863900Y-103389587D01*
X110863739Y-103394083D01*
X110859979Y-103446650D01*
X110861020Y-103451433D01*
X110863899Y-103478213D01*
X110863899Y-104249720D01*
X110843897Y-104317841D01*
X110842666Y-104319720D01*
X110830449Y-104338004D01*
X110807070Y-104372994D01*
X110783092Y-104417852D01*
X110779375Y-104426825D01*
X110775656Y-104435802D01*
X110760887Y-104484487D01*
X110760886Y-104484494D01*
X110743202Y-104573398D01*
X110743202Y-104573400D01*
X110741334Y-104585994D01*
X110741331Y-104586011D01*
X110739126Y-104608393D01*
X110739126Y-104608392D01*
X110738500Y-104621138D01*
X110738500Y-105579359D01*
X110721885Y-105639426D01*
X110722896Y-105639967D01*
X110697453Y-105687567D01*
X110697452Y-105687570D01*
X110690025Y-105705500D01*
X110690023Y-105705506D01*
X110675253Y-105754195D01*
X110675251Y-105754204D01*
X110667001Y-105795688D01*
X110665132Y-105808283D01*
X110665132Y-105808284D01*
X110662946Y-105830477D01*
X110662925Y-105830686D01*
X110662363Y-105842133D01*
X110662300Y-105843419D01*
X110662300Y-107164061D01*
X110662926Y-107176807D01*
X110662926Y-107176809D01*
X110665129Y-107199178D01*
X110665346Y-107200639D01*
X110667000Y-107211788D01*
X110667001Y-107211791D01*
X110667003Y-107211803D01*
X110667003Y-107211806D01*
X110684686Y-107300704D01*
X110684687Y-107300711D01*
X110699457Y-107349399D01*
X110699458Y-107349402D01*
X110706887Y-107367337D01*
X110706889Y-107367342D01*
X110706893Y-107367350D01*
X110730872Y-107412208D01*
X110730878Y-107412218D01*
X110730885Y-107412229D01*
X110774918Y-107478129D01*
X110774923Y-107478135D01*
X110774925Y-107478138D01*
X110807197Y-107517462D01*
X110807204Y-107517469D01*
X110807213Y-107517479D01*
X110820919Y-107531185D01*
X110820928Y-107531193D01*
X110820937Y-107531202D01*
X110860261Y-107563474D01*
X110860264Y-107563476D01*
X110860269Y-107563480D01*
X110926169Y-107607513D01*
X110926176Y-107607517D01*
X110926191Y-107607527D01*
X110971049Y-107631506D01*
X110971060Y-107631510D01*
X110971061Y-107631511D01*
X110988997Y-107638941D01*
X110988999Y-107638941D01*
X110989000Y-107638942D01*
X111037685Y-107653710D01*
X111126609Y-107671399D01*
X111126612Y-107671399D01*
X111126620Y-107671401D01*
X111139195Y-107673267D01*
X111139197Y-107673267D01*
X111139201Y-107673267D01*
X111139212Y-107673269D01*
X111158510Y-107675169D01*
X111161597Y-107675474D01*
X111161599Y-107675474D01*
X111161608Y-107675475D01*
X111174334Y-107676100D01*
X111174338Y-107676100D01*
X116028662Y-107676100D01*
X116028666Y-107676100D01*
X116041392Y-107675475D01*
X116041400Y-107675474D01*
X116041403Y-107675474D01*
X116044489Y-107675169D01*
X116063788Y-107673269D01*
X116063798Y-107673267D01*
X116063803Y-107673267D01*
X116063805Y-107673267D01*
X116076380Y-107671401D01*
X116076387Y-107671399D01*
X116076391Y-107671399D01*
X116165315Y-107653710D01*
X116213999Y-107638942D01*
X116231950Y-107631506D01*
X116276808Y-107607527D01*
X116289160Y-107599274D01*
X116342729Y-107563480D01*
X116342728Y-107563480D01*
X116342738Y-107563474D01*
X116382062Y-107531202D01*
X116395802Y-107517462D01*
X116428074Y-107478138D01*
X116472127Y-107412208D01*
X116496106Y-107367350D01*
X116503542Y-107349399D01*
X116518310Y-107300715D01*
X116535999Y-107211791D01*
X116537654Y-107200639D01*
X116537867Y-107199205D01*
X116537867Y-107199203D01*
X116537867Y-107199198D01*
X116537869Y-107199188D01*
X116540075Y-107176792D01*
X116540700Y-107164066D01*
X116540700Y-105941933D01*
X116540075Y-105929207D01*
X116537869Y-105906811D01*
X116537867Y-105906796D01*
X116537867Y-105906794D01*
X116536001Y-105894219D01*
X116534737Y-105887864D01*
X116518310Y-105805284D01*
X116503542Y-105756600D01*
X116496106Y-105738649D01*
X116472127Y-105693791D01*
X116472117Y-105693776D01*
X116472113Y-105693769D01*
X116428080Y-105627869D01*
X116428076Y-105627864D01*
X116428074Y-105627861D01*
X116395802Y-105588537D01*
X116395793Y-105588528D01*
X116395785Y-105588519D01*
X116382079Y-105574813D01*
X116382069Y-105574804D01*
X116382062Y-105574797D01*
X116342738Y-105542525D01*
X116342735Y-105542523D01*
X116342729Y-105542518D01*
X116276829Y-105498485D01*
X116276818Y-105498478D01*
X116276808Y-105498472D01*
X116231950Y-105474493D01*
X116231942Y-105474489D01*
X116231937Y-105474487D01*
X116214002Y-105467058D01*
X116213999Y-105467057D01*
X116165311Y-105452287D01*
X116165304Y-105452286D01*
X116076406Y-105434603D01*
X116076403Y-105434603D01*
X116076388Y-105434600D01*
X116063788Y-105432731D01*
X116063789Y-105432731D01*
X116063775Y-105432729D01*
X116063778Y-105432729D01*
X116041409Y-105430526D01*
X116041407Y-105430526D01*
X116041401Y-105430525D01*
X116041394Y-105430525D01*
X116028666Y-105429900D01*
X116028661Y-105429900D01*
X112145500Y-105429900D01*
X112077379Y-105409898D01*
X112030886Y-105356242D01*
X112019500Y-105303900D01*
X112019500Y-104621137D01*
X112018874Y-104608405D01*
X112016669Y-104586011D01*
X112016667Y-104585996D01*
X112016667Y-104585994D01*
X112014801Y-104573419D01*
X112014797Y-104573398D01*
X111997110Y-104484484D01*
X111982342Y-104435800D01*
X111974906Y-104417849D01*
X111950927Y-104372991D01*
X111906874Y-104307061D01*
X111906870Y-104307056D01*
X111905690Y-104305464D01*
X111905546Y-104305075D01*
X111905156Y-104304490D01*
X111905297Y-104304395D01*
X111881182Y-104238832D01*
X111880900Y-104230414D01*
X111880900Y-103672817D01*
X111900902Y-103604696D01*
X111917805Y-103583722D01*
X112335122Y-103166405D01*
X112397434Y-103132379D01*
X112424217Y-103129500D01*
X118062334Y-103129500D01*
X118130455Y-103149502D01*
X118175123Y-103199335D01*
X118177909Y-103204931D01*
X118177913Y-103204937D01*
X118301266Y-103368284D01*
X118452535Y-103506184D01*
X118452537Y-103506185D01*
X118452538Y-103506186D01*
X118476629Y-103521102D01*
X118524017Y-103573967D01*
X118536300Y-103628230D01*
X118536300Y-104153769D01*
X118516298Y-104221890D01*
X118476633Y-104260894D01*
X118459441Y-104271539D01*
X118452536Y-104275815D01*
X118452531Y-104275819D01*
X118301269Y-104413712D01*
X118177913Y-104577063D01*
X118086671Y-104760301D01*
X118030654Y-104957180D01*
X118011768Y-105160995D01*
X118011768Y-105161004D01*
X118030654Y-105364819D01*
X118086671Y-105561698D01*
X118086672Y-105561701D01*
X118177912Y-105744935D01*
X118177913Y-105744936D01*
X118301266Y-105908284D01*
X118452535Y-106046184D01*
X118452537Y-106046185D01*
X118452538Y-106046186D01*
X118476629Y-106061102D01*
X118524017Y-106113967D01*
X118536300Y-106168230D01*
X118536300Y-106693769D01*
X118516298Y-106761890D01*
X118476633Y-106800894D01*
X118459441Y-106811539D01*
X118452536Y-106815815D01*
X118452531Y-106815819D01*
X118301269Y-106953712D01*
X118177913Y-107117063D01*
X118086671Y-107300301D01*
X118030654Y-107497180D01*
X118011768Y-107700995D01*
X118011768Y-107701004D01*
X118030654Y-107904819D01*
X118083136Y-108089273D01*
X118086672Y-108101701D01*
X118177912Y-108284935D01*
X118177913Y-108284936D01*
X118301266Y-108448284D01*
X118452535Y-108586184D01*
X118452537Y-108586185D01*
X118452538Y-108586186D01*
X118476629Y-108601102D01*
X118524017Y-108653967D01*
X118536300Y-108708230D01*
X118536300Y-109233769D01*
X118516298Y-109301890D01*
X118476633Y-109340894D01*
X118460557Y-109350849D01*
X118452536Y-109355815D01*
X118452531Y-109355819D01*
X118301269Y-109493712D01*
X118177913Y-109657063D01*
X118086671Y-109840301D01*
X118030654Y-110037180D01*
X118011768Y-110240995D01*
X118011768Y-110241004D01*
X118030654Y-110444819D01*
X118057999Y-110540926D01*
X118086672Y-110641701D01*
X118177912Y-110824935D01*
X118177913Y-110824936D01*
X118301266Y-110988284D01*
X118452535Y-111126184D01*
X118452537Y-111126185D01*
X118452538Y-111126186D01*
X118476629Y-111141102D01*
X118524017Y-111193967D01*
X118536300Y-111248230D01*
X118536300Y-111773769D01*
X118516298Y-111841890D01*
X118476633Y-111880894D01*
X118459441Y-111891539D01*
X118452536Y-111895815D01*
X118452531Y-111895819D01*
X118301269Y-112033712D01*
X118177913Y-112197063D01*
X118086671Y-112380301D01*
X118030654Y-112577180D01*
X118011768Y-112780995D01*
X118011768Y-112781004D01*
X118030654Y-112984819D01*
X118059886Y-113087558D01*
X118086672Y-113181701D01*
X118177912Y-113364935D01*
X118177913Y-113364936D01*
X118301266Y-113528284D01*
X118452535Y-113666184D01*
X118452537Y-113666185D01*
X118452538Y-113666186D01*
X118476629Y-113681102D01*
X118524017Y-113733967D01*
X118536300Y-113788230D01*
X118536300Y-114313769D01*
X118516298Y-114381890D01*
X118476633Y-114420894D01*
X118459441Y-114431539D01*
X118452536Y-114435815D01*
X118452531Y-114435819D01*
X118301269Y-114573712D01*
X118177913Y-114737063D01*
X118086671Y-114920301D01*
X118030654Y-115117180D01*
X118011768Y-115320995D01*
X118011768Y-115321004D01*
X118030654Y-115524819D01*
X118059886Y-115627558D01*
X118086672Y-115721701D01*
X118177912Y-115904935D01*
X118177913Y-115904936D01*
X118301266Y-116068284D01*
X118452535Y-116206184D01*
X118452537Y-116206185D01*
X118452538Y-116206186D01*
X118476629Y-116221102D01*
X118524017Y-116273967D01*
X118536300Y-116328230D01*
X118536300Y-116853769D01*
X118516298Y-116921890D01*
X118476633Y-116960894D01*
X118459441Y-116971539D01*
X118452536Y-116975815D01*
X118452531Y-116975819D01*
X118301269Y-117113712D01*
X118177913Y-117277063D01*
X118086672Y-117460298D01*
X118083290Y-117472186D01*
X118045408Y-117532232D01*
X117981077Y-117562266D01*
X117910721Y-117552752D01*
X117856677Y-117506710D01*
X117836104Y-117438760D01*
X117836100Y-117437703D01*
X117836100Y-116914737D01*
X117835474Y-116901995D01*
X117835474Y-116901996D01*
X117833269Y-116879611D01*
X117833267Y-116879596D01*
X117833267Y-116879594D01*
X117831401Y-116867019D01*
X117824017Y-116829900D01*
X117813710Y-116778084D01*
X117798942Y-116729400D01*
X117791506Y-116711449D01*
X117767527Y-116666591D01*
X117767517Y-116666576D01*
X117767513Y-116666569D01*
X117723480Y-116600669D01*
X117723476Y-116600664D01*
X117723474Y-116600661D01*
X117691202Y-116561337D01*
X117691193Y-116561328D01*
X117691185Y-116561319D01*
X117677479Y-116547613D01*
X117677469Y-116547604D01*
X117677462Y-116547597D01*
X117638138Y-116515325D01*
X117638135Y-116515323D01*
X117638129Y-116515318D01*
X117572229Y-116471285D01*
X117572218Y-116471278D01*
X117572208Y-116471272D01*
X117527350Y-116447293D01*
X117527342Y-116447289D01*
X117527337Y-116447287D01*
X117509402Y-116439858D01*
X117509399Y-116439857D01*
X117460711Y-116425087D01*
X117460704Y-116425086D01*
X117371806Y-116407403D01*
X117371803Y-116407403D01*
X117371788Y-116407400D01*
X117359188Y-116405531D01*
X117359189Y-116405531D01*
X117359175Y-116405529D01*
X117359178Y-116405529D01*
X117336809Y-116403326D01*
X117336807Y-116403326D01*
X117336801Y-116403325D01*
X117336794Y-116403325D01*
X117324066Y-116402700D01*
X92632334Y-116402700D01*
X92619606Y-116403325D01*
X92619598Y-116403325D01*
X92619593Y-116403326D01*
X92597232Y-116405529D01*
X92597212Y-116405531D01*
X92584611Y-116407401D01*
X92556487Y-116412994D01*
X92530879Y-116418088D01*
X92460165Y-116411759D01*
X92404099Y-116368204D01*
X92380481Y-116301251D01*
X92380300Y-116294509D01*
X92380300Y-108962603D01*
X96057071Y-108962603D01*
X96061017Y-108990044D01*
X96062300Y-109007978D01*
X96062300Y-109035713D01*
X96062301Y-109035715D01*
X96063679Y-109040409D01*
X96068461Y-109066911D01*
X96068810Y-109071801D01*
X96068811Y-109071806D01*
X96070526Y-109076403D01*
X96077181Y-109102478D01*
X96077879Y-109107329D01*
X96077880Y-109107334D01*
X96089402Y-109132565D01*
X96095679Y-109149394D01*
X96103496Y-109176013D01*
X96103497Y-109176016D01*
X96106143Y-109180133D01*
X96118198Y-109204216D01*
X96119908Y-109208802D01*
X96119910Y-109208806D01*
X96122848Y-109212730D01*
X96136588Y-109235888D01*
X96138622Y-109240342D01*
X96138624Y-109240346D01*
X96156784Y-109261303D01*
X96167558Y-109275695D01*
X96182550Y-109299023D01*
X96182549Y-109299023D01*
X96203508Y-109317184D01*
X96216216Y-109329892D01*
X96234376Y-109350849D01*
X96234380Y-109350853D01*
X96238495Y-109353497D01*
X96259471Y-109370401D01*
X98096888Y-111207818D01*
X98130914Y-111270130D01*
X98125849Y-111340945D01*
X98087311Y-111394652D01*
X97967976Y-111491739D01*
X97967970Y-111491745D01*
X97884161Y-111610475D01*
X97884159Y-111610480D01*
X97835491Y-111747419D01*
X97835490Y-111747425D01*
X97826120Y-111884416D01*
X97825573Y-111892419D01*
X97854935Y-112033715D01*
X97855144Y-112034720D01*
X97855145Y-112034721D01*
X97922004Y-112163753D01*
X97922007Y-112163758D01*
X98021207Y-112269975D01*
X98145385Y-112345489D01*
X98285332Y-112384700D01*
X98285333Y-112384700D01*
X98394167Y-112384700D01*
X98394180Y-112384699D01*
X98477019Y-112373312D01*
X98501983Y-112369881D01*
X98635287Y-112311979D01*
X98748026Y-112220259D01*
X98831839Y-112101523D01*
X98853452Y-112040708D01*
X98895109Y-111983222D01*
X98961236Y-111957381D01*
X98996757Y-111959325D01*
X99052933Y-111970500D01*
X100553066Y-111970499D01*
X100553069Y-111970498D01*
X100553073Y-111970498D01*
X100619020Y-111957381D01*
X100627301Y-111955734D01*
X100711484Y-111899484D01*
X100767734Y-111815301D01*
X100782500Y-111741067D01*
X100782499Y-111090934D01*
X100767734Y-111016699D01*
X100767733Y-111016697D01*
X100767511Y-111015581D01*
X100767511Y-110966417D01*
X100767732Y-110965303D01*
X100767734Y-110965301D01*
X100782500Y-110891067D01*
X100782499Y-110540934D01*
X100782498Y-110540931D01*
X100782498Y-110540926D01*
X100772484Y-110490580D01*
X100772483Y-110441421D01*
X100782500Y-110391067D01*
X100782499Y-110040934D01*
X100782498Y-110040931D01*
X100782498Y-110040926D01*
X100772484Y-109990580D01*
X100772483Y-109941421D01*
X100782500Y-109891067D01*
X100782499Y-109540934D01*
X100782498Y-109540931D01*
X100782498Y-109540926D01*
X100772484Y-109490580D01*
X100772483Y-109441421D01*
X100782500Y-109391067D01*
X100782499Y-109040934D01*
X100782498Y-109040931D01*
X100782498Y-109040926D01*
X100772484Y-108990580D01*
X100772483Y-108941421D01*
X100782500Y-108891067D01*
X100782499Y-108540934D01*
X100782498Y-108540931D01*
X100782498Y-108540926D01*
X100772484Y-108490580D01*
X100772483Y-108441421D01*
X100782500Y-108391067D01*
X100782499Y-108040934D01*
X100782498Y-108040931D01*
X100782498Y-108040926D01*
X100772484Y-107990580D01*
X100772483Y-107941421D01*
X100782500Y-107891067D01*
X100782499Y-107540934D01*
X100782498Y-107540931D01*
X100782498Y-107540926D01*
X100772484Y-107490580D01*
X100772483Y-107441421D01*
X100782500Y-107391067D01*
X100782499Y-107158499D01*
X100802501Y-107090380D01*
X100856156Y-107043887D01*
X100908499Y-107032500D01*
X101352484Y-107032500D01*
X101378326Y-107035178D01*
X101446166Y-107049396D01*
X101454456Y-107051735D01*
X101519452Y-107074981D01*
X101526642Y-107078070D01*
X101571179Y-107100594D01*
X101597461Y-107113886D01*
X101603504Y-107117374D01*
X101680206Y-107167522D01*
X101685133Y-107171095D01*
X101692430Y-107176946D01*
X101726000Y-107223381D01*
X101727140Y-107222760D01*
X101731457Y-107230667D01*
X101793043Y-107312936D01*
X101818396Y-107346804D01*
X101934533Y-107433742D01*
X102070458Y-107484440D01*
X102130545Y-107490900D01*
X102752054Y-107490899D01*
X102812142Y-107484440D01*
X102948067Y-107433742D01*
X103064204Y-107346804D01*
X103151142Y-107230667D01*
X103156240Y-107216997D01*
X103198782Y-107160164D01*
X103265301Y-107135350D01*
X103334676Y-107150439D01*
X103384880Y-107200639D01*
X103394869Y-107224452D01*
X103409648Y-107273170D01*
X103409656Y-107273194D01*
X103417087Y-107291136D01*
X103417088Y-107291137D01*
X103428741Y-107312939D01*
X103441071Y-107336008D01*
X103441076Y-107336017D01*
X103480114Y-107394440D01*
X103485125Y-107401939D01*
X103517397Y-107441262D01*
X103531137Y-107455002D01*
X103570461Y-107487274D01*
X103570464Y-107487276D01*
X103570469Y-107487280D01*
X103636369Y-107531313D01*
X103636376Y-107531317D01*
X103636391Y-107531327D01*
X103681249Y-107555306D01*
X103681260Y-107555310D01*
X103681261Y-107555311D01*
X103699197Y-107562741D01*
X103699199Y-107562741D01*
X103699200Y-107562742D01*
X103747885Y-107577510D01*
X103836809Y-107595199D01*
X103836812Y-107595199D01*
X103836820Y-107595201D01*
X103849395Y-107597067D01*
X103849397Y-107597067D01*
X103849401Y-107597067D01*
X103849412Y-107597069D01*
X103868710Y-107598969D01*
X103871797Y-107599274D01*
X103871799Y-107599274D01*
X103871808Y-107599275D01*
X103884534Y-107599900D01*
X104999100Y-107599900D01*
X105067221Y-107619902D01*
X105113714Y-107673558D01*
X105125100Y-107725900D01*
X105125100Y-108481256D01*
X105125284Y-108485010D01*
X105125726Y-108493997D01*
X105126081Y-108497596D01*
X105127931Y-108516378D01*
X105129801Y-108528979D01*
X105132623Y-108543166D01*
X105147486Y-108617894D01*
X105147487Y-108617899D01*
X105147488Y-108617901D01*
X105162255Y-108666582D01*
X105164053Y-108670922D01*
X105169691Y-108684535D01*
X105177128Y-108698448D01*
X105193671Y-108729396D01*
X105193676Y-108729404D01*
X105193677Y-108729405D01*
X105193682Y-108729414D01*
X105206899Y-108749194D01*
X105244038Y-108804777D01*
X105250437Y-108813406D01*
X105251622Y-108815003D01*
X105251624Y-108815006D01*
X105265894Y-108832398D01*
X105265892Y-108832395D01*
X105265899Y-108832403D01*
X105274460Y-108841848D01*
X105445893Y-109013281D01*
X105479917Y-109075591D01*
X105474853Y-109146407D01*
X105445892Y-109191470D01*
X105416094Y-109221268D01*
X105353782Y-109255294D01*
X105282967Y-109250229D01*
X105237904Y-109221268D01*
X105183795Y-109167159D01*
X105115899Y-109132565D01*
X105073862Y-109111146D01*
X104982653Y-109096700D01*
X104982649Y-109096700D01*
X104651348Y-109096700D01*
X104560139Y-109111145D01*
X104450203Y-109167160D01*
X104426580Y-109190781D01*
X104420027Y-109196487D01*
X104374941Y-109230583D01*
X104369920Y-109234012D01*
X104337728Y-109253792D01*
X104331662Y-109257076D01*
X104304951Y-109269701D01*
X104297815Y-109272556D01*
X104276339Y-109279662D01*
X104268244Y-109281757D01*
X104244101Y-109286322D01*
X104238314Y-109287417D01*
X104238313Y-109287417D01*
X104237844Y-109287506D01*
X104221160Y-109289069D01*
X104221177Y-109289270D01*
X104215993Y-109289699D01*
X104200403Y-109292300D01*
X104192583Y-109293605D01*
X104187988Y-109294177D01*
X104137244Y-109300503D01*
X104129532Y-109302800D01*
X104122017Y-109305380D01*
X104072953Y-109331931D01*
X104022853Y-109356424D01*
X104016336Y-109361077D01*
X104010040Y-109365978D01*
X104010038Y-109365979D01*
X104010038Y-109365980D01*
X103993696Y-109383732D01*
X103972259Y-109407018D01*
X103818702Y-109560573D01*
X103813586Y-109565160D01*
X103795483Y-109579689D01*
X103792900Y-109582217D01*
X103779916Y-109592642D01*
X103776441Y-109595842D01*
X103754296Y-109624293D01*
X103749136Y-109630138D01*
X103746292Y-109632983D01*
X103732499Y-109652300D01*
X103698240Y-109696316D01*
X103694438Y-109703342D01*
X103690163Y-109712087D01*
X103684330Y-109727205D01*
X103645370Y-109808485D01*
X103645370Y-109808486D01*
X103639815Y-109821970D01*
X103634150Y-109838259D01*
X103634149Y-109838262D01*
X103630122Y-109852369D01*
X103630120Y-109852378D01*
X103613990Y-109923991D01*
X103609891Y-109942188D01*
X103594270Y-110020705D01*
X103592275Y-110028255D01*
X103560844Y-110123009D01*
X103559561Y-110128448D01*
X103558972Y-110128309D01*
X103551055Y-110155258D01*
X103545480Y-110167465D01*
X103545480Y-110167468D01*
X103524671Y-110312196D01*
X103524671Y-110312203D01*
X103545480Y-110456934D01*
X103545481Y-110456937D01*
X103550963Y-110468941D01*
X103558518Y-110495574D01*
X103559482Y-110495357D01*
X103560845Y-110501393D01*
X103592275Y-110596144D01*
X103594270Y-110603693D01*
X103600869Y-110636861D01*
X103609891Y-110682210D01*
X103630108Y-110771970D01*
X103634107Y-110785997D01*
X103634109Y-110786005D01*
X103638893Y-110799791D01*
X103639764Y-110802302D01*
X103639763Y-110802301D01*
X103645350Y-110815876D01*
X103645351Y-110815876D01*
X103689884Y-110908776D01*
X103697830Y-110922991D01*
X103708245Y-110939152D01*
X103710007Y-110941886D01*
X103713652Y-110948348D01*
X103723623Y-110968745D01*
X103728282Y-110975270D01*
X103733180Y-110981562D01*
X103771140Y-111016508D01*
X103776736Y-111022367D01*
X103799180Y-111049112D01*
X103803754Y-111054098D01*
X103811463Y-111062145D01*
X103817903Y-111066448D01*
X103836996Y-111082118D01*
X103998616Y-111243738D01*
X104015006Y-111263920D01*
X104021040Y-111273156D01*
X104049495Y-111295303D01*
X104055353Y-111300476D01*
X104058191Y-111303314D01*
X104060030Y-111304627D01*
X104077500Y-111317101D01*
X104116355Y-111347342D01*
X104121515Y-111351358D01*
X104121516Y-111351358D01*
X104128541Y-111355160D01*
X104135734Y-111358677D01*
X104189186Y-111374589D01*
X104241934Y-111392699D01*
X104241938Y-111392699D01*
X104241939Y-111392700D01*
X104241940Y-111392700D01*
X104249847Y-111394019D01*
X104268120Y-111396297D01*
X104267927Y-111397841D01*
X104325606Y-111412214D01*
X104329150Y-111414370D01*
X104358816Y-111433105D01*
X104362855Y-111435882D01*
X104412816Y-111473175D01*
X104424098Y-111481596D01*
X104424105Y-111481599D01*
X104425787Y-111482640D01*
X104448591Y-111500697D01*
X104452229Y-111504335D01*
X104452230Y-111504336D01*
X104509003Y-111533263D01*
X104563573Y-111561068D01*
X104655955Y-111575700D01*
X104998044Y-111575699D01*
X105090427Y-111561068D01*
X105201771Y-111504335D01*
X105290135Y-111415971D01*
X105346868Y-111304627D01*
X105361500Y-111212245D01*
X105361499Y-110810156D01*
X105346868Y-110717773D01*
X105305641Y-110636861D01*
X105290135Y-110606428D01*
X105201773Y-110518066D01*
X105201770Y-110518064D01*
X105081592Y-110456830D01*
X105082642Y-110454767D01*
X105035280Y-110422379D01*
X105007646Y-110356982D01*
X105019755Y-110287025D01*
X105067763Y-110234721D01*
X105075607Y-110230364D01*
X105183796Y-110175240D01*
X105237907Y-110121128D01*
X105300215Y-110087106D01*
X105371031Y-110092170D01*
X105416093Y-110121130D01*
X105470204Y-110175240D01*
X105580138Y-110231254D01*
X105671347Y-110245700D01*
X106002652Y-110245699D01*
X106093862Y-110231254D01*
X106203796Y-110175240D01*
X106286000Y-110093034D01*
X106290411Y-110089024D01*
X106307165Y-110075192D01*
X106371796Y-110047326D01*
X106415360Y-110041896D01*
X106415361Y-110041895D01*
X106415363Y-110041895D01*
X106423011Y-110039617D01*
X106430584Y-110037018D01*
X106430586Y-110037018D01*
X106479634Y-110010474D01*
X106482204Y-110009216D01*
X106489848Y-110005480D01*
X106559825Y-109993524D01*
X106625163Y-110021301D01*
X106665111Y-110079992D01*
X106666987Y-110150964D01*
X106649963Y-110188670D01*
X106644466Y-110196896D01*
X106629700Y-110271130D01*
X106629700Y-110971263D01*
X106629701Y-110971273D01*
X106644465Y-111045500D01*
X106700716Y-111129684D01*
X106784897Y-111185933D01*
X106784899Y-111185934D01*
X106859133Y-111200700D01*
X107452059Y-111200699D01*
X107482078Y-111204326D01*
X107536117Y-111217584D01*
X107546678Y-111220175D01*
X107552894Y-111222044D01*
X107628283Y-111249016D01*
X107633873Y-111251324D01*
X107712660Y-111288372D01*
X107717564Y-111290947D01*
X107730139Y-111298275D01*
X107778924Y-111349852D01*
X107792700Y-111407139D01*
X107792700Y-111557871D01*
X107787312Y-111594322D01*
X107773368Y-111640461D01*
X107749535Y-111711610D01*
X107727165Y-111771163D01*
X107726123Y-111773759D01*
X107705997Y-111820826D01*
X107704509Y-111824053D01*
X107685921Y-111861524D01*
X107685918Y-111861531D01*
X107676129Y-111889716D01*
X107672748Y-111897651D01*
X107664146Y-111914535D01*
X107664145Y-111914540D01*
X107649700Y-112005748D01*
X107649700Y-112437051D01*
X107664145Y-112528260D01*
X107719550Y-112637000D01*
X107720160Y-112638196D01*
X107807404Y-112725440D01*
X107917338Y-112781454D01*
X108008547Y-112795900D01*
X108339852Y-112795899D01*
X108431062Y-112781454D01*
X108540996Y-112725440D01*
X108564624Y-112701810D01*
X108571170Y-112696111D01*
X108576820Y-112691837D01*
X108576822Y-112691837D01*
X108616276Y-112661999D01*
X108621258Y-112658595D01*
X108653478Y-112638798D01*
X108659511Y-112635532D01*
X108686260Y-112622889D01*
X108693387Y-112620039D01*
X108701577Y-112617328D01*
X108714853Y-112612936D01*
X108722946Y-112610843D01*
X108753370Y-112605092D01*
X108776772Y-112602900D01*
X109277033Y-112602900D01*
X109300434Y-112605092D01*
X109300921Y-112605184D01*
X109330841Y-112610839D01*
X109338935Y-112612934D01*
X109360410Y-112620039D01*
X109367537Y-112622889D01*
X109378178Y-112627918D01*
X109431220Y-112675109D01*
X109442291Y-112697528D01*
X109454935Y-112731188D01*
X109459597Y-112745106D01*
X109463229Y-112755950D01*
X109465897Y-112826897D01*
X109463726Y-112834466D01*
X109459620Y-112847261D01*
X109454006Y-112864754D01*
X109443385Y-112894156D01*
X109431587Y-112926820D01*
X109430565Y-112929461D01*
X109410402Y-112978294D01*
X109408925Y-112981599D01*
X109390448Y-113019942D01*
X109390444Y-113019953D01*
X109384208Y-113039144D01*
X109376647Y-113057400D01*
X109369733Y-113070970D01*
X109369732Y-113070971D01*
X109355100Y-113163358D01*
X109355100Y-113565442D01*
X109369731Y-113657825D01*
X109426464Y-113769171D01*
X109514826Y-113857533D01*
X109514829Y-113857535D01*
X109626173Y-113914268D01*
X109718555Y-113928900D01*
X110060644Y-113928899D01*
X110153027Y-113914268D01*
X110264371Y-113857535D01*
X110280505Y-113841400D01*
X110342814Y-113807376D01*
X110413630Y-113812439D01*
X110458694Y-113841400D01*
X110474829Y-113857535D01*
X110586173Y-113914268D01*
X110678555Y-113928900D01*
X111020644Y-113928899D01*
X111113027Y-113914268D01*
X111224371Y-113857535D01*
X111228209Y-113853696D01*
X111243313Y-113840804D01*
X111279605Y-113814479D01*
X111284565Y-113811229D01*
X111324010Y-113787980D01*
X111329964Y-113784886D01*
X111364366Y-113769289D01*
X111371312Y-113766623D01*
X111400927Y-113757224D01*
X111408726Y-113755289D01*
X111446292Y-113748478D01*
X111446295Y-113748476D01*
X111449361Y-113747921D01*
X111471840Y-113745900D01*
X111525366Y-113745900D01*
X111551224Y-113748581D01*
X111562017Y-113750845D01*
X111597809Y-113746383D01*
X111605600Y-113745900D01*
X111609611Y-113745900D01*
X111633005Y-113741996D01*
X111640887Y-113741013D01*
X111688360Y-113735096D01*
X111688362Y-113735094D01*
X111696011Y-113732817D01*
X111703584Y-113730218D01*
X111703586Y-113730218D01*
X111752641Y-113703670D01*
X111802746Y-113679176D01*
X111802750Y-113679171D01*
X111809250Y-113674532D01*
X111815560Y-113669621D01*
X111815562Y-113669620D01*
X111853339Y-113628582D01*
X111936490Y-113545431D01*
X111943112Y-113539674D01*
X111961860Y-113525545D01*
X111992099Y-113491657D01*
X112017188Y-113470074D01*
X112021956Y-113466960D01*
X112044111Y-113438493D01*
X112049277Y-113432644D01*
X112052114Y-113429809D01*
X112065900Y-113410499D01*
X112100158Y-113366485D01*
X112100160Y-113366476D01*
X112103956Y-113359465D01*
X112107468Y-113352278D01*
X112107475Y-113352270D01*
X112113111Y-113333335D01*
X112124013Y-113307589D01*
X112123092Y-113309229D01*
X112122897Y-113309600D01*
X112126312Y-113302648D01*
X112129386Y-113296389D01*
X112129385Y-113296390D01*
X112129387Y-113296386D01*
X112134341Y-113284941D01*
X112166277Y-113200196D01*
X112169129Y-113191802D01*
X112172199Y-113181701D01*
X112177773Y-113163355D01*
X112195395Y-113105364D01*
X112196490Y-113102094D01*
X112234489Y-112998350D01*
X112234879Y-112996017D01*
X112244533Y-112964494D01*
X112252919Y-112946134D01*
X112273729Y-112801400D01*
X112273729Y-112801396D01*
X112252920Y-112656672D01*
X112252919Y-112656671D01*
X112252919Y-112656666D01*
X112243015Y-112634979D01*
X112233444Y-112603946D01*
X112232877Y-112600644D01*
X112232877Y-112600643D01*
X112191065Y-112491662D01*
X112171453Y-112437051D01*
X112158152Y-112400013D01*
X112153759Y-112389258D01*
X112135614Y-112349757D01*
X112132477Y-112341423D01*
X112128418Y-112327788D01*
X112125819Y-112320215D01*
X112099276Y-112271168D01*
X112074776Y-112221052D01*
X112070147Y-112214568D01*
X112065220Y-112208238D01*
X112024192Y-112170469D01*
X112010662Y-112156939D01*
X111939400Y-112079481D01*
X111939232Y-112079306D01*
X111937150Y-112077137D01*
X111933460Y-112073372D01*
X111933454Y-112073367D01*
X111924582Y-112067438D01*
X111905496Y-112051773D01*
X111842580Y-111988857D01*
X111826191Y-111968676D01*
X111826145Y-111968606D01*
X111820160Y-111959444D01*
X111791703Y-111937295D01*
X111785845Y-111932122D01*
X111783013Y-111929290D01*
X111783002Y-111929280D01*
X111763699Y-111915499D01*
X111719686Y-111881242D01*
X111712664Y-111877442D01*
X111705472Y-111873926D01*
X111705470Y-111873925D01*
X111705467Y-111873924D01*
X111652012Y-111858009D01*
X111599264Y-111839901D01*
X111599263Y-111839900D01*
X111599261Y-111839900D01*
X111599258Y-111839900D01*
X111591348Y-111838579D01*
X111583442Y-111837594D01*
X111527716Y-111839900D01*
X111502174Y-111839900D01*
X111478768Y-111837707D01*
X111461619Y-111834464D01*
X111448351Y-111831956D01*
X111440258Y-111829862D01*
X111418786Y-111822757D01*
X111411648Y-111819902D01*
X111384935Y-111807276D01*
X111378870Y-111803993D01*
X111346683Y-111784216D01*
X111341661Y-111780786D01*
X111296569Y-111746686D01*
X111290020Y-111740984D01*
X111266396Y-111717360D01*
X111266395Y-111717359D01*
X111211429Y-111689353D01*
X111156462Y-111661346D01*
X111065253Y-111646900D01*
X111065249Y-111646900D01*
X110733948Y-111646900D01*
X110642739Y-111661345D01*
X110532805Y-111717359D01*
X110478695Y-111771469D01*
X110416382Y-111805494D01*
X110345567Y-111800428D01*
X110300505Y-111771469D01*
X110275722Y-111746686D01*
X110246396Y-111717360D01*
X110246394Y-111717359D01*
X110246395Y-111717359D01*
X110191429Y-111689353D01*
X110136462Y-111661346D01*
X110045253Y-111646900D01*
X110045249Y-111646900D01*
X109713947Y-111646900D01*
X109673513Y-111653304D01*
X109603102Y-111644203D01*
X109548790Y-111598479D01*
X109529089Y-111546790D01*
X109509719Y-111412066D01*
X109495402Y-111380716D01*
X109486871Y-111355044D01*
X109486625Y-111353908D01*
X109491757Y-111283097D01*
X109534357Y-111226302D01*
X109587389Y-111205662D01*
X109586957Y-111203517D01*
X109588593Y-111203187D01*
X109595532Y-111202494D01*
X109597115Y-111201878D01*
X109599215Y-111201666D01*
X109599261Y-111202121D01*
X109613507Y-111200699D01*
X111169264Y-111200699D01*
X111169266Y-111200699D01*
X111169269Y-111200698D01*
X111169272Y-111200698D01*
X111205863Y-111193419D01*
X111243501Y-111185934D01*
X111327684Y-111129684D01*
X111383934Y-111045501D01*
X111398700Y-110971267D01*
X111398699Y-110271134D01*
X111398698Y-110271127D01*
X111398698Y-110271126D01*
X111383934Y-110196899D01*
X111369460Y-110175237D01*
X111327684Y-110112716D01*
X111327683Y-110112715D01*
X111243502Y-110056466D01*
X111169267Y-110041700D01*
X109559136Y-110041700D01*
X109559126Y-110041701D01*
X109484899Y-110056465D01*
X109400716Y-110112715D01*
X109348724Y-110190525D01*
X109294246Y-110236051D01*
X109259549Y-110245553D01*
X109219837Y-110250504D01*
X109212190Y-110252780D01*
X109204614Y-110255381D01*
X109155569Y-110281922D01*
X109105455Y-110306422D01*
X109098960Y-110311059D01*
X109092636Y-110315981D01*
X109054868Y-110357008D01*
X108913794Y-110498081D01*
X108851482Y-110532107D01*
X108780667Y-110527042D01*
X108723831Y-110484495D01*
X108699020Y-110417975D01*
X108698699Y-110408986D01*
X108698699Y-110271136D01*
X108698698Y-110271127D01*
X108683934Y-110196899D01*
X108669460Y-110175237D01*
X108627684Y-110112716D01*
X108627683Y-110112715D01*
X108543502Y-110056466D01*
X108469267Y-110041700D01*
X106859136Y-110041700D01*
X106859124Y-110041702D01*
X106785778Y-110056290D01*
X106715064Y-110049961D01*
X106658997Y-110006405D01*
X106635379Y-109939452D01*
X106651708Y-109870359D01*
X106672100Y-109843620D01*
X106683943Y-109831777D01*
X106704120Y-109815393D01*
X106713356Y-109809360D01*
X106735512Y-109780891D01*
X106740677Y-109775044D01*
X106743514Y-109772209D01*
X106757300Y-109752899D01*
X106791558Y-109708885D01*
X106791560Y-109708876D01*
X106795356Y-109701865D01*
X106798870Y-109694676D01*
X106798875Y-109694670D01*
X106810070Y-109657065D01*
X106814790Y-109641212D01*
X106832899Y-109588464D01*
X106834219Y-109580552D01*
X106835205Y-109572642D01*
X106833628Y-109534508D01*
X106850797Y-109465618D01*
X106902485Y-109416948D01*
X106959520Y-109403300D01*
X108307062Y-109403300D01*
X108307066Y-109403300D01*
X108319792Y-109402675D01*
X108319800Y-109402674D01*
X108319803Y-109402674D01*
X108322889Y-109402369D01*
X108342188Y-109400469D01*
X108342198Y-109400467D01*
X108342203Y-109400467D01*
X108342205Y-109400467D01*
X108354780Y-109398601D01*
X108354787Y-109398599D01*
X108354791Y-109398599D01*
X108443715Y-109380910D01*
X108492399Y-109366142D01*
X108510350Y-109358706D01*
X108555208Y-109334727D01*
X108621138Y-109290674D01*
X108660462Y-109258402D01*
X108674202Y-109244662D01*
X108706474Y-109205338D01*
X108750527Y-109139408D01*
X108774506Y-109094550D01*
X108781942Y-109076599D01*
X108796710Y-109027915D01*
X108814399Y-108938991D01*
X108814401Y-108938980D01*
X108816267Y-108926405D01*
X108816267Y-108926403D01*
X108816267Y-108926398D01*
X108816269Y-108926388D01*
X108818475Y-108903992D01*
X108819100Y-108891266D01*
X109214500Y-108891266D01*
X109215125Y-108903994D01*
X109217331Y-108926388D01*
X109217334Y-108926405D01*
X109219201Y-108938986D01*
X109219201Y-108938987D01*
X109236883Y-109027893D01*
X109236888Y-109027912D01*
X109251655Y-109076593D01*
X109251657Y-109076598D01*
X109259079Y-109094520D01*
X109259087Y-109094536D01*
X109283064Y-109139395D01*
X109283078Y-109139418D01*
X109327121Y-109205333D01*
X109327124Y-109205337D01*
X109327125Y-109205338D01*
X109359403Y-109244669D01*
X109373142Y-109258407D01*
X109412460Y-109290672D01*
X109425033Y-109299073D01*
X109425041Y-109299076D01*
X109425045Y-109299079D01*
X109493867Y-109331630D01*
X109493878Y-109331634D01*
X109499553Y-109333355D01*
X109521539Y-109340025D01*
X109596870Y-109351200D01*
X111114406Y-109351200D01*
X111168279Y-109363297D01*
X111211483Y-109383732D01*
X111211489Y-109383733D01*
X111211492Y-109383735D01*
X111219212Y-109386076D01*
X111239150Y-109392125D01*
X111314481Y-109403300D01*
X111904237Y-109403300D01*
X111972358Y-109423302D01*
X112004880Y-109453492D01*
X112620759Y-110271136D01*
X113333659Y-111217586D01*
X113343367Y-111229033D01*
X113361646Y-111248218D01*
X113361644Y-111248217D01*
X113372618Y-111258476D01*
X113372619Y-111258477D01*
X113379162Y-111263920D01*
X113422363Y-111299860D01*
X113422365Y-111299861D01*
X113422366Y-111299862D01*
X113446979Y-111315927D01*
X113472511Y-111332591D01*
X113492943Y-111342781D01*
X113549264Y-111363147D01*
X113549270Y-111363148D01*
X113549272Y-111363149D01*
X113612246Y-111377982D01*
X113612245Y-111377982D01*
X113627041Y-111380575D01*
X113627042Y-111380575D01*
X113653362Y-111383632D01*
X113653371Y-111383633D01*
X113665693Y-111384346D01*
X113668351Y-111384500D01*
X113668353Y-111384500D01*
X116054062Y-111384500D01*
X116054066Y-111384500D01*
X116066792Y-111383875D01*
X116066800Y-111383874D01*
X116066803Y-111383874D01*
X116069889Y-111383569D01*
X116089188Y-111381669D01*
X116089198Y-111381667D01*
X116089203Y-111381667D01*
X116089205Y-111381667D01*
X116101780Y-111379801D01*
X116101787Y-111379799D01*
X116101791Y-111379799D01*
X116190715Y-111362110D01*
X116239399Y-111347342D01*
X116257350Y-111339906D01*
X116302208Y-111315927D01*
X116368138Y-111271874D01*
X116407462Y-111239602D01*
X116421202Y-111225862D01*
X116453474Y-111186538D01*
X116497527Y-111120608D01*
X116521506Y-111075750D01*
X116528942Y-111057799D01*
X116543710Y-111009115D01*
X116561399Y-110920191D01*
X116561401Y-110920180D01*
X116563267Y-110907605D01*
X116563267Y-110907603D01*
X116563267Y-110907598D01*
X116563269Y-110907588D01*
X116565475Y-110885192D01*
X116566100Y-110872466D01*
X116566100Y-109577743D01*
X116565475Y-109565017D01*
X116563269Y-109542621D01*
X116563267Y-109542606D01*
X116563267Y-109542604D01*
X116561401Y-109530029D01*
X116561399Y-109530018D01*
X116543710Y-109441094D01*
X116528942Y-109392411D01*
X116528823Y-109392124D01*
X116521507Y-109374462D01*
X116519336Y-109370401D01*
X116497528Y-109329603D01*
X116497521Y-109329592D01*
X116497515Y-109329582D01*
X116458605Y-109271350D01*
X116447161Y-109254222D01*
X116439575Y-109243993D01*
X116425307Y-109226604D01*
X116422557Y-109223570D01*
X116416739Y-109217151D01*
X115369648Y-108170060D01*
X115360203Y-108161499D01*
X115360197Y-108161494D01*
X115360198Y-108161494D01*
X115342806Y-108147224D01*
X115342803Y-108147222D01*
X115332581Y-108139641D01*
X115257216Y-108089283D01*
X115257201Y-108089274D01*
X115257196Y-108089271D01*
X115231436Y-108075501D01*
X115212336Y-108065291D01*
X115194393Y-108057859D01*
X115194388Y-108057857D01*
X115145702Y-108043088D01*
X115145688Y-108043084D01*
X115067739Y-108027581D01*
X115056778Y-108025401D01*
X115044180Y-108023531D01*
X115021797Y-108021326D01*
X115021791Y-108021325D01*
X115021784Y-108021325D01*
X115009056Y-108020700D01*
X109726534Y-108020700D01*
X109713806Y-108021325D01*
X109713798Y-108021325D01*
X109713793Y-108021326D01*
X109691432Y-108023529D01*
X109691412Y-108023531D01*
X109678811Y-108025401D01*
X109640799Y-108032961D01*
X109589890Y-108043087D01*
X109589871Y-108043091D01*
X109541229Y-108057847D01*
X109541202Y-108057856D01*
X109523271Y-108065283D01*
X109523265Y-108065286D01*
X109523263Y-108065287D01*
X109523256Y-108065291D01*
X109478387Y-108089273D01*
X109412462Y-108133323D01*
X109373135Y-108165598D01*
X109373116Y-108165615D01*
X109359415Y-108179316D01*
X109359398Y-108179335D01*
X109327123Y-108218662D01*
X109283073Y-108284587D01*
X109265591Y-108317294D01*
X109259095Y-108329449D01*
X109259083Y-108329471D01*
X109251656Y-108347402D01*
X109251647Y-108347429D01*
X109236891Y-108396071D01*
X109236887Y-108396090D01*
X109227872Y-108441417D01*
X109219201Y-108485010D01*
X109217331Y-108497611D01*
X109215125Y-108520005D01*
X109214500Y-108532733D01*
X109214500Y-108891266D01*
X108819100Y-108891266D01*
X108819100Y-108532733D01*
X108818475Y-108520007D01*
X108816269Y-108497611D01*
X108816267Y-108497596D01*
X108816267Y-108497594D01*
X108814401Y-108485019D01*
X108814399Y-108485008D01*
X108796710Y-108396084D01*
X108781942Y-108347400D01*
X108774506Y-108329449D01*
X108750527Y-108284591D01*
X108750517Y-108284576D01*
X108750513Y-108284569D01*
X108706480Y-108218669D01*
X108706476Y-108218664D01*
X108706474Y-108218661D01*
X108674202Y-108179337D01*
X108674193Y-108179328D01*
X108674185Y-108179319D01*
X108660479Y-108165613D01*
X108660469Y-108165604D01*
X108660462Y-108165597D01*
X108621138Y-108133325D01*
X108621135Y-108133323D01*
X108621129Y-108133318D01*
X108555229Y-108089285D01*
X108555218Y-108089278D01*
X108555208Y-108089272D01*
X108510350Y-108065293D01*
X108510342Y-108065289D01*
X108510337Y-108065287D01*
X108492402Y-108057858D01*
X108492399Y-108057857D01*
X108443711Y-108043087D01*
X108443704Y-108043086D01*
X108354806Y-108025403D01*
X108354803Y-108025403D01*
X108354788Y-108025400D01*
X108342188Y-108023531D01*
X108342189Y-108023531D01*
X108342175Y-108023529D01*
X108342178Y-108023529D01*
X108319809Y-108021326D01*
X108319807Y-108021326D01*
X108319801Y-108021325D01*
X108319794Y-108021325D01*
X108307066Y-108020700D01*
X108307061Y-108020700D01*
X106557500Y-108020700D01*
X106489379Y-108000698D01*
X106442886Y-107947042D01*
X106431500Y-107894700D01*
X106431500Y-107830277D01*
X106451502Y-107762156D01*
X106468400Y-107741186D01*
X106739339Y-107470248D01*
X106747900Y-107460803D01*
X106747907Y-107460795D01*
X106747905Y-107460798D01*
X106762175Y-107443406D01*
X106762177Y-107443403D01*
X106763767Y-107441260D01*
X106769761Y-107433177D01*
X106795644Y-107394440D01*
X106820115Y-107357816D01*
X106820117Y-107357812D01*
X106820128Y-107357796D01*
X106844106Y-107312939D01*
X106851542Y-107294988D01*
X106866310Y-107246305D01*
X106883999Y-107157381D01*
X106885029Y-107150439D01*
X106885867Y-107144795D01*
X106885867Y-107144793D01*
X106885867Y-107144788D01*
X106885869Y-107144778D01*
X106888075Y-107122382D01*
X106888700Y-107109656D01*
X106888700Y-105764600D01*
X106868947Y-105665294D01*
X106854361Y-105630080D01*
X106854360Y-105630079D01*
X106852883Y-105627869D01*
X106847466Y-105619761D01*
X106798108Y-105545891D01*
X106713920Y-105489639D01*
X106678706Y-105475053D01*
X106675891Y-105474493D01*
X106579402Y-105455300D01*
X106579400Y-105455300D01*
X103884534Y-105455300D01*
X103871806Y-105455925D01*
X103871798Y-105455925D01*
X103871793Y-105455926D01*
X103849412Y-105458131D01*
X103836811Y-105460001D01*
X103801337Y-105467057D01*
X103747890Y-105477687D01*
X103747871Y-105477691D01*
X103699229Y-105492447D01*
X103699202Y-105492456D01*
X103681271Y-105499883D01*
X103681265Y-105499886D01*
X103681263Y-105499887D01*
X103669094Y-105506391D01*
X103636387Y-105523873D01*
X103570462Y-105567923D01*
X103531135Y-105600198D01*
X103531116Y-105600215D01*
X103517415Y-105613916D01*
X103517398Y-105613935D01*
X103485123Y-105653262D01*
X103441073Y-105719187D01*
X103417083Y-105764071D01*
X103409656Y-105782002D01*
X103409647Y-105782029D01*
X103394891Y-105830671D01*
X103394138Y-105833682D01*
X103392982Y-105833392D01*
X103362271Y-105892082D01*
X103300571Y-105927204D01*
X103229677Y-105923393D01*
X103172097Y-105881859D01*
X103153558Y-105848610D01*
X103152784Y-105846537D01*
X103151142Y-105842133D01*
X103064204Y-105725996D01*
X102948067Y-105639058D01*
X102948065Y-105639057D01*
X102948066Y-105639057D01*
X102812149Y-105588362D01*
X102812144Y-105588360D01*
X102812142Y-105588360D01*
X102782098Y-105585130D01*
X102752056Y-105581900D01*
X102130553Y-105581900D01*
X102130529Y-105581902D01*
X102070460Y-105588359D01*
X102070458Y-105588359D01*
X101934533Y-105639057D01*
X101818395Y-105725996D01*
X101726059Y-105849345D01*
X101724791Y-105848396D01*
X101700379Y-105877031D01*
X101690998Y-105884293D01*
X101685882Y-105887864D01*
X101609618Y-105935658D01*
X101603388Y-105939089D01*
X101533008Y-105972822D01*
X101525617Y-105975806D01*
X101460947Y-105997270D01*
X101452525Y-105999434D01*
X101408951Y-106007475D01*
X101378787Y-106013041D01*
X101378784Y-106013041D01*
X101376800Y-106013408D01*
X101353934Y-106015500D01*
X100870723Y-106015500D01*
X100837676Y-106011089D01*
X100835008Y-106010363D01*
X100793243Y-106007475D01*
X100790383Y-106007211D01*
X100744914Y-106001975D01*
X100742097Y-106001586D01*
X100715313Y-105997270D01*
X100694990Y-105993995D01*
X100678891Y-105990659D01*
X100656854Y-105986094D01*
X100634195Y-105979121D01*
X100627303Y-105976266D01*
X100553069Y-105961500D01*
X99052936Y-105961500D01*
X99052924Y-105961502D01*
X99001682Y-105971694D01*
X98930968Y-105965365D01*
X98874902Y-105921810D01*
X98865792Y-105904433D01*
X98864823Y-105904936D01*
X98793995Y-105768246D01*
X98793994Y-105768244D01*
X98793993Y-105768242D01*
X98694793Y-105662025D01*
X98694792Y-105662024D01*
X98625720Y-105620021D01*
X98570615Y-105586511D01*
X98430668Y-105547300D01*
X98321833Y-105547300D01*
X98321819Y-105547300D01*
X98214025Y-105562117D01*
X98214016Y-105562119D01*
X98080711Y-105620021D01*
X97967976Y-105711739D01*
X97967970Y-105711745D01*
X97884161Y-105830475D01*
X97884159Y-105830480D01*
X97835491Y-105967419D01*
X97835490Y-105967425D01*
X97830103Y-106046186D01*
X97825573Y-106112419D01*
X97840574Y-106184605D01*
X97855144Y-106254720D01*
X97855145Y-106254721D01*
X97922004Y-106383753D01*
X97922007Y-106383758D01*
X98021207Y-106489975D01*
X98076866Y-106523822D01*
X98124677Y-106576307D01*
X98136523Y-106646308D01*
X98108643Y-106711601D01*
X98100494Y-106720574D01*
X96290712Y-108530356D01*
X96270056Y-108545821D01*
X96270146Y-108545941D01*
X96262932Y-108551340D01*
X96259460Y-108554813D01*
X96238502Y-108571701D01*
X96234383Y-108574348D01*
X96234376Y-108574353D01*
X96216215Y-108595312D01*
X96203510Y-108608017D01*
X96182551Y-108626178D01*
X96182547Y-108626184D01*
X96179897Y-108630307D01*
X96163011Y-108651261D01*
X96159540Y-108654731D01*
X96159537Y-108654736D01*
X96157189Y-108659037D01*
X96141832Y-108681156D01*
X96138625Y-108684857D01*
X96138621Y-108684862D01*
X96127101Y-108710087D01*
X96118492Y-108725854D01*
X96103495Y-108749192D01*
X96103494Y-108749194D01*
X96102113Y-108753898D01*
X96091813Y-108778767D01*
X96089462Y-108783072D01*
X96089460Y-108783078D01*
X96088420Y-108787860D01*
X96079918Y-108813406D01*
X96077881Y-108817865D01*
X96077880Y-108817870D01*
X96073934Y-108845315D01*
X96070114Y-108862878D01*
X96062300Y-108889491D01*
X96062300Y-108894385D01*
X96059421Y-108921165D01*
X96058380Y-108925949D01*
X96058379Y-108925956D01*
X96058729Y-108930840D01*
X96057768Y-108957751D01*
X96057071Y-108962600D01*
X96057071Y-108962603D01*
X92380300Y-108962603D01*
X92380300Y-101599229D01*
X92400302Y-101531108D01*
X92453958Y-101484615D01*
X92524232Y-101474511D01*
X92565698Y-101488108D01*
X92606849Y-101510106D01*
X92606854Y-101510108D01*
X92624797Y-101517541D01*
X92624799Y-101517541D01*
X92624800Y-101517542D01*
X92673485Y-101532310D01*
X92762409Y-101549999D01*
X92762412Y-101549999D01*
X92762420Y-101550001D01*
X92774995Y-101551867D01*
X92774997Y-101551867D01*
X92775001Y-101551867D01*
X92775012Y-101551869D01*
X92794310Y-101553769D01*
X92797397Y-101554074D01*
X92797399Y-101554074D01*
X92797408Y-101554075D01*
X92810134Y-101554700D01*
X92810138Y-101554700D01*
X117501862Y-101554700D01*
X117501866Y-101554700D01*
X117514592Y-101554075D01*
X117514600Y-101554074D01*
X117514603Y-101554074D01*
X117517689Y-101553769D01*
X117536988Y-101551869D01*
X117536998Y-101551867D01*
X117537003Y-101551867D01*
X117537005Y-101551867D01*
X117549580Y-101550001D01*
X117549587Y-101549999D01*
X117549591Y-101549999D01*
X117638515Y-101532310D01*
X117687199Y-101517542D01*
X117705150Y-101510106D01*
X117750008Y-101486127D01*
X117815938Y-101442074D01*
X117855262Y-101409802D01*
X117869002Y-101396062D01*
X117901274Y-101356738D01*
X117945327Y-101290808D01*
X117969306Y-101245950D01*
X117976742Y-101227999D01*
X117991510Y-101179315D01*
X118009199Y-101090391D01*
X118009520Y-101088230D01*
X118011067Y-101077805D01*
X118011067Y-101077803D01*
X118011067Y-101077798D01*
X118011069Y-101077788D01*
X118013275Y-101055392D01*
X118013900Y-101042666D01*
X118013900Y-100823681D01*
X118033902Y-100755560D01*
X118087558Y-100709067D01*
X118157832Y-100698963D01*
X118222412Y-100728457D01*
G37*
%TD.AperFunction*%
%TA.AperFunction,Conductor*%
G36*
X118938001Y-96007102D02*
G01*
X118984494Y-96060758D01*
X118994598Y-96131032D01*
X118965104Y-96195612D01*
X118906456Y-96233674D01*
X118863029Y-96246847D01*
X118863002Y-96246856D01*
X118845071Y-96254283D01*
X118845065Y-96254286D01*
X118845063Y-96254287D01*
X118845050Y-96254294D01*
X118800187Y-96278273D01*
X118734262Y-96322323D01*
X118694935Y-96354598D01*
X118694916Y-96354615D01*
X118681215Y-96368316D01*
X118681196Y-96368337D01*
X118663061Y-96390435D01*
X118604383Y-96430403D01*
X118565663Y-96436500D01*
X118245936Y-96436500D01*
X118245926Y-96436501D01*
X118171699Y-96451265D01*
X118087515Y-96507516D01*
X118031266Y-96591697D01*
X118016500Y-96665930D01*
X118016500Y-98416063D01*
X118016501Y-98416073D01*
X118031265Y-98490300D01*
X118087516Y-98574484D01*
X118171697Y-98630733D01*
X118171699Y-98630734D01*
X118245933Y-98645500D01*
X118410300Y-98645499D01*
X118478420Y-98665501D01*
X118524913Y-98719156D01*
X118536300Y-98771499D01*
X118536300Y-99073769D01*
X118516298Y-99141890D01*
X118476633Y-99180894D01*
X118459441Y-99191539D01*
X118452536Y-99195815D01*
X118452531Y-99195819D01*
X118301268Y-99333712D01*
X118240450Y-99414250D01*
X118183436Y-99456558D01*
X118112600Y-99461325D01*
X118050431Y-99427038D01*
X118016668Y-99364584D01*
X118013900Y-99338318D01*
X118013900Y-99160137D01*
X118013274Y-99147395D01*
X118013274Y-99147396D01*
X118011069Y-99125011D01*
X118011067Y-99124996D01*
X118011067Y-99124994D01*
X118009201Y-99112419D01*
X118009199Y-99112408D01*
X117991510Y-99023484D01*
X117976742Y-98974800D01*
X117969306Y-98956849D01*
X117945327Y-98911991D01*
X117945317Y-98911976D01*
X117945313Y-98911969D01*
X117901280Y-98846069D01*
X117901276Y-98846064D01*
X117901274Y-98846061D01*
X117869002Y-98806737D01*
X117868993Y-98806728D01*
X117868985Y-98806719D01*
X117855279Y-98793013D01*
X117855269Y-98793004D01*
X117855262Y-98792997D01*
X117815938Y-98760725D01*
X117815935Y-98760723D01*
X117815929Y-98760718D01*
X117750029Y-98716685D01*
X117750018Y-98716678D01*
X117750008Y-98716672D01*
X117705150Y-98692693D01*
X117705142Y-98692689D01*
X117705137Y-98692687D01*
X117687202Y-98685258D01*
X117687199Y-98685257D01*
X117638511Y-98670487D01*
X117638504Y-98670486D01*
X117549606Y-98652803D01*
X117549603Y-98652803D01*
X117549588Y-98652800D01*
X117536988Y-98650931D01*
X117536989Y-98650931D01*
X117536975Y-98650929D01*
X117536978Y-98650929D01*
X117514609Y-98648726D01*
X117514607Y-98648726D01*
X117514601Y-98648725D01*
X117514594Y-98648725D01*
X117501866Y-98648100D01*
X92810134Y-98648100D01*
X92797406Y-98648725D01*
X92797398Y-98648725D01*
X92797393Y-98648726D01*
X92775032Y-98650929D01*
X92775012Y-98650931D01*
X92762411Y-98652801D01*
X92724399Y-98660361D01*
X92673490Y-98670487D01*
X92673471Y-98670491D01*
X92624829Y-98685247D01*
X92624802Y-98685256D01*
X92606868Y-98692684D01*
X92606865Y-98692686D01*
X92565694Y-98714692D01*
X92496188Y-98729163D01*
X92429892Y-98703758D01*
X92387855Y-98646544D01*
X92380300Y-98603569D01*
X92380300Y-96113100D01*
X92400302Y-96044979D01*
X92453958Y-95998486D01*
X92506300Y-95987100D01*
X118869880Y-95987100D01*
X118938001Y-96007102D01*
G37*
%TD.AperFunction*%
%TD*%
M02*
