%TF.GenerationSoftware,KiCad,Pcbnew,7.0.6*%
%TF.CreationDate,2023-09-22T01:58:40+08:00*%
%TF.ProjectId,power_ex_board,706f7765-725f-4657-985f-626f6172642e,rev?*%
%TF.SameCoordinates,Original*%
%TF.FileFunction,Legend,Top*%
%TF.FilePolarity,Positive*%
%FSLAX46Y46*%
G04 Gerber Fmt 4.6, Leading zero omitted, Abs format (unit mm)*
G04 Created by KiCad (PCBNEW 7.0.6) date 2023-09-22 01:58:40*
%MOMM*%
%LPD*%
G01*
G04 APERTURE LIST*
G04 Aperture macros list*
%AMRoundRect*
0 Rectangle with rounded corners*
0 $1 Rounding radius*
0 $2 $3 $4 $5 $6 $7 $8 $9 X,Y pos of 4 corners*
0 Add a 4 corners polygon primitive as box body*
4,1,4,$2,$3,$4,$5,$6,$7,$8,$9,$2,$3,0*
0 Add four circle primitives for the rounded corners*
1,1,$1+$1,$2,$3*
1,1,$1+$1,$4,$5*
1,1,$1+$1,$6,$7*
1,1,$1+$1,$8,$9*
0 Add four rect primitives between the rounded corners*
20,1,$1+$1,$2,$3,$4,$5,0*
20,1,$1+$1,$4,$5,$6,$7,0*
20,1,$1+$1,$6,$7,$8,$9,0*
20,1,$1+$1,$8,$9,$2,$3,0*%
G04 Aperture macros list end*
%ADD10C,0.152400*%
%ADD11C,0.120000*%
%ADD12R,1.700000X1.700000*%
%ADD13O,1.700000X1.700000*%
%ADD14RoundRect,0.250000X0.250000X0.475000X-0.250000X0.475000X-0.250000X-0.475000X0.250000X-0.475000X0*%
%ADD15RoundRect,0.135000X0.135000X0.185000X-0.135000X0.185000X-0.135000X-0.185000X0.135000X-0.185000X0*%
%ADD16RoundRect,0.250000X-0.262500X-0.450000X0.262500X-0.450000X0.262500X0.450000X-0.262500X0.450000X0*%
%ADD17RoundRect,0.135000X-0.135000X-0.185000X0.135000X-0.185000X0.135000X0.185000X-0.135000X0.185000X0*%
%ADD18RoundRect,0.140000X0.140000X0.170000X-0.140000X0.170000X-0.140000X-0.170000X0.140000X-0.170000X0*%
%ADD19RoundRect,0.250000X-0.250000X-0.475000X0.250000X-0.475000X0.250000X0.475000X-0.250000X0.475000X0*%
%ADD20C,0.650000*%
%ADD21R,1.450000X0.600000*%
%ADD22R,1.450000X0.300000*%
%ADD23O,2.100000X1.000000*%
%ADD24O,1.600000X1.000000*%
%ADD25RoundRect,0.140000X-0.140000X-0.170000X0.140000X-0.170000X0.140000X0.170000X-0.140000X0.170000X0*%
%ADD26R,2.500000X1.500000*%
%ADD27R,1.560000X0.650000*%
G04 APERTURE END LIST*
D10*
X116159095Y-104585104D02*
X116159095Y-103956151D01*
X116159095Y-103956151D02*
X116546143Y-104294818D01*
X116546143Y-104294818D02*
X116546143Y-104149675D01*
X116546143Y-104149675D02*
X116594524Y-104052913D01*
X116594524Y-104052913D02*
X116642905Y-104004532D01*
X116642905Y-104004532D02*
X116739667Y-103956151D01*
X116739667Y-103956151D02*
X116981572Y-103956151D01*
X116981572Y-103956151D02*
X117078334Y-104004532D01*
X117078334Y-104004532D02*
X117126715Y-104052913D01*
X117126715Y-104052913D02*
X117175095Y-104149675D01*
X117175095Y-104149675D02*
X117175095Y-104439961D01*
X117175095Y-104439961D02*
X117126715Y-104536723D01*
X117126715Y-104536723D02*
X117078334Y-104585104D01*
X116159095Y-103665866D02*
X117175095Y-103327199D01*
X117175095Y-103327199D02*
X116159095Y-102988532D01*
X116159095Y-102746628D02*
X116159095Y-102117675D01*
X116159095Y-102117675D02*
X116546143Y-102456342D01*
X116546143Y-102456342D02*
X116546143Y-102311199D01*
X116546143Y-102311199D02*
X116594524Y-102214437D01*
X116594524Y-102214437D02*
X116642905Y-102166056D01*
X116642905Y-102166056D02*
X116739667Y-102117675D01*
X116739667Y-102117675D02*
X116981572Y-102117675D01*
X116981572Y-102117675D02*
X117078334Y-102166056D01*
X117078334Y-102166056D02*
X117126715Y-102214437D01*
X117126715Y-102214437D02*
X117175095Y-102311199D01*
X117175095Y-102311199D02*
X117175095Y-102601485D01*
X117175095Y-102601485D02*
X117126715Y-102698247D01*
X117126715Y-102698247D02*
X117078334Y-102746628D01*
X108644267Y-105114934D02*
X108595886Y-105163315D01*
X108595886Y-105163315D02*
X108450743Y-105211695D01*
X108450743Y-105211695D02*
X108353981Y-105211695D01*
X108353981Y-105211695D02*
X108208838Y-105163315D01*
X108208838Y-105163315D02*
X108112076Y-105066553D01*
X108112076Y-105066553D02*
X108063695Y-104969791D01*
X108063695Y-104969791D02*
X108015314Y-104776267D01*
X108015314Y-104776267D02*
X108015314Y-104631124D01*
X108015314Y-104631124D02*
X108063695Y-104437600D01*
X108063695Y-104437600D02*
X108112076Y-104340838D01*
X108112076Y-104340838D02*
X108208838Y-104244076D01*
X108208838Y-104244076D02*
X108353981Y-104195695D01*
X108353981Y-104195695D02*
X108450743Y-104195695D01*
X108450743Y-104195695D02*
X108595886Y-104244076D01*
X108595886Y-104244076D02*
X108644267Y-104292457D01*
X109515124Y-104195695D02*
X109321600Y-104195695D01*
X109321600Y-104195695D02*
X109224838Y-104244076D01*
X109224838Y-104244076D02*
X109176457Y-104292457D01*
X109176457Y-104292457D02*
X109079695Y-104437600D01*
X109079695Y-104437600D02*
X109031314Y-104631124D01*
X109031314Y-104631124D02*
X109031314Y-105018172D01*
X109031314Y-105018172D02*
X109079695Y-105114934D01*
X109079695Y-105114934D02*
X109128076Y-105163315D01*
X109128076Y-105163315D02*
X109224838Y-105211695D01*
X109224838Y-105211695D02*
X109418362Y-105211695D01*
X109418362Y-105211695D02*
X109515124Y-105163315D01*
X109515124Y-105163315D02*
X109563505Y-105114934D01*
X109563505Y-105114934D02*
X109611886Y-105018172D01*
X109611886Y-105018172D02*
X109611886Y-104776267D01*
X109611886Y-104776267D02*
X109563505Y-104679505D01*
X109563505Y-104679505D02*
X109515124Y-104631124D01*
X109515124Y-104631124D02*
X109418362Y-104582743D01*
X109418362Y-104582743D02*
X109224838Y-104582743D01*
X109224838Y-104582743D02*
X109128076Y-104631124D01*
X109128076Y-104631124D02*
X109079695Y-104679505D01*
X109079695Y-104679505D02*
X109031314Y-104776267D01*
X107628267Y-114076295D02*
X107289600Y-113592486D01*
X107047695Y-114076295D02*
X107047695Y-113060295D01*
X107047695Y-113060295D02*
X107434743Y-113060295D01*
X107434743Y-113060295D02*
X107531505Y-113108676D01*
X107531505Y-113108676D02*
X107579886Y-113157057D01*
X107579886Y-113157057D02*
X107628267Y-113253819D01*
X107628267Y-113253819D02*
X107628267Y-113398962D01*
X107628267Y-113398962D02*
X107579886Y-113495724D01*
X107579886Y-113495724D02*
X107531505Y-113544105D01*
X107531505Y-113544105D02*
X107434743Y-113592486D01*
X107434743Y-113592486D02*
X107047695Y-113592486D01*
X108499124Y-113398962D02*
X108499124Y-114076295D01*
X108257219Y-113011915D02*
X108015314Y-113737629D01*
X108015314Y-113737629D02*
X108644267Y-113737629D01*
X103259467Y-105211695D02*
X102920800Y-104727886D01*
X102678895Y-105211695D02*
X102678895Y-104195695D01*
X102678895Y-104195695D02*
X103065943Y-104195695D01*
X103065943Y-104195695D02*
X103162705Y-104244076D01*
X103162705Y-104244076D02*
X103211086Y-104292457D01*
X103211086Y-104292457D02*
X103259467Y-104389219D01*
X103259467Y-104389219D02*
X103259467Y-104534362D01*
X103259467Y-104534362D02*
X103211086Y-104631124D01*
X103211086Y-104631124D02*
X103162705Y-104679505D01*
X103162705Y-104679505D02*
X103065943Y-104727886D01*
X103065943Y-104727886D02*
X102678895Y-104727886D01*
X104227086Y-105211695D02*
X103646514Y-105211695D01*
X103936800Y-105211695D02*
X103936800Y-104195695D01*
X103936800Y-104195695D02*
X103840038Y-104340838D01*
X103840038Y-104340838D02*
X103743276Y-104437600D01*
X103743276Y-104437600D02*
X103646514Y-104485981D01*
X102903867Y-110228195D02*
X102565200Y-109744386D01*
X102323295Y-110228195D02*
X102323295Y-109212195D01*
X102323295Y-109212195D02*
X102710343Y-109212195D01*
X102710343Y-109212195D02*
X102807105Y-109260576D01*
X102807105Y-109260576D02*
X102855486Y-109308957D01*
X102855486Y-109308957D02*
X102903867Y-109405719D01*
X102903867Y-109405719D02*
X102903867Y-109550862D01*
X102903867Y-109550862D02*
X102855486Y-109647624D01*
X102855486Y-109647624D02*
X102807105Y-109696005D01*
X102807105Y-109696005D02*
X102710343Y-109744386D01*
X102710343Y-109744386D02*
X102323295Y-109744386D01*
X103290914Y-109308957D02*
X103339295Y-109260576D01*
X103339295Y-109260576D02*
X103436057Y-109212195D01*
X103436057Y-109212195D02*
X103677962Y-109212195D01*
X103677962Y-109212195D02*
X103774724Y-109260576D01*
X103774724Y-109260576D02*
X103823105Y-109308957D01*
X103823105Y-109308957D02*
X103871486Y-109405719D01*
X103871486Y-109405719D02*
X103871486Y-109502481D01*
X103871486Y-109502481D02*
X103823105Y-109647624D01*
X103823105Y-109647624D02*
X103242533Y-110228195D01*
X103242533Y-110228195D02*
X103871486Y-110228195D01*
X112759067Y-105114934D02*
X112710686Y-105163315D01*
X112710686Y-105163315D02*
X112565543Y-105211695D01*
X112565543Y-105211695D02*
X112468781Y-105211695D01*
X112468781Y-105211695D02*
X112323638Y-105163315D01*
X112323638Y-105163315D02*
X112226876Y-105066553D01*
X112226876Y-105066553D02*
X112178495Y-104969791D01*
X112178495Y-104969791D02*
X112130114Y-104776267D01*
X112130114Y-104776267D02*
X112130114Y-104631124D01*
X112130114Y-104631124D02*
X112178495Y-104437600D01*
X112178495Y-104437600D02*
X112226876Y-104340838D01*
X112226876Y-104340838D02*
X112323638Y-104244076D01*
X112323638Y-104244076D02*
X112468781Y-104195695D01*
X112468781Y-104195695D02*
X112565543Y-104195695D01*
X112565543Y-104195695D02*
X112710686Y-104244076D01*
X112710686Y-104244076D02*
X112759067Y-104292457D01*
X113678305Y-104195695D02*
X113194495Y-104195695D01*
X113194495Y-104195695D02*
X113146114Y-104679505D01*
X113146114Y-104679505D02*
X113194495Y-104631124D01*
X113194495Y-104631124D02*
X113291257Y-104582743D01*
X113291257Y-104582743D02*
X113533162Y-104582743D01*
X113533162Y-104582743D02*
X113629924Y-104631124D01*
X113629924Y-104631124D02*
X113678305Y-104679505D01*
X113678305Y-104679505D02*
X113726686Y-104776267D01*
X113726686Y-104776267D02*
X113726686Y-105018172D01*
X113726686Y-105018172D02*
X113678305Y-105114934D01*
X113678305Y-105114934D02*
X113629924Y-105163315D01*
X113629924Y-105163315D02*
X113533162Y-105211695D01*
X113533162Y-105211695D02*
X113291257Y-105211695D01*
X113291257Y-105211695D02*
X113194495Y-105163315D01*
X113194495Y-105163315D02*
X113146114Y-105114934D01*
X93367981Y-116036934D02*
X93319600Y-116085315D01*
X93319600Y-116085315D02*
X93174457Y-116133695D01*
X93174457Y-116133695D02*
X93077695Y-116133695D01*
X93077695Y-116133695D02*
X92932552Y-116085315D01*
X92932552Y-116085315D02*
X92835790Y-115988553D01*
X92835790Y-115988553D02*
X92787409Y-115891791D01*
X92787409Y-115891791D02*
X92739028Y-115698267D01*
X92739028Y-115698267D02*
X92739028Y-115553124D01*
X92739028Y-115553124D02*
X92787409Y-115359600D01*
X92787409Y-115359600D02*
X92835790Y-115262838D01*
X92835790Y-115262838D02*
X92932552Y-115166076D01*
X92932552Y-115166076D02*
X93077695Y-115117695D01*
X93077695Y-115117695D02*
X93174457Y-115117695D01*
X93174457Y-115117695D02*
X93319600Y-115166076D01*
X93319600Y-115166076D02*
X93367981Y-115214457D01*
X94238838Y-115456362D02*
X94238838Y-116133695D01*
X93803409Y-115456362D02*
X93803409Y-115988553D01*
X93803409Y-115988553D02*
X93851790Y-116085315D01*
X93851790Y-116085315D02*
X93948552Y-116133695D01*
X93948552Y-116133695D02*
X94093695Y-116133695D01*
X94093695Y-116133695D02*
X94190457Y-116085315D01*
X94190457Y-116085315D02*
X94238838Y-116036934D01*
X94674266Y-116085315D02*
X94771028Y-116133695D01*
X94771028Y-116133695D02*
X94964552Y-116133695D01*
X94964552Y-116133695D02*
X95061314Y-116085315D01*
X95061314Y-116085315D02*
X95109695Y-115988553D01*
X95109695Y-115988553D02*
X95109695Y-115940172D01*
X95109695Y-115940172D02*
X95061314Y-115843410D01*
X95061314Y-115843410D02*
X94964552Y-115795029D01*
X94964552Y-115795029D02*
X94819409Y-115795029D01*
X94819409Y-115795029D02*
X94722647Y-115746648D01*
X94722647Y-115746648D02*
X94674266Y-115649886D01*
X94674266Y-115649886D02*
X94674266Y-115601505D01*
X94674266Y-115601505D02*
X94722647Y-115504743D01*
X94722647Y-115504743D02*
X94819409Y-115456362D01*
X94819409Y-115456362D02*
X94964552Y-115456362D01*
X94964552Y-115456362D02*
X95061314Y-115504743D01*
X95399980Y-115456362D02*
X95787028Y-115456362D01*
X95545123Y-115117695D02*
X95545123Y-115988553D01*
X95545123Y-115988553D02*
X95593504Y-116085315D01*
X95593504Y-116085315D02*
X95690266Y-116133695D01*
X95690266Y-116133695D02*
X95787028Y-116133695D01*
X96270837Y-116133695D02*
X96174075Y-116085315D01*
X96174075Y-116085315D02*
X96125694Y-116036934D01*
X96125694Y-116036934D02*
X96077313Y-115940172D01*
X96077313Y-115940172D02*
X96077313Y-115649886D01*
X96077313Y-115649886D02*
X96125694Y-115553124D01*
X96125694Y-115553124D02*
X96174075Y-115504743D01*
X96174075Y-115504743D02*
X96270837Y-115456362D01*
X96270837Y-115456362D02*
X96415980Y-115456362D01*
X96415980Y-115456362D02*
X96512742Y-115504743D01*
X96512742Y-115504743D02*
X96561123Y-115553124D01*
X96561123Y-115553124D02*
X96609504Y-115649886D01*
X96609504Y-115649886D02*
X96609504Y-115940172D01*
X96609504Y-115940172D02*
X96561123Y-116036934D01*
X96561123Y-116036934D02*
X96512742Y-116085315D01*
X96512742Y-116085315D02*
X96415980Y-116133695D01*
X96415980Y-116133695D02*
X96270837Y-116133695D01*
X97044932Y-116133695D02*
X97044932Y-115456362D01*
X97044932Y-115553124D02*
X97093313Y-115504743D01*
X97093313Y-115504743D02*
X97190075Y-115456362D01*
X97190075Y-115456362D02*
X97335218Y-115456362D01*
X97335218Y-115456362D02*
X97431980Y-115504743D01*
X97431980Y-115504743D02*
X97480361Y-115601505D01*
X97480361Y-115601505D02*
X97480361Y-116133695D01*
X97480361Y-115601505D02*
X97528742Y-115504743D01*
X97528742Y-115504743D02*
X97625504Y-115456362D01*
X97625504Y-115456362D02*
X97770647Y-115456362D01*
X97770647Y-115456362D02*
X97867408Y-115504743D01*
X97867408Y-115504743D02*
X97915789Y-115601505D01*
X97915789Y-115601505D02*
X97915789Y-116133695D01*
X112301867Y-113877934D02*
X112253486Y-113926315D01*
X112253486Y-113926315D02*
X112108343Y-113974695D01*
X112108343Y-113974695D02*
X112011581Y-113974695D01*
X112011581Y-113974695D02*
X111866438Y-113926315D01*
X111866438Y-113926315D02*
X111769676Y-113829553D01*
X111769676Y-113829553D02*
X111721295Y-113732791D01*
X111721295Y-113732791D02*
X111672914Y-113539267D01*
X111672914Y-113539267D02*
X111672914Y-113394124D01*
X111672914Y-113394124D02*
X111721295Y-113200600D01*
X111721295Y-113200600D02*
X111769676Y-113103838D01*
X111769676Y-113103838D02*
X111866438Y-113007076D01*
X111866438Y-113007076D02*
X112011581Y-112958695D01*
X112011581Y-112958695D02*
X112108343Y-112958695D01*
X112108343Y-112958695D02*
X112253486Y-113007076D01*
X112253486Y-113007076D02*
X112301867Y-113055457D01*
X113172724Y-113297362D02*
X113172724Y-113974695D01*
X112930819Y-112910315D02*
X112688914Y-113636029D01*
X112688914Y-113636029D02*
X113317867Y-113636029D01*
X102903867Y-108696334D02*
X102855486Y-108744715D01*
X102855486Y-108744715D02*
X102710343Y-108793095D01*
X102710343Y-108793095D02*
X102613581Y-108793095D01*
X102613581Y-108793095D02*
X102468438Y-108744715D01*
X102468438Y-108744715D02*
X102371676Y-108647953D01*
X102371676Y-108647953D02*
X102323295Y-108551191D01*
X102323295Y-108551191D02*
X102274914Y-108357667D01*
X102274914Y-108357667D02*
X102274914Y-108212524D01*
X102274914Y-108212524D02*
X102323295Y-108019000D01*
X102323295Y-108019000D02*
X102371676Y-107922238D01*
X102371676Y-107922238D02*
X102468438Y-107825476D01*
X102468438Y-107825476D02*
X102613581Y-107777095D01*
X102613581Y-107777095D02*
X102710343Y-107777095D01*
X102710343Y-107777095D02*
X102855486Y-107825476D01*
X102855486Y-107825476D02*
X102903867Y-107873857D01*
X103290914Y-107873857D02*
X103339295Y-107825476D01*
X103339295Y-107825476D02*
X103436057Y-107777095D01*
X103436057Y-107777095D02*
X103677962Y-107777095D01*
X103677962Y-107777095D02*
X103774724Y-107825476D01*
X103774724Y-107825476D02*
X103823105Y-107873857D01*
X103823105Y-107873857D02*
X103871486Y-107970619D01*
X103871486Y-107970619D02*
X103871486Y-108067381D01*
X103871486Y-108067381D02*
X103823105Y-108212524D01*
X103823105Y-108212524D02*
X103242533Y-108793095D01*
X103242533Y-108793095D02*
X103871486Y-108793095D01*
X94071923Y-102966704D02*
X94555733Y-102966704D01*
X94555733Y-102966704D02*
X94604114Y-102482894D01*
X94604114Y-102482894D02*
X94555733Y-102531275D01*
X94555733Y-102531275D02*
X94458971Y-102579656D01*
X94458971Y-102579656D02*
X94217066Y-102579656D01*
X94217066Y-102579656D02*
X94120304Y-102531275D01*
X94120304Y-102531275D02*
X94071923Y-102482894D01*
X94071923Y-102482894D02*
X94023542Y-102386132D01*
X94023542Y-102386132D02*
X94023542Y-102144227D01*
X94023542Y-102144227D02*
X94071923Y-102047465D01*
X94071923Y-102047465D02*
X94120304Y-101999085D01*
X94120304Y-101999085D02*
X94217066Y-101950704D01*
X94217066Y-101950704D02*
X94458971Y-101950704D01*
X94458971Y-101950704D02*
X94555733Y-101999085D01*
X94555733Y-101999085D02*
X94604114Y-102047465D01*
X93733257Y-102966704D02*
X93394590Y-101950704D01*
X93394590Y-101950704D02*
X93055923Y-102966704D01*
X112301867Y-112780895D02*
X111963200Y-112297086D01*
X111721295Y-112780895D02*
X111721295Y-111764895D01*
X111721295Y-111764895D02*
X112108343Y-111764895D01*
X112108343Y-111764895D02*
X112205105Y-111813276D01*
X112205105Y-111813276D02*
X112253486Y-111861657D01*
X112253486Y-111861657D02*
X112301867Y-111958419D01*
X112301867Y-111958419D02*
X112301867Y-112103562D01*
X112301867Y-112103562D02*
X112253486Y-112200324D01*
X112253486Y-112200324D02*
X112205105Y-112248705D01*
X112205105Y-112248705D02*
X112108343Y-112297086D01*
X112108343Y-112297086D02*
X111721295Y-112297086D01*
X112640533Y-111764895D02*
X113269486Y-111764895D01*
X113269486Y-111764895D02*
X112930819Y-112151943D01*
X112930819Y-112151943D02*
X113075962Y-112151943D01*
X113075962Y-112151943D02*
X113172724Y-112200324D01*
X113172724Y-112200324D02*
X113221105Y-112248705D01*
X113221105Y-112248705D02*
X113269486Y-112345467D01*
X113269486Y-112345467D02*
X113269486Y-112587372D01*
X113269486Y-112587372D02*
X113221105Y-112684134D01*
X113221105Y-112684134D02*
X113172724Y-112732515D01*
X113172724Y-112732515D02*
X113075962Y-112780895D01*
X113075962Y-112780895D02*
X112785676Y-112780895D01*
X112785676Y-112780895D02*
X112688914Y-112732515D01*
X112688914Y-112732515D02*
X112640533Y-112684134D01*
X105875667Y-105114934D02*
X105827286Y-105163315D01*
X105827286Y-105163315D02*
X105682143Y-105211695D01*
X105682143Y-105211695D02*
X105585381Y-105211695D01*
X105585381Y-105211695D02*
X105440238Y-105163315D01*
X105440238Y-105163315D02*
X105343476Y-105066553D01*
X105343476Y-105066553D02*
X105295095Y-104969791D01*
X105295095Y-104969791D02*
X105246714Y-104776267D01*
X105246714Y-104776267D02*
X105246714Y-104631124D01*
X105246714Y-104631124D02*
X105295095Y-104437600D01*
X105295095Y-104437600D02*
X105343476Y-104340838D01*
X105343476Y-104340838D02*
X105440238Y-104244076D01*
X105440238Y-104244076D02*
X105585381Y-104195695D01*
X105585381Y-104195695D02*
X105682143Y-104195695D01*
X105682143Y-104195695D02*
X105827286Y-104244076D01*
X105827286Y-104244076D02*
X105875667Y-104292457D01*
X106843286Y-105211695D02*
X106262714Y-105211695D01*
X106553000Y-105211695D02*
X106553000Y-104195695D01*
X106553000Y-104195695D02*
X106456238Y-104340838D01*
X106456238Y-104340838D02*
X106359476Y-104437600D01*
X106359476Y-104437600D02*
X106262714Y-104485981D01*
X101947133Y-112984095D02*
X101947133Y-113709810D01*
X101947133Y-113709810D02*
X101898752Y-113854953D01*
X101898752Y-113854953D02*
X101801990Y-113951715D01*
X101801990Y-113951715D02*
X101656847Y-114000095D01*
X101656847Y-114000095D02*
X101560085Y-114000095D01*
X102963133Y-114000095D02*
X102382561Y-114000095D01*
X102672847Y-114000095D02*
X102672847Y-112984095D01*
X102672847Y-112984095D02*
X102576085Y-113129238D01*
X102576085Y-113129238D02*
X102479323Y-113226000D01*
X102479323Y-113226000D02*
X102382561Y-113274381D01*
X102903867Y-111566534D02*
X102855486Y-111614915D01*
X102855486Y-111614915D02*
X102710343Y-111663295D01*
X102710343Y-111663295D02*
X102613581Y-111663295D01*
X102613581Y-111663295D02*
X102468438Y-111614915D01*
X102468438Y-111614915D02*
X102371676Y-111518153D01*
X102371676Y-111518153D02*
X102323295Y-111421391D01*
X102323295Y-111421391D02*
X102274914Y-111227867D01*
X102274914Y-111227867D02*
X102274914Y-111082724D01*
X102274914Y-111082724D02*
X102323295Y-110889200D01*
X102323295Y-110889200D02*
X102371676Y-110792438D01*
X102371676Y-110792438D02*
X102468438Y-110695676D01*
X102468438Y-110695676D02*
X102613581Y-110647295D01*
X102613581Y-110647295D02*
X102710343Y-110647295D01*
X102710343Y-110647295D02*
X102855486Y-110695676D01*
X102855486Y-110695676D02*
X102903867Y-110744057D01*
X103242533Y-110647295D02*
X103871486Y-110647295D01*
X103871486Y-110647295D02*
X103532819Y-111034343D01*
X103532819Y-111034343D02*
X103677962Y-111034343D01*
X103677962Y-111034343D02*
X103774724Y-111082724D01*
X103774724Y-111082724D02*
X103823105Y-111131105D01*
X103823105Y-111131105D02*
X103871486Y-111227867D01*
X103871486Y-111227867D02*
X103871486Y-111469772D01*
X103871486Y-111469772D02*
X103823105Y-111566534D01*
X103823105Y-111566534D02*
X103774724Y-111614915D01*
X103774724Y-111614915D02*
X103677962Y-111663295D01*
X103677962Y-111663295D02*
X103387676Y-111663295D01*
X103387676Y-111663295D02*
X103290914Y-111614915D01*
X103290914Y-111614915D02*
X103242533Y-111566534D01*
X114816467Y-112780895D02*
X114332657Y-112780895D01*
X114332657Y-112780895D02*
X114332657Y-111764895D01*
X115687324Y-112780895D02*
X115106752Y-112780895D01*
X115397038Y-112780895D02*
X115397038Y-111764895D01*
X115397038Y-111764895D02*
X115300276Y-111910038D01*
X115300276Y-111910038D02*
X115203514Y-112006800D01*
X115203514Y-112006800D02*
X115106752Y-112055181D01*
X104661304Y-111942695D02*
X104661304Y-112765172D01*
X104661304Y-112765172D02*
X104709685Y-112861934D01*
X104709685Y-112861934D02*
X104758066Y-112910315D01*
X104758066Y-112910315D02*
X104854828Y-112958695D01*
X104854828Y-112958695D02*
X105048352Y-112958695D01*
X105048352Y-112958695D02*
X105145114Y-112910315D01*
X105145114Y-112910315D02*
X105193495Y-112861934D01*
X105193495Y-112861934D02*
X105241876Y-112765172D01*
X105241876Y-112765172D02*
X105241876Y-111942695D01*
X106257876Y-112958695D02*
X105677304Y-112958695D01*
X105967590Y-112958695D02*
X105967590Y-111942695D01*
X105967590Y-111942695D02*
X105870828Y-112087838D01*
X105870828Y-112087838D02*
X105774066Y-112184600D01*
X105774066Y-112184600D02*
X105677304Y-112232981D01*
D11*
%TO.C,3V3*%
X117791000Y-96211000D02*
X119121000Y-96211000D01*
X117791000Y-97541000D02*
X117791000Y-96211000D01*
X117791000Y-98811000D02*
X117791000Y-121731000D01*
X117791000Y-98811000D02*
X120391000Y-98811000D01*
X117791000Y-121731000D02*
X122991000Y-121731000D01*
X120391000Y-96211000D02*
X122991000Y-96211000D01*
X120391000Y-98811000D02*
X120391000Y-96211000D01*
X122991000Y-96211000D02*
X122991000Y-121731000D01*
%TO.C,C6*%
X110854052Y-107271400D02*
X110331548Y-107271400D01*
X110854052Y-105801400D02*
X110331548Y-105801400D01*
%TO.C,R4*%
X107817841Y-112601400D02*
X107510559Y-112601400D01*
X107817841Y-111841400D02*
X107510559Y-111841400D01*
%TO.C,R1*%
X103126736Y-105801400D02*
X103580864Y-105801400D01*
X103126736Y-107271400D02*
X103580864Y-107271400D01*
%TO.C,R2*%
X105173359Y-109291200D02*
X105480641Y-109291200D01*
X105173359Y-110051200D02*
X105480641Y-110051200D01*
%TO.C,C5*%
X111000236Y-105139200D02*
X110784564Y-105139200D01*
X111000236Y-104419200D02*
X110784564Y-104419200D01*
%TO.C,Custom*%
X117804400Y-116511000D02*
X117804400Y-117841000D01*
X116474400Y-116511000D02*
X117804400Y-116511000D01*
X115204400Y-116511000D02*
X92284400Y-116511000D01*
X115204400Y-116511000D02*
X115204400Y-119111000D01*
X92284400Y-116511000D02*
X92284400Y-121711000D01*
X117804400Y-119111000D02*
X117804400Y-121711000D01*
X115204400Y-119111000D02*
X117804400Y-119111000D01*
X117804400Y-121711000D02*
X92284400Y-121711000D01*
%TO.C,C4*%
X110477436Y-113724400D02*
X110261764Y-113724400D01*
X110477436Y-113004400D02*
X110261764Y-113004400D01*
%TO.C,C2*%
X105414836Y-108691200D02*
X105199164Y-108691200D01*
X105414836Y-107971200D02*
X105199164Y-107971200D01*
%TO.C,5V*%
X92294400Y-101421000D02*
X92294400Y-100091000D01*
X93624400Y-101421000D02*
X92294400Y-101421000D01*
X94894400Y-101421000D02*
X117814400Y-101421000D01*
X94894400Y-101421000D02*
X94894400Y-98821000D01*
X117814400Y-101421000D02*
X117814400Y-96221000D01*
X92294400Y-98821000D02*
X92294400Y-96221000D01*
X94894400Y-98821000D02*
X92294400Y-98821000D01*
X92294400Y-96221000D02*
X117814400Y-96221000D01*
%TO.C,R3*%
X110543241Y-112601400D02*
X110235959Y-112601400D01*
X110543241Y-111841400D02*
X110235959Y-111841400D01*
%TO.C,C1*%
X106724748Y-105801400D02*
X107247252Y-105801400D01*
X106724748Y-107271400D02*
X107247252Y-107271400D01*
%TO.C,J1*%
X97658000Y-104266000D02*
X95658000Y-104266000D01*
X93758000Y-104266000D02*
X91858000Y-104266000D01*
X91858000Y-104266000D02*
X91858000Y-113666000D01*
X97658000Y-113666000D02*
X95658000Y-113666000D01*
X93758000Y-113666000D02*
X91858000Y-113666000D01*
%TO.C,C3*%
X105199164Y-110651200D02*
X105414836Y-110651200D01*
X105199164Y-111371200D02*
X105414836Y-111371200D01*
%TO.C,L1*%
X112575000Y-110871400D02*
X113425000Y-110871400D01*
X112575000Y-110871400D02*
X112575000Y-105951400D01*
X117295000Y-110871400D02*
X116445000Y-110871400D01*
X117295000Y-110871400D02*
X117295000Y-105951400D01*
X112575000Y-105951400D02*
X113425000Y-105951400D01*
X117295000Y-105951400D02*
X116445000Y-105951400D01*
%TO.C,U1*%
X109914200Y-108061200D02*
X108114200Y-108061200D01*
X108114200Y-111281200D02*
X110564200Y-111281200D01*
%TD*%
%LPC*%
D12*
%TO.C,3V3*%
X119121000Y-97541000D03*
D13*
X121661000Y-97541000D03*
X119121000Y-100081000D03*
X121661000Y-100081000D03*
X119121000Y-102621000D03*
X121661000Y-102621000D03*
X119121000Y-105161000D03*
X121661000Y-105161000D03*
X119121000Y-107701000D03*
X121661000Y-107701000D03*
X119121000Y-110241000D03*
X121661000Y-110241000D03*
X119121000Y-112781000D03*
X121661000Y-112781000D03*
X119121000Y-115321000D03*
X121661000Y-115321000D03*
X119121000Y-117861000D03*
X121661000Y-117861000D03*
X119121000Y-120401000D03*
X121661000Y-120401000D03*
%TD*%
D14*
%TO.C,C6*%
X111542800Y-106536400D03*
X109642800Y-106536400D03*
%TD*%
D15*
%TO.C,R4*%
X108174200Y-112221400D03*
X107154200Y-112221400D03*
%TD*%
D16*
%TO.C,R1*%
X102441300Y-106536400D03*
X104266300Y-106536400D03*
%TD*%
D17*
%TO.C,R2*%
X104817000Y-109671200D03*
X105837000Y-109671200D03*
%TD*%
D18*
%TO.C,C5*%
X111372400Y-104779200D03*
X110412400Y-104779200D03*
%TD*%
D12*
%TO.C,Custom*%
X116474400Y-117841000D03*
D13*
X116474400Y-120381000D03*
X113934400Y-117841000D03*
X113934400Y-120381000D03*
X111394400Y-117841000D03*
X111394400Y-120381000D03*
X108854400Y-117841000D03*
X108854400Y-120381000D03*
X106314400Y-117841000D03*
X106314400Y-120381000D03*
X103774400Y-117841000D03*
X103774400Y-120381000D03*
X101234400Y-117841000D03*
X101234400Y-120381000D03*
X98694400Y-117841000D03*
X98694400Y-120381000D03*
X96154400Y-117841000D03*
X96154400Y-120381000D03*
X93614400Y-117841000D03*
X93614400Y-120381000D03*
%TD*%
D18*
%TO.C,C4*%
X110849600Y-113364400D03*
X109889600Y-113364400D03*
%TD*%
%TO.C,C2*%
X105787000Y-108331200D03*
X104827000Y-108331200D03*
%TD*%
D12*
%TO.C,5V*%
X93624400Y-100091000D03*
D13*
X93624400Y-97551000D03*
X96164400Y-100091000D03*
X96164400Y-97551000D03*
X98704400Y-100091000D03*
X98704400Y-97551000D03*
X101244400Y-100091000D03*
X101244400Y-97551000D03*
X103784400Y-100091000D03*
X103784400Y-97551000D03*
X106324400Y-100091000D03*
X106324400Y-97551000D03*
X108864400Y-100091000D03*
X108864400Y-97551000D03*
X111404400Y-100091000D03*
X111404400Y-97551000D03*
X113944400Y-100091000D03*
X113944400Y-97551000D03*
X116484400Y-100091000D03*
X116484400Y-97551000D03*
%TD*%
D15*
%TO.C,R3*%
X110899600Y-112221400D03*
X109879600Y-112221400D03*
%TD*%
D19*
%TO.C,C1*%
X106036000Y-106536400D03*
X107936000Y-106536400D03*
%TD*%
D20*
%TO.C,J1*%
X98358000Y-106076000D03*
X98358000Y-111856000D03*
D21*
X99803000Y-105716000D03*
X99803000Y-106516000D03*
D22*
X99803000Y-107716000D03*
X99803000Y-108716000D03*
X99803000Y-109216000D03*
X99803000Y-110216000D03*
D21*
X99803000Y-111416000D03*
X99803000Y-112216000D03*
X99803000Y-112216000D03*
X99803000Y-111416000D03*
D22*
X99803000Y-110716000D03*
X99803000Y-109716000D03*
X99803000Y-108216000D03*
X99803000Y-107216000D03*
D21*
X99803000Y-106516000D03*
X99803000Y-105716000D03*
D23*
X98888000Y-104646000D03*
D24*
X94708000Y-104646000D03*
D23*
X98888000Y-113286000D03*
D24*
X94708000Y-113286000D03*
%TD*%
D25*
%TO.C,C3*%
X104827000Y-111011200D03*
X105787000Y-111011200D03*
%TD*%
D26*
%TO.C,L1*%
X114935000Y-110261400D03*
X114935000Y-106561400D03*
%TD*%
D27*
%TO.C,U1*%
X110364200Y-110621200D03*
X110364200Y-109671200D03*
X110364200Y-108721200D03*
X107664200Y-108721200D03*
X107664200Y-110621200D03*
%TD*%
%LPD*%
M02*
