M48
; DRILL file {KiCad 7.0.6} date Fri Sep 22 01:58:40 2023
; FORMAT={-:-/ absolute / inch / decimal}
; #@! TF.CreationDate,2023-09-22T01:58:40+08:00
; #@! TF.GenerationSoftware,Kicad,Pcbnew,7.0.6
; #@! TF.FileFunction,Plated,1,2,PTH
FMAT,2
INCH
; #@! TA.AperFunction,Plated,PTH,ViaDrill
T1C0.0120
; #@! TA.AperFunction,Plated,PTH,ComponentDrill
T2C0.0236
; #@! TA.AperFunction,Plated,PTH,ComponentDrill
T3C0.0394
%
G90
G05
T1
X3.663Y-4.049
X3.672Y-4.537
X3.708Y-4.185
X3.708Y-4.2553
X3.708Y-4.3257
X3.708Y-4.396
X3.7359Y-4.049
X3.7488Y-4.537
X3.802Y-4.2899
X3.8257Y-4.537
X3.8817Y-4.049
X3.9025Y-4.537
X3.9546Y-4.049
X3.983Y-4.485
X4.02Y-4.277
X4.02Y-4.3455
X4.02Y-4.414
X4.021Y-4.113
X4.0274Y-4.049
X4.0568Y-4.485
X4.0913Y-4.113
X4.096Y-4.343
X4.1003Y-4.049
X4.1305Y-4.485
X4.1617Y-4.113
X4.1732Y-4.049
X4.2043Y-4.485
X4.232Y-4.113
X4.2461Y-4.049
X4.278Y-4.485
X4.291Y-4.317
X4.292Y-4.392
X4.319Y-4.049
X4.4Y-4.441
X4.444Y-4.197
X4.484Y-4.105
X4.58Y-4.105
X4.618Y-4.189
X4.618Y-4.2627
X4.618Y-4.3363
X4.618Y-4.41
T3
X3.6856Y-4.6394
X3.6856Y-4.7394
X3.686Y-3.8406
X3.686Y-3.9406
X3.7856Y-4.6394
X3.7856Y-4.7394
X3.786Y-3.8406
X3.786Y-3.9406
X3.8856Y-4.6394
X3.8856Y-4.7394
X3.886Y-3.8406
X3.886Y-3.9406
X3.9856Y-4.6394
X3.9856Y-4.7394
X3.986Y-3.8406
X3.986Y-3.9406
X4.0856Y-4.6394
X4.0856Y-4.7394
X4.086Y-3.8406
X4.086Y-3.9406
X4.1856Y-4.6394
X4.1856Y-4.7394
X4.186Y-3.8406
X4.186Y-3.9406
X4.2856Y-4.6394
X4.2856Y-4.7394
X4.286Y-3.8406
X4.286Y-3.9406
X4.3856Y-4.6394
X4.3856Y-4.7394
X4.386Y-3.8406
X4.386Y-3.9406
X4.4856Y-4.6394
X4.4856Y-4.7394
X4.486Y-3.8406
X4.486Y-3.9406
X4.5856Y-4.6394
X4.5856Y-4.7394
X4.586Y-3.8406
X4.586Y-3.9406
X4.6898Y-3.8402
X4.6898Y-3.9402
X4.6898Y-4.0402
X4.6898Y-4.1402
X4.6898Y-4.2402
X4.6898Y-4.3402
X4.6898Y-4.4402
X4.6898Y-4.5402
X4.6898Y-4.6402
X4.6898Y-4.7402
X4.7898Y-3.8402
X4.7898Y-3.9402
X4.7898Y-4.0402
X4.7898Y-4.1402
X4.7898Y-4.2402
X4.7898Y-4.3402
X4.7898Y-4.4402
X4.7898Y-4.5402
X4.7898Y-4.6402
X4.7898Y-4.7402
T2
G00X3.7405Y-4.1199
M15
G01X3.7169Y-4.1199
M16
G05
G00X3.7405Y-4.4601
M15
G01X3.7169Y-4.4601
M16
G05
G00X3.9149Y-4.1199
M15
G01X3.8716Y-4.1199
M16
G05
G00X3.9149Y-4.4601
M15
G01X3.8716Y-4.4601
M16
G05
T0
M30
