%TF.GenerationSoftware,KiCad,Pcbnew,7.0.6*%
%TF.CreationDate,2023-09-22T01:58:40+08:00*%
%TF.ProjectId,power_ex_board,706f7765-725f-4657-985f-626f6172642e,rev?*%
%TF.SameCoordinates,Original*%
%TF.FileFunction,Paste,Top*%
%TF.FilePolarity,Positive*%
%FSLAX46Y46*%
G04 Gerber Fmt 4.6, Leading zero omitted, Abs format (unit mm)*
G04 Created by KiCad (PCBNEW 7.0.6) date 2023-09-22 01:58:40*
%MOMM*%
%LPD*%
G01*
G04 APERTURE LIST*
G04 Aperture macros list*
%AMRoundRect*
0 Rectangle with rounded corners*
0 $1 Rounding radius*
0 $2 $3 $4 $5 $6 $7 $8 $9 X,Y pos of 4 corners*
0 Add a 4 corners polygon primitive as box body*
4,1,4,$2,$3,$4,$5,$6,$7,$8,$9,$2,$3,0*
0 Add four circle primitives for the rounded corners*
1,1,$1+$1,$2,$3*
1,1,$1+$1,$4,$5*
1,1,$1+$1,$6,$7*
1,1,$1+$1,$8,$9*
0 Add four rect primitives between the rounded corners*
20,1,$1+$1,$2,$3,$4,$5,0*
20,1,$1+$1,$4,$5,$6,$7,0*
20,1,$1+$1,$6,$7,$8,$9,0*
20,1,$1+$1,$8,$9,$2,$3,0*%
G04 Aperture macros list end*
%ADD10RoundRect,0.250000X0.250000X0.475000X-0.250000X0.475000X-0.250000X-0.475000X0.250000X-0.475000X0*%
%ADD11RoundRect,0.135000X0.135000X0.185000X-0.135000X0.185000X-0.135000X-0.185000X0.135000X-0.185000X0*%
%ADD12RoundRect,0.250000X-0.262500X-0.450000X0.262500X-0.450000X0.262500X0.450000X-0.262500X0.450000X0*%
%ADD13RoundRect,0.135000X-0.135000X-0.185000X0.135000X-0.185000X0.135000X0.185000X-0.135000X0.185000X0*%
%ADD14RoundRect,0.140000X0.140000X0.170000X-0.140000X0.170000X-0.140000X-0.170000X0.140000X-0.170000X0*%
%ADD15RoundRect,0.250000X-0.250000X-0.475000X0.250000X-0.475000X0.250000X0.475000X-0.250000X0.475000X0*%
%ADD16R,1.450000X0.600000*%
%ADD17R,1.450000X0.300000*%
%ADD18RoundRect,0.140000X-0.140000X-0.170000X0.140000X-0.170000X0.140000X0.170000X-0.140000X0.170000X0*%
%ADD19R,2.500000X1.500000*%
%ADD20R,1.560000X0.650000*%
G04 APERTURE END LIST*
D10*
%TO.C,C6*%
X111542800Y-106536400D03*
X109642800Y-106536400D03*
%TD*%
D11*
%TO.C,R4*%
X108174200Y-112221400D03*
X107154200Y-112221400D03*
%TD*%
D12*
%TO.C,R1*%
X102441300Y-106536400D03*
X104266300Y-106536400D03*
%TD*%
D13*
%TO.C,R2*%
X104817000Y-109671200D03*
X105837000Y-109671200D03*
%TD*%
D14*
%TO.C,C5*%
X111372400Y-104779200D03*
X110412400Y-104779200D03*
%TD*%
%TO.C,C4*%
X110849600Y-113364400D03*
X109889600Y-113364400D03*
%TD*%
%TO.C,C2*%
X105787000Y-108331200D03*
X104827000Y-108331200D03*
%TD*%
D11*
%TO.C,R3*%
X110899600Y-112221400D03*
X109879600Y-112221400D03*
%TD*%
D15*
%TO.C,C1*%
X106036000Y-106536400D03*
X107936000Y-106536400D03*
%TD*%
D16*
%TO.C,J1*%
X99803000Y-105716000D03*
X99803000Y-106516000D03*
D17*
X99803000Y-107716000D03*
X99803000Y-108716000D03*
X99803000Y-109216000D03*
X99803000Y-110216000D03*
D16*
X99803000Y-111416000D03*
X99803000Y-112216000D03*
X99803000Y-112216000D03*
X99803000Y-111416000D03*
D17*
X99803000Y-110716000D03*
X99803000Y-109716000D03*
X99803000Y-108216000D03*
X99803000Y-107216000D03*
D16*
X99803000Y-106516000D03*
X99803000Y-105716000D03*
%TD*%
D18*
%TO.C,C3*%
X104827000Y-111011200D03*
X105787000Y-111011200D03*
%TD*%
D19*
%TO.C,L1*%
X114935000Y-110261400D03*
X114935000Y-106561400D03*
%TD*%
D20*
%TO.C,U1*%
X110364200Y-110621200D03*
X110364200Y-109671200D03*
X110364200Y-108721200D03*
X107664200Y-108721200D03*
X107664200Y-110621200D03*
%TD*%
M02*
