%TF.GenerationSoftware,KiCad,Pcbnew,7.0.6*%
%TF.CreationDate,2023-09-22T01:58:40+08:00*%
%TF.ProjectId,power_ex_board,706f7765-725f-4657-985f-626f6172642e,rev?*%
%TF.SameCoordinates,Original*%
%TF.FileFunction,Copper,L2,Bot*%
%TF.FilePolarity,Positive*%
%FSLAX46Y46*%
G04 Gerber Fmt 4.6, Leading zero omitted, Abs format (unit mm)*
G04 Created by KiCad (PCBNEW 7.0.6) date 2023-09-22 01:58:40*
%MOMM*%
%LPD*%
G01*
G04 APERTURE LIST*
%TA.AperFunction,ComponentPad*%
%ADD10R,1.700000X1.700000*%
%TD*%
%TA.AperFunction,ComponentPad*%
%ADD11O,1.700000X1.700000*%
%TD*%
%TA.AperFunction,ComponentPad*%
%ADD12O,2.100000X1.000000*%
%TD*%
%TA.AperFunction,ComponentPad*%
%ADD13O,1.600000X1.000000*%
%TD*%
%TA.AperFunction,ViaPad*%
%ADD14C,0.508000*%
%TD*%
%TA.AperFunction,Conductor*%
%ADD15C,0.254000*%
%TD*%
%TA.AperFunction,Conductor*%
%ADD16C,0.508000*%
%TD*%
G04 APERTURE END LIST*
D10*
%TO.P,3V3,1,Pin_1*%
%TO.N,+3V3*%
X119121000Y-97541000D03*
D11*
%TO.P,3V3,2,Pin_2*%
%TO.N,GND*%
X121661000Y-97541000D03*
%TO.P,3V3,3,Pin_3*%
%TO.N,+3V3*%
X119121000Y-100081000D03*
%TO.P,3V3,4,Pin_4*%
%TO.N,GND*%
X121661000Y-100081000D03*
%TO.P,3V3,5,Pin_5*%
%TO.N,+3V3*%
X119121000Y-102621000D03*
%TO.P,3V3,6,Pin_6*%
%TO.N,GND*%
X121661000Y-102621000D03*
%TO.P,3V3,7,Pin_7*%
%TO.N,+3V3*%
X119121000Y-105161000D03*
%TO.P,3V3,8,Pin_8*%
%TO.N,GND*%
X121661000Y-105161000D03*
%TO.P,3V3,9,Pin_9*%
%TO.N,+3V3*%
X119121000Y-107701000D03*
%TO.P,3V3,10,Pin_10*%
%TO.N,GND*%
X121661000Y-107701000D03*
%TO.P,3V3,11,Pin_11*%
%TO.N,+3V3*%
X119121000Y-110241000D03*
%TO.P,3V3,12,Pin_12*%
%TO.N,GND*%
X121661000Y-110241000D03*
%TO.P,3V3,13,Pin_13*%
%TO.N,+3V3*%
X119121000Y-112781000D03*
%TO.P,3V3,14,Pin_14*%
%TO.N,GND*%
X121661000Y-112781000D03*
%TO.P,3V3,15,Pin_15*%
%TO.N,+3V3*%
X119121000Y-115321000D03*
%TO.P,3V3,16,Pin_16*%
%TO.N,GND*%
X121661000Y-115321000D03*
%TO.P,3V3,17,Pin_17*%
%TO.N,+3V3*%
X119121000Y-117861000D03*
%TO.P,3V3,18,Pin_18*%
%TO.N,GND*%
X121661000Y-117861000D03*
%TO.P,3V3,19,Pin_19*%
%TO.N,+3V3*%
X119121000Y-120401000D03*
%TO.P,3V3,20,Pin_20*%
%TO.N,GND*%
X121661000Y-120401000D03*
%TD*%
D10*
%TO.P,Custom,1,Pin_1*%
%TO.N,VCC*%
X116474400Y-117841000D03*
D11*
%TO.P,Custom,2,Pin_2*%
%TO.N,GND*%
X116474400Y-120381000D03*
%TO.P,Custom,3,Pin_3*%
%TO.N,VCC*%
X113934400Y-117841000D03*
%TO.P,Custom,4,Pin_4*%
%TO.N,GND*%
X113934400Y-120381000D03*
%TO.P,Custom,5,Pin_5*%
%TO.N,VCC*%
X111394400Y-117841000D03*
%TO.P,Custom,6,Pin_6*%
%TO.N,GND*%
X111394400Y-120381000D03*
%TO.P,Custom,7,Pin_7*%
%TO.N,VCC*%
X108854400Y-117841000D03*
%TO.P,Custom,8,Pin_8*%
%TO.N,GND*%
X108854400Y-120381000D03*
%TO.P,Custom,9,Pin_9*%
%TO.N,VCC*%
X106314400Y-117841000D03*
%TO.P,Custom,10,Pin_10*%
%TO.N,GND*%
X106314400Y-120381000D03*
%TO.P,Custom,11,Pin_11*%
%TO.N,VCC*%
X103774400Y-117841000D03*
%TO.P,Custom,12,Pin_12*%
%TO.N,GND*%
X103774400Y-120381000D03*
%TO.P,Custom,13,Pin_13*%
%TO.N,VCC*%
X101234400Y-117841000D03*
%TO.P,Custom,14,Pin_14*%
%TO.N,GND*%
X101234400Y-120381000D03*
%TO.P,Custom,15,Pin_15*%
%TO.N,VCC*%
X98694400Y-117841000D03*
%TO.P,Custom,16,Pin_16*%
%TO.N,GND*%
X98694400Y-120381000D03*
%TO.P,Custom,17,Pin_17*%
%TO.N,VCC*%
X96154400Y-117841000D03*
%TO.P,Custom,18,Pin_18*%
%TO.N,GND*%
X96154400Y-120381000D03*
%TO.P,Custom,19,Pin_19*%
%TO.N,VCC*%
X93614400Y-117841000D03*
%TO.P,Custom,20,Pin_20*%
%TO.N,GND*%
X93614400Y-120381000D03*
%TD*%
D10*
%TO.P,5V,1,Pin_1*%
%TO.N,+5V*%
X93624400Y-100091000D03*
D11*
%TO.P,5V,2,Pin_2*%
%TO.N,GND*%
X93624400Y-97551000D03*
%TO.P,5V,3,Pin_3*%
%TO.N,+5V*%
X96164400Y-100091000D03*
%TO.P,5V,4,Pin_4*%
%TO.N,GND*%
X96164400Y-97551000D03*
%TO.P,5V,5,Pin_5*%
%TO.N,+5V*%
X98704400Y-100091000D03*
%TO.P,5V,6,Pin_6*%
%TO.N,GND*%
X98704400Y-97551000D03*
%TO.P,5V,7,Pin_7*%
%TO.N,+5V*%
X101244400Y-100091000D03*
%TO.P,5V,8,Pin_8*%
%TO.N,GND*%
X101244400Y-97551000D03*
%TO.P,5V,9,Pin_9*%
%TO.N,+5V*%
X103784400Y-100091000D03*
%TO.P,5V,10,Pin_10*%
%TO.N,GND*%
X103784400Y-97551000D03*
%TO.P,5V,11,Pin_11*%
%TO.N,+5V*%
X106324400Y-100091000D03*
%TO.P,5V,12,Pin_12*%
%TO.N,GND*%
X106324400Y-97551000D03*
%TO.P,5V,13,Pin_13*%
%TO.N,+5V*%
X108864400Y-100091000D03*
%TO.P,5V,14,Pin_14*%
%TO.N,GND*%
X108864400Y-97551000D03*
%TO.P,5V,15,Pin_15*%
%TO.N,+5V*%
X111404400Y-100091000D03*
%TO.P,5V,16,Pin_16*%
%TO.N,GND*%
X111404400Y-97551000D03*
%TO.P,5V,17,Pin_17*%
%TO.N,+5V*%
X113944400Y-100091000D03*
%TO.P,5V,18,Pin_18*%
%TO.N,GND*%
X113944400Y-97551000D03*
%TO.P,5V,19,Pin_19*%
%TO.N,+5V*%
X116484400Y-100091000D03*
%TO.P,5V,20,Pin_20*%
%TO.N,GND*%
X116484400Y-97551000D03*
%TD*%
D12*
%TO.P,J1,S1,SHIELD*%
%TO.N,GND*%
X98888000Y-104646000D03*
D13*
X94708000Y-104646000D03*
D12*
X98888000Y-113286000D03*
D13*
X94708000Y-113286000D03*
%TD*%
D14*
%TO.N,GND*%
X106787950Y-113919000D03*
X95220366Y-115239800D03*
X94183200Y-111658400D03*
X108991400Y-109651800D03*
X109702600Y-102844600D03*
X102108000Y-112115600D03*
X105999839Y-102844600D03*
X102108000Y-110375700D03*
X107492800Y-104470200D03*
X97171932Y-115239800D03*
X107851216Y-102844600D03*
X99123498Y-115239800D03*
X104148462Y-102844600D03*
X102108000Y-108635800D03*
X93268800Y-115239800D03*
X117297200Y-110142866D03*
X103919866Y-104470200D03*
X94183200Y-108085466D03*
X94891577Y-102844600D03*
X94183200Y-106299000D03*
X98594331Y-102844600D03*
X108661200Y-113919000D03*
X113893600Y-104267000D03*
X93040200Y-102844600D03*
X101168200Y-113919000D03*
X102133400Y-104470200D03*
X117297200Y-108271733D03*
X100445708Y-102844600D03*
X116332000Y-104267000D03*
X94183200Y-109871932D03*
X103041450Y-113919000D03*
X105706332Y-104470200D03*
X104914700Y-113919000D03*
X117297200Y-106400600D03*
X117297200Y-112014000D03*
X102297085Y-102844600D03*
%TO.N,Net-(U1-EN)*%
X104038400Y-110312200D03*
X109016800Y-111556800D03*
%TO.N,+3V3*%
X111760000Y-112801400D03*
X112877600Y-106603800D03*
%TO.N,+5V*%
X96570800Y-108962602D03*
%TD*%
D15*
%TO.N,Net-(U1-EN)*%
X105283000Y-111556800D02*
X104038400Y-110312200D01*
X109016800Y-111556800D02*
X105283000Y-111556800D01*
%TO.N,+3V3*%
X111760000Y-108762800D02*
X112877600Y-107645200D01*
X111760000Y-112801400D02*
X111760000Y-108762800D01*
X112877600Y-107645200D02*
X112877600Y-106603800D01*
D16*
%TO.N,+5V*%
X96570800Y-100497400D02*
X96570800Y-108962602D01*
X96164400Y-100091000D02*
X96570800Y-100497400D01*
%TD*%
%TA.AperFunction,Conductor*%
%TO.N,GND*%
G36*
X123157021Y-96007102D02*
G01*
X123203514Y-96060758D01*
X123214900Y-96113100D01*
X123214900Y-121793500D01*
X123194898Y-121861621D01*
X123141242Y-121908114D01*
X123088900Y-121919500D01*
X92506300Y-121919500D01*
X92438179Y-121899498D01*
X92391686Y-121845842D01*
X92380300Y-121793500D01*
X92380300Y-120401004D01*
X118011768Y-120401004D01*
X118030654Y-120604819D01*
X118030655Y-120604821D01*
X118086672Y-120801701D01*
X118177912Y-120984935D01*
X118177913Y-120984936D01*
X118301266Y-121148284D01*
X118452536Y-121286185D01*
X118626566Y-121393940D01*
X118626568Y-121393940D01*
X118626573Y-121393944D01*
X118817444Y-121467888D01*
X119018653Y-121505500D01*
X119018655Y-121505500D01*
X119223345Y-121505500D01*
X119223347Y-121505500D01*
X119424556Y-121467888D01*
X119615427Y-121393944D01*
X119789462Y-121286186D01*
X119940732Y-121148285D01*
X120064088Y-120984935D01*
X120155328Y-120801701D01*
X120211345Y-120604821D01*
X120230232Y-120401000D01*
X120211345Y-120197179D01*
X120155328Y-120000299D01*
X120064088Y-119817065D01*
X120023538Y-119763368D01*
X119940733Y-119653715D01*
X119789463Y-119515814D01*
X119615433Y-119408059D01*
X119615428Y-119408057D01*
X119615427Y-119408056D01*
X119424559Y-119334113D01*
X119424560Y-119334113D01*
X119424557Y-119334112D01*
X119424556Y-119334112D01*
X119223347Y-119296500D01*
X119018653Y-119296500D01*
X118817444Y-119334112D01*
X118817439Y-119334113D01*
X118626577Y-119408054D01*
X118626566Y-119408059D01*
X118452536Y-119515814D01*
X118301266Y-119653715D01*
X118177913Y-119817063D01*
X118086671Y-120000301D01*
X118030654Y-120197180D01*
X118011768Y-120400995D01*
X118011768Y-120401004D01*
X92380300Y-120401004D01*
X92380300Y-118376223D01*
X92400302Y-118308102D01*
X92453958Y-118261609D01*
X92524232Y-118251505D01*
X92588812Y-118280999D01*
X92619088Y-118320057D01*
X92671312Y-118424935D01*
X92671313Y-118424936D01*
X92794666Y-118588284D01*
X92945936Y-118726185D01*
X93119966Y-118833940D01*
X93119968Y-118833940D01*
X93119973Y-118833944D01*
X93310844Y-118907888D01*
X93512053Y-118945500D01*
X93512055Y-118945500D01*
X93716745Y-118945500D01*
X93716747Y-118945500D01*
X93917956Y-118907888D01*
X94108827Y-118833944D01*
X94282862Y-118726186D01*
X94434132Y-118588285D01*
X94557488Y-118424935D01*
X94648728Y-118241701D01*
X94704745Y-118044821D01*
X94711040Y-117976880D01*
X94723632Y-117841004D01*
X95045168Y-117841004D01*
X95064054Y-118044819D01*
X95064055Y-118044821D01*
X95120072Y-118241701D01*
X95211312Y-118424935D01*
X95211313Y-118424936D01*
X95334666Y-118588284D01*
X95485936Y-118726185D01*
X95659966Y-118833940D01*
X95659968Y-118833940D01*
X95659973Y-118833944D01*
X95850844Y-118907888D01*
X96052053Y-118945500D01*
X96052055Y-118945500D01*
X96256745Y-118945500D01*
X96256747Y-118945500D01*
X96457956Y-118907888D01*
X96648827Y-118833944D01*
X96822862Y-118726186D01*
X96974132Y-118588285D01*
X97097488Y-118424935D01*
X97188728Y-118241701D01*
X97244745Y-118044821D01*
X97251040Y-117976880D01*
X97263632Y-117841004D01*
X97585168Y-117841004D01*
X97604054Y-118044819D01*
X97604055Y-118044821D01*
X97660072Y-118241701D01*
X97751312Y-118424935D01*
X97751313Y-118424936D01*
X97874666Y-118588284D01*
X98025936Y-118726185D01*
X98199966Y-118833940D01*
X98199968Y-118833940D01*
X98199973Y-118833944D01*
X98390844Y-118907888D01*
X98592053Y-118945500D01*
X98592055Y-118945500D01*
X98796745Y-118945500D01*
X98796747Y-118945500D01*
X98997956Y-118907888D01*
X99188827Y-118833944D01*
X99362862Y-118726186D01*
X99514132Y-118588285D01*
X99637488Y-118424935D01*
X99728728Y-118241701D01*
X99784745Y-118044821D01*
X99791040Y-117976880D01*
X99803632Y-117841004D01*
X100125168Y-117841004D01*
X100144054Y-118044819D01*
X100144055Y-118044821D01*
X100200072Y-118241701D01*
X100291312Y-118424935D01*
X100291313Y-118424936D01*
X100414666Y-118588284D01*
X100565936Y-118726185D01*
X100739966Y-118833940D01*
X100739968Y-118833940D01*
X100739973Y-118833944D01*
X100930844Y-118907888D01*
X101132053Y-118945500D01*
X101132055Y-118945500D01*
X101336745Y-118945500D01*
X101336747Y-118945500D01*
X101537956Y-118907888D01*
X101728827Y-118833944D01*
X101902862Y-118726186D01*
X102054132Y-118588285D01*
X102177488Y-118424935D01*
X102268728Y-118241701D01*
X102324745Y-118044821D01*
X102331040Y-117976880D01*
X102343632Y-117841004D01*
X102665168Y-117841004D01*
X102684054Y-118044819D01*
X102684055Y-118044821D01*
X102740072Y-118241701D01*
X102831312Y-118424935D01*
X102831313Y-118424936D01*
X102954666Y-118588284D01*
X103105936Y-118726185D01*
X103279966Y-118833940D01*
X103279968Y-118833940D01*
X103279973Y-118833944D01*
X103470844Y-118907888D01*
X103672053Y-118945500D01*
X103672055Y-118945500D01*
X103876745Y-118945500D01*
X103876747Y-118945500D01*
X104077956Y-118907888D01*
X104268827Y-118833944D01*
X104442862Y-118726186D01*
X104594132Y-118588285D01*
X104717488Y-118424935D01*
X104808728Y-118241701D01*
X104864745Y-118044821D01*
X104871040Y-117976880D01*
X104883632Y-117841004D01*
X105205168Y-117841004D01*
X105224054Y-118044819D01*
X105224055Y-118044821D01*
X105280072Y-118241701D01*
X105371312Y-118424935D01*
X105371313Y-118424936D01*
X105494666Y-118588284D01*
X105645936Y-118726185D01*
X105819966Y-118833940D01*
X105819968Y-118833940D01*
X105819973Y-118833944D01*
X106010844Y-118907888D01*
X106212053Y-118945500D01*
X106212055Y-118945500D01*
X106416745Y-118945500D01*
X106416747Y-118945500D01*
X106617956Y-118907888D01*
X106808827Y-118833944D01*
X106982862Y-118726186D01*
X107134132Y-118588285D01*
X107257488Y-118424935D01*
X107348728Y-118241701D01*
X107404745Y-118044821D01*
X107411040Y-117976880D01*
X107423632Y-117841004D01*
X107745168Y-117841004D01*
X107764054Y-118044819D01*
X107764055Y-118044821D01*
X107820072Y-118241701D01*
X107911312Y-118424935D01*
X107911313Y-118424936D01*
X108034666Y-118588284D01*
X108185936Y-118726185D01*
X108359966Y-118833940D01*
X108359968Y-118833940D01*
X108359973Y-118833944D01*
X108550844Y-118907888D01*
X108752053Y-118945500D01*
X108752055Y-118945500D01*
X108956745Y-118945500D01*
X108956747Y-118945500D01*
X109157956Y-118907888D01*
X109348827Y-118833944D01*
X109522862Y-118726186D01*
X109674132Y-118588285D01*
X109797488Y-118424935D01*
X109888728Y-118241701D01*
X109944745Y-118044821D01*
X109951040Y-117976880D01*
X109963632Y-117841004D01*
X110285168Y-117841004D01*
X110304054Y-118044819D01*
X110304055Y-118044821D01*
X110360072Y-118241701D01*
X110451312Y-118424935D01*
X110451313Y-118424936D01*
X110574666Y-118588284D01*
X110725936Y-118726185D01*
X110899966Y-118833940D01*
X110899968Y-118833940D01*
X110899973Y-118833944D01*
X111090844Y-118907888D01*
X111292053Y-118945500D01*
X111292055Y-118945500D01*
X111496745Y-118945500D01*
X111496747Y-118945500D01*
X111697956Y-118907888D01*
X111888827Y-118833944D01*
X112062862Y-118726186D01*
X112214132Y-118588285D01*
X112337488Y-118424935D01*
X112428728Y-118241701D01*
X112484745Y-118044821D01*
X112491040Y-117976880D01*
X112503632Y-117841004D01*
X112825168Y-117841004D01*
X112844054Y-118044819D01*
X112844055Y-118044821D01*
X112900072Y-118241701D01*
X112991312Y-118424935D01*
X112991313Y-118424936D01*
X113114666Y-118588284D01*
X113265936Y-118726185D01*
X113439966Y-118833940D01*
X113439968Y-118833940D01*
X113439973Y-118833944D01*
X113630844Y-118907888D01*
X113832053Y-118945500D01*
X113832055Y-118945500D01*
X114036745Y-118945500D01*
X114036747Y-118945500D01*
X114237956Y-118907888D01*
X114428827Y-118833944D01*
X114602862Y-118726186D01*
X114613966Y-118716063D01*
X115369900Y-118716063D01*
X115369901Y-118716073D01*
X115384665Y-118790300D01*
X115440916Y-118874484D01*
X115525097Y-118930733D01*
X115525099Y-118930734D01*
X115599333Y-118945500D01*
X117349466Y-118945499D01*
X117349469Y-118945498D01*
X117349473Y-118945498D01*
X117398726Y-118935701D01*
X117423701Y-118930734D01*
X117507884Y-118874484D01*
X117564134Y-118790301D01*
X117578900Y-118716067D01*
X117578900Y-117861004D01*
X118011768Y-117861004D01*
X118030654Y-118064819D01*
X118083771Y-118251505D01*
X118086672Y-118261701D01*
X118177912Y-118444935D01*
X118177913Y-118444936D01*
X118301266Y-118608284D01*
X118452536Y-118746185D01*
X118626566Y-118853940D01*
X118626568Y-118853940D01*
X118626573Y-118853944D01*
X118817444Y-118927888D01*
X119018653Y-118965500D01*
X119018655Y-118965500D01*
X119223345Y-118965500D01*
X119223347Y-118965500D01*
X119424556Y-118927888D01*
X119615427Y-118853944D01*
X119789462Y-118746186D01*
X119940732Y-118608285D01*
X120064088Y-118444935D01*
X120155328Y-118261701D01*
X120211345Y-118064821D01*
X120230232Y-117861000D01*
X120228378Y-117840995D01*
X120211345Y-117657180D01*
X120211345Y-117657179D01*
X120155328Y-117460299D01*
X120064088Y-117277065D01*
X120023538Y-117223368D01*
X119940733Y-117113715D01*
X119789463Y-116975814D01*
X119615433Y-116868059D01*
X119615428Y-116868057D01*
X119615427Y-116868056D01*
X119424559Y-116794113D01*
X119424560Y-116794113D01*
X119424557Y-116794112D01*
X119424556Y-116794112D01*
X119223347Y-116756500D01*
X119018653Y-116756500D01*
X118817444Y-116794112D01*
X118817439Y-116794113D01*
X118626577Y-116868054D01*
X118626566Y-116868059D01*
X118452536Y-116975814D01*
X118301266Y-117113715D01*
X118177913Y-117277063D01*
X118086671Y-117460301D01*
X118030654Y-117657180D01*
X118011768Y-117860995D01*
X118011768Y-117861004D01*
X117578900Y-117861004D01*
X117578899Y-116965934D01*
X117578898Y-116965930D01*
X117578898Y-116965926D01*
X117564134Y-116891699D01*
X117507883Y-116807515D01*
X117423702Y-116751266D01*
X117349467Y-116736500D01*
X115599336Y-116736500D01*
X115599326Y-116736501D01*
X115525099Y-116751265D01*
X115440915Y-116807516D01*
X115384666Y-116891697D01*
X115369900Y-116965930D01*
X115369900Y-118716063D01*
X114613966Y-118716063D01*
X114754132Y-118588285D01*
X114877488Y-118424935D01*
X114968728Y-118241701D01*
X115024745Y-118044821D01*
X115031040Y-117976880D01*
X115043632Y-117841004D01*
X115043632Y-117840995D01*
X115024745Y-117637180D01*
X114974418Y-117460299D01*
X114968728Y-117440299D01*
X114877488Y-117257065D01*
X114836938Y-117203368D01*
X114754133Y-117093715D01*
X114602863Y-116955814D01*
X114428833Y-116848059D01*
X114428828Y-116848057D01*
X114428827Y-116848056D01*
X114428822Y-116848054D01*
X114237959Y-116774113D01*
X114237960Y-116774113D01*
X114237957Y-116774112D01*
X114237956Y-116774112D01*
X114036747Y-116736500D01*
X113832053Y-116736500D01*
X113630844Y-116774112D01*
X113630839Y-116774113D01*
X113439977Y-116848054D01*
X113439966Y-116848059D01*
X113265936Y-116955814D01*
X113114666Y-117093715D01*
X112991313Y-117257063D01*
X112900071Y-117440301D01*
X112844054Y-117637180D01*
X112825168Y-117840995D01*
X112825168Y-117841004D01*
X112503632Y-117841004D01*
X112503632Y-117840995D01*
X112484745Y-117637180D01*
X112434418Y-117460299D01*
X112428728Y-117440299D01*
X112337488Y-117257065D01*
X112296938Y-117203368D01*
X112214133Y-117093715D01*
X112062863Y-116955814D01*
X111888833Y-116848059D01*
X111888828Y-116848057D01*
X111888827Y-116848056D01*
X111888822Y-116848054D01*
X111697959Y-116774113D01*
X111697960Y-116774113D01*
X111697957Y-116774112D01*
X111697956Y-116774112D01*
X111496747Y-116736500D01*
X111292053Y-116736500D01*
X111090844Y-116774112D01*
X111090839Y-116774113D01*
X110899977Y-116848054D01*
X110899966Y-116848059D01*
X110725936Y-116955814D01*
X110574666Y-117093715D01*
X110451313Y-117257063D01*
X110360071Y-117440301D01*
X110304054Y-117637180D01*
X110285168Y-117840995D01*
X110285168Y-117841004D01*
X109963632Y-117841004D01*
X109963632Y-117840995D01*
X109944745Y-117637180D01*
X109894418Y-117460299D01*
X109888728Y-117440299D01*
X109797488Y-117257065D01*
X109756938Y-117203368D01*
X109674133Y-117093715D01*
X109522863Y-116955814D01*
X109348833Y-116848059D01*
X109348828Y-116848057D01*
X109348827Y-116848056D01*
X109348822Y-116848054D01*
X109157959Y-116774113D01*
X109157960Y-116774113D01*
X109157957Y-116774112D01*
X109157956Y-116774112D01*
X108956747Y-116736500D01*
X108752053Y-116736500D01*
X108550844Y-116774112D01*
X108550839Y-116774113D01*
X108359977Y-116848054D01*
X108359966Y-116848059D01*
X108185936Y-116955814D01*
X108034666Y-117093715D01*
X107911313Y-117257063D01*
X107820071Y-117440301D01*
X107764054Y-117637180D01*
X107745168Y-117840995D01*
X107745168Y-117841004D01*
X107423632Y-117841004D01*
X107423632Y-117840995D01*
X107404745Y-117637180D01*
X107354418Y-117460299D01*
X107348728Y-117440299D01*
X107257488Y-117257065D01*
X107216938Y-117203368D01*
X107134133Y-117093715D01*
X106982863Y-116955814D01*
X106808833Y-116848059D01*
X106808828Y-116848057D01*
X106808827Y-116848056D01*
X106808822Y-116848054D01*
X106617959Y-116774113D01*
X106617960Y-116774113D01*
X106617957Y-116774112D01*
X106617956Y-116774112D01*
X106416747Y-116736500D01*
X106212053Y-116736500D01*
X106010844Y-116774112D01*
X106010839Y-116774113D01*
X105819977Y-116848054D01*
X105819966Y-116848059D01*
X105645936Y-116955814D01*
X105494666Y-117093715D01*
X105371313Y-117257063D01*
X105280071Y-117440301D01*
X105224054Y-117637180D01*
X105205168Y-117840995D01*
X105205168Y-117841004D01*
X104883632Y-117841004D01*
X104883632Y-117840995D01*
X104864745Y-117637180D01*
X104814418Y-117460299D01*
X104808728Y-117440299D01*
X104717488Y-117257065D01*
X104676938Y-117203368D01*
X104594133Y-117093715D01*
X104442863Y-116955814D01*
X104268833Y-116848059D01*
X104268828Y-116848057D01*
X104268827Y-116848056D01*
X104268822Y-116848054D01*
X104077959Y-116774113D01*
X104077960Y-116774113D01*
X104077957Y-116774112D01*
X104077956Y-116774112D01*
X103876747Y-116736500D01*
X103672053Y-116736500D01*
X103470844Y-116774112D01*
X103470839Y-116774113D01*
X103279977Y-116848054D01*
X103279966Y-116848059D01*
X103105936Y-116955814D01*
X102954666Y-117093715D01*
X102831313Y-117257063D01*
X102740071Y-117440301D01*
X102684054Y-117637180D01*
X102665168Y-117840995D01*
X102665168Y-117841004D01*
X102343632Y-117841004D01*
X102343632Y-117840995D01*
X102324745Y-117637180D01*
X102274418Y-117460299D01*
X102268728Y-117440299D01*
X102177488Y-117257065D01*
X102136938Y-117203368D01*
X102054133Y-117093715D01*
X101902863Y-116955814D01*
X101728833Y-116848059D01*
X101728828Y-116848057D01*
X101728827Y-116848056D01*
X101728822Y-116848054D01*
X101537959Y-116774113D01*
X101537960Y-116774113D01*
X101537957Y-116774112D01*
X101537956Y-116774112D01*
X101336747Y-116736500D01*
X101132053Y-116736500D01*
X100930844Y-116774112D01*
X100930839Y-116774113D01*
X100739977Y-116848054D01*
X100739966Y-116848059D01*
X100565936Y-116955814D01*
X100414666Y-117093715D01*
X100291313Y-117257063D01*
X100200071Y-117440301D01*
X100144054Y-117637180D01*
X100125168Y-117840995D01*
X100125168Y-117841004D01*
X99803632Y-117841004D01*
X99803632Y-117840995D01*
X99784745Y-117637180D01*
X99734418Y-117460299D01*
X99728728Y-117440299D01*
X99637488Y-117257065D01*
X99596938Y-117203368D01*
X99514133Y-117093715D01*
X99362863Y-116955814D01*
X99188833Y-116848059D01*
X99188828Y-116848057D01*
X99188827Y-116848056D01*
X99188822Y-116848054D01*
X98997959Y-116774113D01*
X98997960Y-116774113D01*
X98997957Y-116774112D01*
X98997956Y-116774112D01*
X98796747Y-116736500D01*
X98592053Y-116736500D01*
X98390844Y-116774112D01*
X98390839Y-116774113D01*
X98199977Y-116848054D01*
X98199966Y-116848059D01*
X98025936Y-116955814D01*
X97874666Y-117093715D01*
X97751313Y-117257063D01*
X97660071Y-117440301D01*
X97604054Y-117637180D01*
X97585168Y-117840995D01*
X97585168Y-117841004D01*
X97263632Y-117841004D01*
X97263632Y-117840995D01*
X97244745Y-117637180D01*
X97194418Y-117460299D01*
X97188728Y-117440299D01*
X97097488Y-117257065D01*
X97056938Y-117203368D01*
X96974133Y-117093715D01*
X96822863Y-116955814D01*
X96648833Y-116848059D01*
X96648828Y-116848057D01*
X96648827Y-116848056D01*
X96648822Y-116848054D01*
X96457959Y-116774113D01*
X96457960Y-116774113D01*
X96457957Y-116774112D01*
X96457956Y-116774112D01*
X96256747Y-116736500D01*
X96052053Y-116736500D01*
X95850844Y-116774112D01*
X95850839Y-116774113D01*
X95659977Y-116848054D01*
X95659966Y-116848059D01*
X95485936Y-116955814D01*
X95334666Y-117093715D01*
X95211313Y-117257063D01*
X95120071Y-117440301D01*
X95064054Y-117637180D01*
X95045168Y-117840995D01*
X95045168Y-117841004D01*
X94723632Y-117841004D01*
X94723632Y-117840995D01*
X94704745Y-117637180D01*
X94654418Y-117460299D01*
X94648728Y-117440299D01*
X94557488Y-117257065D01*
X94516938Y-117203368D01*
X94434133Y-117093715D01*
X94282863Y-116955814D01*
X94108833Y-116848059D01*
X94108828Y-116848057D01*
X94108827Y-116848056D01*
X94108822Y-116848054D01*
X93917959Y-116774113D01*
X93917960Y-116774113D01*
X93917957Y-116774112D01*
X93917956Y-116774112D01*
X93716747Y-116736500D01*
X93512053Y-116736500D01*
X93310844Y-116774112D01*
X93310839Y-116774113D01*
X93119977Y-116848054D01*
X93119966Y-116848059D01*
X92945936Y-116955814D01*
X92794666Y-117093715D01*
X92671312Y-117257064D01*
X92671308Y-117257069D01*
X92619090Y-117361939D01*
X92570821Y-117414003D01*
X92502067Y-117431705D01*
X92434657Y-117409426D01*
X92389993Y-117354238D01*
X92380300Y-117305776D01*
X92380300Y-115321004D01*
X118011768Y-115321004D01*
X118030654Y-115524819D01*
X118030655Y-115524821D01*
X118086672Y-115721701D01*
X118177912Y-115904935D01*
X118177913Y-115904936D01*
X118301266Y-116068284D01*
X118452536Y-116206185D01*
X118626566Y-116313940D01*
X118626568Y-116313940D01*
X118626573Y-116313944D01*
X118817444Y-116387888D01*
X119018653Y-116425500D01*
X119018655Y-116425500D01*
X119223345Y-116425500D01*
X119223347Y-116425500D01*
X119424556Y-116387888D01*
X119615427Y-116313944D01*
X119789462Y-116206186D01*
X119940732Y-116068285D01*
X120064088Y-115904935D01*
X120155328Y-115721701D01*
X120211345Y-115524821D01*
X120230232Y-115321000D01*
X120211345Y-115117179D01*
X120155328Y-114920299D01*
X120064088Y-114737065D01*
X120023538Y-114683368D01*
X119940733Y-114573715D01*
X119789463Y-114435814D01*
X119615433Y-114328059D01*
X119615428Y-114328057D01*
X119615427Y-114328056D01*
X119424559Y-114254113D01*
X119424560Y-114254113D01*
X119424557Y-114254112D01*
X119424556Y-114254112D01*
X119223347Y-114216500D01*
X119018653Y-114216500D01*
X118817444Y-114254112D01*
X118817439Y-114254113D01*
X118626577Y-114328054D01*
X118626566Y-114328059D01*
X118452536Y-114435814D01*
X118301266Y-114573715D01*
X118177913Y-114737063D01*
X118086671Y-114920301D01*
X118030654Y-115117180D01*
X118011768Y-115320995D01*
X118011768Y-115321004D01*
X92380300Y-115321004D01*
X92380300Y-112801403D01*
X111246271Y-112801403D01*
X111267079Y-112946127D01*
X111267081Y-112946134D01*
X111327824Y-113079143D01*
X111423579Y-113189650D01*
X111546589Y-113268704D01*
X111666039Y-113303778D01*
X111686885Y-113309899D01*
X111686886Y-113309899D01*
X111686889Y-113309900D01*
X111686892Y-113309900D01*
X111833108Y-113309900D01*
X111833111Y-113309900D01*
X111973411Y-113268704D01*
X112096421Y-113189650D01*
X112192176Y-113079143D01*
X112252919Y-112946134D01*
X112273729Y-112801400D01*
X112273729Y-112801396D01*
X112270797Y-112781004D01*
X118011768Y-112781004D01*
X118030654Y-112984819D01*
X118030655Y-112984821D01*
X118086672Y-113181701D01*
X118177912Y-113364935D01*
X118177913Y-113364936D01*
X118301266Y-113528284D01*
X118452536Y-113666185D01*
X118626566Y-113773940D01*
X118626568Y-113773940D01*
X118626573Y-113773944D01*
X118817444Y-113847888D01*
X119018653Y-113885500D01*
X119018655Y-113885500D01*
X119223345Y-113885500D01*
X119223347Y-113885500D01*
X119424556Y-113847888D01*
X119615427Y-113773944D01*
X119789462Y-113666186D01*
X119940732Y-113528285D01*
X120064088Y-113364935D01*
X120155328Y-113181701D01*
X120211345Y-112984821D01*
X120217640Y-112916880D01*
X120230232Y-112781004D01*
X120230232Y-112780995D01*
X120212837Y-112593282D01*
X120211345Y-112577179D01*
X120155328Y-112380299D01*
X120064088Y-112197065D01*
X119991939Y-112101524D01*
X119940733Y-112033715D01*
X119789463Y-111895814D01*
X119615433Y-111788059D01*
X119615428Y-111788057D01*
X119615427Y-111788056D01*
X119510547Y-111747425D01*
X119424559Y-111714113D01*
X119424560Y-111714113D01*
X119424557Y-111714112D01*
X119424556Y-111714112D01*
X119223347Y-111676500D01*
X119018653Y-111676500D01*
X118817444Y-111714112D01*
X118817439Y-111714113D01*
X118626577Y-111788054D01*
X118626566Y-111788059D01*
X118452536Y-111895814D01*
X118301266Y-112033715D01*
X118177913Y-112197063D01*
X118086671Y-112380301D01*
X118030654Y-112577180D01*
X118011768Y-112780995D01*
X118011768Y-112781004D01*
X112270797Y-112781004D01*
X112252920Y-112656672D01*
X112252919Y-112656669D01*
X112252919Y-112656666D01*
X112238602Y-112625316D01*
X112230070Y-112599639D01*
X112228692Y-112593275D01*
X112227980Y-112589985D01*
X112190310Y-112503212D01*
X112166046Y-112447294D01*
X112163872Y-112441520D01*
X112158173Y-112423785D01*
X112153516Y-112403842D01*
X112150004Y-112380301D01*
X112149816Y-112379041D01*
X112149159Y-112371775D01*
X112146730Y-112296370D01*
X112146730Y-112296367D01*
X112144549Y-112286641D01*
X112141500Y-112259086D01*
X112141500Y-110241004D01*
X118011768Y-110241004D01*
X118030654Y-110444819D01*
X118086671Y-110641698D01*
X118086672Y-110641701D01*
X118177912Y-110824935D01*
X118177913Y-110824936D01*
X118301266Y-110988284D01*
X118452536Y-111126185D01*
X118626566Y-111233940D01*
X118626568Y-111233940D01*
X118626573Y-111233944D01*
X118817444Y-111307888D01*
X119018653Y-111345500D01*
X119018655Y-111345500D01*
X119223345Y-111345500D01*
X119223347Y-111345500D01*
X119424556Y-111307888D01*
X119615427Y-111233944D01*
X119789462Y-111126186D01*
X119940732Y-110988285D01*
X119957985Y-110965439D01*
X119975100Y-110942774D01*
X120064088Y-110824935D01*
X120155328Y-110641701D01*
X120211345Y-110444821D01*
X120230232Y-110241000D01*
X120219709Y-110127444D01*
X120211345Y-110037180D01*
X120211345Y-110037179D01*
X120155328Y-109840299D01*
X120064088Y-109657065D01*
X120023538Y-109603368D01*
X119940733Y-109493715D01*
X119789463Y-109355814D01*
X119615433Y-109248059D01*
X119615428Y-109248057D01*
X119615427Y-109248056D01*
X119424559Y-109174113D01*
X119424560Y-109174113D01*
X119424557Y-109174112D01*
X119424556Y-109174112D01*
X119223347Y-109136500D01*
X119018653Y-109136500D01*
X118817444Y-109174112D01*
X118817439Y-109174113D01*
X118626577Y-109248054D01*
X118626566Y-109248059D01*
X118452536Y-109355814D01*
X118301266Y-109493715D01*
X118177913Y-109657063D01*
X118086671Y-109840301D01*
X118030654Y-110037180D01*
X118011768Y-110240995D01*
X118011768Y-110241004D01*
X112141500Y-110241004D01*
X112141500Y-108973012D01*
X112161502Y-108904891D01*
X112178399Y-108883922D01*
X113110149Y-107952172D01*
X113130321Y-107935793D01*
X113139556Y-107929760D01*
X113161711Y-107901293D01*
X113166877Y-107895444D01*
X113169714Y-107892609D01*
X113183500Y-107873299D01*
X113217758Y-107829285D01*
X113217760Y-107829276D01*
X113221556Y-107822265D01*
X113225070Y-107815076D01*
X113225075Y-107815070D01*
X113233984Y-107785143D01*
X113240990Y-107761612D01*
X113259099Y-107708864D01*
X113260410Y-107701004D01*
X118011768Y-107701004D01*
X118030654Y-107904819D01*
X118039466Y-107935789D01*
X118086672Y-108101701D01*
X118177912Y-108284935D01*
X118177913Y-108284936D01*
X118301266Y-108448284D01*
X118452536Y-108586185D01*
X118626566Y-108693940D01*
X118626568Y-108693940D01*
X118626573Y-108693944D01*
X118817444Y-108767888D01*
X119018653Y-108805500D01*
X119018655Y-108805500D01*
X119223345Y-108805500D01*
X119223347Y-108805500D01*
X119424556Y-108767888D01*
X119615427Y-108693944D01*
X119789462Y-108586186D01*
X119940732Y-108448285D01*
X120064088Y-108284935D01*
X120155328Y-108101701D01*
X120211345Y-107904821D01*
X120219662Y-107815067D01*
X120230232Y-107701004D01*
X120230232Y-107700995D01*
X120211345Y-107497180D01*
X120208499Y-107487177D01*
X120155328Y-107300299D01*
X120064088Y-107117065D01*
X119995432Y-107026149D01*
X119940733Y-106953715D01*
X119789463Y-106815814D01*
X119615433Y-106708059D01*
X119615428Y-106708057D01*
X119615427Y-106708056D01*
X119424559Y-106634113D01*
X119424560Y-106634113D01*
X119424557Y-106634112D01*
X119424556Y-106634112D01*
X119223347Y-106596500D01*
X119018653Y-106596500D01*
X118817444Y-106634112D01*
X118817439Y-106634113D01*
X118626577Y-106708054D01*
X118626566Y-106708059D01*
X118452536Y-106815814D01*
X118301266Y-106953715D01*
X118177913Y-107117063D01*
X118086671Y-107300301D01*
X118030654Y-107497180D01*
X118011768Y-107700995D01*
X118011768Y-107701004D01*
X113260410Y-107701004D01*
X113260419Y-107700952D01*
X113261405Y-107693042D01*
X113259100Y-107637315D01*
X113259100Y-107145779D01*
X113262376Y-107117234D01*
X113264329Y-107108836D01*
X113264331Y-107108829D01*
X113266758Y-107033418D01*
X113267413Y-107026171D01*
X113271116Y-107001345D01*
X113275772Y-106981414D01*
X113281462Y-106963703D01*
X113283646Y-106957907D01*
X113307911Y-106901984D01*
X113345642Y-106815071D01*
X113346983Y-106811924D01*
X113348432Y-106804770D01*
X113357305Y-106777467D01*
X113370519Y-106748534D01*
X113391329Y-106603800D01*
X113391329Y-106603796D01*
X113370520Y-106459072D01*
X113370519Y-106459071D01*
X113370519Y-106459066D01*
X113309776Y-106326057D01*
X113214021Y-106215550D01*
X113214020Y-106215549D01*
X113118162Y-106153945D01*
X113091011Y-106136496D01*
X113055936Y-106126196D01*
X112950714Y-106095300D01*
X112950711Y-106095300D01*
X112804489Y-106095300D01*
X112804485Y-106095300D01*
X112664189Y-106136496D01*
X112664187Y-106136497D01*
X112541179Y-106215549D01*
X112445424Y-106326056D01*
X112384681Y-106459065D01*
X112384679Y-106459072D01*
X112363871Y-106603796D01*
X112363871Y-106603803D01*
X112384680Y-106748534D01*
X112384681Y-106748537D01*
X112398994Y-106779879D01*
X112407525Y-106805547D01*
X112409618Y-106815213D01*
X112409619Y-106815215D01*
X112447287Y-106901985D01*
X112471547Y-106957895D01*
X112473735Y-106963705D01*
X112479421Y-106981402D01*
X112484081Y-107001352D01*
X112487392Y-107023545D01*
X112487780Y-107026149D01*
X112487782Y-107026159D01*
X112488439Y-107033430D01*
X112490870Y-107108836D01*
X112490870Y-107108837D01*
X112493049Y-107118554D01*
X112496100Y-107146115D01*
X112496100Y-107434986D01*
X112476098Y-107503107D01*
X112459195Y-107524082D01*
X111527455Y-108455821D01*
X111507282Y-108472204D01*
X111498041Y-108478241D01*
X111475896Y-108506693D01*
X111470736Y-108512538D01*
X111467892Y-108515383D01*
X111454099Y-108534700D01*
X111419840Y-108578716D01*
X111416030Y-108585758D01*
X111412524Y-108592929D01*
X111396610Y-108646386D01*
X111378499Y-108699139D01*
X111377184Y-108707018D01*
X111376194Y-108714960D01*
X111378500Y-108770684D01*
X111378500Y-112259420D01*
X111375223Y-112287970D01*
X111373270Y-112296362D01*
X111370839Y-112371768D01*
X111370181Y-112379041D01*
X111366479Y-112403851D01*
X111361824Y-112423786D01*
X111356137Y-112441485D01*
X111353954Y-112447284D01*
X111329687Y-112503212D01*
X111329687Y-112503213D01*
X111292020Y-112589985D01*
X111291957Y-112590129D01*
X111290617Y-112593272D01*
X111290614Y-112593282D01*
X111289162Y-112600442D01*
X111280292Y-112627734D01*
X111267082Y-112656662D01*
X111267080Y-112656669D01*
X111246271Y-112801396D01*
X111246271Y-112801403D01*
X92380300Y-112801403D01*
X92380300Y-111892419D01*
X97825573Y-111892419D01*
X97852938Y-112024103D01*
X97855144Y-112034720D01*
X97855145Y-112034721D01*
X97889760Y-112101524D01*
X97922007Y-112163758D01*
X98021207Y-112269975D01*
X98145385Y-112345489D01*
X98285332Y-112384700D01*
X98285333Y-112384700D01*
X98394167Y-112384700D01*
X98394180Y-112384699D01*
X98477019Y-112373312D01*
X98501983Y-112369881D01*
X98635287Y-112311979D01*
X98748026Y-112220259D01*
X98831839Y-112101523D01*
X98880509Y-111964579D01*
X98890427Y-111819581D01*
X98860857Y-111677284D01*
X98860855Y-111677280D01*
X98860855Y-111677279D01*
X98860854Y-111677278D01*
X98793995Y-111548246D01*
X98793994Y-111548244D01*
X98793993Y-111548242D01*
X98694793Y-111442025D01*
X98694792Y-111442024D01*
X98625720Y-111400021D01*
X98570615Y-111366511D01*
X98430668Y-111327300D01*
X98321833Y-111327300D01*
X98321819Y-111327300D01*
X98214025Y-111342117D01*
X98214016Y-111342119D01*
X98080711Y-111400021D01*
X97967976Y-111491739D01*
X97967970Y-111491745D01*
X97884161Y-111610475D01*
X97884159Y-111610480D01*
X97835491Y-111747419D01*
X97835490Y-111747425D01*
X97827606Y-111862690D01*
X97825573Y-111892419D01*
X92380300Y-111892419D01*
X92380300Y-110312203D01*
X103524671Y-110312203D01*
X103545479Y-110456927D01*
X103545481Y-110456934D01*
X103606224Y-110589943D01*
X103701979Y-110700450D01*
X103824989Y-110779504D01*
X103828952Y-110780667D01*
X103850979Y-110790732D01*
X103851469Y-110789777D01*
X103856974Y-110792601D01*
X103856979Y-110792604D01*
X103856983Y-110792605D01*
X103856984Y-110792606D01*
X103944969Y-110827324D01*
X103966331Y-110835757D01*
X104001682Y-110849713D01*
X104007314Y-110852264D01*
X104019416Y-110858480D01*
X104023859Y-110860763D01*
X104041251Y-110871568D01*
X104050049Y-110878080D01*
X104061398Y-110886483D01*
X104067001Y-110891157D01*
X104122051Y-110942771D01*
X104130475Y-110948110D01*
X104152117Y-110965439D01*
X104976016Y-111789338D01*
X104992402Y-111809515D01*
X104998437Y-111818752D01*
X104998440Y-111818756D01*
X105026437Y-111840547D01*
X105026900Y-111840907D01*
X105032757Y-111846080D01*
X105035584Y-111848907D01*
X105035591Y-111848913D01*
X105054889Y-111862691D01*
X105098915Y-111896958D01*
X105098917Y-111896958D01*
X105105955Y-111900768D01*
X105113127Y-111904273D01*
X105113130Y-111904275D01*
X105145836Y-111914011D01*
X105166590Y-111920191D01*
X105219333Y-111938298D01*
X105219339Y-111938300D01*
X105219345Y-111938300D01*
X105227250Y-111939619D01*
X105235156Y-111940605D01*
X105235157Y-111940604D01*
X105235158Y-111940605D01*
X105290884Y-111938300D01*
X108474828Y-111938300D01*
X108503376Y-111941576D01*
X108511768Y-111943529D01*
X108587173Y-111945957D01*
X108594415Y-111946611D01*
X108619247Y-111950315D01*
X108639191Y-111954975D01*
X108656879Y-111960658D01*
X108662687Y-111962845D01*
X108718615Y-111987111D01*
X108794950Y-112020249D01*
X108804873Y-112024782D01*
X108808097Y-112025938D01*
X108808664Y-112026179D01*
X108808665Y-112026180D01*
X108808670Y-112026181D01*
X108808675Y-112026183D01*
X108811847Y-112026825D01*
X108817045Y-112028113D01*
X108943689Y-112065300D01*
X108943692Y-112065300D01*
X109089908Y-112065300D01*
X109089911Y-112065300D01*
X109230211Y-112024104D01*
X109353221Y-111945050D01*
X109448976Y-111834543D01*
X109509719Y-111701534D01*
X109522811Y-111610480D01*
X109530529Y-111556803D01*
X109530529Y-111556796D01*
X109509720Y-111412072D01*
X109509719Y-111412071D01*
X109509719Y-111412066D01*
X109448976Y-111279057D01*
X109353221Y-111168550D01*
X109353220Y-111168549D01*
X109287300Y-111126185D01*
X109230211Y-111089496D01*
X109195136Y-111079196D01*
X109089914Y-111048300D01*
X109089911Y-111048300D01*
X108943689Y-111048300D01*
X108943687Y-111048300D01*
X108943682Y-111048301D01*
X108855865Y-111074086D01*
X108808729Y-111087926D01*
X108805934Y-111088640D01*
X108803660Y-111089372D01*
X108794960Y-111093342D01*
X108719310Y-111126185D01*
X108718612Y-111126488D01*
X108662692Y-111150751D01*
X108656880Y-111152940D01*
X108639190Y-111158623D01*
X108619245Y-111163281D01*
X108594438Y-111166982D01*
X108587167Y-111167639D01*
X108511762Y-111170070D01*
X108511759Y-111170071D01*
X108502050Y-111172248D01*
X108474486Y-111175300D01*
X105493213Y-111175300D01*
X105425092Y-111155298D01*
X105404117Y-111138395D01*
X105058328Y-110792606D01*
X104691395Y-110425672D01*
X104673527Y-110403171D01*
X104668971Y-110395853D01*
X104668970Y-110395851D01*
X104617366Y-110340811D01*
X104612688Y-110335203D01*
X104597772Y-110315056D01*
X104586960Y-110297653D01*
X104578470Y-110281125D01*
X104575910Y-110275472D01*
X104553523Y-110218769D01*
X104518748Y-110130637D01*
X104517467Y-110127453D01*
X104517465Y-110127448D01*
X104508728Y-110114268D01*
X104499136Y-110096994D01*
X104486212Y-110068695D01*
X104470576Y-110034457D01*
X104374821Y-109923950D01*
X104374820Y-109923949D01*
X104313315Y-109884423D01*
X104251811Y-109844896D01*
X104216736Y-109834596D01*
X104111514Y-109803700D01*
X104111511Y-109803700D01*
X103965289Y-109803700D01*
X103965285Y-109803700D01*
X103824989Y-109844896D01*
X103824987Y-109844897D01*
X103701979Y-109923949D01*
X103606224Y-110034456D01*
X103545481Y-110167465D01*
X103545479Y-110167472D01*
X103524671Y-110312196D01*
X103524671Y-110312203D01*
X92380300Y-110312203D01*
X92380300Y-101218059D01*
X92400302Y-101149938D01*
X92453958Y-101103445D01*
X92524232Y-101093341D01*
X92579833Y-101118734D01*
X92580598Y-101117590D01*
X92587660Y-101122309D01*
X92588812Y-101122835D01*
X92589738Y-101123697D01*
X92675097Y-101180733D01*
X92675099Y-101180734D01*
X92749333Y-101195500D01*
X94499466Y-101195499D01*
X94499469Y-101195498D01*
X94499473Y-101195498D01*
X94549739Y-101185500D01*
X94573701Y-101180734D01*
X94657884Y-101124484D01*
X94714134Y-101040301D01*
X94728900Y-100966067D01*
X94728900Y-100091004D01*
X95055168Y-100091004D01*
X95074054Y-100294819D01*
X95074055Y-100294821D01*
X95130072Y-100491701D01*
X95221312Y-100674935D01*
X95221313Y-100674936D01*
X95344666Y-100838283D01*
X95344668Y-100838285D01*
X95383243Y-100873452D01*
X95397331Y-100888591D01*
X95402562Y-100895231D01*
X95404365Y-100897519D01*
X95488917Y-100969785D01*
X95495938Y-100976186D01*
X95495940Y-100976187D01*
X95498429Y-100978067D01*
X95501393Y-100980450D01*
X95571420Y-101040301D01*
X95643104Y-101101569D01*
X95647953Y-101105516D01*
X95653371Y-101109712D01*
X95658460Y-101113459D01*
X95808016Y-101218059D01*
X95855205Y-101251063D01*
X95860257Y-101254993D01*
X95954863Y-101336639D01*
X95983167Y-101371714D01*
X96017327Y-101434371D01*
X96031766Y-101479372D01*
X96057963Y-101693343D01*
X96059027Y-101698464D01*
X96058295Y-101698615D01*
X96062299Y-101726249D01*
X96062299Y-108917224D01*
X96061017Y-108935154D01*
X96057071Y-108962602D01*
X96057071Y-108962605D01*
X96077879Y-109107329D01*
X96077881Y-109107336D01*
X96138624Y-109240345D01*
X96234379Y-109350852D01*
X96357389Y-109429906D01*
X96476839Y-109464980D01*
X96497685Y-109471101D01*
X96497686Y-109471101D01*
X96497689Y-109471102D01*
X96497692Y-109471102D01*
X96643908Y-109471102D01*
X96643911Y-109471102D01*
X96784211Y-109429906D01*
X96907221Y-109350852D01*
X97002976Y-109240345D01*
X97063719Y-109107336D01*
X97064027Y-109105191D01*
X97084529Y-108962605D01*
X97084529Y-108962600D01*
X97080583Y-108935157D01*
X97079300Y-108917224D01*
X97079300Y-106112419D01*
X97825573Y-106112419D01*
X97847004Y-106215549D01*
X97855144Y-106254720D01*
X97855145Y-106254721D01*
X97922004Y-106383753D01*
X97922007Y-106383758D01*
X98021207Y-106489975D01*
X98145385Y-106565489D01*
X98285332Y-106604700D01*
X98285333Y-106604700D01*
X98394167Y-106604700D01*
X98394180Y-106604699D01*
X98477019Y-106593312D01*
X98501983Y-106589881D01*
X98635287Y-106531979D01*
X98748026Y-106440259D01*
X98831839Y-106321523D01*
X98880509Y-106184579D01*
X98890427Y-106039581D01*
X98860857Y-105897284D01*
X98860855Y-105897280D01*
X98860855Y-105897279D01*
X98860854Y-105897278D01*
X98793995Y-105768246D01*
X98793994Y-105768244D01*
X98793993Y-105768242D01*
X98694793Y-105662025D01*
X98694792Y-105662024D01*
X98625720Y-105620021D01*
X98570615Y-105586511D01*
X98430668Y-105547300D01*
X98321833Y-105547300D01*
X98321819Y-105547300D01*
X98214025Y-105562117D01*
X98214016Y-105562119D01*
X98080711Y-105620021D01*
X97967976Y-105711739D01*
X97967970Y-105711745D01*
X97884161Y-105830475D01*
X97884159Y-105830480D01*
X97835491Y-105967419D01*
X97835490Y-105967425D01*
X97830555Y-106039581D01*
X97825573Y-106112419D01*
X97079300Y-106112419D01*
X97079300Y-105161004D01*
X118011768Y-105161004D01*
X118030654Y-105364819D01*
X118086671Y-105561698D01*
X118086672Y-105561701D01*
X118177912Y-105744935D01*
X118177913Y-105744936D01*
X118301266Y-105908284D01*
X118452536Y-106046185D01*
X118626566Y-106153940D01*
X118626568Y-106153940D01*
X118626573Y-106153944D01*
X118817444Y-106227888D01*
X119018653Y-106265500D01*
X119018655Y-106265500D01*
X119223345Y-106265500D01*
X119223347Y-106265500D01*
X119424556Y-106227888D01*
X119615427Y-106153944D01*
X119789462Y-106046186D01*
X119940732Y-105908285D01*
X120064088Y-105744935D01*
X120155328Y-105561701D01*
X120211345Y-105364821D01*
X120230232Y-105161000D01*
X120211345Y-104957179D01*
X120155328Y-104760299D01*
X120064088Y-104577065D01*
X120023538Y-104523368D01*
X119940733Y-104413715D01*
X119789463Y-104275814D01*
X119615433Y-104168059D01*
X119615428Y-104168057D01*
X119615427Y-104168056D01*
X119424559Y-104094113D01*
X119424560Y-104094113D01*
X119424557Y-104094112D01*
X119424556Y-104094112D01*
X119223347Y-104056500D01*
X119018653Y-104056500D01*
X118817444Y-104094112D01*
X118817439Y-104094113D01*
X118626577Y-104168054D01*
X118626566Y-104168059D01*
X118452536Y-104275814D01*
X118301266Y-104413715D01*
X118177913Y-104577063D01*
X118086671Y-104760301D01*
X118030654Y-104957180D01*
X118011768Y-105160995D01*
X118011768Y-105161004D01*
X97079300Y-105161004D01*
X97079300Y-102621004D01*
X118011768Y-102621004D01*
X118030654Y-102824819D01*
X118030655Y-102824821D01*
X118086672Y-103021701D01*
X118177912Y-103204935D01*
X118177913Y-103204936D01*
X118301266Y-103368284D01*
X118452536Y-103506185D01*
X118626566Y-103613940D01*
X118626568Y-103613940D01*
X118626573Y-103613944D01*
X118817444Y-103687888D01*
X119018653Y-103725500D01*
X119018655Y-103725500D01*
X119223345Y-103725500D01*
X119223347Y-103725500D01*
X119424556Y-103687888D01*
X119615427Y-103613944D01*
X119789462Y-103506186D01*
X119940732Y-103368285D01*
X120064088Y-103204935D01*
X120155328Y-103021701D01*
X120211345Y-102824821D01*
X120230232Y-102621000D01*
X120211345Y-102417179D01*
X120155328Y-102220299D01*
X120064088Y-102037065D01*
X120023538Y-101983368D01*
X119940733Y-101873715D01*
X119789463Y-101735814D01*
X119615433Y-101628059D01*
X119615428Y-101628057D01*
X119615427Y-101628056D01*
X119424559Y-101554113D01*
X119424560Y-101554113D01*
X119424557Y-101554112D01*
X119424556Y-101554112D01*
X119223347Y-101516500D01*
X119018653Y-101516500D01*
X118817444Y-101554112D01*
X118817439Y-101554113D01*
X118626577Y-101628054D01*
X118626566Y-101628059D01*
X118452536Y-101735814D01*
X118301266Y-101873715D01*
X118177913Y-102037063D01*
X118086671Y-102220301D01*
X118030654Y-102417180D01*
X118011768Y-102620995D01*
X118011768Y-102621004D01*
X97079300Y-102621004D01*
X97079300Y-101710365D01*
X97083104Y-101679638D01*
X97084531Y-101673962D01*
X97084532Y-101673959D01*
X97086831Y-101628059D01*
X97094276Y-101479372D01*
X97102740Y-101310333D01*
X97103547Y-101302965D01*
X97145693Y-101054272D01*
X97146475Y-101050401D01*
X97201159Y-100817818D01*
X97202854Y-100809438D01*
X97251113Y-100524671D01*
X97252166Y-100517112D01*
X97253073Y-100508827D01*
X97253682Y-100501194D01*
X97273114Y-100113169D01*
X97273211Y-100109514D01*
X97273300Y-100103005D01*
X97273299Y-100103004D01*
X97273401Y-100095616D01*
X97273632Y-100091260D01*
X97273632Y-100091007D01*
X97273631Y-100091004D01*
X97595168Y-100091004D01*
X97614054Y-100294819D01*
X97614055Y-100294821D01*
X97670072Y-100491701D01*
X97761312Y-100674935D01*
X97761313Y-100674936D01*
X97884666Y-100838284D01*
X98035936Y-100976185D01*
X98209966Y-101083940D01*
X98209968Y-101083940D01*
X98209973Y-101083944D01*
X98400844Y-101157888D01*
X98602053Y-101195500D01*
X98602055Y-101195500D01*
X98806745Y-101195500D01*
X98806747Y-101195500D01*
X99007956Y-101157888D01*
X99198827Y-101083944D01*
X99372862Y-100976186D01*
X99524132Y-100838285D01*
X99531685Y-100828284D01*
X99545918Y-100809436D01*
X99647488Y-100674935D01*
X99738728Y-100491701D01*
X99794745Y-100294821D01*
X99811578Y-100113167D01*
X99813632Y-100091004D01*
X100135168Y-100091004D01*
X100154054Y-100294819D01*
X100154055Y-100294821D01*
X100210072Y-100491701D01*
X100301312Y-100674935D01*
X100301313Y-100674936D01*
X100424666Y-100838284D01*
X100575936Y-100976185D01*
X100749966Y-101083940D01*
X100749968Y-101083940D01*
X100749973Y-101083944D01*
X100940844Y-101157888D01*
X101142053Y-101195500D01*
X101142055Y-101195500D01*
X101346745Y-101195500D01*
X101346747Y-101195500D01*
X101547956Y-101157888D01*
X101738827Y-101083944D01*
X101912862Y-100976186D01*
X102064132Y-100838285D01*
X102071685Y-100828284D01*
X102085918Y-100809436D01*
X102187488Y-100674935D01*
X102278728Y-100491701D01*
X102334745Y-100294821D01*
X102351578Y-100113167D01*
X102353632Y-100091004D01*
X102675168Y-100091004D01*
X102694054Y-100294819D01*
X102694055Y-100294821D01*
X102750072Y-100491701D01*
X102841312Y-100674935D01*
X102841313Y-100674936D01*
X102964666Y-100838284D01*
X103115936Y-100976185D01*
X103289966Y-101083940D01*
X103289968Y-101083940D01*
X103289973Y-101083944D01*
X103480844Y-101157888D01*
X103682053Y-101195500D01*
X103682055Y-101195500D01*
X103886745Y-101195500D01*
X103886747Y-101195500D01*
X104087956Y-101157888D01*
X104278827Y-101083944D01*
X104452862Y-100976186D01*
X104604132Y-100838285D01*
X104611685Y-100828284D01*
X104625918Y-100809436D01*
X104727488Y-100674935D01*
X104818728Y-100491701D01*
X104874745Y-100294821D01*
X104891578Y-100113167D01*
X104893632Y-100091004D01*
X105215168Y-100091004D01*
X105234054Y-100294819D01*
X105234055Y-100294821D01*
X105290072Y-100491701D01*
X105381312Y-100674935D01*
X105381313Y-100674936D01*
X105504666Y-100838284D01*
X105655936Y-100976185D01*
X105829966Y-101083940D01*
X105829968Y-101083940D01*
X105829973Y-101083944D01*
X106020844Y-101157888D01*
X106222053Y-101195500D01*
X106222055Y-101195500D01*
X106426745Y-101195500D01*
X106426747Y-101195500D01*
X106627956Y-101157888D01*
X106818827Y-101083944D01*
X106992862Y-100976186D01*
X107144132Y-100838285D01*
X107151685Y-100828284D01*
X107165918Y-100809436D01*
X107267488Y-100674935D01*
X107358728Y-100491701D01*
X107414745Y-100294821D01*
X107431578Y-100113167D01*
X107433632Y-100091004D01*
X107755168Y-100091004D01*
X107774054Y-100294819D01*
X107774055Y-100294821D01*
X107830072Y-100491701D01*
X107921312Y-100674935D01*
X107921313Y-100674936D01*
X108044666Y-100838284D01*
X108195936Y-100976185D01*
X108369966Y-101083940D01*
X108369968Y-101083940D01*
X108369973Y-101083944D01*
X108560844Y-101157888D01*
X108762053Y-101195500D01*
X108762055Y-101195500D01*
X108966745Y-101195500D01*
X108966747Y-101195500D01*
X109167956Y-101157888D01*
X109358827Y-101083944D01*
X109532862Y-100976186D01*
X109684132Y-100838285D01*
X109691685Y-100828284D01*
X109705918Y-100809436D01*
X109807488Y-100674935D01*
X109898728Y-100491701D01*
X109954745Y-100294821D01*
X109971578Y-100113167D01*
X109973632Y-100091004D01*
X110295168Y-100091004D01*
X110314054Y-100294819D01*
X110314055Y-100294821D01*
X110370072Y-100491701D01*
X110461312Y-100674935D01*
X110461313Y-100674936D01*
X110584666Y-100838284D01*
X110735936Y-100976185D01*
X110909966Y-101083940D01*
X110909968Y-101083940D01*
X110909973Y-101083944D01*
X111100844Y-101157888D01*
X111302053Y-101195500D01*
X111302055Y-101195500D01*
X111506745Y-101195500D01*
X111506747Y-101195500D01*
X111707956Y-101157888D01*
X111898827Y-101083944D01*
X112072862Y-100976186D01*
X112224132Y-100838285D01*
X112231685Y-100828284D01*
X112245918Y-100809436D01*
X112347488Y-100674935D01*
X112438728Y-100491701D01*
X112494745Y-100294821D01*
X112511578Y-100113167D01*
X112513632Y-100091004D01*
X112835168Y-100091004D01*
X112854054Y-100294819D01*
X112854055Y-100294821D01*
X112910072Y-100491701D01*
X113001312Y-100674935D01*
X113001313Y-100674936D01*
X113124666Y-100838284D01*
X113275936Y-100976185D01*
X113449966Y-101083940D01*
X113449968Y-101083940D01*
X113449973Y-101083944D01*
X113640844Y-101157888D01*
X113842053Y-101195500D01*
X113842055Y-101195500D01*
X114046745Y-101195500D01*
X114046747Y-101195500D01*
X114247956Y-101157888D01*
X114438827Y-101083944D01*
X114612862Y-100976186D01*
X114764132Y-100838285D01*
X114771685Y-100828284D01*
X114785918Y-100809436D01*
X114887488Y-100674935D01*
X114978728Y-100491701D01*
X115034745Y-100294821D01*
X115051578Y-100113167D01*
X115053632Y-100091004D01*
X115375168Y-100091004D01*
X115394054Y-100294819D01*
X115394055Y-100294821D01*
X115450072Y-100491701D01*
X115541312Y-100674935D01*
X115541313Y-100674936D01*
X115664666Y-100838284D01*
X115815936Y-100976185D01*
X115989966Y-101083940D01*
X115989968Y-101083940D01*
X115989973Y-101083944D01*
X116180844Y-101157888D01*
X116382053Y-101195500D01*
X116382055Y-101195500D01*
X116586745Y-101195500D01*
X116586747Y-101195500D01*
X116787956Y-101157888D01*
X116978827Y-101083944D01*
X117152862Y-100976186D01*
X117304132Y-100838285D01*
X117311685Y-100828284D01*
X117325918Y-100809436D01*
X117427488Y-100674935D01*
X117518728Y-100491701D01*
X117574745Y-100294821D01*
X117591578Y-100113167D01*
X117593632Y-100091004D01*
X117593632Y-100090995D01*
X117592706Y-100081004D01*
X118011768Y-100081004D01*
X118030654Y-100284819D01*
X118033500Y-100294821D01*
X118086672Y-100481701D01*
X118177912Y-100664935D01*
X118198186Y-100691783D01*
X118301266Y-100828284D01*
X118452536Y-100966185D01*
X118626566Y-101073940D01*
X118626568Y-101073940D01*
X118626573Y-101073944D01*
X118817444Y-101147888D01*
X119018653Y-101185500D01*
X119018655Y-101185500D01*
X119223345Y-101185500D01*
X119223347Y-101185500D01*
X119424556Y-101147888D01*
X119615427Y-101073944D01*
X119789462Y-100966186D01*
X119940732Y-100828285D01*
X120064088Y-100664935D01*
X120155328Y-100481701D01*
X120211345Y-100284821D01*
X120227251Y-100113169D01*
X120230232Y-100081004D01*
X120230232Y-100080995D01*
X120211345Y-99877180D01*
X120211345Y-99877179D01*
X120155328Y-99680299D01*
X120064088Y-99497065D01*
X120023538Y-99443368D01*
X119940733Y-99333715D01*
X119789463Y-99195814D01*
X119615433Y-99088059D01*
X119615428Y-99088057D01*
X119615427Y-99088056D01*
X119599787Y-99081997D01*
X119424559Y-99014113D01*
X119424560Y-99014113D01*
X119424557Y-99014112D01*
X119424556Y-99014112D01*
X119223347Y-98976500D01*
X119018653Y-98976500D01*
X118817444Y-99014112D01*
X118817439Y-99014113D01*
X118626577Y-99088054D01*
X118626566Y-99088059D01*
X118452536Y-99195814D01*
X118301266Y-99333715D01*
X118177913Y-99497063D01*
X118086671Y-99680301D01*
X118030654Y-99877180D01*
X118011768Y-100080995D01*
X118011768Y-100081004D01*
X117592706Y-100081004D01*
X117574745Y-99887180D01*
X117571900Y-99877180D01*
X117518728Y-99690299D01*
X117427488Y-99507065D01*
X117386938Y-99453368D01*
X117304133Y-99343715D01*
X117152863Y-99205814D01*
X116978833Y-99098059D01*
X116978828Y-99098057D01*
X116978827Y-99098056D01*
X116937374Y-99081997D01*
X116787959Y-99024113D01*
X116787960Y-99024113D01*
X116787957Y-99024112D01*
X116787956Y-99024112D01*
X116586747Y-98986500D01*
X116382053Y-98986500D01*
X116234335Y-99014113D01*
X116180839Y-99024113D01*
X115989977Y-99098054D01*
X115989966Y-99098059D01*
X115815936Y-99205814D01*
X115664666Y-99343715D01*
X115541313Y-99507063D01*
X115450071Y-99690301D01*
X115394054Y-99887180D01*
X115375168Y-100090995D01*
X115375168Y-100091004D01*
X115053632Y-100091004D01*
X115053632Y-100090995D01*
X115034745Y-99887180D01*
X115031900Y-99877180D01*
X114978728Y-99690299D01*
X114887488Y-99507065D01*
X114846938Y-99453368D01*
X114764133Y-99343715D01*
X114612863Y-99205814D01*
X114438833Y-99098059D01*
X114438828Y-99098057D01*
X114438827Y-99098056D01*
X114397374Y-99081997D01*
X114247959Y-99024113D01*
X114247960Y-99024113D01*
X114247957Y-99024112D01*
X114247956Y-99024112D01*
X114046747Y-98986500D01*
X113842053Y-98986500D01*
X113694335Y-99014113D01*
X113640839Y-99024113D01*
X113449977Y-99098054D01*
X113449966Y-99098059D01*
X113275936Y-99205814D01*
X113124666Y-99343715D01*
X113001313Y-99507063D01*
X112910071Y-99690301D01*
X112854054Y-99887180D01*
X112835168Y-100090995D01*
X112835168Y-100091004D01*
X112513632Y-100091004D01*
X112513632Y-100090995D01*
X112494745Y-99887180D01*
X112491900Y-99877180D01*
X112438728Y-99690299D01*
X112347488Y-99507065D01*
X112306938Y-99453368D01*
X112224133Y-99343715D01*
X112072863Y-99205814D01*
X111898833Y-99098059D01*
X111898828Y-99098057D01*
X111898827Y-99098056D01*
X111857374Y-99081997D01*
X111707959Y-99024113D01*
X111707960Y-99024113D01*
X111707957Y-99024112D01*
X111707956Y-99024112D01*
X111506747Y-98986500D01*
X111302053Y-98986500D01*
X111154335Y-99014113D01*
X111100839Y-99024113D01*
X110909977Y-99098054D01*
X110909966Y-99098059D01*
X110735936Y-99205814D01*
X110584666Y-99343715D01*
X110461313Y-99507063D01*
X110370071Y-99690301D01*
X110314054Y-99887180D01*
X110295168Y-100090995D01*
X110295168Y-100091004D01*
X109973632Y-100091004D01*
X109973632Y-100090995D01*
X109954745Y-99887180D01*
X109951900Y-99877180D01*
X109898728Y-99690299D01*
X109807488Y-99507065D01*
X109766938Y-99453368D01*
X109684133Y-99343715D01*
X109532863Y-99205814D01*
X109358833Y-99098059D01*
X109358828Y-99098057D01*
X109358827Y-99098056D01*
X109317374Y-99081997D01*
X109167959Y-99024113D01*
X109167960Y-99024113D01*
X109167957Y-99024112D01*
X109167956Y-99024112D01*
X108966747Y-98986500D01*
X108762053Y-98986500D01*
X108614335Y-99014113D01*
X108560839Y-99024113D01*
X108369977Y-99098054D01*
X108369966Y-99098059D01*
X108195936Y-99205814D01*
X108044666Y-99343715D01*
X107921313Y-99507063D01*
X107830071Y-99690301D01*
X107774054Y-99887180D01*
X107755168Y-100090995D01*
X107755168Y-100091004D01*
X107433632Y-100091004D01*
X107433632Y-100090995D01*
X107414745Y-99887180D01*
X107411900Y-99877180D01*
X107358728Y-99690299D01*
X107267488Y-99507065D01*
X107226938Y-99453368D01*
X107144133Y-99343715D01*
X106992863Y-99205814D01*
X106818833Y-99098059D01*
X106818828Y-99098057D01*
X106818827Y-99098056D01*
X106777374Y-99081997D01*
X106627959Y-99024113D01*
X106627960Y-99024113D01*
X106627957Y-99024112D01*
X106627956Y-99024112D01*
X106426747Y-98986500D01*
X106222053Y-98986500D01*
X106074335Y-99014113D01*
X106020839Y-99024113D01*
X105829977Y-99098054D01*
X105829966Y-99098059D01*
X105655936Y-99205814D01*
X105504666Y-99343715D01*
X105381313Y-99507063D01*
X105290071Y-99690301D01*
X105234054Y-99887180D01*
X105215168Y-100090995D01*
X105215168Y-100091004D01*
X104893632Y-100091004D01*
X104893632Y-100090995D01*
X104874745Y-99887180D01*
X104871900Y-99877180D01*
X104818728Y-99690299D01*
X104727488Y-99507065D01*
X104686938Y-99453368D01*
X104604133Y-99343715D01*
X104452863Y-99205814D01*
X104278833Y-99098059D01*
X104278828Y-99098057D01*
X104278827Y-99098056D01*
X104237374Y-99081997D01*
X104087959Y-99024113D01*
X104087960Y-99024113D01*
X104087957Y-99024112D01*
X104087956Y-99024112D01*
X103886747Y-98986500D01*
X103682053Y-98986500D01*
X103534335Y-99014113D01*
X103480839Y-99024113D01*
X103289977Y-99098054D01*
X103289966Y-99098059D01*
X103115936Y-99205814D01*
X102964666Y-99343715D01*
X102841313Y-99507063D01*
X102750071Y-99690301D01*
X102694054Y-99887180D01*
X102675168Y-100090995D01*
X102675168Y-100091004D01*
X102353632Y-100091004D01*
X102353632Y-100090995D01*
X102334745Y-99887180D01*
X102331900Y-99877180D01*
X102278728Y-99690299D01*
X102187488Y-99507065D01*
X102146938Y-99453368D01*
X102064133Y-99343715D01*
X101912863Y-99205814D01*
X101738833Y-99098059D01*
X101738828Y-99098057D01*
X101738827Y-99098056D01*
X101697374Y-99081997D01*
X101547959Y-99024113D01*
X101547960Y-99024113D01*
X101547957Y-99024112D01*
X101547956Y-99024112D01*
X101346747Y-98986500D01*
X101142053Y-98986500D01*
X100994335Y-99014113D01*
X100940839Y-99024113D01*
X100749977Y-99098054D01*
X100749966Y-99098059D01*
X100575936Y-99205814D01*
X100424666Y-99343715D01*
X100301313Y-99507063D01*
X100210071Y-99690301D01*
X100154054Y-99887180D01*
X100135168Y-100090995D01*
X100135168Y-100091004D01*
X99813632Y-100091004D01*
X99813632Y-100090995D01*
X99794745Y-99887180D01*
X99791900Y-99877180D01*
X99738728Y-99690299D01*
X99647488Y-99507065D01*
X99606938Y-99453368D01*
X99524133Y-99343715D01*
X99372863Y-99205814D01*
X99198833Y-99098059D01*
X99198828Y-99098057D01*
X99198827Y-99098056D01*
X99157374Y-99081997D01*
X99007959Y-99024113D01*
X99007960Y-99024113D01*
X99007957Y-99024112D01*
X99007956Y-99024112D01*
X98806747Y-98986500D01*
X98602053Y-98986500D01*
X98454335Y-99014113D01*
X98400839Y-99024113D01*
X98209977Y-99098054D01*
X98209966Y-99098059D01*
X98035936Y-99205814D01*
X97884666Y-99343715D01*
X97761313Y-99507063D01*
X97670071Y-99690301D01*
X97614054Y-99887180D01*
X97595168Y-100090995D01*
X97595168Y-100091004D01*
X97273631Y-100091004D01*
X97273631Y-100091003D01*
X97273632Y-100091000D01*
X97254745Y-99887179D01*
X97198728Y-99690299D01*
X97107488Y-99507065D01*
X97066938Y-99453368D01*
X96984133Y-99343715D01*
X96832863Y-99205814D01*
X96658833Y-99098059D01*
X96658828Y-99098057D01*
X96658827Y-99098056D01*
X96617374Y-99081997D01*
X96467959Y-99024113D01*
X96467960Y-99024113D01*
X96467957Y-99024112D01*
X96467956Y-99024112D01*
X96266747Y-98986500D01*
X96062053Y-98986500D01*
X95914335Y-99014113D01*
X95860839Y-99024113D01*
X95669977Y-99098054D01*
X95669966Y-99098059D01*
X95495936Y-99205814D01*
X95344666Y-99343715D01*
X95221313Y-99507063D01*
X95130071Y-99690301D01*
X95074054Y-99887180D01*
X95055168Y-100090995D01*
X95055168Y-100091004D01*
X94728900Y-100091004D01*
X94728899Y-99215934D01*
X94728898Y-99215931D01*
X94728898Y-99215926D01*
X94714134Y-99141699D01*
X94657883Y-99057515D01*
X94573702Y-99001266D01*
X94499467Y-98986500D01*
X92749336Y-98986500D01*
X92749326Y-98986501D01*
X92675099Y-99001265D01*
X92580597Y-99064411D01*
X92578984Y-99061997D01*
X92533083Y-99087062D01*
X92462268Y-99081997D01*
X92405432Y-99039450D01*
X92380621Y-98972930D01*
X92380300Y-98963941D01*
X92380300Y-98416063D01*
X118016500Y-98416063D01*
X118016501Y-98416073D01*
X118031265Y-98490300D01*
X118087516Y-98574484D01*
X118171697Y-98630733D01*
X118171699Y-98630734D01*
X118245933Y-98645500D01*
X119996066Y-98645499D01*
X119996069Y-98645498D01*
X119996073Y-98645498D01*
X120045326Y-98635701D01*
X120070301Y-98630734D01*
X120154484Y-98574484D01*
X120210734Y-98490301D01*
X120225500Y-98416067D01*
X120225499Y-96665934D01*
X120225498Y-96665930D01*
X120225498Y-96665926D01*
X120210734Y-96591699D01*
X120154483Y-96507515D01*
X120070302Y-96451266D01*
X119996067Y-96436500D01*
X118245936Y-96436500D01*
X118245926Y-96436501D01*
X118171699Y-96451265D01*
X118087515Y-96507516D01*
X118031266Y-96591697D01*
X118016500Y-96665930D01*
X118016500Y-98416063D01*
X92380300Y-98416063D01*
X92380300Y-96113100D01*
X92400302Y-96044979D01*
X92453958Y-95998486D01*
X92506300Y-95987100D01*
X123088900Y-95987100D01*
X123157021Y-96007102D01*
G37*
%TD.AperFunction*%
%TD*%
%TA.AperFunction,Conductor*%
%TO.N,Net-(U1-EN)*%
G36*
X104271050Y-110219528D02*
G01*
X104277359Y-110225883D01*
X104277416Y-110226027D01*
X104312145Y-110314041D01*
X104340376Y-110385548D01*
X104340381Y-110385559D01*
X104370497Y-110444190D01*
X104370501Y-110444195D01*
X104415258Y-110504649D01*
X104415261Y-110504652D01*
X104415264Y-110504656D01*
X104479663Y-110573342D01*
X104482822Y-110581721D01*
X104479401Y-110589617D01*
X104315817Y-110753201D01*
X104307544Y-110756628D01*
X104299542Y-110753463D01*
X104230856Y-110689064D01*
X104230852Y-110689061D01*
X104230849Y-110689058D01*
X104170395Y-110644301D01*
X104170390Y-110644297D01*
X104111759Y-110614181D01*
X104111748Y-110614176D01*
X104040241Y-110585945D01*
X103952227Y-110551216D01*
X103945789Y-110544992D01*
X103945638Y-110536039D01*
X103945695Y-110535895D01*
X103958502Y-110504656D01*
X104035836Y-110316021D01*
X104042143Y-110309668D01*
X104262095Y-110219495D01*
X104271050Y-110219528D01*
G37*
%TD.AperFunction*%
%TD*%
%TA.AperFunction,Conductor*%
%TO.N,+5V*%
G36*
X97002115Y-100090985D02*
G01*
X97010383Y-100094422D01*
X97013800Y-100102699D01*
X97013785Y-100103270D01*
X96994698Y-100484390D01*
X96994623Y-100485075D01*
X96947688Y-100762030D01*
X96947615Y-100762391D01*
X96891538Y-101000896D01*
X96891539Y-101000895D01*
X96844517Y-101278359D01*
X96825357Y-101660981D01*
X96821521Y-101669073D01*
X96813672Y-101672096D01*
X96327155Y-101672096D01*
X96318882Y-101668669D01*
X96315542Y-101661818D01*
X96280400Y-101374783D01*
X96280399Y-101374781D01*
X96280399Y-101374778D01*
X96177462Y-101185971D01*
X96017380Y-101047818D01*
X95940901Y-100994328D01*
X95809778Y-100902620D01*
X95809330Y-100902273D01*
X95572968Y-100700254D01*
X95568906Y-100692274D01*
X95571676Y-100683758D01*
X95572275Y-100683109D01*
X96160967Y-100093437D01*
X96169233Y-100090005D01*
X97002115Y-100090985D01*
G37*
%TD.AperFunction*%
%TD*%
%TA.AperFunction,Conductor*%
%TO.N,Net-(U1-EN)*%
G36*
X108924113Y-111332929D02*
G01*
X108924174Y-111333071D01*
X109015909Y-111552283D01*
X109015942Y-111561238D01*
X109015909Y-111561317D01*
X108924174Y-111780528D01*
X108917819Y-111786837D01*
X108908864Y-111786804D01*
X108908722Y-111786743D01*
X108821928Y-111749064D01*
X108751414Y-111718467D01*
X108751397Y-111718461D01*
X108688635Y-111698296D01*
X108688626Y-111698293D01*
X108614235Y-111687197D01*
X108614220Y-111687195D01*
X108520123Y-111684164D01*
X108511965Y-111680472D01*
X108508800Y-111672470D01*
X108508800Y-111441129D01*
X108512227Y-111432856D01*
X108520122Y-111429435D01*
X108614227Y-111426403D01*
X108680064Y-111416581D01*
X108688626Y-111415304D01*
X108688626Y-111415303D01*
X108688632Y-111415303D01*
X108751403Y-111395136D01*
X108821928Y-111364534D01*
X108908722Y-111326855D01*
X108917675Y-111326705D01*
X108924113Y-111332929D01*
G37*
%TD.AperFunction*%
%TD*%
%TA.AperFunction,Conductor*%
%TO.N,+3V3*%
G36*
X112882116Y-106604690D02*
G01*
X113101328Y-106696425D01*
X113107637Y-106702780D01*
X113107604Y-106711735D01*
X113107543Y-106711877D01*
X113069864Y-106798670D01*
X113039267Y-106869184D01*
X113039261Y-106869201D01*
X113019096Y-106931963D01*
X113019093Y-106931972D01*
X113007997Y-107006363D01*
X113007995Y-107006378D01*
X113004965Y-107100477D01*
X113001274Y-107108635D01*
X112993271Y-107111800D01*
X112761929Y-107111800D01*
X112753656Y-107108373D01*
X112750235Y-107100477D01*
X112747203Y-107006378D01*
X112747203Y-107006372D01*
X112736103Y-106931967D01*
X112715936Y-106869196D01*
X112685334Y-106798670D01*
X112647656Y-106711877D01*
X112647505Y-106702924D01*
X112653729Y-106696486D01*
X112653823Y-106696445D01*
X112873083Y-106604689D01*
X112882037Y-106604657D01*
X112882116Y-106604690D01*
G37*
%TD.AperFunction*%
%TD*%
%TA.AperFunction,Conductor*%
%TO.N,+3V3*%
G36*
X111883944Y-112296827D02*
G01*
X111887365Y-112304723D01*
X111890395Y-112398820D01*
X111890397Y-112398835D01*
X111901493Y-112473226D01*
X111901496Y-112473235D01*
X111921661Y-112535997D01*
X111921667Y-112536014D01*
X111952264Y-112606528D01*
X111989943Y-112693322D01*
X111990094Y-112702275D01*
X111983870Y-112708713D01*
X111983728Y-112708774D01*
X111764516Y-112800509D01*
X111755561Y-112800542D01*
X111755482Y-112800509D01*
X111536271Y-112708774D01*
X111529962Y-112702419D01*
X111529995Y-112693464D01*
X111530056Y-112693322D01*
X111567734Y-112606528D01*
X111598331Y-112536014D01*
X111598336Y-112536003D01*
X111618503Y-112473232D01*
X111629603Y-112398827D01*
X111632635Y-112304722D01*
X111636327Y-112296565D01*
X111644329Y-112293400D01*
X111875671Y-112293400D01*
X111883944Y-112296827D01*
G37*
%TD.AperFunction*%
%TD*%
M02*
